<!-- Generator: Adobe Illustrator 25.2.1, SVG Export Plug-In  -->
<svg version="1.1" xmlns="http://www.w3.org/2000/svg" xmlns:xlink="http://www.w3.org/1999/xlink" x="0px" y="0px"
	 width="180.477px" height="52.305px" viewBox="0 0 180.477 52.305"
	 style="overflow:visible;enable-background:new 0 0 180.477 52.305;" xml:space="preserve">
<defs>
</defs>
<g>
	<g>
		<g>
			<path d="M123.025,37.298c0-0.017,0.001-0.033,0.001-0.05c0.084-2.806,2.486-4.994,5.293-4.989
				c1.663,0.003,3.326-0.018,4.97-0.194c3.633-0.389,6.54-2.097,8.182-5.501c2.279-4.724-0.266-9.565-5.424-10.454
				c-3.866-0.667-7.335,0.38-10.376,2.671c-6.255,4.712-9.689,11.056-10.175,18.873c-0.327,5.263,3.154,9.306,8.151,10.824
				c6.181,1.877,11.962,1.261,17.14-2.197c0.229-0.153-0.365-0.291-0.365-0.567v-4.92c0-0.706-1.017-0.494-1.613-0.116
				C127.789,47.667,122.939,40.912,123.025,37.298z M133.894,22.253c1.604-0.014,2.417,1.576,1.581,2.957
				c-0.787,1.299-5.943,2.395-7.478,2.328c-0.211-0.009-0.343-0.227-0.267-0.424C128.18,25.938,130.152,22.285,133.894,22.253z"/>
			<path d="M117.276,30.642c-1.38,6.096-5.245,9.712-6.34,9.587c0.047-4.781-1.555-8.58-2.85-12.885
				c-0.339-1.127-0.685-2.261-0.887-3.416c-0.081-0.462,0.087-1.14,0.372-1.512c1.666-2.169,1.6-5.087-0.235-6.729
				c-1.944-1.739-5.139-1.653-6.918,0.41c-0.985,1.142-1.742,2.548-2.339,3.948c-2.279,5.34-4.402,10.746-6.693,16.08
				c-0.697,1.624-1.605,3.207-2.686,4.6c-0.695,0.895-1.768,1.647-2.833,2.081c-1.709,0.696-3.649-0.532-3.67-2.377
				c-0.009-0.817,0.244-1.658,0.555-2.431c2.171-5.385,4.385-10.753,6.536-16.146c0.339-0.85,0.6-1.8,0.601-2.704
				c0.003-2.978-2.878-4.671-5.493-3.251c-0.769,0.417-1.409,1.072-2.192,1.684c-2.002-2.361-9.874-3.116-15.15,2.653
				c-3.553,3.885-6.21,8.25-7.958,13.149c-0.571,1.601-1.172,3.219-1.998,4.696c-0.4,0.715-4.871,5.677-13.88,5.347
				c-3.764-0.138-5.678-2.951-5.588-6.707c0-0.017,0.001-0.035,0.001-0.052c0.087-2.917,2.584-5.191,5.501-5.185
				c1.728,0.003,3.457-0.018,5.166-0.201c3.776-0.404,6.798-2.18,8.504-5.717c2.369-4.911-0.277-9.942-5.638-10.866
				c-4.018-0.693-7.624,0.395-10.785,2.777c-6.501,4.898-10.071,11.491-10.576,19.617c-0.34,5.47,2.546,9.704,7.706,11.389
				c11.28,3.685,20.69-4.312,20.878-4.485c1.192,3.564,3.578,5.352,7.13,5.516c3.369,0.155,6.094-1.349,8.478-3.574
				c3.778,4.888,12.656,4.78,17.672-0.286c3.686,3.445,8.062,4.67,13.028,3.904c4.681-0.722,9.087-3.613,12.248-7.119l2.76-16.8
				C118.779,27.221,117.692,28.805,117.276,30.642z M42.52,26.133c0.469-1.223,2.519-5.019,6.408-5.053
				c1.667-0.014,2.512,1.638,1.643,3.073c-0.818,1.35-6.177,2.489-7.773,2.42C42.578,26.564,42.441,26.338,42.52,26.133z
				 M79.23,24.763c-0.72,1.785-7.181,15.733-9.357,17.072c-2.442,1.503-4.239,0.142-4.32-2.066
				c-0.188-5.072,2.97-11.913,7.514-15.591C77.575,21.172,79.864,23.191,79.23,24.763z M101.715,42.185
				c-1.677,1.175-3.356,0.42-4.904-0.492c-1.702-1.003-1.645-1.013-0.837-2.9c1.563-3.649,3.076-7.321,4.673-11.135
				c0.809,3.416,1.624,6.631,2.317,9.872C103.331,39.245,103.332,41.052,101.715,42.185z"/>
			<path d="M174.184,32.198c-0.929,2.078-1.792,4.191-2.829,6.215c-0.829,1.617-2.033,2.986-3.734,3.78
				c-2.466,1.151-4.474-0.232-4.213-2.923c0.071-0.733,0.33-1.467,0.607-2.159c1.598-4,3.242-7.981,4.84-11.981
				c1.637-4.1,0.641-6.454-3.439-8.211c-2.343-1.009-4.679-2.039-7.048-2.985c-0.771-0.308-1.038-0.683-1.07-1.537
				c-0.107-2.798-1.76-4.662-4.267-5.007c-2.687-0.37-5.382,1.692-6.059,4.318c-0.492,1.907-0.301,3.845,1.122,5.232
				c1.64,1.599,1.32,2.898,0.472,4.519c-0.309,0.59-0.507,1.237-0.766,1.855c-1.663,3.972-3.116,8.05-5.046,11.887
				c-1.837,3.653-5.299,6.927-8.78,8.006l0.674,5.754c5.036-1.356,10.51-4.328,13.498-10.152c1.18-2.3,2.077-4.747,3.055-7.147
				c1.386-3.402,2.726-6.822,4.071-10.198c0.195,0,0.289-0.026,0.359,0.004c1.038,0.443,1.239,0.58,2.272,1.036
				c2.284,1.007,2.373,1.284,1.462,3.594c-1.672,4.24-3.477,8.437-4.928,12.752c-1.375,4.087,0.846,8.535,4.951,9.853
				c5.483,1.76,11.465-0.326,15.127-5.281c1.987-2.69,3.342-5.694,4.546-8.766L174.184,32.198z"/>
		</g>
		<path d="M171.473,33.087l6.485-3.673c0.667-0.378,1.505,0.043,1.599,0.805l0.912,7.397c0.105,0.854-0.784,1.48-1.552,1.093
			l-7.397-3.724C170.751,34.599,170.724,33.511,171.473,33.087z"/>
	</g>
	<path d="M34.694,10.862c1.423-2.38,3.743-3.417,6.516-3.414c0.602,0.001,14.709-0.068,15.307-0.126
		c2.018-0.195,3.606-1.087,4.459-2.997c0.836-1.872,0.037-3.609-1.926-4.16c-0.682-0.191-14.926-0.144-15.64-0.146
		c-8.147-0.016-16.295-0.043-24.442,0.014c-1.996,0.014-4.016,0.181-5.981,0.528C9.15,1.24,5.698,2.775,3.049,5.762
		c-3.355,3.784-4.014,9.058-1.615,13.064c1.604,2.678,3.964,4.141,7.126,4.179c1.607,0.019,2.763-0.848,3.24-2.363
		c0.482-1.53,0.089-2.7-1.246-3.679c-0.323-0.237-0.647-0.481-0.996-0.674c-1.243-0.687-1.709-1.832-1.923-2.985
		c-0.405-2.179,1.426-5.511,5.228-5.684c5.508-0.25,10.514-0.25,16.022-0.25c0.03,0.158-2.385,1.033-6.47,10.372
		c-4.176,9.548-7.972,19.259-11.925,28.902c-0.239,0.582-0.377,1.235-0.414,1.864c-0.14,2.355,1.399,3.894,3.756,3.795
		c1.502-0.063,2.714-0.759,3.567-1.956c0.551-0.774,0.987-1.652,1.35-2.535c4.025-9.787,7.981-19.603,12.064-29.365
		C31.906,15.83,33.24,13.295,34.694,10.862z"/>
</g>
</svg>