<?xml version="1.0" standalone="no"?>
<!DOCTYPE svg PUBLIC "-//W3C//DTD SVG 1.1//EN" "http://www.w3.org/Graphics/SVG/1.1/DTD/svg11.dtd" >
<svg xmlns="http://www.w3.org/2000/svg" xmlns:xlink="http://www.w3.org/1999/xlink" version="1.1">
<metadata>
Created by FontForge 20170812 at Wed Nov 15 18:26:50 2017
 By www-data
Copyright \(c\) 2017 by Estudio Calderon. All rights reserved.
</metadata>
<defs>
<font id="MeltsScript-Roman" horiz-adv-x="269" >
  <font-face 
    font-family="Melts Script Roman"
    font-weight="400"
    font-style="italic"
    font-stretch="normal"
    units-per-em="1000"
    panose-1="0 0 5 0 0 0 0 0 0 0"
    ascent="800"
    descent="-200"
    x-height="549"
    cap-height="800"
    bbox="-2599 -711 1458 1166.52"
    underline-thickness="50"
    underline-position="-100"
    slope="-22.1"
    unicode-range="U+0020-E133"
  />
<missing-glyph horiz-adv-x="821" 
d="M941 719c20 48 -3 81 -55 81h-384c-40 0 -66 -16 -81 -54l-266 -658c-20 -48 3 -81 55 -81h383c40 0 66 16 81 54zM449 560c0 57 43 116 138 116c106 0 160 -64 160 -139c0 -146 -199 -163 -199 -224c0 -24 -16 -38 -31 -38c-14 0 -29 9 -29 38c0 85 147 156 147 223
c0 42 -30 61 -58 61c-19 0 -41 -9 -50 -23c7 1 15 3 19 3c24 0 40 -22 40 -42c0 -38 -29 -59 -60 -59c-38 0 -77 26 -77 84zM463 94c-33 0 -62 25 -62 59c0 38 29 67 62 67c37 0 65 -29 65 -67c0 -34 -28 -59 -65 -59z" />
    <glyph glyph-name="T_h" unicode="Th" horiz-adv-x="1207" 
d="M1328 327c26 -8 35 -29 24 -57c-10 -26 -20 -50 -31 -76c-56 -132 -123 -194 -237 -194c-79 0 -142 48 -142 117c0 31 14 70 56 172c21 51 40 98 40 115c0 20 -9 33 -34 33s-50 -14 -75 -49l-98 -240l-36 -87c-18 -44 -50 -61 -78 -61c-32 0 -59 21 -59 57
c0 11 2 22 7 35l23 56l208 511c-27 2 -56 6 -87 10c-84 -8 -107 -50 -181 -229l-140 -344l-36 -87c-18 -44 -50 -61 -78 -61c-32 0 -59 21 -59 57c0 11 2 22 7 35l23 56l140 343c62 146 107 218 184 250c-51 7 -102 12 -148 12c-149 0 -245 -29 -245 -114
c0 -62 71 -50 71 -104c0 -32 -22 -58 -55 -58c-85 0 -140 74 -140 154c0 172 173 243 369 243c207 0 364 -63 448 -31c5 2 9 3 13 4c6 3 12 4 18 5c88 15 102 -73 49 -118l-63 -154c31 19 64 28 94 28c63 0 114 -38 114 -104c0 -29 -26 -96 -53 -163
c-28 -66 -41 -101 -46 -113c-14 -39 2 -72 36 -72c33 0 74 32 104 104c6 13 16 38 37 89c12 28 30 38 56 30z" />
    <glyph glyph-name="T_i" unicode="Ti" horiz-adv-x="928" 
d="M809 679c-83 -9 -109 -52 -185 -239l-140 -344l-36 -87c-18 -44 -50 -61 -78 -61c-32 0 -59 21 -59 57c0 11 2 22 7 35l23 56l140 343c51 124 91 198 146 240h-181c-118 0 -174 -30 -174 -92s71 -50 71 -104c0 -32 -22 -58 -55 -58c-85 0 -140 74 -140 154
c0 103 88 220 304 221h500c44 0 64 -23 64 -49c0 -33 -33 -72 -84 -72h-123zM1049 327c26 -8 35 -29 24 -57c-10 -26 -20 -50 -31 -76c-56 -132 -123 -194 -237 -194c-79 0 -142 48 -142 117c0 31 14 70 56 172l78 192c20 48 51 68 80 68c31 0 58 -25 58 -62
c0 -12 -2 -24 -8 -38l-9 -22l-56 -138c-28 -66 -41 -101 -46 -113c-14 -39 2 -72 36 -72c33 0 74 32 104 104c6 13 16 38 37 89c12 28 30 38 56 30z" />
    <glyph glyph-name="i_d" unicode="id" horiz-adv-x="814" 
d="M1033 867c112 0 166 -65 166 -133c0 -75 -66 -155 -193 -155c-43 0 -87 7 -132 19c-1 -4 -3 -7 -4 -10c-64 -159 -159 -389 -167 -412c-15 -39 2 -72 36 -72c43 0 75 32 105 104c5 13 14 38 36 89c12 28 30 38 57 30c25 -8 35 -29 23 -57l-32 -76
c-56 -132 -128 -194 -236 -194c-54 0 -101 22 -125 59c-39 -40 -86 -59 -128 -59c-64 0 -102 32 -120 81c-44 -55 -99 -81 -173 -81c-79 0 -142 48 -142 117c0 31 14 70 56 172l78 192c20 48 51 68 80 68c31 0 58 -25 58 -62c0 -12 -2 -24 -8 -38l-9 -22l-56 -138
c-28 -66 -41 -101 -46 -113c-14 -39 2 -72 36 -72c33 0 74 32 104 104c5 11 14 32 30 72c42 138 150 276 279 276c38 0 75 -17 92 -43l49 119c1 2 2 4 2 6c-155 59 -309 141 -417 141c-48 0 -71 -14 -83 -35c-5 -9 -7 -17 -7 -26s3 -18 8 -26c2 -3 4 -5 6 -5c4 0 6 4 6 12
c0 27 24 50 52 50c34 0 67 -29 67 -67c0 -47 -44 -88 -94 -88c-67 0 -128 63 -128 135c0 98 78 184 191 184c138 0 306 -99 462 -164c58 77 133 118 221 118zM1026 694c30 0 47 14 47 29c0 14 -17 29 -56 29c-32 0 -58 -13 -84 -45c32 -8 63 -13 93 -13zM487 120
c26 0 61 25 88 91l20 48l62 152c-3 19 -14 33 -35 33c-84 0 -171 -178 -171 -270c0 -33 11 -54 36 -54z" />
    <glyph glyph-name="t_t" unicode="tt" horiz-adv-x="569" 
d="M692 327c18 -6 28 -18 28 -35c0 -7 -1 -14 -5 -22c-12 -26 -29 -68 -39 -94c-54 -126 -152 -176 -236 -176c-56 0 -106 23 -132 60c-48 -42 -104 -60 -154 -60c-81 0 -150 47 -150 117c0 32 19 79 44 142l12 30l69 170h-3c-35 0 -51 19 -51 39c0 24 23 51 65 51h26l16 40
l22 54c20 48 51 68 80 68c31 0 58 -25 58 -62c0 -12 -2 -24 -8 -38l-9 -22l-16 -40h143l16 40l22 54c20 48 51 68 80 68c31 0 58 -25 58 -62c0 -12 -2 -24 -8 -38l-9 -22l-16 -40h5c37 0 54 -19 54 -39c0 -25 -24 -51 -67 -51h-29l-115 -283c-3 -9 -5 -17 -5 -25
c0 -27 21 -47 49 -47c35 0 80 29 112 104c5 13 14 38 36 89c9 22 23 32 41 32c4 0 9 0 16 -2zM201 104c35 0 80 29 112 104c5 13 14 38 36 89l3 6l63 156h-143l-115 -283c-3 -9 -5 -17 -5 -25c0 -27 21 -47 49 -47z" />
    <glyph glyph-name=".notdef" horiz-adv-x="821" 
d="M941 719c20 48 -3 81 -55 81h-384c-40 0 -66 -16 -81 -54l-266 -658c-20 -48 3 -81 55 -81h383c40 0 66 16 81 54zM449 560c0 57 43 116 138 116c106 0 160 -64 160 -139c0 -146 -199 -163 -199 -224c0 -24 -16 -38 -31 -38c-14 0 -29 9 -29 38c0 85 147 156 147 223
c0 42 -30 61 -58 61c-19 0 -41 -9 -50 -23c7 1 15 3 19 3c24 0 40 -22 40 -42c0 -38 -29 -59 -60 -59c-38 0 -77 26 -77 84zM463 94c-33 0 -62 25 -62 59c0 38 29 67 62 67c37 0 65 -29 65 -67c0 -34 -28 -59 -65 -59z" />
    <glyph glyph-name="A" unicode="A" horiz-adv-x="873" 
d="M996 327c18 -6 27 -18 27 -35c0 -7 0 -14 -4 -22c-18 -45 -28 -69 -39 -94c-56 -133 -128 -195 -236 -195c-79 0 -145 48 -145 117c0 32 19 79 44 142l12 31h-143l-75 -131c-60 -111 -152 -159 -236 -159c-102 0 -191 69 -191 180c0 110 97 231 281 231h145l171 287
c54 85 120 122 184 122c92 0 141 -50 141 -135c0 -39 -10 -84 -30 -136l-140 -357c-4 -10 -11 -33 -11 -41c0 -26 16 -45 41 -45c42 0 74 33 105 105c5 13 13 35 42 105c9 22 22 32 40 32c5 0 10 0 17 -2zM582 392h122l53 132c23 54 49 110 49 141c0 14 -5 23 -19 25
c-18 3 -43 -18 -69 -60zM209 108c55 0 72 20 155 163h-49c-128 0 -172 -50 -172 -95c0 -36 29 -68 66 -68z" />
    <glyph glyph-name="Aacute" unicode="&#xc1;" horiz-adv-x="873" 
d="M844 863c-21 0 -37 14 -37 35c0 8 3 19 10 30l66 103c18 28 41 40 62 40c30 0 55 -23 55 -51c0 -15 -7 -32 -24 -48l-91 -90c-13 -14 -27 -19 -41 -19zM996 327c18 -6 27 -18 27 -35c0 -7 0 -14 -4 -22c-18 -45 -28 -69 -39 -94c-56 -133 -128 -195 -236 -195
c-79 0 -145 48 -145 117c0 32 19 79 44 142l12 31h-143l-75 -131c-60 -111 -152 -159 -236 -159c-102 0 -191 69 -191 180c0 110 97 231 281 231h145l171 287c54 85 120 122 184 122c92 0 141 -50 141 -135c0 -39 -10 -84 -30 -136l-140 -357c-4 -10 -11 -33 -11 -41
c0 -26 16 -45 41 -45c42 0 74 33 105 105c5 13 13 35 42 105c9 22 22 32 40 32c5 0 10 0 17 -2zM582 392h122l53 132c23 54 49 110 49 141c0 14 -5 23 -19 25c-18 3 -43 -18 -69 -60zM209 108c55 0 72 20 155 163h-49c-128 0 -172 -50 -172 -95c0 -36 29 -68 66 -68z" />
    <glyph glyph-name="Abreve" unicode="&#x102;" horiz-adv-x="873" 
d="M843 859c-66 0 -125 37 -125 110c0 9 1 18 3 29c7 36 35 53 59 53c21 0 37 -11 37 -36c0 -3 0 -7 -1 -11c-2 -7 -2 -13 -2 -18c0 -27 17 -41 36 -41c26 0 58 20 74 56c15 33 39 47 60 47c22 0 40 -16 40 -40c0 -4 -1 -9 -2 -13c-24 -92 -106 -136 -179 -136zM996 327
c18 -6 27 -18 27 -35c0 -7 0 -14 -4 -22c-18 -45 -28 -69 -39 -94c-56 -133 -128 -195 -236 -195c-79 0 -145 48 -145 117c0 32 19 79 44 142l12 31h-143l-75 -131c-60 -111 -152 -159 -236 -159c-102 0 -191 69 -191 180c0 110 97 231 281 231h145l171 287
c54 85 120 122 184 122c92 0 141 -50 141 -135c0 -39 -10 -84 -30 -136l-140 -357c-4 -10 -11 -33 -11 -41c0 -26 16 -45 41 -45c42 0 74 33 105 105c5 13 13 35 42 105c9 22 22 32 40 32c5 0 10 0 17 -2zM582 392h122l53 132c23 54 49 110 49 141c0 14 -5 23 -19 25
c-18 3 -43 -18 -69 -60zM209 108c55 0 72 20 155 163h-49c-128 0 -172 -50 -172 -95c0 -36 29 -68 66 -68z" />
    <glyph glyph-name="uni01CD" unicode="&#x1cd;" horiz-adv-x="873" 
d="M783 892l-55 93c-41 69 47 121 91 40l25 -46l77 68c68 59 126 -23 70 -66l-132 -103c-29 -23 -57 -19 -76 14zM996 327c18 -6 27 -18 27 -35c0 -7 0 -14 -4 -22c-18 -45 -28 -69 -39 -94c-56 -133 -128 -195 -236 -195c-79 0 -145 48 -145 117c0 32 19 79 44 142l12 31
h-143l-75 -131c-60 -111 -152 -159 -236 -159c-102 0 -191 69 -191 180c0 110 97 231 281 231h145l171 287c54 85 120 122 184 122c92 0 141 -50 141 -135c0 -39 -10 -84 -30 -136l-140 -357c-4 -10 -11 -33 -11 -41c0 -26 16 -45 41 -45c42 0 74 33 105 105
c5 13 13 35 42 105c9 22 22 32 40 32c5 0 10 0 17 -2zM582 392h122l53 132c23 54 49 110 49 141c0 14 -5 23 -19 25c-18 3 -43 -18 -69 -60zM209 108c55 0 72 20 155 163h-49c-128 0 -172 -50 -172 -95c0 -36 29 -68 66 -68z" />
    <glyph glyph-name="Acircumflex" unicode="&#xc2;" horiz-adv-x="873" 
d="M796 885c-67 -60 -125 22 -69 65l131 103c30 23 58 19 77 -14l55 -93c40 -69 -47 -121 -91 -40l-26 47zM996 327c18 -6 27 -18 27 -35c0 -7 0 -14 -4 -22c-18 -45 -28 -69 -39 -94c-56 -133 -128 -195 -236 -195c-79 0 -145 48 -145 117c0 32 19 79 44 142l12 31h-143
l-75 -131c-60 -111 -152 -159 -236 -159c-102 0 -191 69 -191 180c0 110 97 231 281 231h145l171 287c54 85 120 122 184 122c92 0 141 -50 141 -135c0 -39 -10 -84 -30 -136l-140 -357c-4 -10 -11 -33 -11 -41c0 -26 16 -45 41 -45c42 0 74 33 105 105c5 13 13 35 42 105
c9 22 22 32 40 32c5 0 10 0 17 -2zM582 392h122l53 132c23 54 49 110 49 141c0 14 -5 23 -19 25c-18 3 -43 -18 -69 -60zM209 108c55 0 72 20 155 163h-49c-128 0 -172 -50 -172 -95c0 -36 29 -68 66 -68z" />
    <glyph glyph-name="Adieresis" unicode="&#xc4;" horiz-adv-x="873" 
d="M786 870c-38 0 -69 31 -69 69s31 69 69 69s68 -31 68 -69s-30 -69 -68 -69zM965 870c-38 0 -69 31 -69 69s31 69 69 69s68 -31 68 -69s-30 -69 -68 -69zM996 327c18 -6 27 -18 27 -35c0 -7 0 -14 -4 -22c-18 -45 -28 -69 -39 -94c-56 -133 -128 -195 -236 -195
c-79 0 -145 48 -145 117c0 32 19 79 44 142l12 31h-143l-75 -131c-60 -111 -152 -159 -236 -159c-102 0 -191 69 -191 180c0 110 97 231 281 231h145l171 287c54 85 120 122 184 122c92 0 141 -50 141 -135c0 -39 -10 -84 -30 -136l-140 -357c-4 -10 -11 -33 -11 -41
c0 -26 16 -45 41 -45c42 0 74 33 105 105c5 13 13 35 42 105c9 22 22 32 40 32c5 0 10 0 17 -2zM582 392h122l53 132c23 54 49 110 49 141c0 14 -5 23 -19 25c-18 3 -43 -18 -69 -60zM209 108c55 0 72 20 155 163h-49c-128 0 -172 -50 -172 -95c0 -36 29 -68 66 -68z" />
    <glyph glyph-name="uni1EA0" unicode="&#x1ea0;" horiz-adv-x="873" 
d="M996 327c18 -6 27 -18 27 -35c0 -7 0 -14 -4 -22c-18 -45 -28 -69 -39 -94c-56 -133 -128 -195 -236 -195c-79 0 -145 48 -145 117c0 32 19 79 44 142l12 31h-143l-75 -131c-60 -111 -152 -159 -236 -159c-102 0 -191 69 -191 180c0 110 97 231 281 231h145l171 287
c54 85 120 122 184 122c92 0 141 -50 141 -135c0 -39 -10 -84 -30 -136l-140 -357c-4 -10 -11 -33 -11 -41c0 -26 16 -45 41 -45c42 0 74 33 105 105c5 13 13 35 42 105c9 22 22 32 40 32c5 0 10 0 17 -2zM582 392h122l53 132c23 54 49 110 49 141c0 14 -5 23 -19 25
c-18 3 -43 -18 -69 -60zM209 108c55 0 72 20 155 163h-49c-128 0 -172 -50 -172 -95c0 -36 29 -68 66 -68zM409 -78c38 0 68 -31 68 -69s-30 -69 -68 -69s-69 31 -69 69s31 69 69 69z" />
    <glyph glyph-name="Agrave" unicode="&#xc0;" horiz-adv-x="873" 
d="M828 875l-91 90c-16 16 -23 33 -23 48c0 28 25 51 54 51c21 0 45 -12 63 -40l65 -103c7 -11 10 -22 10 -30c0 -21 -16 -35 -37 -35c-13 0 -28 5 -41 19zM996 327c18 -6 27 -18 27 -35c0 -7 0 -14 -4 -22c-18 -45 -28 -69 -39 -94c-56 -133 -128 -195 -236 -195
c-79 0 -145 48 -145 117c0 32 19 79 44 142l12 31h-143l-75 -131c-60 -111 -152 -159 -236 -159c-102 0 -191 69 -191 180c0 110 97 231 281 231h145l171 287c54 85 120 122 184 122c92 0 141 -50 141 -135c0 -39 -10 -84 -30 -136l-140 -357c-4 -10 -11 -33 -11 -41
c0 -26 16 -45 41 -45c42 0 74 33 105 105c5 13 13 35 42 105c9 22 22 32 40 32c5 0 10 0 17 -2zM582 392h122l53 132c23 54 49 110 49 141c0 14 -5 23 -19 25c-18 3 -43 -18 -69 -60zM209 108c55 0 72 20 155 163h-49c-128 0 -172 -50 -172 -95c0 -36 29 -68 66 -68z" />
    <glyph glyph-name="uni0202" unicode="&#x202;" horiz-adv-x="873" 
d="M761 872c-21 0 -40 12 -40 36c0 4 1 8 2 13c24 92 104 130 176 130c65 0 125 -41 125 -112c0 -53 -32 -80 -60 -80c-21 0 -40 16 -40 48c0 5 1 11 2 17c4 26 -16 40 -41 40c-27 0 -58 -16 -67 -49c-8 -28 -34 -43 -57 -43zM996 327c18 -6 27 -18 27 -35
c0 -7 0 -14 -4 -22c-18 -45 -28 -69 -39 -94c-56 -133 -128 -195 -236 -195c-79 0 -145 48 -145 117c0 32 19 79 44 142l12 31h-143l-75 -131c-60 -111 -152 -159 -236 -159c-102 0 -191 69 -191 180c0 110 97 231 281 231h145l171 287c54 85 120 122 184 122
c92 0 141 -50 141 -135c0 -39 -10 -84 -30 -136l-140 -357c-4 -10 -11 -33 -11 -41c0 -26 16 -45 41 -45c42 0 74 33 105 105c5 13 13 35 42 105c9 22 22 32 40 32c5 0 10 0 17 -2zM582 392h122l53 132c23 54 49 110 49 141c0 14 -5 23 -19 25c-18 3 -43 -18 -69 -60z
M209 108c55 0 72 20 155 163h-49c-128 0 -172 -50 -172 -95c0 -36 29 -68 66 -68z" />
    <glyph glyph-name="Amacron" unicode="&#x100;" horiz-adv-x="873" 
d="M776 883c-78 0 -66 99 13 99h140c82 0 66 -99 -14 -99h-139zM996 327c18 -6 27 -18 27 -35c0 -7 0 -14 -4 -22c-18 -45 -28 -69 -39 -94c-56 -133 -128 -195 -236 -195c-79 0 -145 48 -145 117c0 32 19 79 44 142l12 31h-143l-75 -131c-60 -111 -152 -159 -236 -159
c-102 0 -191 69 -191 180c0 110 97 231 281 231h145l171 287c54 85 120 122 184 122c92 0 141 -50 141 -135c0 -39 -10 -84 -30 -136l-140 -357c-4 -10 -11 -33 -11 -41c0 -26 16 -45 41 -45c42 0 74 33 105 105c5 13 13 35 42 105c9 22 22 32 40 32c5 0 10 0 17 -2z
M582 392h122l53 132c23 54 49 110 49 141c0 14 -5 23 -19 25c-18 3 -43 -18 -69 -60zM209 108c55 0 72 20 155 163h-49c-128 0 -172 -50 -172 -95c0 -36 29 -68 66 -68z" />
    <glyph glyph-name="Aogonek" unicode="&#x104;" horiz-adv-x="873" 
d="M996 327c18 -6 27 -18 27 -35c0 -7 0 -14 -4 -22c-18 -45 -28 -69 -39 -94c-39 -93 -87 -152 -149 -178c-46 -39 -71 -78 -71 -102c0 -15 10 -24 30 -24c11 0 26 3 44 8c67 19 86 -59 35 -83c-41 -19 -78 -28 -109 -28c-69 0 -114 40 -114 96c0 36 19 78 63 119
c-63 12 -110 56 -110 114c0 32 19 79 44 142l12 31h-143l-75 -131c-60 -111 -152 -159 -236 -159c-102 0 -191 69 -191 180c0 110 97 231 281 231h145l171 287c54 85 120 122 184 122c92 0 141 -50 141 -135c0 -39 -10 -84 -30 -136l-140 -357c-4 -10 -11 -33 -11 -41
c0 -26 16 -45 41 -45c42 0 74 33 105 105c5 13 13 35 42 105c9 22 22 32 40 32c5 0 10 0 17 -2zM582 392h122l53 132c23 54 49 110 49 141c0 14 -5 23 -19 25c-18 3 -43 -18 -69 -60zM209 108c55 0 72 20 155 163h-49c-128 0 -172 -50 -172 -95c0 -36 29 -68 66 -68z" />
    <glyph glyph-name="Aring" unicode="&#xc5;" horiz-adv-x="873" 
d="M866 860c-60 0 -107 48 -107 107c0 60 47 108 107 108c59 0 107 -48 107 -108c0 -59 -48 -107 -107 -107zM866 1002c-19 0 -35 -16 -35 -35c0 -18 16 -34 35 -34s34 16 34 34c0 19 -15 35 -34 35zM996 327c18 -6 27 -18 27 -35c0 -7 0 -14 -4 -22
c-18 -45 -28 -69 -39 -94c-56 -133 -128 -195 -236 -195c-79 0 -145 48 -145 117c0 32 19 79 44 142l12 31h-143l-75 -131c-60 -111 -152 -159 -236 -159c-102 0 -191 69 -191 180c0 110 97 231 281 231h145l171 287c54 85 120 122 184 122c92 0 141 -50 141 -135
c0 -39 -10 -84 -30 -136l-140 -357c-4 -10 -11 -33 -11 -41c0 -26 16 -45 41 -45c42 0 74 33 105 105c5 13 13 35 42 105c9 22 22 32 40 32c5 0 10 0 17 -2zM582 392h122l53 132c23 54 49 110 49 141c0 14 -5 23 -19 25c-18 3 -43 -18 -69 -60zM209 108c55 0 72 20 155 163
h-49c-128 0 -172 -50 -172 -95c0 -36 29 -68 66 -68z" />
    <glyph glyph-name="Aringacute" unicode="&#x1fa;" horiz-adv-x="873" 
d="M1088 1164c28 -9 45 -39 37 -65c-5 -15 -17 -29 -38 -39l-113 -58l-6 -3c3 -10 5 -21 5 -32c0 -59 -48 -107 -107 -107c-60 0 -107 48 -107 107c0 60 47 108 107 108c19 0 37 -5 52 -13c2 1 3 3 5 4l93 78c26 22 52 26 72 20zM866 933c19 0 34 16 34 34
c0 19 -15 35 -34 35s-35 -16 -35 -35c0 -18 16 -34 35 -34zM996 327c18 -6 27 -18 27 -35c0 -7 0 -14 -4 -22c-18 -45 -28 -69 -39 -94c-56 -133 -128 -195 -236 -195c-79 0 -145 48 -145 117c0 32 19 79 44 142l12 31h-143l-75 -131c-60 -111 -152 -159 -236 -159
c-102 0 -191 69 -191 180c0 110 97 231 281 231h145l171 287c54 85 120 122 184 122c92 0 141 -50 141 -135c0 -39 -10 -84 -30 -136l-140 -357c-4 -10 -11 -33 -11 -41c0 -26 16 -45 41 -45c42 0 74 33 105 105c5 13 13 35 42 105c9 22 22 32 40 32c5 0 10 0 17 -2z
M582 392h122l53 132c23 54 49 110 49 141c0 14 -5 23 -19 25c-18 3 -43 -18 -69 -60zM209 108c55 0 72 20 155 163h-49c-128 0 -172 -50 -172 -95c0 -36 29 -68 66 -68z" />
    <glyph glyph-name="Atilde" unicode="&#xc3;" horiz-adv-x="873" 
d="M1020 997c26 -14 32 -38 16 -65c-30 -51 -66 -75 -111 -75c-60 0 -84 51 -117 51c-7 0 -14 -2 -23 -9c-33 -28 -52 -46 -79 -32c-27 12 -33 38 -16 65c32 52 68 77 110 77c57 0 87 -52 120 -52c10 0 23 7 35 21c22 27 41 33 65 19zM996 327c18 -6 27 -18 27 -35
c0 -7 0 -14 -4 -22c-18 -45 -28 -69 -39 -94c-56 -133 -128 -195 -236 -195c-79 0 -145 48 -145 117c0 32 19 79 44 142l12 31h-143l-75 -131c-60 -111 -152 -159 -236 -159c-102 0 -191 69 -191 180c0 110 97 231 281 231h145l171 287c54 85 120 122 184 122
c92 0 141 -50 141 -135c0 -39 -10 -84 -30 -136l-140 -357c-4 -10 -11 -33 -11 -41c0 -26 16 -45 41 -45c42 0 74 33 105 105c5 13 13 35 42 105c9 22 22 32 40 32c5 0 10 0 17 -2zM582 392h122l53 132c23 54 49 110 49 141c0 14 -5 23 -19 25c-18 3 -43 -18 -69 -60z
M209 108c55 0 72 20 155 163h-49c-128 0 -172 -50 -172 -95c0 -36 29 -68 66 -68z" />
    <glyph glyph-name="uni0200" unicode="&#x200;" horiz-adv-x="873" 
d="M775 882l-75 90c-13 16 -17 33 -15 48c5 28 34 51 64 51c20 0 42 -12 55 -40l48 -103c5 -11 5 -22 4 -30c-4 -21 -22 -35 -42 -35c-14 0 -27 5 -39 19zM1020 928c5 -11 6 -22 5 -30c-4 -21 -22 -35 -43 -35c-14 0 -27 5 -39 19l-74 90c-14 16 -18 33 -16 48
c5 28 34 51 64 51c21 0 42 -12 55 -40zM996 327c18 -6 27 -18 27 -35c0 -7 0 -14 -4 -22c-18 -45 -28 -69 -39 -94c-56 -133 -128 -195 -236 -195c-79 0 -145 48 -145 117c0 32 19 79 44 142l12 31h-143l-75 -131c-60 -111 -152 -159 -236 -159c-102 0 -191 69 -191 180
c0 110 97 231 281 231h145l171 287c54 85 120 122 184 122c92 0 141 -50 141 -135c0 -39 -10 -84 -30 -136l-140 -357c-4 -10 -11 -33 -11 -41c0 -26 16 -45 41 -45c42 0 74 33 105 105c5 13 13 35 42 105c9 22 22 32 40 32c5 0 10 0 17 -2zM582 392h122l53 132
c23 54 49 110 49 141c0 14 -5 23 -19 25c-18 3 -43 -18 -69 -60zM209 108c55 0 72 20 155 163h-49c-128 0 -172 -50 -172 -95c0 -36 29 -68 66 -68z" />
    <glyph glyph-name="AE" unicode="&#xc6;" horiz-adv-x="1288" 
d="M1226 701c6 0 9 4 4 11c-14 20 -38 31 -64 31c-70 0 -113 -64 -113 -126c0 -40 18 -80 60 -98c30 -13 42 -33 42 -55c0 -28 -21 -55 -55 -55h-84c-130 0 -195 -90 -195 -174c0 -74 50 -143 151 -143c86 0 155 63 155 134c0 18 -4 36 -13 53c-6 11 -8 22 -8 33
c0 35 28 63 61 63c23 0 50 -14 70 -50c16 -29 24 -62 24 -97c0 -126 -105 -270 -310 -270c-108 0 -186 51 -229 121l-43 -107c-17 -43 -52 -62 -81 -62c-31 0 -57 20 -57 55c0 10 2 21 7 34c43 106 66 163 109 272h-145l-75 -131c-60 -111 -152 -159 -236 -159
c-102 0 -191 69 -191 180c0 110 97 231 281 231h145l171 287c54 85 120 122 184 122c89 0 137 -46 141 -127c20 87 103 166 224 166c118 0 172 -85 172 -162c0 -64 -38 -123 -109 -123c-46 0 -88 31 -88 83c0 34 25 68 66 68c8 0 15 -1 21 -3c3 -1 6 -2 8 -2zM582 392h123
l52 132c33 79 74 160 30 166c-18 3 -43 -18 -69 -60zM902 530l-15 -37c29 9 60 15 95 17c-34 31 -51 69 -54 109c-5 -27 -14 -57 -26 -89zM209 108c55 0 72 20 155 163h-49c-128 0 -172 -50 -172 -95c0 -36 29 -68 66 -68z" />
    <glyph glyph-name="AEacute" unicode="&#x1fc;" horiz-adv-x="1288" 
d="M976 860c-21 0 -37 14 -37 35c0 8 3 19 10 30l66 103c18 28 41 40 62 40c30 0 55 -23 55 -51c0 -15 -7 -32 -24 -48l-91 -90c-14 -13 -27 -19 -41 -19zM1226 701c6 0 9 4 4 11c-14 20 -38 31 -64 31c-70 0 -113 -64 -113 -126c0 -40 18 -80 60 -98c30 -13 42 -33 42 -55
c0 -28 -21 -55 -55 -55h-84c-130 0 -195 -90 -195 -174c0 -74 50 -143 151 -143c86 0 155 63 155 134c0 18 -4 36 -13 53c-6 11 -8 22 -8 33c0 35 28 63 61 63c23 0 50 -14 70 -50c16 -29 24 -62 24 -97c0 -126 -105 -270 -310 -270c-108 0 -186 51 -229 121l-43 -107
c-17 -43 -52 -62 -81 -62c-31 0 -57 20 -57 55c0 10 2 21 7 34c43 106 66 163 109 272h-145l-75 -131c-60 -111 -152 -159 -236 -159c-102 0 -191 69 -191 180c0 110 97 231 281 231h145l171 287c54 85 120 122 184 122c89 0 137 -46 141 -127c20 87 103 166 224 166
c118 0 172 -85 172 -162c0 -64 -38 -123 -109 -123c-46 0 -88 31 -88 83c0 34 25 68 66 68c8 0 15 -1 21 -3c3 -1 6 -2 8 -2zM582 392h123l52 132c33 79 74 160 30 166c-18 3 -43 -18 -69 -60zM902 530l-15 -37c29 9 60 15 95 17c-34 31 -51 69 -54 109
c-5 -27 -14 -57 -26 -89zM209 108c55 0 72 20 155 163h-49c-128 0 -172 -50 -172 -95c0 -36 29 -68 66 -68z" />
    <glyph glyph-name="B" unicode="B" horiz-adv-x="868" 
d="M703 395c84 -30 123 -98 123 -169c0 -113 -98 -245 -274 -245c-84 0 -142 27 -188 60c-46 -42 -102 -60 -175 -60c-122 0 -181 69 -181 140c0 73 63 146 182 146c56 0 99 -22 139 -51l16 39l132 325c20 48 51 68 80 68c31 0 58 -25 58 -62c0 -12 -2 -24 -8 -38l-9 -22
l-27 -66h12c110 0 174 67 174 131c0 87 -97 129 -201 129c-115 0 -226 -54 -226 -161c0 -46 23 -60 34 -77c3 -5 4 -10 4 -17c0 -22 -22 -46 -54 -46c-62 0 -110 74 -110 139c0 180 178 273 358 273c163 0 319 -76 319 -234c0 -92 -61 -180 -178 -202zM548 97
c90 0 142 74 142 138c0 59 -46 118 -149 118h-13l-59 -144c-11 -27 -23 -52 -34 -74c33 -22 69 -38 113 -38zM193 89c34 0 57 6 80 30c-30 24 -60 42 -97 42c-35 0 -53 -16 -53 -33c0 -19 23 -39 70 -39z" />
    <glyph glyph-name="C" unicode="C" horiz-adv-x="667" 
d="M776 331c22 0 42 -16 42 -41c0 -6 -1 -12 -4 -18c-92 -252 -293 -358 -442 -358c-198 0 -279 132 -279 297c0 266 214 620 473 620c112 2 166 -82 166 -159c0 -65 -39 -125 -113 -125c-49 0 -84 36 -84 83c0 39 29 68 67 68c9 0 18 -2 25 -5c10 -4 17 -1 11 8
c-13 19 -36 32 -67 31c-164 0 -336 -300 -336 -500c0 -109 49 -192 175 -192c101 0 250 73 323 258c9 23 27 33 43 33z" />
    <glyph glyph-name="Cacute" unicode="&#x106;" horiz-adv-x="667" 
d="M570 953c-7 -11 -10 -22 -10 -30c0 -21 16 -35 37 -35c14 0 28 5 41 19l91 90c17 16 24 33 24 48c0 28 -25 51 -55 51c-21 0 -44 -12 -62 -40zM776 331c22 0 42 -16 42 -41c0 -6 -1 -12 -4 -18c-92 -252 -293 -358 -442 -358c-198 0 -279 132 -279 297
c0 266 214 620 473 620c112 2 166 -82 166 -159c0 -65 -39 -125 -113 -125c-49 0 -84 36 -84 83c0 39 29 68 67 68c9 0 18 -2 25 -5c10 -4 17 -1 11 8c-13 19 -36 32 -67 31c-164 0 -336 -300 -336 -500c0 -109 49 -192 175 -192c101 0 250 73 323 258c9 23 27 33 43 33z
" />
    <glyph glyph-name="Ccaron" unicode="&#x10c;" horiz-adv-x="667" 
d="M536 917l-55 93c-41 69 47 121 91 40l25 -46l77 68c68 59 126 -23 70 -66l-132 -103c-29 -23 -57 -19 -76 14zM776 331c22 0 42 -16 42 -41c0 -6 -1 -12 -4 -18c-92 -252 -293 -358 -442 -358c-198 0 -279 132 -279 297c0 266 214 620 473 620c112 2 166 -82 166 -159
c0 -65 -39 -125 -113 -125c-49 0 -84 36 -84 83c0 39 29 68 67 68c9 0 18 -2 25 -5c10 -4 17 -1 11 8c-13 19 -36 32 -67 31c-164 0 -336 -300 -336 -500c0 -109 49 -192 175 -192c101 0 250 73 323 258c9 23 27 33 43 33z" />
    <glyph glyph-name="Ccedilla" unicode="&#xc7;" horiz-adv-x="667" 
d="M776 331c22 0 42 -16 42 -41c0 -6 -1 -12 -4 -18c-92 -252 -293 -358 -442 -358h-14l-24 -54c75 -3 115 -48 115 -93c0 -48 -47 -99 -145 -99c-38 0 -79 10 -115 33c-21 13 -31 30 -31 46c0 19 15 35 41 35c10 0 24 -2 39 -10c26 -14 56 -22 78 -22c21 0 36 7 36 23
c0 39 -111 10 -111 64c0 9 3 22 12 37l26 52c-131 35 -186 149 -186 285c0 266 214 620 473 620c112 2 166 -82 166 -159c0 -65 -39 -125 -113 -125c-49 0 -84 36 -84 83c0 39 29 68 67 68c9 0 18 -2 25 -5c10 -4 17 -1 11 8c-13 19 -36 32 -67 31
c-164 0 -336 -300 -336 -500c0 -109 49 -192 175 -192c101 0 250 73 323 258c9 23 27 33 43 33z" />
    <glyph glyph-name="Ccircumflex" unicode="&#x108;" horiz-adv-x="667" 
d="M549 910c-67 -60 -125 22 -69 65l131 103c30 23 58 19 77 -14l55 -93c40 -69 -47 -121 -91 -40l-26 47zM776 331c22 0 42 -16 42 -41c0 -6 -1 -12 -4 -18c-92 -252 -293 -358 -442 -358c-198 0 -279 132 -279 297c0 266 214 620 473 620c112 2 166 -82 166 -159
c0 -65 -39 -125 -113 -125c-49 0 -84 36 -84 83c0 39 29 68 67 68c9 0 18 -2 25 -5c10 -4 17 -1 11 8c-13 19 -36 32 -67 31c-164 0 -336 -300 -336 -500c0 -109 49 -192 175 -192c101 0 250 73 323 258c9 23 27 33 43 33z" />
    <glyph glyph-name="Cdotaccent" unicode="&#x10a;" horiz-adv-x="667" 
d="M615 895c-38 0 -69 31 -69 69s31 69 69 69s68 -31 68 -69s-30 -69 -68 -69zM776 331c22 0 42 -16 42 -41c0 -6 -1 -12 -4 -18c-92 -252 -293 -358 -442 -358c-198 0 -279 132 -279 297c0 266 214 620 473 620c112 2 166 -82 166 -159c0 -65 -39 -125 -113 -125
c-49 0 -84 36 -84 83c0 39 29 68 67 68c9 0 18 -2 25 -5c10 -4 17 -1 11 8c-13 19 -36 32 -67 31c-164 0 -336 -300 -336 -500c0 -109 49 -192 175 -192c101 0 250 73 323 258c9 23 27 33 43 33z" />
    <glyph glyph-name="D" unicode="D" horiz-adv-x="938" 
d="M559 831c246 0 366 -191 366 -391c0 -218 -141 -459 -409 -459c-64 0 -113 26 -154 58c-46 -40 -101 -58 -173 -58c-122 0 -181 69 -181 140c0 73 63 146 182 146c55 0 99 -23 138 -52c5 12 11 25 17 40l132 325c20 48 51 68 80 68c31 0 58 -25 58 -62
c0 -12 -2 -24 -8 -38l-9 -22l-129 -317c-12 -29 -24 -55 -36 -77c26 -19 54 -31 84 -31c184 0 279 179 279 336c0 144 -79 280 -240 280c-113 0 -226 -67 -226 -158c0 -46 23 -60 34 -77c3 -5 4 -10 4 -17c0 -22 -22 -46 -54 -46c-62 0 -110 74 -110 139
c0 166 177 273 355 273zM193 89c33 0 57 5 79 29c-30 25 -60 43 -96 43c-35 0 -53 -16 -53 -33c0 -19 23 -39 70 -39z" />
    <glyph glyph-name="Eth" unicode="&#xd0;" horiz-adv-x="912" 
d="M559 831c246 0 366 -191 366 -391c0 -218 -141 -459 -409 -459c-64 0 -113 26 -154 58c-46 -40 -101 -58 -173 -58c-122 0 -181 69 -181 140c0 73 63 146 182 146c55 0 99 -23 138 -52c5 12 11 25 17 40l16 39h-38c-77 0 -63 90 14 90h60l80 196c20 48 51 68 80 68
c31 0 58 -25 58 -62c0 -12 -2 -24 -8 -38l-9 -22l-59 -146c49 -17 31 -84 -35 -86l-35 -85c-12 -29 -24 -55 -36 -77c26 -19 54 -31 84 -31c184 0 279 179 279 336c0 144 -79 280 -240 280c-113 0 -226 -67 -226 -158c0 -46 23 -60 34 -77c3 -5 4 -10 4 -17
c0 -22 -22 -46 -54 -46c-62 0 -110 74 -110 139c0 166 177 273 355 273zM193 89c33 0 57 5 79 29c-30 25 -60 43 -96 43c-35 0 -53 -16 -53 -33c0 -19 23 -39 70 -39z" />
    <glyph glyph-name="Dcaron" unicode="&#x10e;" horiz-adv-x="938" 
d="M691 917l-55 93c-41 69 47 121 91 40l25 -46l77 68c68 59 126 -23 70 -66l-132 -103c-29 -23 -57 -19 -76 14zM559 831c246 0 366 -191 366 -391c0 -218 -141 -459 -409 -459c-64 0 -113 26 -154 58c-46 -40 -101 -58 -173 -58c-122 0 -181 69 -181 140
c0 73 63 146 182 146c55 0 99 -23 138 -52c5 12 11 25 17 40l132 325c20 48 51 68 80 68c31 0 58 -25 58 -62c0 -12 -2 -24 -8 -38l-9 -22l-129 -317c-12 -29 -24 -55 -36 -77c26 -19 54 -31 84 -31c184 0 279 179 279 336c0 144 -79 280 -240 280
c-113 0 -226 -67 -226 -158c0 -46 23 -60 34 -77c3 -5 4 -10 4 -17c0 -22 -22 -46 -54 -46c-62 0 -110 74 -110 139c0 166 177 273 355 273zM193 89c33 0 57 5 79 29c-30 25 -60 43 -96 43c-35 0 -53 -16 -53 -33c0 -19 23 -39 70 -39z" />
    <glyph glyph-name="Dcroat" unicode="&#x110;" horiz-adv-x="912" 
d="M559 831c246 0 366 -191 366 -391c0 -218 -141 -459 -409 -459c-64 0 -113 26 -154 58c-46 -40 -101 -58 -173 -58c-122 0 -181 69 -181 140c0 73 63 146 182 146c55 0 99 -23 138 -52c5 12 11 25 17 40l16 39h-38c-77 0 -63 90 14 90h60l80 196c20 48 51 68 80 68
c31 0 58 -25 58 -62c0 -12 -2 -24 -8 -38l-9 -22l-59 -146c49 -17 31 -84 -35 -86l-35 -85c-12 -29 -24 -55 -36 -77c26 -19 54 -31 84 -31c184 0 279 179 279 336c0 144 -79 280 -240 280c-113 0 -226 -67 -226 -158c0 -46 23 -60 34 -77c3 -5 4 -10 4 -17
c0 -22 -22 -46 -54 -46c-62 0 -110 74 -110 139c0 166 177 273 355 273zM193 89c33 0 57 5 79 29c-30 25 -60 43 -96 43c-35 0 -53 -16 -53 -33c0 -19 23 -39 70 -39z" />
    <glyph glyph-name="uni1E0C" unicode="&#x1e0c;" horiz-adv-x="938" 
d="M559 831c246 0 366 -191 366 -391c0 -218 -141 -459 -409 -459c-64 0 -113 26 -154 58c-46 -40 -101 -58 -173 -58c-122 0 -181 69 -181 140c0 73 63 146 182 146c55 0 99 -23 138 -52c5 12 11 25 17 40l132 325c20 48 51 68 80 68c31 0 58 -25 58 -62
c0 -12 -2 -24 -8 -38l-9 -22l-129 -317c-12 -29 -24 -55 -36 -77c26 -19 54 -31 84 -31c184 0 279 179 279 336c0 144 -79 280 -240 280c-113 0 -226 -67 -226 -158c0 -46 23 -60 34 -77c3 -5 4 -10 4 -17c0 -22 -22 -46 -54 -46c-62 0 -110 74 -110 139
c0 166 177 273 355 273zM193 89c33 0 57 5 79 29c-30 25 -60 43 -96 43c-35 0 -53 -16 -53 -33c0 -19 23 -39 70 -39zM369 -58c38 0 68 -31 68 -69s-30 -69 -68 -69s-69 31 -69 69s31 69 69 69z" />
    <glyph glyph-name="uni1E0E" unicode="&#x1e0e;" horiz-adv-x="938" 
d="M559 831c246 0 366 -191 366 -391c0 -218 -141 -459 -409 -459c-64 0 -113 26 -154 58c-46 -40 -101 -58 -173 -58c-122 0 -181 69 -181 140c0 73 63 146 182 146c55 0 99 -23 138 -52c5 12 11 25 17 40l132 325c20 48 51 68 80 68c31 0 58 -25 58 -62
c0 -12 -2 -24 -8 -38l-9 -22l-129 -317c-12 -29 -24 -55 -36 -77c26 -19 54 -31 84 -31c184 0 279 179 279 336c0 144 -79 280 -240 280c-113 0 -226 -67 -226 -158c0 -46 23 -60 34 -77c3 -5 4 -10 4 -17c0 -22 -22 -46 -54 -46c-62 0 -110 74 -110 139
c0 166 177 273 355 273zM193 89c33 0 57 5 79 29c-30 25 -60 43 -96 43c-35 0 -53 -16 -53 -33c0 -19 23 -39 70 -39zM481 -98c37 0 54 -20 54 -43c0 -27 -24 -56 -68 -56h-139c-36 0 -53 21 -53 44c0 26 23 55 66 55h140z" />
    <glyph glyph-name="E" unicode="E" horiz-adv-x="678" 
d="M616 701c6 0 9 4 4 11c-14 20 -38 31 -64 31c-70 0 -113 -64 -113 -126c0 -40 18 -79 60 -98c30 -13 42 -33 42 -55c0 -28 -21 -55 -55 -55h-84c-130 0 -195 -90 -195 -174c0 -74 50 -143 151 -143c86 0 155 63 155 134c0 18 -4 36 -13 53c-6 11 -8 22 -8 33
c0 35 28 63 61 63c23 0 49 -14 70 -50c16 -29 24 -62 24 -97c0 -126 -105 -270 -310 -270c-174 0 -269 131 -269 265s94 272 300 287c-38 35 -55 79 -55 124c0 101 89 206 229 206c118 0 172 -85 172 -162c0 -64 -38 -123 -109 -123c-46 0 -88 31 -88 83c0 34 25 68 66 68
c8 0 15 -1 21 -3c3 -1 6 -2 8 -2z" />
    <glyph glyph-name="Eacute" unicode="&#xc9;" horiz-adv-x="678" 
d="M686 1110c30 0 55 -23 55 -51c0 -15 -7 -32 -24 -48l-91 -90c-13 -14 -27 -19 -41 -19c-21 0 -37 14 -37 35c0 8 3 19 10 30l66 103c18 28 41 40 62 40zM546 840c118 0 172 -85 172 -162c0 -64 -38 -123 -109 -123c-46 0 -88 31 -88 83c0 34 25 68 66 68c8 0 15 -1 21 -3
c3 -1 6 -2 8 -2c6 0 9 4 4 11c-14 20 -38 31 -64 31c-70 0 -113 -64 -113 -126c0 -40 18 -79 60 -98c30 -13 42 -33 42 -55c0 -28 -21 -55 -55 -55h-84c-130 0 -195 -90 -195 -174c0 -74 50 -143 151 -143c86 0 155 63 155 134c0 18 -4 36 -13 53c-6 11 -8 22 -8 33
c0 35 28 63 61 63c23 0 49 -14 70 -50c16 -29 24 -62 24 -97c0 -126 -105 -270 -310 -270c-174 0 -269 131 -269 265s94 272 300 287c-38 35 -55 79 -55 124c0 101 89 206 229 206z" />
    <glyph glyph-name="Ebreve" unicode="&#x114;" horiz-adv-x="678" 
d="M725 1087c22 0 40 -16 40 -40c0 -4 -1 -9 -2 -13c-24 -92 -106 -136 -179 -136c-66 0 -125 37 -125 110c0 9 1 18 3 29c7 36 35 53 59 53c21 0 37 -11 37 -36c0 -3 0 -7 -1 -11c-2 -7 -2 -13 -2 -18c0 -27 17 -41 36 -41c26 0 58 20 74 56c15 33 39 47 60 47zM546 840
c118 0 172 -85 172 -162c0 -64 -38 -123 -109 -123c-46 0 -88 31 -88 83c0 34 25 68 66 68c8 0 15 -1 21 -3c3 -1 6 -2 8 -2c6 0 9 4 4 11c-14 20 -38 31 -64 31c-70 0 -113 -64 -113 -126c0 -40 18 -79 60 -98c30 -13 42 -33 42 -55c0 -28 -21 -55 -55 -55h-84
c-130 0 -195 -90 -195 -174c0 -74 50 -143 151 -143c86 0 155 63 155 134c0 18 -4 36 -13 53c-6 11 -8 22 -8 33c0 35 28 63 61 63c23 0 49 -14 70 -50c16 -29 24 -62 24 -97c0 -126 -105 -270 -310 -270c-174 0 -269 131 -269 265s94 272 300 287c-38 35 -55 79 -55 124
c0 101 89 206 229 206z" />
    <glyph glyph-name="Ecaron" unicode="&#x11a;" horiz-adv-x="678" 
d="M662 1086c68 59 126 -23 70 -66l-132 -103c-29 -23 -57 -19 -76 14l-55 93c-41 69 47 121 91 40l25 -46zM546 840c118 0 172 -85 172 -162c0 -64 -38 -123 -109 -123c-46 0 -88 31 -88 83c0 34 25 68 66 68c8 0 15 -1 21 -3c3 -1 6 -2 8 -2c6 0 9 4 4 11
c-14 20 -38 31 -64 31c-70 0 -113 -64 -113 -126c0 -40 18 -79 60 -98c30 -13 42 -33 42 -55c0 -28 -21 -55 -55 -55h-84c-130 0 -195 -90 -195 -174c0 -74 50 -143 151 -143c86 0 155 63 155 134c0 18 -4 36 -13 53c-6 11 -8 22 -8 33c0 35 28 63 61 63c23 0 49 -14 70 -50
c16 -29 24 -62 24 -97c0 -126 -105 -270 -310 -270c-174 0 -269 131 -269 265s94 272 300 287c-38 35 -55 79 -55 124c0 101 89 206 229 206z" />
    <glyph glyph-name="Ecircumflex" unicode="&#xca;" horiz-adv-x="678" 
d="M731 985c40 -69 -47 -121 -91 -40l-26 47l-77 -68c-67 -60 -125 22 -69 65l131 103c30 23 58 19 77 -14zM546 840c118 0 172 -85 172 -162c0 -64 -38 -123 -109 -123c-46 0 -88 31 -88 83c0 34 25 68 66 68c8 0 15 -1 21 -3c3 -1 6 -2 8 -2c6 0 9 4 4 11
c-14 20 -38 31 -64 31c-70 0 -113 -64 -113 -126c0 -40 18 -79 60 -98c30 -13 42 -33 42 -55c0 -28 -21 -55 -55 -55h-84c-130 0 -195 -90 -195 -174c0 -74 50 -143 151 -143c86 0 155 63 155 134c0 18 -4 36 -13 53c-6 11 -8 22 -8 33c0 35 28 63 61 63c23 0 49 -14 70 -50
c16 -29 24 -62 24 -97c0 -126 -105 -270 -310 -270c-174 0 -269 131 -269 265s94 272 300 287c-38 35 -55 79 -55 124c0 101 89 206 229 206z" />
    <glyph glyph-name="Edieresis" unicode="&#xcb;" horiz-adv-x="678" 
d="M527 909c-38 0 -69 31 -69 69s31 69 69 69s68 -31 68 -69s-30 -69 -68 -69zM706 1047c38 0 68 -31 68 -69s-30 -69 -68 -69s-69 31 -69 69s31 69 69 69zM546 840c118 0 172 -85 172 -162c0 -64 -38 -123 -109 -123c-46 0 -88 31 -88 83c0 34 25 68 66 68c8 0 15 -1 21 -3
c3 -1 6 -2 8 -2c6 0 9 4 4 11c-14 20 -38 31 -64 31c-70 0 -113 -64 -113 -126c0 -40 18 -79 60 -98c30 -13 42 -33 42 -55c0 -28 -21 -55 -55 -55h-84c-130 0 -195 -90 -195 -174c0 -74 50 -143 151 -143c86 0 155 63 155 134c0 18 -4 36 -13 53c-6 11 -8 22 -8 33
c0 35 28 63 61 63c23 0 49 -14 70 -50c16 -29 24 -62 24 -97c0 -126 -105 -270 -310 -270c-174 0 -269 131 -269 265s94 272 300 287c-38 35 -55 79 -55 124c0 101 89 206 229 206z" />
    <glyph glyph-name="Edotaccent" unicode="&#x116;" horiz-adv-x="678" 
d="M603 909c-38 0 -69 31 -69 69s31 69 69 69s68 -31 68 -69s-30 -69 -68 -69zM616 701c6 0 9 4 4 11c-14 20 -38 31 -64 31c-70 0 -113 -64 -113 -126c0 -40 18 -79 60 -98c30 -13 42 -33 42 -55c0 -28 -21 -55 -55 -55h-84c-130 0 -195 -90 -195 -174
c0 -74 50 -143 151 -143c86 0 155 63 155 134c0 18 -4 36 -13 53c-6 11 -8 22 -8 33c0 35 28 63 61 63c23 0 49 -14 70 -50c16 -29 24 -62 24 -97c0 -126 -105 -270 -310 -270c-174 0 -269 131 -269 265s94 272 300 287c-38 35 -55 79 -55 124c0 101 89 206 229 206
c118 0 172 -85 172 -162c0 -64 -38 -123 -109 -123c-46 0 -88 31 -88 83c0 34 25 68 66 68c8 0 15 -1 21 -3c3 -1 6 -2 8 -2z" />
    <glyph glyph-name="uni1EB8" unicode="&#x1eb8;" horiz-adv-x="678" 
d="M616 701c6 0 9 4 4 11c-14 20 -38 31 -64 31c-70 0 -113 -64 -113 -126c0 -40 18 -79 60 -98c30 -13 42 -33 42 -55c0 -28 -21 -55 -55 -55h-84c-130 0 -195 -90 -195 -174c0 -74 50 -143 151 -143c86 0 155 63 155 134c0 18 -4 36 -13 53c-6 11 -8 22 -8 33
c0 35 28 63 61 63c23 0 49 -14 70 -50c16 -29 24 -62 24 -97c0 -126 -105 -270 -310 -270c-174 0 -269 131 -269 265s94 272 300 287c-38 35 -55 79 -55 124c0 101 89 206 229 206c118 0 172 -85 172 -162c0 -64 -38 -123 -109 -123c-46 0 -88 31 -88 83c0 34 25 68 66 68
c8 0 15 -1 21 -3c3 -1 6 -2 8 -2zM259 -104c38 0 68 -31 68 -69s-30 -69 -68 -69s-69 31 -69 69s31 69 69 69z" />
    <glyph glyph-name="Egrave" unicode="&#xc8;" horiz-adv-x="678" 
d="M569 914l-91 90c-16 16 -23 33 -23 48c0 28 25 51 54 51c21 0 45 -12 63 -40l65 -103c7 -11 10 -22 10 -30c0 -21 -16 -35 -37 -35c-13 0 -28 5 -41 19zM616 701c6 0 9 4 4 11c-14 20 -38 31 -64 31c-70 0 -113 -64 -113 -126c0 -40 18 -79 60 -98c30 -13 42 -33 42 -55
c0 -28 -21 -55 -55 -55h-84c-130 0 -195 -90 -195 -174c0 -74 50 -143 151 -143c86 0 155 63 155 134c0 18 -4 36 -13 53c-6 11 -8 22 -8 33c0 35 28 63 61 63c23 0 49 -14 70 -50c16 -29 24 -62 24 -97c0 -126 -105 -270 -310 -270c-174 0 -269 131 -269 265
s94 272 300 287c-38 35 -55 79 -55 124c0 101 89 206 229 206c118 0 172 -85 172 -162c0 -64 -38 -123 -109 -123c-46 0 -88 31 -88 83c0 34 25 68 66 68c8 0 15 -1 21 -3c3 -1 6 -2 8 -2z" />
    <glyph glyph-name="uni0206" unicode="&#x206;" horiz-adv-x="678" 
d="M640 1090c65 0 125 -41 125 -112c0 -53 -32 -80 -60 -80c-21 0 -40 16 -40 48c0 5 1 11 2 17c4 26 -16 40 -41 40c-27 0 -58 -16 -67 -49c-8 -28 -34 -43 -57 -43c-21 0 -40 12 -40 36c0 4 1 8 2 13c24 92 104 130 176 130zM546 840c118 0 172 -85 172 -162
c0 -64 -38 -123 -109 -123c-46 0 -88 31 -88 83c0 34 25 68 66 68c8 0 15 -1 21 -3c3 -1 6 -2 8 -2c6 0 9 4 4 11c-14 20 -38 31 -64 31c-70 0 -113 -64 -113 -126c0 -40 18 -79 60 -98c30 -13 42 -33 42 -55c0 -28 -21 -55 -55 -55h-84c-130 0 -195 -90 -195 -174
c0 -74 50 -143 151 -143c86 0 155 63 155 134c0 18 -4 36 -13 53c-6 11 -8 22 -8 33c0 35 28 63 61 63c23 0 49 -14 70 -50c16 -29 24 -62 24 -97c0 -126 -105 -270 -310 -270c-174 0 -269 131 -269 265s94 272 300 287c-38 35 -55 79 -55 124c0 101 89 206 229 206z" />
    <glyph glyph-name="Emacron" unicode="&#x112;" horiz-adv-x="678" 
d="M517 922c-78 0 -66 99 13 99h140c82 0 66 -99 -14 -99h-139zM546 840c118 0 172 -85 172 -162c0 -64 -38 -123 -109 -123c-46 0 -88 31 -88 83c0 34 25 68 66 68c8 0 15 -1 21 -3c3 -1 6 -2 8 -2c6 0 9 4 4 11c-14 20 -38 31 -64 31c-70 0 -113 -64 -113 -126
c0 -40 18 -79 60 -98c30 -13 42 -33 42 -55c0 -28 -21 -55 -55 -55h-84c-130 0 -195 -90 -195 -174c0 -74 50 -143 151 -143c86 0 155 63 155 134c0 18 -4 36 -13 53c-6 11 -8 22 -8 33c0 35 28 63 61 63c23 0 49 -14 70 -50c16 -29 24 -62 24 -97
c0 -126 -105 -270 -310 -270c-174 0 -269 131 -269 265s94 272 300 287c-38 35 -55 79 -55 124c0 101 89 206 229 206z" />
    <glyph glyph-name="Eogonek" unicode="&#x118;" horiz-adv-x="678" 
d="M616 701c6 0 9 4 4 11c-14 20 -38 31 -64 31c-70 0 -113 -64 -113 -126c0 -40 18 -79 60 -98c30 -13 42 -33 42 -55c0 -28 -21 -55 -55 -55h-84c-130 0 -195 -90 -195 -174c0 -74 50 -143 151 -143c86 0 155 63 155 134c0 18 -4 36 -13 53c-6 11 -8 22 -8 33
c0 35 28 63 61 63c23 0 49 -14 70 -50c16 -29 24 -62 24 -97c0 -65 -28 -134 -82 -186h1c-1 0 -2 -1 -2 -1c-19 -18 -41 -33 -65 -46c-44 -38 -68 -75 -68 -99c0 -15 10 -24 30 -24c11 0 26 3 44 8c67 19 86 -59 35 -83c-41 -19 -78 -28 -109 -28c-69 0 -114 40 -114 96
c0 28 12 61 38 93h-18c-174 0 -269 131 -269 265s94 272 300 287c-38 35 -55 79 -55 124c0 101 89 206 229 206c118 0 172 -85 172 -162c0 -64 -38 -123 -109 -123c-46 0 -88 31 -88 83c0 34 25 68 66 68c8 0 15 -1 21 -3c3 -1 6 -2 8 -2z" />
    <glyph glyph-name="uni1EBC" unicode="&#x1ebc;" horiz-adv-x="678" 
d="M761 1036c26 -14 32 -38 16 -65c-30 -51 -66 -75 -111 -75c-60 0 -84 51 -117 51c-7 0 -14 -2 -23 -9c-33 -28 -52 -46 -79 -32c-27 12 -33 38 -16 65c32 52 68 77 110 77c57 0 87 -52 120 -52c10 0 23 7 35 21c22 27 41 33 65 19zM546 840c118 0 172 -85 172 -162
c0 -64 -38 -123 -109 -123c-46 0 -88 31 -88 83c0 34 25 68 66 68c8 0 15 -1 21 -3c3 -1 6 -2 8 -2c6 0 9 4 4 11c-14 20 -38 31 -64 31c-70 0 -113 -64 -113 -126c0 -40 18 -79 60 -98c30 -13 42 -33 42 -55c0 -28 -21 -55 -55 -55h-84c-130 0 -195 -90 -195 -174
c0 -74 50 -143 151 -143c86 0 155 63 155 134c0 18 -4 36 -13 53c-6 11 -8 22 -8 33c0 35 28 63 61 63c23 0 49 -14 70 -50c16 -29 24 -62 24 -97c0 -126 -105 -270 -310 -270c-174 0 -269 131 -269 265s94 272 300 287c-38 35 -55 79 -55 124c0 101 89 206 229 206z" />
    <glyph glyph-name="uni0204" unicode="&#x204;" horiz-adv-x="678" 
d="M506 921l-75 90c-13 16 -17 33 -15 48c5 28 34 51 64 51c20 0 42 -12 55 -40l48 -103c5 -11 5 -22 4 -30c-4 -21 -22 -35 -42 -35c-14 0 -27 5 -39 19zM751 967c5 -11 6 -22 5 -30c-4 -21 -22 -35 -43 -35c-14 0 -27 5 -39 19l-74 90c-14 16 -18 33 -16 48
c5 28 34 51 64 51c21 0 42 -12 55 -40zM546 840c118 0 172 -85 172 -162c0 -64 -38 -123 -109 -123c-46 0 -88 31 -88 83c0 34 25 68 66 68c8 0 15 -1 21 -3c3 -1 6 -2 8 -2c6 0 9 4 4 11c-14 20 -38 31 -64 31c-70 0 -113 -64 -113 -126c0 -40 18 -79 60 -98
c30 -13 42 -33 42 -55c0 -28 -21 -55 -55 -55h-84c-130 0 -195 -90 -195 -174c0 -74 50 -143 151 -143c86 0 155 63 155 134c0 18 -4 36 -13 53c-6 11 -8 22 -8 33c0 35 28 63 61 63c23 0 49 -14 70 -50c16 -29 24 -62 24 -97c0 -126 -105 -270 -310 -270
c-174 0 -269 131 -269 265s94 272 300 287c-38 35 -55 79 -55 124c0 101 89 206 229 206z" />
    <glyph glyph-name="F" unicode="F" horiz-adv-x="734" 
d="M866 800c44 0 64 -23 64 -49c0 -33 -33 -72 -84 -72h-42c-78 -11 -105 -59 -180 -242l-17 -42h34c35 0 50 -19 50 -41c0 -28 -26 -60 -71 -60h-54l-103 -252c-56 -140 -143 -219 -270 -247c-8 -2 -16 -3 -23 -3c-34 0 -55 22 -55 56c0 42 23 62 67 75
c74 21 124 79 164 177l79 193h-18c-34 0 -49 19 -49 40c0 29 26 61 69 61h39l18 45c51 123 91 198 145 240h-182c-118 0 -174 -29 -174 -91s71 -50 71 -104c0 -32 -22 -58 -55 -58c-85 0 -140 74 -140 154c0 103 88 220 304 220h413z" />
    <glyph glyph-name="G" unicode="G" horiz-adv-x="689" 
d="M798 331c22 0 42 -16 42 -40c0 -6 -1 -12 -4 -19c-115 -285 -176 -374 -395 -399l-41 -103c-36 -90 -122 -136 -200 -136c-114 0 -173 74 -173 152c0 83 69 168 212 168c33 0 64 0 92 1c16 38 39 95 61 150c-35 -30 -78 -46 -120 -46c-85 0 -164 64 -164 214
c0 226 202 555 466 558c109 0 162 -83 162 -159c0 -65 -39 -125 -113 -125c-49 0 -84 36 -84 83c0 39 29 68 67 68c8 0 16 -1 22 -4c11 -4 20 -1 13 9c-12 17 -34 29 -63 29c-169 0 -329 -278 -329 -439c0 -87 37 -123 81 -123s94 34 125 90c20 47 50 67 79 67
c31 0 58 -25 58 -62c0 -12 -2 -24 -8 -38l-9 -22l-96 -237c140 27 185 106 276 330c10 23 27 33 43 33zM200 -251c47 0 62 32 95 116c-21 -1 -42 -1 -65 -1c-63 0 -89 -31 -89 -61c0 -27 23 -54 59 -54z" />
    <glyph glyph-name="Gbreve" unicode="&#x11e;" horiz-adv-x="689" 
d="M600 884c-66 0 -125 37 -125 110c0 9 1 18 3 29c7 36 35 53 59 53c21 0 37 -11 37 -36c0 -3 0 -7 -1 -11c-2 -7 -2 -13 -2 -18c0 -27 17 -41 36 -41c26 0 58 20 74 56c15 33 39 47 60 47c22 0 40 -16 40 -40c0 -4 -1 -9 -2 -13c-24 -92 -106 -136 -179 -136zM798 331
c22 0 42 -16 42 -40c0 -6 -1 -12 -4 -19c-115 -285 -176 -374 -395 -399l-41 -103c-36 -90 -122 -136 -200 -136c-114 0 -173 74 -173 152c0 83 69 168 212 168c33 0 64 0 92 1c16 38 39 95 61 150c-35 -30 -78 -46 -120 -46c-85 0 -164 64 -164 214c0 226 202 555 466 558
c109 0 162 -83 162 -159c0 -65 -39 -125 -113 -125c-49 0 -84 36 -84 83c0 39 29 68 67 68c8 0 16 -1 22 -4c11 -4 20 -1 13 9c-12 17 -34 29 -63 29c-169 0 -329 -278 -329 -439c0 -87 37 -123 81 -123s94 34 125 90c20 47 50 67 79 67c31 0 58 -25 58 -62
c0 -12 -2 -24 -8 -38l-9 -22l-96 -237c140 27 185 106 276 330c10 23 27 33 43 33zM200 -251c47 0 62 32 95 116c-21 -1 -42 -1 -65 -1c-63 0 -89 -31 -89 -61c0 -27 23 -54 59 -54z" />
    <glyph glyph-name="Gcaron" unicode="&#x1e6;" horiz-adv-x="689" 
d="M540 917l-55 93c-41 69 47 121 91 40l25 -46l77 68c68 59 126 -23 70 -66l-132 -103c-29 -23 -57 -19 -76 14zM798 331c22 0 42 -16 42 -40c0 -6 -1 -12 -4 -19c-115 -285 -176 -374 -395 -399l-41 -103c-36 -90 -122 -136 -200 -136c-114 0 -173 74 -173 152
c0 83 69 168 212 168c33 0 64 0 92 1c16 38 39 95 61 150c-35 -30 -78 -46 -120 -46c-85 0 -164 64 -164 214c0 226 202 555 466 558c109 0 162 -83 162 -159c0 -65 -39 -125 -113 -125c-49 0 -84 36 -84 83c0 39 29 68 67 68c8 0 16 -1 22 -4c11 -4 20 -1 13 9
c-12 17 -34 29 -63 29c-169 0 -329 -278 -329 -439c0 -87 37 -123 81 -123s94 34 125 90c20 47 50 67 79 67c31 0 58 -25 58 -62c0 -12 -2 -24 -8 -38l-9 -22l-96 -237c140 27 185 106 276 330c10 23 27 33 43 33zM200 -251c47 0 62 32 95 116c-21 -1 -42 -1 -65 -1
c-63 0 -89 -31 -89 -61c0 -27 23 -54 59 -54z" />
    <glyph glyph-name="Gcircumflex" unicode="&#x11c;" horiz-adv-x="689" 
d="M553 910c-67 -60 -125 22 -69 65l131 103c30 23 58 19 77 -14l55 -93c40 -69 -47 -121 -91 -40l-26 47zM798 331c22 0 42 -16 42 -40c0 -6 -1 -12 -4 -19c-115 -285 -176 -374 -395 -399l-41 -103c-36 -90 -122 -136 -200 -136c-114 0 -173 74 -173 152
c0 83 69 168 212 168c33 0 64 0 92 1c16 38 39 95 61 150c-35 -30 -78 -46 -120 -46c-85 0 -164 64 -164 214c0 226 202 555 466 558c109 0 162 -83 162 -159c0 -65 -39 -125 -113 -125c-49 0 -84 36 -84 83c0 39 29 68 67 68c8 0 16 -1 22 -4c11 -4 20 -1 13 9
c-12 17 -34 29 -63 29c-169 0 -329 -278 -329 -439c0 -87 37 -123 81 -123s94 34 125 90c20 47 50 67 79 67c31 0 58 -25 58 -62c0 -12 -2 -24 -8 -38l-9 -22l-96 -237c140 27 185 106 276 330c10 23 27 33 43 33zM200 -251c47 0 62 32 95 116c-21 -1 -42 -1 -65 -1
c-63 0 -89 -31 -89 -61c0 -27 23 -54 59 -54z" />
    <glyph glyph-name="Gcommaaccent" unicode="&#x122;" horiz-adv-x="689" 
d="M798 331c22 0 42 -16 42 -40c0 -6 -1 -12 -4 -19c-115 -285 -176 -374 -395 -399l-41 -103c-36 -90 -122 -136 -200 -136c-114 0 -173 74 -173 152c0 83 69 168 212 168c33 0 64 0 92 1c16 38 39 95 61 150c-35 -30 -78 -46 -120 -46c-85 0 -164 64 -164 214
c0 226 202 555 466 558c109 0 162 -83 162 -159c0 -65 -39 -125 -113 -125c-49 0 -84 36 -84 83c0 39 29 68 67 68c8 0 16 -1 22 -4c11 -4 20 -1 13 9c-12 17 -34 29 -63 29c-169 0 -329 -278 -329 -439c0 -87 37 -123 81 -123s94 34 125 90c20 47 50 67 79 67
c31 0 58 -25 58 -62c0 -12 -2 -24 -8 -38l-9 -22l-96 -237c140 27 185 106 276 330c10 23 27 33 43 33zM200 -251c47 0 62 32 95 116c-21 -1 -42 -1 -65 -1c-63 0 -89 -31 -89 -61c0 -27 23 -54 59 -54zM173 -424c41 0 78 -27 78 -83c0 -63 -49 -174 -129 -201
c-6 -2 -11 -3 -15 -3c-15 0 -24 11 -24 24c0 8 5 18 14 26c27 24 42 52 42 75c0 20 -12 35 -36 35c-26 0 -37 15 -37 34c0 38 43 93 107 93z" />
    <glyph glyph-name="Gdotaccent" unicode="&#x120;" horiz-adv-x="689" 
d="M619 895c-38 0 -69 31 -69 69s31 69 69 69s68 -31 68 -69s-30 -69 -68 -69zM798 331c22 0 42 -16 42 -40c0 -6 -1 -12 -4 -19c-115 -285 -176 -374 -395 -399l-41 -103c-36 -90 -122 -136 -200 -136c-114 0 -173 74 -173 152c0 83 69 168 212 168c33 0 64 0 92 1
c16 38 39 95 61 150c-35 -30 -78 -46 -120 -46c-85 0 -164 64 -164 214c0 226 202 555 466 558c109 0 162 -83 162 -159c0 -65 -39 -125 -113 -125c-49 0 -84 36 -84 83c0 39 29 68 67 68c8 0 16 -1 22 -4c11 -4 20 -1 13 9c-12 17 -34 29 -63 29
c-169 0 -329 -278 -329 -439c0 -87 37 -123 81 -123s94 34 125 90c20 47 50 67 79 67c31 0 58 -25 58 -62c0 -12 -2 -24 -8 -38l-9 -22l-96 -237c140 27 185 106 276 330c10 23 27 33 43 33zM200 -251c47 0 62 32 95 116c-21 -1 -42 -1 -65 -1c-63 0 -89 -31 -89 -61
c0 -27 23 -54 59 -54z" />
    <glyph glyph-name="uni1E20" unicode="&#x1e20;" horiz-adv-x="689" 
d="M533 908c-78 0 -66 99 13 99h140c82 0 66 -99 -14 -99h-139zM798 331c22 0 42 -16 42 -40c0 -6 -1 -12 -4 -19c-115 -285 -176 -374 -395 -399l-41 -103c-36 -90 -122 -136 -200 -136c-114 0 -173 74 -173 152c0 83 69 168 212 168c33 0 64 0 92 1c16 38 39 95 61 150
c-35 -30 -78 -46 -120 -46c-85 0 -164 64 -164 214c0 226 202 555 466 558c109 0 162 -83 162 -159c0 -65 -39 -125 -113 -125c-49 0 -84 36 -84 83c0 39 29 68 67 68c8 0 16 -1 22 -4c11 -4 20 -1 13 9c-12 17 -34 29 -63 29c-169 0 -329 -278 -329 -439
c0 -87 37 -123 81 -123s94 34 125 90c20 47 50 67 79 67c31 0 58 -25 58 -62c0 -12 -2 -24 -8 -38l-9 -22l-96 -237c140 27 185 106 276 330c10 23 27 33 43 33zM200 -251c47 0 62 32 95 116c-21 -1 -42 -1 -65 -1c-63 0 -89 -31 -89 -61c0 -27 23 -54 59 -54z" />
    <glyph glyph-name="H" unicode="H" horiz-adv-x="879" 
d="M1000 327c26 -8 35 -29 24 -57c-10 -26 -27 -69 -38 -95c-56 -132 -123 -194 -237 -194c-79 0 -142 48 -142 117c0 29 13 66 56 173h-178l-54 -133c-45 -110 -136 -157 -230 -157c-102 0 -191 69 -191 180c0 110 97 231 281 231h100l116 286l22 54c20 48 51 68 80 68
c31 0 58 -25 58 -62c0 -12 -2 -24 -8 -38l-9 -22l-116 -286h178l116 286l22 54c20 48 51 68 80 68c31 0 58 -25 58 -62c0 -12 -2 -24 -8 -38l-9 -22c-57 -142 -116 -287 -158 -389c-28 -66 -48 -120 -53 -132c-14 -39 2 -72 36 -72c33 0 74 32 104 104c6 13 23 57 44 108
c12 28 30 38 56 30zM209 108c63 5 95 66 134 163h-28c-128 0 -172 -50 -172 -95c0 -36 29 -68 66 -68z" />
    <glyph glyph-name="Hbar" unicode="&#x126;" horiz-adv-x="879" 
d="M1000 327c26 -8 35 -29 24 -57c-10 -26 -27 -69 -38 -95c-56 -132 -123 -194 -237 -194c-79 0 -142 48 -142 117c0 29 13 66 56 173h-178l-54 -133c-45 -110 -136 -157 -230 -157c-102 0 -191 69 -191 180c0 110 97 231 281 231h100l27 67h-52c-77 0 -63 90 14 90h75
l52 129l22 54c20 48 51 68 80 68c31 0 58 -25 58 -62c0 -12 -2 -24 -8 -38l-9 -22l-52 -129h178l52 129l22 54c20 48 51 68 80 68c31 0 58 -25 58 -62c0 -12 -2 -24 -8 -38l-9 -22c-17 -43 -35 -87 -52 -129h7c80 0 66 -90 -13 -90h-30l-70 -170c-28 -66 -48 -120 -53 -132
c-14 -39 2 -72 36 -72c33 0 74 32 104 104c6 13 23 57 44 108c12 28 30 38 56 30zM561 459l-27 -67h178l27 67h-178zM209 108c63 5 95 66 134 163h-28c-128 0 -172 -50 -172 -95c0 -36 29 -68 66 -68z" />
    <glyph glyph-name="Hcircumflex" unicode="&#x124;" horiz-adv-x="879" 
d="M746 885c-67 -60 -125 22 -69 65l131 103c30 23 58 19 77 -14l55 -93c40 -69 -47 -121 -91 -40l-26 47zM1000 327c26 -8 35 -29 24 -57c-10 -26 -27 -69 -38 -95c-56 -132 -123 -194 -237 -194c-79 0 -142 48 -142 117c0 29 13 66 56 173h-178l-54 -133
c-45 -110 -136 -157 -230 -157c-102 0 -191 69 -191 180c0 110 97 231 281 231h100l116 286l22 54c20 48 51 68 80 68c31 0 58 -25 58 -62c0 -12 -2 -24 -8 -38l-9 -22l-116 -286h178l116 286l22 54c20 48 51 68 80 68c31 0 58 -25 58 -62c0 -12 -2 -24 -8 -38l-9 -22
c-57 -142 -116 -287 -158 -389c-28 -66 -48 -120 -53 -132c-14 -39 2 -72 36 -72c33 0 74 32 104 104c6 13 23 57 44 108c12 28 30 38 56 30zM209 108c63 5 95 66 134 163h-28c-128 0 -172 -50 -172 -95c0 -36 29 -68 66 -68z" />
    <glyph glyph-name="uni1E24" unicode="&#x1e24;" horiz-adv-x="879" 
d="M1000 327c26 -8 35 -29 24 -57c-10 -26 -27 -69 -38 -95c-56 -132 -123 -194 -237 -194c-79 0 -142 48 -142 117c0 29 13 66 56 173h-178l-54 -133c-45 -110 -136 -157 -230 -157c-102 0 -191 69 -191 180c0 110 97 231 281 231h100l116 286l22 54c20 48 51 68 80 68
c31 0 58 -25 58 -62c0 -12 -2 -24 -8 -38l-9 -22l-116 -286h178l116 286l22 54c20 48 51 68 80 68c31 0 58 -25 58 -62c0 -12 -2 -24 -8 -38l-9 -22c-57 -142 -116 -287 -158 -389c-28 -66 -48 -120 -53 -132c-14 -39 2 -72 36 -72c33 0 74 32 104 104c6 13 23 57 44 108
c12 28 30 38 56 30zM209 108c63 5 95 66 134 163h-28c-128 0 -172 -50 -172 -95c0 -36 29 -68 66 -68zM428 -54c38 0 68 -31 68 -69s-30 -69 -68 -69s-69 31 -69 69s31 69 69 69z" />
    <glyph glyph-name="I" unicode="I" horiz-adv-x="519" 
d="M582 800c31 0 58 -25 58 -62c0 -12 -2 -24 -8 -38l-9 -22h-1l-240 -591l-36 -87c-18 -44 -50 -61 -78 -61c-32 0 -59 21 -59 57c0 11 2 22 7 35l23 56l240 591h1v1h-50c-98 0 -169 -45 -169 -151c0 -12 3 -24 8 -33c9 -15 13 -30 13 -42c0 -36 -27 -60 -59 -60
c-56 0 -89 61 -89 136c0 118 85 271 300 271h147h1z" />
    <glyph glyph-name="IJ" unicode="&#x132;" horiz-adv-x="1063" 
d="M623 678h-1l-240 -591l-36 -87c-18 -44 -50 -61 -78 -61c-32 0 -59 21 -59 57c0 11 2 22 7 35l23 56l240 591h1v1h-50c-98 0 -169 -45 -169 -151c0 -12 3 -24 8 -33c9 -15 13 -30 13 -42c0 -36 -27 -60 -59 -60c-56 0 -89 61 -89 136c0 118 85 271 300 271h147h1
c31 0 58 -25 58 -62c0 -12 -2 -24 -8 -38zM1173 330c21 0 41 -16 41 -40c0 -6 -1 -12 -4 -19c-115 -284 -175 -374 -394 -399l-41 -102c-36 -90 -123 -137 -201 -137c-113 0 -173 75 -173 152c0 83 68 168 212 168c34 0 65 0 94 1l293 724h-1v1h-50
c-98 0 -169 -45 -169 -151c0 -12 3 -24 8 -33c9 -15 13 -30 13 -42c0 -36 -27 -60 -59 -60c-56 0 -89 61 -89 136c0 118 85 271 300 271h147h1c31 0 58 -25 58 -62c0 -12 -2 -24 -8 -38l-9 -22h1l-289 -711c139 28 185 107 275 330c10 23 27 33 44 33zM574 -252
c46 0 62 33 96 116c-21 -1 -43 -1 -66 -1c-62 0 -89 -31 -89 -61c0 -28 23 -54 59 -54z" />
    <glyph glyph-name="Iacute" unicode="&#xcd;" horiz-adv-x="519" 
d="M498 863c-21 0 -37 14 -37 35c0 8 3 19 10 30l66 103c18 28 41 40 62 40c30 0 55 -23 55 -51c0 -15 -7 -32 -24 -48l-91 -90c-13 -14 -27 -19 -41 -19zM582 800c31 0 58 -25 58 -62c0 -12 -2 -24 -8 -38l-9 -22h-1l-240 -591l-36 -87c-18 -44 -50 -61 -78 -61
c-32 0 -59 21 -59 57c0 11 2 22 7 35l23 56l240 591h1v1h-50c-98 0 -169 -45 -169 -151c0 -12 3 -24 8 -33c9 -15 13 -30 13 -42c0 -36 -27 -60 -59 -60c-56 0 -89 61 -89 136c0 118 85 271 300 271h147h1z" />
    <glyph glyph-name="Ibreve" unicode="&#x12c;" horiz-adv-x="519" 
d="M638 1048c22 0 40 -16 40 -40c0 -4 -1 -9 -2 -13c-24 -92 -106 -136 -179 -136c-66 0 -125 37 -125 110c0 9 1 18 3 29c7 36 35 53 59 53c21 0 37 -11 37 -36c0 -3 0 -7 -1 -11c-2 -7 -2 -13 -2 -18c0 -27 17 -41 36 -41c26 0 58 20 74 56c15 33 39 47 60 47zM582 800
c31 0 58 -25 58 -62c0 -12 -2 -24 -8 -38l-9 -22h-1l-240 -591l-36 -87c-18 -44 -50 -61 -78 -61c-32 0 -59 21 -59 57c0 11 2 22 7 35l23 56l240 591h1v1h-50c-98 0 -169 -45 -169 -151c0 -12 3 -24 8 -33c9 -15 13 -30 13 -42c0 -36 -27 -60 -59 -60c-56 0 -89 61 -89 136
c0 118 85 271 300 271h147h1z" />
    <glyph glyph-name="uni01CF" unicode="&#x1cf;" horiz-adv-x="519" 
d="M575 1047c68 59 126 -23 70 -66l-132 -103c-29 -23 -57 -19 -76 14l-55 93c-41 69 47 121 91 40l25 -46zM582 800c31 0 58 -25 58 -62c0 -12 -2 -24 -8 -38l-9 -22h-1l-240 -591l-36 -87c-18 -44 -50 -61 -78 -61c-32 0 -59 21 -59 57c0 11 2 22 7 35l23 56l240 591h1v1
h-50c-98 0 -169 -45 -169 -151c0 -12 3 -24 8 -33c9 -15 13 -30 13 -42c0 -36 -27 -60 -59 -60c-56 0 -89 61 -89 136c0 118 85 271 300 271h147h1z" />
    <glyph glyph-name="Icircumflex" unicode="&#xce;" horiz-adv-x="519" 
d="M644 946c40 -69 -47 -121 -91 -40l-26 47l-77 -68c-67 -60 -125 22 -69 65l131 103c30 23 58 19 77 -14zM582 800c31 0 58 -25 58 -62c0 -12 -2 -24 -8 -38l-9 -22h-1l-240 -591l-36 -87c-18 -44 -50 -61 -78 -61c-32 0 -59 21 -59 57c0 11 2 22 7 35l23 56l240 591h1v1
h-50c-98 0 -169 -45 -169 -151c0 -12 3 -24 8 -33c9 -15 13 -30 13 -42c0 -36 -27 -60 -59 -60c-56 0 -89 61 -89 136c0 118 85 271 300 271h147h1z" />
    <glyph glyph-name="Idieresis" unicode="&#xcf;" horiz-adv-x="519" 
d="M440 870c-38 0 -69 31 -69 69s31 69 69 69s68 -31 68 -69s-30 -69 -68 -69zM619 1008c38 0 68 -31 68 -69s-30 -69 -68 -69s-69 31 -69 69s31 69 69 69zM582 800c31 0 58 -25 58 -62c0 -12 -2 -24 -8 -38l-9 -22h-1l-240 -591l-36 -87c-18 -44 -50 -61 -78 -61
c-32 0 -59 21 -59 57c0 11 2 22 7 35l23 56l240 591h1v1h-50c-98 0 -169 -45 -169 -151c0 -12 3 -24 8 -33c9 -15 13 -30 13 -42c0 -36 -27 -60 -59 -60c-56 0 -89 61 -89 136c0 118 85 271 300 271h147h1z" />
    <glyph glyph-name="Idotaccent" unicode="&#x130;" horiz-adv-x="519" 
d="M516 870c-38 0 -69 31 -69 69s31 69 69 69s68 -31 68 -69s-30 -69 -68 -69zM582 800c31 0 58 -25 58 -62c0 -12 -2 -24 -8 -38l-9 -22h-1l-240 -591l-36 -87c-18 -44 -50 -61 -78 -61c-32 0 -59 21 -59 57c0 11 2 22 7 35l23 56l240 591h1v1h-50
c-98 0 -169 -45 -169 -151c0 -12 3 -24 8 -33c9 -15 13 -30 13 -42c0 -36 -27 -60 -59 -60c-56 0 -89 61 -89 136c0 118 85 271 300 271h147h1z" />
    <glyph glyph-name="uni1ECA" unicode="&#x1eca;" horiz-adv-x="519" 
d="M582 800c31 0 58 -25 58 -62c0 -12 -2 -24 -8 -38l-9 -22h-1l-240 -591l-36 -87c-18 -44 -50 -61 -78 -61c-32 0 -59 21 -59 57c0 11 2 22 7 35l23 56l240 591h1v1h-50c-98 0 -169 -45 -169 -151c0 -12 3 -24 8 -33c9 -15 13 -30 13 -42c0 -36 -27 -60 -59 -60
c-56 0 -89 61 -89 136c0 118 85 271 300 271h147h1zM211 -110c38 0 68 -31 68 -69s-30 -69 -68 -69s-69 31 -69 69s31 69 69 69z" />
    <glyph glyph-name="Igrave" unicode="&#xcc;" horiz-adv-x="519" 
d="M482 875l-91 90c-16 16 -23 33 -23 48c0 28 25 51 54 51c21 0 45 -12 63 -40l65 -103c7 -11 10 -22 10 -30c0 -21 -16 -35 -37 -35c-13 0 -28 5 -41 19zM582 800c31 0 58 -25 58 -62c0 -12 -2 -24 -8 -38l-9 -22h-1l-240 -591l-36 -87c-18 -44 -50 -61 -78 -61
c-32 0 -59 21 -59 57c0 11 2 22 7 35l23 56l240 591h1v1h-50c-98 0 -169 -45 -169 -151c0 -12 3 -24 8 -33c9 -15 13 -30 13 -42c0 -36 -27 -60 -59 -60c-56 0 -89 61 -89 136c0 118 85 271 300 271h147h1z" />
    <glyph glyph-name="uni020A" unicode="&#x20a;" horiz-adv-x="519" 
d="M553 1051c65 0 125 -41 125 -112c0 -53 -32 -80 -60 -80c-21 0 -40 16 -40 48c0 5 1 11 2 17c4 26 -16 40 -41 40c-27 0 -58 -16 -67 -49c-8 -28 -34 -43 -57 -43c-21 0 -40 12 -40 36c0 4 1 8 2 13c24 92 104 130 176 130zM582 800c31 0 58 -25 58 -62
c0 -12 -2 -24 -8 -38l-9 -22h-1l-240 -591l-36 -87c-18 -44 -50 -61 -78 -61c-32 0 -59 21 -59 57c0 11 2 22 7 35l23 56l240 591h1v1h-50c-98 0 -169 -45 -169 -151c0 -12 3 -24 8 -33c9 -15 13 -30 13 -42c0 -36 -27 -60 -59 -60c-56 0 -89 61 -89 136
c0 118 85 271 300 271h147h1z" />
    <glyph glyph-name="Imacron" unicode="&#x12a;" horiz-adv-x="519" 
d="M430 883c-78 0 -66 99 13 99h140c82 0 66 -99 -14 -99h-139zM582 800c31 0 58 -25 58 -62c0 -12 -2 -24 -8 -38l-9 -22h-1l-240 -591l-36 -87c-18 -44 -50 -61 -78 -61c-32 0 -59 21 -59 57c0 11 2 22 7 35l23 56l240 591h1v1h-50c-98 0 -169 -45 -169 -151
c0 -12 3 -24 8 -33c9 -15 13 -30 13 -42c0 -36 -27 -60 -59 -60c-56 0 -89 61 -89 136c0 118 85 271 300 271h147h1z" />
    <glyph glyph-name="Iogonek" unicode="&#x12e;" horiz-adv-x="519" 
d="M582 800c31 0 58 -25 58 -62c0 -12 -2 -24 -8 -38l-9 -22h-1l-240 -591l-36 -87c-17 -42 -47 -59 -74 -61c-51 -41 -80 -83 -80 -109c0 -15 10 -24 30 -24c11 0 26 3 44 8c67 19 86 -59 35 -83c-41 -19 -78 -28 -109 -28c-69 0 -114 40 -114 96c0 52 40 117 136 172
c-3 8 -5 16 -5 25c0 11 2 22 7 35l23 56l240 591h1v1h-50c-98 0 -169 -45 -169 -151c0 -12 3 -24 8 -33c9 -15 13 -30 13 -42c0 -36 -27 -60 -59 -60c-56 0 -89 61 -89 136c0 118 85 271 300 271h147h1z" />
    <glyph glyph-name="Itilde" unicode="&#x128;" horiz-adv-x="519" 
d="M674 997c26 -14 32 -38 16 -65c-30 -51 -66 -75 -111 -75c-60 0 -84 51 -117 51c-7 0 -14 -2 -23 -9c-33 -28 -52 -46 -79 -32c-27 12 -33 38 -16 65c32 52 68 77 110 77c57 0 87 -52 120 -52c10 0 23 7 35 21c22 27 41 33 65 19zM582 800c31 0 58 -25 58 -62
c0 -12 -2 -24 -8 -38l-9 -22h-1l-240 -591l-36 -87c-18 -44 -50 -61 -78 -61c-32 0 -59 21 -59 57c0 11 2 22 7 35l23 56l240 591h1v1h-50c-98 0 -169 -45 -169 -151c0 -12 3 -24 8 -33c9 -15 13 -30 13 -42c0 -36 -27 -60 -59 -60c-56 0 -89 61 -89 136
c0 118 85 271 300 271h147h1z" />
    <glyph glyph-name="uni0208" unicode="&#x208;" horiz-adv-x="519" 
d="M429 882l-75 90c-13 16 -17 33 -15 48c5 28 34 51 64 51c20 0 42 -12 55 -40l48 -103c5 -11 5 -22 4 -30c-4 -21 -22 -35 -42 -35c-14 0 -27 5 -39 19zM674 928c5 -11 6 -22 5 -30c-4 -21 -22 -35 -43 -35c-14 0 -27 5 -39 19l-74 90c-14 16 -18 33 -16 48
c5 28 34 51 64 51c21 0 42 -12 55 -40zM582 800c31 0 58 -25 58 -62c0 -12 -2 -24 -8 -38l-9 -22h-1l-240 -591l-36 -87c-18 -44 -50 -61 -78 -61c-32 0 -59 21 -59 57c0 11 2 22 7 35l23 56l240 591h1v1h-50c-98 0 -169 -45 -169 -151c0 -12 3 -24 8 -33
c9 -15 13 -30 13 -42c0 -36 -27 -60 -59 -60c-56 0 -89 61 -89 136c0 118 85 271 300 271h147h1z" />
    <glyph glyph-name="J" unicode="J" horiz-adv-x="544" 
d="M654 330c21 0 41 -16 41 -40c0 -6 -1 -12 -4 -19c-115 -284 -175 -374 -394 -399l-41 -102c-36 -90 -123 -137 -201 -137c-113 0 -173 75 -173 152c0 83 68 168 212 168c34 0 65 0 94 1l293 724h-1v1h-50c-98 0 -169 -45 -169 -151c0 -12 3 -24 8 -33
c9 -15 13 -30 13 -42c0 -36 -27 -60 -59 -60c-56 0 -89 61 -89 136c0 118 85 271 300 271h147h1c31 0 58 -25 58 -62c0 -12 -2 -24 -8 -38l-9 -22h1l-289 -711c139 28 185 107 275 330c10 23 27 33 44 33zM55 -252c46 0 62 33 96 116c-21 -1 -43 -1 -66 -1
c-62 0 -89 -31 -89 -61c0 -28 23 -54 59 -54z" />
    <glyph glyph-name="Jcircumflex" unicode="&#x134;" horiz-adv-x="544" 
d="M464 885c-67 -60 -125 22 -69 65l131 103c30 23 58 19 77 -14l55 -93c40 -69 -47 -121 -91 -40l-26 47zM654 330c21 0 41 -16 41 -40c0 -6 -1 -12 -4 -19c-115 -284 -175 -374 -394 -399l-41 -102c-36 -90 -123 -137 -201 -137c-113 0 -173 75 -173 152
c0 83 68 168 212 168c34 0 65 0 94 1l293 724h-1v1h-50c-98 0 -169 -45 -169 -151c0 -12 3 -24 8 -33c9 -15 13 -30 13 -42c0 -36 -27 -60 -59 -60c-56 0 -89 61 -89 136c0 118 85 271 300 271h147h1c31 0 58 -25 58 -62c0 -12 -2 -24 -8 -38l-9 -22h1l-289 -711
c139 28 185 107 275 330c10 23 27 33 44 33zM55 -252c46 0 62 33 96 116c-21 -1 -43 -1 -66 -1c-62 0 -89 -31 -89 -61c0 -28 23 -54 59 -54z" />
    <glyph glyph-name="uniE133" unicode="&#xe133;" horiz-adv-x="1063" 
d="M529 863c-21 0 -37 14 -37 35c0 8 3 19 10 30l66 103c18 28 41 40 62 40c30 0 55 -23 55 -51c0 -15 -7 -32 -24 -48l-91 -90c-13 -14 -27 -19 -41 -19zM1031 863c-21 0 -37 14 -37 35c0 8 3 19 10 30l66 103c18 28 41 40 62 40c30 0 55 -23 55 -51c0 -15 -7 -32 -24 -48
l-91 -90c-13 -14 -27 -19 -41 -19zM623 678h-1l-240 -591l-36 -87c-18 -44 -50 -61 -78 -61c-32 0 -59 21 -59 57c0 11 2 22 7 35l23 56l240 591h1v1h-50c-98 0 -169 -45 -169 -151c0 -12 3 -24 8 -33c9 -15 13 -30 13 -42c0 -36 -27 -60 -59 -60c-56 0 -89 61 -89 136
c0 118 85 271 300 271h147h1c31 0 58 -25 58 -62c0 -12 -2 -24 -8 -38zM1173 330c21 0 41 -16 41 -40c0 -6 -1 -12 -4 -19c-115 -284 -175 -374 -394 -399l-41 -102c-36 -90 -123 -137 -201 -137c-113 0 -173 75 -173 152c0 83 68 168 212 168c34 0 65 0 94 1l293 724h-1v1
h-50c-98 0 -169 -45 -169 -151c0 -12 3 -24 8 -33c9 -15 13 -30 13 -42c0 -36 -27 -60 -59 -60c-56 0 -89 61 -89 136c0 118 85 271 300 271h147h1c31 0 58 -25 58 -62c0 -12 -2 -24 -8 -38l-9 -22h1l-289 -711c139 28 185 107 275 330c10 23 27 33 44 33zM574 -252
c46 0 62 33 96 116c-21 -1 -43 -1 -66 -1c-62 0 -89 -31 -89 -61c0 -28 23 -54 59 -54z" />
    <glyph glyph-name="K" unicode="K" horiz-adv-x="883" 
d="M993 329c21 0 39 -14 39 -37c0 -7 -1 -14 -4 -21c-72 -208 -185 -290 -275 -290c-114 0 -167 71 -251 399l-102 -251l-36 -87c-18 -44 -50 -61 -78 -61c-32 0 -59 21 -59 57c0 11 2 22 7 35l23 56l223 549v1h-50c-98 0 -169 -45 -169 -151c0 -12 3 -24 8 -33
c9 -15 13 -30 13 -42c0 -36 -27 -60 -59 -60c-56 0 -89 61 -89 136c0 118 85 271 300 271h147h1c31 0 58 -25 58 -62c0 -12 -2 -24 -8 -38l-9 -22l-96 -236l336 323c28 26 54 37 76 37c32 0 52 -23 52 -53c0 -22 -10 -48 -36 -72l-310 -301c57 -213 95 -259 145 -259
c72 0 114 75 158 180c10 23 28 32 45 32z" />
    <glyph glyph-name="Kcommaaccent" unicode="&#x136;" horiz-adv-x="883" 
d="M993 329c21 0 39 -14 39 -37c0 -7 -1 -14 -4 -21c-72 -208 -185 -290 -275 -290c-114 0 -167 71 -251 399l-102 -251l-36 -87c-18 -44 -50 -61 -78 -61c-32 0 -59 21 -59 57c0 11 2 22 7 35l23 56l223 549v1h-50c-98 0 -169 -45 -169 -151c0 -12 3 -24 8 -33
c9 -15 13 -30 13 -42c0 -36 -27 -60 -59 -60c-56 0 -89 61 -89 136c0 118 85 271 300 271h147h1c31 0 58 -25 58 -62c0 -12 -2 -24 -8 -38l-9 -22l-96 -236l336 323c28 26 54 37 76 37c32 0 52 -23 52 -53c0 -22 -10 -48 -36 -72l-310 -301c57 -213 95 -259 145 -259
c72 0 114 75 158 180c10 23 28 32 45 32zM432 -76c41 0 78 -27 78 -83c0 -63 -49 -174 -129 -201c-6 -2 -11 -3 -15 -3c-15 0 -24 11 -24 24c0 8 5 18 14 26c27 24 42 52 42 75c0 20 -12 35 -36 35c-26 0 -37 15 -37 34c0 38 43 93 107 93z" />
    <glyph glyph-name="L" unicode="L" horiz-adv-x="860" 
d="M984 327c19 -6 27 -19 27 -35c0 -7 -1 -14 -4 -21c-115 -286 -165 -351 -289 -351c-109 0 -198 80 -279 152c-49 -61 -109 -91 -193 -91c-130 0 -194 75 -194 150c0 77 67 155 200 155c48 0 94 -14 138 -35l9 19c7 15 52 125 79 193c-107 34 -193 103 -193 208
c0 72 43 143 107 174c15 7 27 10 39 10c33 0 56 -24 56 -52c0 -20 -11 -42 -37 -58c-28 -17 -41 -40 -41 -74c0 -49 52 -82 114 -100c83 190 152 252 265 259c116 7 172 -68 172 -147c0 -111 -111 -246 -311 -246c-13 0 -27 0 -40 1c-32 -76 -68 -165 -87 -213l-18 -41
c84 -58 157 -119 214 -119c97 0 133 39 209 232c8 21 21 32 39 32c6 0 11 0 18 -2zM797 711c-54 0 -95 -51 -141 -157c121 5 184 71 184 117c0 25 -17 40 -43 40zM250 99c41 0 63 10 89 51c-31 19 -61 31 -93 31c-47 0 -70 -20 -70 -40s25 -42 74 -42z" />
    <glyph glyph-name="Lacute" unicode="&#x139;" horiz-adv-x="860" 
d="M834 888c-21 0 -37 14 -37 35c0 8 3 19 10 30l66 103c18 28 41 40 62 40c30 0 55 -23 55 -51c0 -15 -7 -32 -24 -48l-91 -90c-13 -14 -27 -19 -41 -19zM984 327c19 -6 27 -19 27 -35c0 -7 -1 -14 -4 -21c-115 -286 -165 -351 -289 -351c-109 0 -198 80 -279 152
c-49 -61 -109 -91 -193 -91c-130 0 -194 75 -194 150c0 77 67 155 200 155c48 0 94 -14 138 -35l9 19c7 15 52 125 79 193c-107 34 -193 103 -193 208c0 72 43 143 107 174c15 7 27 10 39 10c33 0 56 -24 56 -52c0 -20 -11 -42 -37 -58c-28 -17 -41 -40 -41 -74
c0 -49 52 -82 114 -100c83 190 152 252 265 259c116 7 172 -68 172 -147c0 -111 -111 -246 -311 -246c-13 0 -27 0 -40 1c-32 -76 -68 -165 -87 -213l-18 -41c84 -58 157 -119 214 -119c97 0 133 39 209 232c8 21 21 32 39 32c6 0 11 0 18 -2zM797 711
c-54 0 -95 -51 -141 -157c121 5 184 71 184 117c0 25 -17 40 -43 40zM250 99c41 0 63 10 89 51c-31 19 -61 31 -93 31c-47 0 -70 -20 -70 -40s25 -42 74 -42z" />
    <glyph glyph-name="Lcaron" unicode="&#x13d;" horiz-adv-x="860" 
d="M773 917l-55 93c-41 69 47 121 91 40l25 -46l77 68c68 59 126 -23 70 -66l-132 -103c-29 -23 -57 -19 -76 14zM984 327c19 -6 27 -19 27 -35c0 -7 -1 -14 -4 -21c-115 -286 -165 -351 -289 -351c-109 0 -198 80 -279 152c-49 -61 -109 -91 -193 -91
c-130 0 -194 75 -194 150c0 77 67 155 200 155c48 0 94 -14 138 -35l9 19c7 15 52 125 79 193c-107 34 -193 103 -193 208c0 72 43 143 107 174c15 7 27 10 39 10c33 0 56 -24 56 -52c0 -20 -11 -42 -37 -58c-28 -17 -41 -40 -41 -74c0 -49 52 -82 114 -100
c83 190 152 252 265 259c116 7 172 -68 172 -147c0 -111 -111 -246 -311 -246c-13 0 -27 0 -40 1c-32 -76 -68 -165 -87 -213l-18 -41c84 -58 157 -119 214 -119c97 0 133 39 209 232c8 21 21 32 39 32c6 0 11 0 18 -2zM797 711c-54 0 -95 -51 -141 -157
c121 5 184 71 184 117c0 25 -17 40 -43 40zM250 99c41 0 63 10 89 51c-31 19 -61 31 -93 31c-47 0 -70 -20 -70 -40s25 -42 74 -42z" />
    <glyph glyph-name="Lcommaaccent" unicode="&#x13b;" horiz-adv-x="860" 
d="M984 327c19 -6 27 -19 27 -35c0 -7 -1 -14 -4 -21c-115 -286 -165 -351 -289 -351c-109 0 -198 80 -279 152c-49 -61 -109 -91 -193 -91c-130 0 -194 75 -194 150c0 77 67 155 200 155c48 0 94 -14 138 -35l9 19c7 15 52 125 79 193c-107 34 -193 103 -193 208
c0 72 43 143 107 174c15 7 27 10 39 10c33 0 56 -24 56 -52c0 -20 -11 -42 -37 -58c-28 -17 -41 -40 -41 -74c0 -49 52 -82 114 -100c83 190 152 252 265 259c116 7 172 -68 172 -147c0 -111 -111 -246 -311 -246c-13 0 -27 0 -40 1c-32 -76 -68 -165 -87 -213l-18 -41
c84 -58 157 -119 214 -119c97 0 133 39 209 232c8 21 21 32 39 32c6 0 11 0 18 -2zM797 711c-54 0 -95 -51 -141 -157c121 5 184 71 184 117c0 25 -17 40 -43 40zM250 99c41 0 63 10 89 51c-31 19 -61 31 -93 31c-47 0 -70 -20 -70 -40s25 -42 74 -42zM412 -76
c41 0 78 -27 78 -83c0 -63 -49 -174 -129 -201c-6 -2 -11 -3 -15 -3c-15 0 -24 11 -24 24c0 8 5 18 14 26c27 24 42 52 42 75c0 20 -12 35 -36 35c-26 0 -37 15 -37 34c0 38 43 93 107 93z" />
    <glyph glyph-name="uni1E36" unicode="&#x1e36;" horiz-adv-x="860" 
d="M984 327c19 -6 27 -19 27 -35c0 -7 -1 -14 -4 -21c-115 -286 -165 -351 -289 -351c-109 0 -198 80 -279 152c-49 -61 -109 -91 -193 -91c-130 0 -194 75 -194 150c0 77 67 155 200 155c48 0 94 -14 138 -35l9 19c7 15 52 125 79 193c-107 34 -193 103 -193 208
c0 72 43 143 107 174c15 7 27 10 39 10c33 0 56 -24 56 -52c0 -20 -11 -42 -37 -58c-28 -17 -41 -40 -41 -74c0 -49 52 -82 114 -100c83 190 152 252 265 259c116 7 172 -68 172 -147c0 -111 -111 -246 -311 -246c-13 0 -27 0 -40 1c-32 -76 -68 -165 -87 -213l-18 -41
c84 -58 157 -119 214 -119c97 0 133 39 209 232c8 21 21 32 39 32c6 0 11 0 18 -2zM797 711c-54 0 -95 -51 -141 -157c121 5 184 71 184 117c0 25 -17 40 -43 40zM250 99c41 0 63 10 89 51c-31 19 -61 31 -93 31c-47 0 -70 -20 -70 -40s25 -42 74 -42zM242 -62
c38 0 68 -31 68 -69s-30 -69 -68 -69s-69 31 -69 69s31 69 69 69z" />
    <glyph glyph-name="uni1E3A" unicode="&#x1e3a;" horiz-adv-x="860" 
d="M984 327c19 -6 27 -19 27 -35c0 -7 -1 -14 -4 -21c-115 -286 -165 -351 -289 -351c-109 0 -198 80 -279 152c-49 -61 -109 -91 -193 -91c-130 0 -194 75 -194 150c0 77 67 155 200 155c48 0 94 -14 138 -35l9 19c7 15 52 125 79 193c-107 34 -193 103 -193 208
c0 72 43 143 107 174c15 7 27 10 39 10c33 0 56 -24 56 -52c0 -20 -11 -42 -37 -58c-28 -17 -41 -40 -41 -74c0 -49 52 -82 114 -100c83 190 152 252 265 259c116 7 172 -68 172 -147c0 -111 -111 -246 -311 -246c-13 0 -27 0 -40 1c-32 -76 -68 -165 -87 -213l-18 -41
c84 -58 157 -119 214 -119c97 0 133 39 209 232c8 21 21 32 39 32c6 0 11 0 18 -2zM797 711c-54 0 -95 -51 -141 -157c121 5 184 71 184 117c0 25 -17 40 -43 40zM250 99c41 0 63 10 89 51c-31 19 -61 31 -93 31c-47 0 -70 -20 -70 -40s25 -42 74 -42zM464 -102
c37 0 54 -20 54 -43c0 -27 -24 -56 -68 -56h-139c-36 0 -53 21 -53 44c0 26 23 55 66 55h140z" />
    <glyph glyph-name="Lslash" unicode="&#x141;" horiz-adv-x="860" 
d="M984 327c19 -6 27 -19 27 -35c0 -7 -1 -14 -4 -21c-115 -286 -165 -351 -289 -351c-109 0 -198 80 -279 152c-49 -61 -109 -91 -193 -91c-130 0 -194 75 -194 150c0 77 67 155 200 155c48 0 94 -14 138 -35l9 19c2 4 6 13 11 25c-4 -1 -8 -1 -12 -1c-30 0 -45 18 -45 38
c0 23 20 49 58 54l38 5c10 26 21 51 29 72c-107 34 -193 103 -193 208c0 72 43 143 107 174c15 7 27 10 39 10c33 0 56 -24 56 -52c0 -20 -11 -42 -37 -58c-28 -17 -41 -40 -41 -74c0 -49 52 -82 114 -100c83 190 152 252 265 259c116 7 172 -68 172 -147
c0 -111 -111 -246 -311 -246c-13 0 -27 0 -40 1c-4 -8 -8 -17 -11 -26c31 0 46 -18 46 -38c0 -23 -20 -49 -59 -54l-26 -4c-15 -36 -28 -68 -37 -91l-18 -41c84 -58 157 -119 214 -119c97 0 133 39 209 232c8 21 21 32 39 32c6 0 11 0 18 -2zM797 711
c-54 0 -95 -51 -141 -157c121 5 184 71 184 117c0 25 -17 40 -43 40zM250 99c41 0 63 10 89 51c-31 19 -61 31 -93 31c-47 0 -70 -20 -70 -40s25 -42 74 -42z" />
    <glyph glyph-name="Lmiddledot" unicode="&#x13f;" horiz-adv-x="860" 
d="M984 327c19 -6 27 -19 27 -35c0 -7 -1 -14 -4 -21c-115 -286 -165 -351 -289 -351c-109 0 -198 80 -279 152c-49 -61 -109 -91 -193 -91c-130 0 -194 75 -194 150c0 77 67 155 200 155c48 0 94 -14 138 -35l9 19c7 15 52 125 79 193c-107 34 -193 103 -193 208
c0 72 43 143 107 174c15 7 27 10 39 10c33 0 56 -24 56 -52c0 -20 -11 -42 -37 -58c-28 -17 -41 -40 -41 -74c0 -49 52 -82 114 -100c83 190 152 252 265 259c116 7 172 -68 172 -147c0 -111 -111 -246 -311 -246c-13 0 -27 0 -40 1c-32 -76 -68 -165 -87 -213l-18 -41
c84 -58 157 -119 214 -119c97 0 133 39 209 232c8 21 21 32 39 32c6 0 11 0 18 -2zM797 711c-54 0 -95 -51 -141 -157c121 5 184 71 184 117c0 25 -17 40 -43 40zM682 288c0 38 31 69 69 69s68 -31 68 -69s-30 -69 -68 -69s-69 31 -69 69zM250 99c41 0 63 10 89 51
c-31 19 -61 31 -93 31c-47 0 -70 -20 -70 -40s25 -42 74 -42z" />
    <glyph glyph-name="M" unicode="M" horiz-adv-x="949" 
d="M991 800c66 0 77 -58 50 -127l-118 -290c-89 -220 -105 -268 -105 -320c0 -31 24 -51 24 -86c0 -41 -38 -67 -70 -67c-56 0 -95 73 -95 139c0 51 16 116 56 212l128 317l-116 -99c-63 -51 -75 -46 -112 18l-46 80l-182 -448l-36 -87c-18 -44 -50 -61 -78 -61
c-32 0 -59 21 -59 57c0 11 2 22 7 35l23 56l224 550h-56c-98 0 -169 -45 -169 -151c0 -12 3 -24 8 -33c9 -15 13 -30 13 -42c0 -36 -27 -60 -59 -60c-56 0 -89 61 -89 136c0 118 85 271 300 271h147c20 -1 41 -16 56 -43l83 -146l178 139c40 32 65 50 93 50z" />
    <glyph glyph-name="uni1E42" unicode="&#x1e42;" horiz-adv-x="949" 
d="M991 800c66 0 77 -58 50 -127l-118 -290c-89 -220 -105 -268 -105 -320c0 -31 24 -51 24 -86c0 -41 -38 -67 -70 -67c-56 0 -95 73 -95 139c0 51 16 116 56 212l128 317l-116 -99c-63 -51 -75 -46 -112 18l-46 80l-182 -448l-36 -87c-18 -44 -50 -61 -78 -61
c-32 0 -59 21 -59 57c0 11 2 22 7 35l23 56l224 550h-56c-98 0 -169 -45 -169 -151c0 -12 3 -24 8 -33c9 -15 13 -30 13 -42c0 -36 -27 -60 -59 -60c-56 0 -89 61 -89 136c0 118 85 271 300 271h147c20 -1 41 -16 56 -43l83 -146l178 139c40 32 65 50 93 50zM483 -60
c38 0 68 -31 68 -69s-30 -69 -68 -69s-69 31 -69 69s31 69 69 69z" />
    <glyph glyph-name="N" unicode="N" horiz-adv-x="882" 
d="M945 800c31 0 58 -25 58 -62c0 -12 -2 -24 -8 -38l-9 -22l-256 -629c-20 -46 -50 -68 -79 -68c-32 0 -60 27 -68 79l-59 366l-103 -253c-41 -96 -70 -159 -106 -197c-29 -31 -75 -53 -115 -53c-20 0 -38 5 -51 18c-12 12 -18 27 -18 44c0 16 6 32 20 47
c26 25 56 22 78 45c23 25 43 76 88 187l169 415h-56c-98 0 -169 -45 -169 -151c0 -12 3 -24 8 -33c9 -15 13 -30 13 -42c0 -36 -27 -60 -59 -60c-56 0 -89 61 -89 136c0 118 85 271 300 271h147c25 -2 45 -27 52 -77l51 -436l181 445c20 48 51 68 80 68z" />
    <glyph glyph-name="Nacute" unicode="&#x143;" horiz-adv-x="882" 
d="M778 853c-21 0 -37 14 -37 35c0 8 3 19 10 30l66 103c18 28 41 40 62 40c30 0 55 -23 55 -51c0 -15 -7 -32 -24 -48l-91 -90c-13 -14 -27 -19 -41 -19zM945 800c31 0 58 -25 58 -62c0 -12 -2 -24 -8 -38l-9 -22l-256 -629c-20 -46 -50 -68 -79 -68c-32 0 -60 27 -68 79
l-59 366l-103 -253c-41 -96 -70 -159 -106 -197c-29 -31 -75 -53 -115 -53c-20 0 -38 5 -51 18c-12 12 -18 27 -18 44c0 16 6 32 20 47c26 25 56 22 78 45c23 25 43 76 88 187l169 415h-56c-98 0 -169 -45 -169 -151c0 -12 3 -24 8 -33c9 -15 13 -30 13 -42
c0 -36 -27 -60 -59 -60c-56 0 -89 61 -89 136c0 118 85 271 300 271h147c25 -2 45 -27 52 -77l51 -436l181 445c20 48 51 68 80 68z" />
    <glyph glyph-name="Ncaron" unicode="&#x147;" horiz-adv-x="882" 
d="M717 882l-55 93c-41 69 47 121 91 40l25 -46l77 68c68 59 126 -23 70 -66l-132 -103c-29 -23 -57 -19 -76 14zM945 800c31 0 58 -25 58 -62c0 -12 -2 -24 -8 -38l-9 -22l-256 -629c-20 -46 -50 -68 -79 -68c-32 0 -60 27 -68 79l-59 366l-103 -253
c-41 -96 -70 -159 -106 -197c-29 -31 -75 -53 -115 -53c-20 0 -38 5 -51 18c-12 12 -18 27 -18 44c0 16 6 32 20 47c26 25 56 22 78 45c23 25 43 76 88 187l169 415h-56c-98 0 -169 -45 -169 -151c0 -12 3 -24 8 -33c9 -15 13 -30 13 -42c0 -36 -27 -60 -59 -60
c-56 0 -89 61 -89 136c0 118 85 271 300 271h147c25 -2 45 -27 52 -77l51 -436l181 445c20 48 51 68 80 68z" />
    <glyph glyph-name="Ncommaaccent" unicode="&#x145;" horiz-adv-x="882" 
d="M945 800c31 0 58 -25 58 -62c0 -12 -2 -24 -8 -38l-9 -22l-256 -629c-20 -46 -50 -68 -79 -68c-32 0 -60 27 -68 79l-59 366l-103 -253c-41 -96 -70 -159 -106 -197c-29 -31 -75 -53 -115 -53c-20 0 -38 5 -51 18c-12 12 -18 27 -18 44c0 16 6 32 20 47
c26 25 56 22 78 45c23 25 43 76 88 187l169 415h-56c-98 0 -169 -45 -169 -151c0 -12 3 -24 8 -33c9 -15 13 -30 13 -42c0 -36 -27 -60 -59 -60c-56 0 -89 61 -89 136c0 118 85 271 300 271h147c25 -2 45 -27 52 -77l51 -436l181 445c20 48 51 68 80 68zM432 -76
c41 0 78 -27 78 -83c0 -63 -49 -174 -129 -201c-6 -2 -11 -3 -15 -3c-15 0 -24 11 -24 24c0 8 5 18 14 26c27 24 42 52 42 75c0 20 -12 35 -36 35c-26 0 -37 15 -37 34c0 38 43 93 107 93z" />
    <glyph glyph-name="uni1E44" unicode="&#x1e44;" horiz-adv-x="882" 
d="M796 860c-38 0 -69 31 -69 69s31 69 69 69s68 -31 68 -69s-30 -69 -68 -69zM945 800c31 0 58 -25 58 -62c0 -12 -2 -24 -8 -38l-9 -22l-256 -629c-20 -46 -50 -68 -79 -68c-32 0 -60 27 -68 79l-59 366l-103 -253c-41 -96 -70 -159 -106 -197c-29 -31 -75 -53 -115 -53
c-20 0 -38 5 -51 18c-12 12 -18 27 -18 44c0 16 6 32 20 47c26 25 56 22 78 45c23 25 43 76 88 187l169 415h-56c-98 0 -169 -45 -169 -151c0 -12 3 -24 8 -33c9 -15 13 -30 13 -42c0 -36 -27 -60 -59 -60c-56 0 -89 61 -89 136c0 118 85 271 300 271h147
c25 -2 45 -27 52 -77l51 -436l181 445c20 48 51 68 80 68z" />
    <glyph glyph-name="uni1E46" unicode="&#x1e46;" horiz-adv-x="882" 
d="M945 800c31 0 58 -25 58 -62c0 -12 -2 -24 -8 -38l-9 -22l-256 -629c-20 -46 -50 -68 -79 -68c-32 0 -60 27 -68 79l-59 366l-103 -253c-41 -96 -70 -159 -106 -197c-29 -31 -75 -53 -115 -53c-20 0 -38 5 -51 18c-12 12 -18 27 -18 44c0 16 6 32 20 47
c26 25 56 22 78 45c23 25 43 76 88 187l169 415h-56c-98 0 -169 -45 -169 -151c0 -12 3 -24 8 -33c9 -15 13 -30 13 -42c0 -36 -27 -60 -59 -60c-56 0 -89 61 -89 136c0 118 85 271 300 271h147c25 -2 45 -27 52 -77l51 -436l181 445c20 48 51 68 80 68zM452 -62
c38 0 68 -31 68 -69s-30 -69 -68 -69s-69 31 -69 69s31 69 69 69z" />
    <glyph glyph-name="Eng" unicode="&#x14a;" horiz-adv-x="809" 
d="M793 800c63 0 114 -38 114 -104c0 -29 -26 -96 -53 -163l-164 -404l-121 -296c-45 -109 -123 -151 -195 -151c-103 0 -151 73 -151 139c0 73 50 107 96 107c39 0 75 -25 75 -69c0 -30 -20 -58 -54 -58c-9 0 -17 2 -24 6c-10 6 -17 3 -12 -7c8 -16 24 -27 44 -27
c33 0 63 26 98 111l166 405l99 244c21 51 40 98 40 115c0 20 -9 33 -34 33c-31 0 -82 -21 -124 -77l-193 -475l-36 -87c-18 -44 -50 -61 -78 -61c-32 0 -59 21 -59 57c0 11 2 22 7 35l23 56l223 549v1h-50c-98 0 -169 -45 -169 -151c0 -12 3 -24 8 -33c9 -15 13 -30 13 -42
c0 -36 -27 -60 -59 -60c-56 0 -89 61 -89 136c0 118 85 271 300 271h147h1c29 0 55 -22 58 -56c52 38 111 56 153 56z" />
    <glyph glyph-name="uni1E48" unicode="&#x1e48;" horiz-adv-x="882" 
d="M945 800c31 0 58 -25 58 -62c0 -12 -2 -24 -8 -38l-9 -22l-256 -629c-20 -46 -50 -68 -79 -68c-32 0 -60 27 -68 79l-59 366l-103 -253c-41 -96 -70 -159 -106 -197c-29 -31 -75 -53 -115 -53c-20 0 -38 5 -51 18c-12 12 -18 27 -18 44c0 16 6 32 20 47
c26 25 56 22 78 45c23 25 43 76 88 187l169 415h-56c-98 0 -169 -45 -169 -151c0 -12 3 -24 8 -33c9 -15 13 -30 13 -42c0 -36 -27 -60 -59 -60c-56 0 -89 61 -89 136c0 118 85 271 300 271h147c25 -2 45 -27 52 -77l51 -436l181 445c20 48 51 68 80 68zM504 -102
c37 0 54 -20 54 -43c0 -27 -24 -56 -68 -56h-139c-36 0 -53 21 -53 44c0 26 23 55 66 55h140z" />
    <glyph glyph-name="Ntilde" unicode="&#xd1;" horiz-adv-x="882" 
d="M640 857c-27 12 -33 38 -16 65c32 52 68 77 110 77c57 0 87 -52 120 -52c10 0 23 7 35 21c22 27 41 33 65 19c26 -14 32 -38 16 -65c-30 -51 -66 -75 -111 -75c-60 0 -84 51 -117 51c-7 0 -14 -2 -23 -9c-33 -28 -52 -46 -79 -32zM945 800c31 0 58 -25 58 -62
c0 -12 -2 -24 -8 -38l-9 -22l-256 -629c-20 -46 -50 -68 -79 -68c-32 0 -60 27 -68 79l-59 366l-103 -253c-41 -96 -70 -159 -106 -197c-29 -31 -75 -53 -115 -53c-20 0 -38 5 -51 18c-12 12 -18 27 -18 44c0 16 6 32 20 47c26 25 56 22 78 45c23 25 43 76 88 187l169 415
h-56c-98 0 -169 -45 -169 -151c0 -12 3 -24 8 -33c9 -15 13 -30 13 -42c0 -36 -27 -60 -59 -60c-56 0 -89 61 -89 136c0 118 85 271 300 271h147c25 -2 45 -27 52 -77l51 -436l181 445c20 48 51 68 80 68z" />
    <glyph glyph-name="uni019D" unicode="&#x19d;" horiz-adv-x="882" 
d="M945 800c31 0 58 -25 58 -62c0 -12 -2 -24 -8 -38l-9 -22l-256 -629c-20 -46 -50 -68 -79 -68c-32 0 -60 27 -68 79l-59 366l-242 -593c-45 -109 -122 -151 -193 -151c-103 0 -151 73 -151 139c0 73 50 107 96 107c39 0 75 -25 75 -69c0 -30 -20 -58 -54 -58
c-9 0 -17 2 -24 6c-10 6 -17 3 -12 -7c8 -16 24 -27 44 -27c33 0 63 26 98 111l166 405l159 390h-56c-98 0 -169 -45 -169 -151c0 -12 3 -24 8 -33c9 -15 13 -30 13 -42c0 -36 -27 -60 -59 -60c-56 0 -89 61 -89 136c0 118 85 271 300 271h147c25 -2 45 -27 52 -77l51 -436
l181 445c20 48 51 68 80 68z" />
    <glyph glyph-name="O" unicode="O" horiz-adv-x="815" 
d="M830 673c0 -30 -10 -60 -31 -87c10 -37 15 -77 15 -118c0 -241 -170 -523 -389 -523c-164 0 -233 122 -233 274c0 88 22 184 61 273h-61c-47 0 -68 25 -68 53c0 32 29 67 80 67h116c82 118 199 204 335 204c112 0 175 -69 175 -143zM653 703c-69 0 -130 -36 -180 -91h87
c108 0 146 29 146 55c0 19 -22 36 -53 36zM441 70c138 1 248 233 248 404c0 13 -1 26 -2 38c-38 -13 -85 -20 -140 -20h-154c-41 -84 -64 -180 -64 -260c0 -93 34 -162 112 -162z" />
    <glyph glyph-name="Oacute" unicode="&#xd3;" horiz-adv-x="815" 
d="M676 877c-21 0 -37 14 -37 35c0 8 3 19 10 30l66 103c18 28 41 40 62 40c30 0 55 -23 55 -51c0 -15 -7 -32 -24 -48l-91 -90c-13 -14 -27 -19 -41 -19zM655 816c112 0 175 -69 175 -143c0 -30 -10 -60 -31 -87c10 -37 15 -77 15 -118c0 -241 -170 -523 -389 -523
c-164 0 -233 122 -233 274c0 88 22 184 61 273h-61c-47 0 -68 25 -68 53c0 32 29 67 80 67h116c82 118 199 204 335 204zM653 703c-69 0 -130 -36 -180 -91h87c108 0 146 29 146 55c0 19 -22 36 -53 36zM441 70c138 1 248 233 248 404c0 13 -1 26 -2 38
c-38 -13 -85 -20 -140 -20h-154c-41 -84 -64 -180 -64 -260c0 -93 34 -162 112 -162z" />
    <glyph glyph-name="Obreve" unicode="&#x14e;" horiz-adv-x="815" 
d="M816 1062c22 0 40 -16 40 -40c0 -4 -1 -9 -2 -13c-24 -92 -106 -136 -179 -136c-66 0 -125 37 -125 110c0 9 1 18 3 29c7 36 35 53 59 53c21 0 37 -11 37 -36c0 -3 0 -7 -1 -11c-2 -7 -2 -13 -2 -18c0 -27 17 -41 36 -41c26 0 58 20 74 56c15 33 39 47 60 47zM655 816
c112 0 175 -69 175 -143c0 -30 -10 -60 -31 -87c10 -37 15 -77 15 -118c0 -241 -170 -523 -389 -523c-164 0 -233 122 -233 274c0 88 22 184 61 273h-61c-47 0 -68 25 -68 53c0 32 29 67 80 67h116c82 118 199 204 335 204zM653 703c-69 0 -130 -36 -180 -91h87
c108 0 146 29 146 55c0 19 -22 36 -53 36zM441 70c138 1 248 233 248 404c0 13 -1 26 -2 38c-38 -13 -85 -20 -140 -20h-154c-41 -84 -64 -180 -64 -260c0 -93 34 -162 112 -162z" />
    <glyph glyph-name="uni01D1" unicode="&#x1d1;" horiz-adv-x="815" 
d="M615 906l-55 93c-41 69 47 121 91 40l25 -46l77 68c68 59 126 -23 70 -66l-132 -103c-29 -23 -57 -19 -76 14zM655 816c112 0 175 -69 175 -143c0 -30 -10 -60 -31 -87c10 -37 15 -77 15 -118c0 -241 -170 -523 -389 -523c-164 0 -233 122 -233 274c0 88 22 184 61 273
h-61c-47 0 -68 25 -68 53c0 32 29 67 80 67h116c82 118 199 204 335 204zM653 703c-69 0 -130 -36 -180 -91h87c108 0 146 29 146 55c0 19 -22 36 -53 36zM441 70c138 1 248 233 248 404c0 13 -1 26 -2 38c-38 -13 -85 -20 -140 -20h-154c-41 -84 -64 -180 -64 -260
c0 -93 34 -162 112 -162z" />
    <glyph glyph-name="Ocircumflex" unicode="&#xd4;" horiz-adv-x="815" 
d="M628 899c-67 -60 -125 22 -69 65l131 103c30 23 58 19 77 -14l55 -93c40 -69 -47 -121 -91 -40l-26 47zM655 816c112 0 175 -69 175 -143c0 -30 -10 -60 -31 -87c10 -37 15 -77 15 -118c0 -241 -170 -523 -389 -523c-164 0 -233 122 -233 274c0 88 22 184 61 273h-61
c-47 0 -68 25 -68 53c0 32 29 67 80 67h116c82 118 199 204 335 204zM653 703c-69 0 -130 -36 -180 -91h87c108 0 146 29 146 55c0 19 -22 36 -53 36zM441 70c138 1 248 233 248 404c0 13 -1 26 -2 38c-38 -13 -85 -20 -140 -20h-154c-41 -84 -64 -180 -64 -260
c0 -93 34 -162 112 -162z" />
    <glyph glyph-name="Odieresis" unicode="&#xd6;" horiz-adv-x="815" 
d="M618 884c-38 0 -69 31 -69 69s31 69 69 69s68 -31 68 -69s-30 -69 -68 -69zM797 1022c38 0 68 -31 68 -69s-30 -69 -68 -69s-69 31 -69 69s31 69 69 69zM655 816c112 0 175 -69 175 -143c0 -30 -10 -60 -31 -87c10 -37 15 -77 15 -118c0 -241 -170 -523 -389 -523
c-164 0 -233 122 -233 274c0 88 22 184 61 273h-61c-47 0 -68 25 -68 53c0 32 29 67 80 67h116c82 118 199 204 335 204zM653 703c-69 0 -130 -36 -180 -91h87c108 0 146 29 146 55c0 19 -22 36 -53 36zM441 70c138 1 248 233 248 404c0 13 -1 26 -2 38
c-38 -13 -85 -20 -140 -20h-154c-41 -84 -64 -180 -64 -260c0 -93 34 -162 112 -162z" />
    <glyph glyph-name="uni1ECC" unicode="&#x1ecc;" horiz-adv-x="815" 
d="M830 673c0 -30 -10 -60 -31 -87c10 -37 15 -77 15 -118c0 -241 -170 -523 -389 -523c-164 0 -233 122 -233 274c0 88 22 184 61 273h-61c-47 0 -68 25 -68 53c0 32 29 67 80 67h116c82 118 199 204 335 204c112 0 175 -69 175 -143zM653 703c-69 0 -130 -36 -180 -91h87
c108 0 146 29 146 55c0 19 -22 36 -53 36zM441 70c138 1 248 233 248 404c0 13 -1 26 -2 38c-38 -13 -85 -20 -140 -20h-154c-41 -84 -64 -180 -64 -260c0 -93 34 -162 112 -162zM315 -105c38 0 68 -31 68 -69s-30 -69 -68 -69s-69 31 -69 69s31 69 69 69z" />
    <glyph glyph-name="Ograve" unicode="&#xd2;" horiz-adv-x="815" 
d="M660 889l-91 90c-16 16 -23 33 -23 48c0 28 25 51 54 51c21 0 45 -12 63 -40l65 -103c7 -11 10 -22 10 -30c0 -21 -16 -35 -37 -35c-13 0 -28 5 -41 19zM830 673c0 -30 -10 -60 -31 -87c10 -37 15 -77 15 -118c0 -241 -170 -523 -389 -523c-164 0 -233 122 -233 274
c0 88 22 184 61 273h-61c-47 0 -68 25 -68 53c0 32 29 67 80 67h116c82 118 199 204 335 204c112 0 175 -69 175 -143zM653 703c-69 0 -130 -36 -180 -91h87c108 0 146 29 146 55c0 19 -22 36 -53 36zM441 70c138 1 248 233 248 404c0 13 -1 26 -2 38
c-38 -13 -85 -20 -140 -20h-154c-41 -84 -64 -180 -64 -260c0 -93 34 -162 112 -162z" />
    <glyph glyph-name="Ohungarumlaut" unicode="&#x150;" horiz-adv-x="815" 
d="M585 870c-21 0 -37 14 -37 35c0 8 3 19 10 30l66 103c18 28 41 40 62 40c30 0 55 -23 55 -51c0 -15 -7 -32 -24 -48l-90 -90c-14 -14 -28 -19 -42 -19zM854 1078c30 0 55 -23 55 -51c0 -15 -7 -32 -23 -48l-91 -90c-14 -14 -28 -19 -42 -19c-20 0 -36 14 -36 35
c0 8 2 19 9 30l66 103c18 28 42 40 62 40zM655 816c112 0 175 -69 175 -143c0 -30 -10 -60 -31 -87c10 -37 15 -77 15 -118c0 -241 -170 -523 -389 -523c-164 0 -233 122 -233 274c0 88 22 184 61 273h-61c-47 0 -68 25 -68 53c0 32 29 67 80 67h116c82 118 199 204 335 204
zM653 703c-69 0 -130 -36 -180 -91h87c108 0 146 29 146 55c0 19 -22 36 -53 36zM441 70c138 1 248 233 248 404c0 13 -1 26 -2 38c-38 -13 -85 -20 -140 -20h-154c-41 -84 -64 -180 -64 -260c0 -93 34 -162 112 -162z" />
    <glyph glyph-name="uni020E" unicode="&#x20e;" horiz-adv-x="815" 
d="M731 1065c65 0 125 -41 125 -112c0 -53 -32 -80 -60 -80c-21 0 -40 16 -40 48c0 5 1 11 2 17c4 26 -16 40 -41 40c-27 0 -58 -16 -67 -49c-8 -28 -34 -43 -57 -43c-21 0 -40 12 -40 36c0 4 1 8 2 13c24 92 104 130 176 130zM655 816c112 0 175 -69 175 -143
c0 -30 -10 -60 -31 -87c10 -37 15 -77 15 -118c0 -241 -170 -523 -389 -523c-164 0 -233 122 -233 274c0 88 22 184 61 273h-61c-47 0 -68 25 -68 53c0 32 29 67 80 67h116c82 118 199 204 335 204zM653 703c-69 0 -130 -36 -180 -91h87c108 0 146 29 146 55
c0 19 -22 36 -53 36zM441 70c138 1 248 233 248 404c0 13 -1 26 -2 38c-38 -13 -85 -20 -140 -20h-154c-41 -84 -64 -180 -64 -260c0 -93 34 -162 112 -162z" />
    <glyph glyph-name="Omacron" unicode="&#x14c;" horiz-adv-x="815" 
d="M608 897c-78 0 -66 99 13 99h140c82 0 66 -99 -14 -99h-139zM830 673c0 -30 -10 -60 -31 -87c10 -37 15 -77 15 -118c0 -241 -170 -523 -389 -523c-164 0 -233 122 -233 274c0 88 22 184 61 273h-61c-47 0 -68 25 -68 53c0 32 29 67 80 67h116c82 118 199 204 335 204
c112 0 175 -69 175 -143zM653 703c-69 0 -130 -36 -180 -91h87c108 0 146 29 146 55c0 19 -22 36 -53 36zM441 70c138 1 248 233 248 404c0 13 -1 26 -2 38c-38 -13 -85 -20 -140 -20h-154c-41 -84 -64 -180 -64 -260c0 -93 34 -162 112 -162z" />
    <glyph glyph-name="uni01EA" unicode="&#x1ea;" horiz-adv-x="815" 
d="M830 673c0 -30 -10 -60 -31 -87c10 -37 15 -77 15 -118c0 -191 -107 -407 -260 -489c-32 -32 -50 -63 -50 -83c0 -15 10 -24 30 -24c11 0 26 3 44 8c67 19 86 -59 35 -83c-41 -19 -78 -28 -109 -28c-69 0 -114 40 -114 96c0 24 9 52 28 80c-159 3 -226 124 -226 274
c0 88 22 184 61 273h-61c-47 0 -68 25 -68 53c0 32 29 67 80 67h116c82 118 199 204 335 204c112 0 175 -69 175 -143zM653 703c-69 0 -130 -36 -180 -91h87c108 0 146 29 146 55c0 19 -22 36 -53 36zM441 70c138 1 248 233 248 404c0 13 -1 26 -2 38
c-38 -13 -85 -20 -140 -20h-154c-41 -84 -64 -180 -64 -260c0 -93 34 -162 112 -162z" />
    <glyph glyph-name="Oslash" unicode="&#xd8;" horiz-adv-x="815" 
d="M830 673c0 -30 -10 -60 -31 -87c10 -37 15 -77 15 -118c0 -241 -170 -523 -389 -523c-23 0 -45 2 -64 7l-23 -56c-31 -66 -88 -41 -56 27l21 52c-77 45 -111 137 -111 244c0 88 22 184 61 273h-61c-47 0 -68 25 -68 53c0 32 29 67 80 67h116c80 116 194 200 326 204
l21 53c28 55 80 31 54 -31l-11 -28c77 -18 120 -76 120 -137zM653 703c-69 0 -130 -36 -180 -91h87c108 0 146 29 146 55c0 19 -22 36 -53 36zM441 70c138 1 248 233 248 404c0 13 -1 26 -2 38c-38 -13 -85 -20 -140 -20h-154c-41 -84 -64 -180 -64 -260
c0 -93 34 -162 112 -162z" />
    <glyph glyph-name="uni020C" unicode="&#x20c;" horiz-adv-x="815" 
d="M607 896l-75 90c-13 16 -17 33 -15 48c5 28 34 51 64 51c20 0 42 -12 55 -40l48 -103c5 -11 5 -22 4 -30c-4 -21 -22 -35 -42 -35c-14 0 -27 5 -39 19zM852 942c5 -11 6 -22 5 -30c-4 -21 -22 -35 -43 -35c-14 0 -27 5 -39 19l-74 90c-14 16 -18 33 -16 48
c5 28 34 51 64 51c21 0 42 -12 55 -40zM655 816c112 0 175 -69 175 -143c0 -30 -10 -60 -31 -87c10 -37 15 -77 15 -118c0 -241 -170 -523 -389 -523c-164 0 -233 122 -233 274c0 88 22 184 61 273h-61c-47 0 -68 25 -68 53c0 32 29 67 80 67h116c82 118 199 204 335 204z
M653 703c-69 0 -130 -36 -180 -91h87c108 0 146 29 146 55c0 19 -22 36 -53 36zM441 70c138 1 248 233 248 404c0 13 -1 26 -2 38c-38 -13 -85 -20 -140 -20h-154c-41 -84 -64 -180 -64 -260c0 -93 34 -162 112 -162z" />
    <glyph glyph-name="Oslashaccute" unicode="&#x1fe;" horiz-adv-x="815" 
d="M851 1134c30 0 55 -23 55 -51c0 -15 -7 -32 -24 -48l-91 -90c-13 -14 -27 -19 -41 -19c-21 0 -37 14 -37 35c0 8 3 19 10 30l66 103c18 28 41 40 62 40zM710 810c77 -18 120 -76 120 -137c0 -30 -10 -60 -31 -87c10 -37 15 -77 15 -118c0 -241 -170 -523 -389 -523
c-23 0 -45 2 -64 7l-23 -56c-31 -66 -88 -41 -56 27l21 52c-77 45 -111 137 -111 244c0 88 22 184 61 273h-61c-47 0 -68 25 -68 53c0 32 29 67 80 67h116c80 116 194 200 326 204l21 53c28 55 80 31 54 -31zM653 703c-69 0 -130 -36 -180 -91h87c108 0 146 29 146 55
c0 19 -22 36 -53 36zM441 70c138 1 248 233 248 404c0 13 -1 26 -2 38c-38 -13 -85 -20 -140 -20h-154c-41 -84 -64 -180 -64 -260c0 -93 34 -162 112 -162z" />
    <glyph glyph-name="Otilde" unicode="&#xd5;" horiz-adv-x="815" 
d="M852 1011c26 -14 32 -38 16 -65c-30 -51 -66 -75 -111 -75c-60 0 -84 51 -117 51c-7 0 -14 -2 -23 -9c-33 -28 -52 -46 -79 -32c-27 12 -33 38 -16 65c32 52 68 77 110 77c57 0 87 -52 120 -52c10 0 23 7 35 21c22 27 41 33 65 19zM655 816c112 0 175 -69 175 -143
c0 -30 -10 -60 -31 -87c10 -37 15 -77 15 -118c0 -241 -170 -523 -389 -523c-164 0 -233 122 -233 274c0 88 22 184 61 273h-61c-47 0 -68 25 -68 53c0 32 29 67 80 67h116c82 118 199 204 335 204zM653 703c-69 0 -130 -36 -180 -91h87c108 0 146 29 146 55
c0 19 -22 36 -53 36zM441 70c138 1 248 233 248 404c0 13 -1 26 -2 38c-38 -13 -85 -20 -140 -20h-154c-41 -84 -64 -180 -64 -260c0 -93 34 -162 112 -162z" />
    <glyph glyph-name="OE" unicode="&#x152;" horiz-adv-x="1333" 
d="M1271 701c6 0 9 4 4 11c-14 20 -38 31 -64 31c-70 0 -113 -64 -113 -126c0 -40 18 -79 60 -98c30 -13 42 -33 42 -55c0 -28 -21 -55 -55 -55h-84c-130 0 -195 -90 -195 -174c0 -74 50 -143 151 -143c86 0 155 63 155 134c0 18 -4 36 -13 53c-6 11 -8 22 -8 33
c0 35 28 63 61 63c23 0 49 -14 70 -50c16 -29 24 -62 24 -97c0 -126 -105 -270 -310 -270c-149 0 -240 96 -263 208c-71 -126 -181 -221 -308 -221c-164 0 -233 122 -233 274c0 88 22 184 61 273h-61c-47 0 -68 25 -68 53c0 32 29 67 80 67h116c82 118 199 204 335 204
c112 0 175 -69 175 -143c0 -30 -10 -60 -31 -87c10 -37 15 -77 15 -118c0 -15 -1 -29 -2 -44c49 46 120 79 215 86c-38 35 -55 79 -55 124c0 101 89 206 229 206c118 0 172 -85 172 -162c0 -64 -38 -123 -109 -123c-46 0 -88 31 -88 83c0 34 25 68 66 68c8 0 15 -1 21 -3
c3 -1 6 -2 8 -2zM653 703c-69 0 -130 -36 -180 -91h87c108 0 146 29 146 55c0 19 -22 36 -53 36zM441 70c138 1 248 233 248 404c0 13 -1 26 -2 38c-38 -13 -85 -20 -140 -20h-154c-41 -84 -64 -180 -64 -260c0 -93 34 -162 112 -162z" />
    <glyph glyph-name="P" unicode="P" horiz-adv-x="767" 
d="M503 831c222 0 322 -136 322 -272c0 -139 -103 -278 -288 -278h-98l-62 -153l-36 -87c-18 -44 -50 -61 -78 -61c-32 0 -59 21 -59 57c0 11 2 22 7 35l23 56l184 452c20 48 51 68 80 68c31 0 58 -25 58 -62c0 -12 -2 -24 -8 -38l-9 -22l-56 -138h30c122 0 186 83 186 166
c0 82 -65 166 -202 166c-115 0 -226 -54 -226 -161c0 -46 23 -60 33 -77c4 -5 5 -10 5 -17c0 -22 -23 -46 -54 -46c-62 0 -110 74 -110 139c0 180 177 273 358 273z" />
    <glyph glyph-name="Thorn" unicode="&#xde;" horiz-adv-x="767" 
d="M602 693c121 -45 177 -146 177 -247c0 -139 -103 -279 -289 -279h-102l-50 -124c-17 -43 -51 -62 -81 -62c-48 0 -71 41 -49 89l217 536c-105 -8 -200 -61 -200 -160c0 -46 22 -61 33 -77c4 -5 5 -11 5 -17c0 -23 -23 -46 -54 -46c-63 0 -110 74 -110 139
c0 180 177 272 358 272h13l30 75c17 43 52 63 81 63c31 0 57 -21 57 -56c0 -10 -2 -21 -7 -34zM467 275c121 0 185 82 185 165c0 57 -30 115 -94 145l-126 -310h35z" />
    <glyph glyph-name="Q" unicode="Q" horiz-adv-x="669" 
d="M1118 -69c32 0 55 -29 55 -63c0 -22 -9 -45 -31 -65c-93 -86 -183 -117 -266 -117c-199 0 -357 190 -490 326c-62 -41 -132 -65 -206 -65c-127 0 -189 74 -189 149c0 78 67 156 197 156c73 0 138 -33 201 -81c97 104 164 264 164 383c0 92 -41 161 -139 161
c-104 0 -168 -89 -168 -152c0 -44 27 -63 56 -63c20 0 43 9 56 27c18 21 37 30 53 30c27 0 47 -24 47 -57c0 -16 -5 -34 -17 -52c-34 -51 -94 -77 -151 -77c-87 0 -170 57 -170 174c0 131 110 286 308 286c176 0 250 -120 250 -271c0 -155 -77 -343 -198 -469
c125 -121 244 -265 393 -265c61 0 125 24 196 84c17 14 34 21 49 21zM115 104c0 -21 23 -41 70 -41c38 0 76 12 112 32c-40 32 -77 52 -113 52c-45 0 -69 -22 -69 -43z" />
    <glyph glyph-name="R" unicode="R" horiz-adv-x="804" 
d="M914 329c20 0 38 -14 38 -37c0 -7 -1 -14 -3 -21c-72 -208 -186 -290 -276 -290c-98 0 -170 55 -241 283l-55 -136l-36 -87c-18 -44 -50 -61 -78 -61c-32 0 -59 21 -59 57c0 11 2 22 7 35l23 56l184 452c20 48 51 68 80 68c31 0 58 -25 58 -62c0 -12 -2 -24 -8 -38
l-9 -22l-59 -145h28c238 0 271 339 -11 339c-115 0 -226 -54 -226 -161c0 -46 23 -60 33 -77c4 -5 5 -10 5 -17c0 -22 -23 -46 -54 -46c-62 0 -110 74 -110 139c0 180 177 273 358 273c430 0 407 -514 67 -546c47 -134 98 -168 140 -168c73 0 115 75 159 180
c10 23 28 32 45 32z" />
    <glyph glyph-name="Racute" unicode="&#x154;" horiz-adv-x="804" 
d="M654 863c-21 0 -37 14 -37 35c0 8 3 19 10 30l66 103c18 28 41 40 62 40c30 0 55 -23 55 -51c0 -15 -7 -32 -24 -48l-91 -90c-13 -14 -27 -19 -41 -19zM914 329c20 0 38 -14 38 -37c0 -7 -1 -14 -3 -21c-72 -208 -186 -290 -276 -290c-98 0 -170 55 -241 283l-55 -136
l-36 -87c-18 -44 -50 -61 -78 -61c-32 0 -59 21 -59 57c0 11 2 22 7 35l23 56l184 452c20 48 51 68 80 68c31 0 58 -25 58 -62c0 -12 -2 -24 -8 -38l-9 -22l-59 -145h28c238 0 271 339 -11 339c-115 0 -226 -54 -226 -161c0 -46 23 -60 33 -77c4 -5 5 -10 5 -17
c0 -22 -23 -46 -54 -46c-62 0 -110 74 -110 139c0 180 177 273 358 273c430 0 407 -514 67 -546c47 -134 98 -168 140 -168c73 0 115 75 159 180c10 23 28 32 45 32z" />
    <glyph glyph-name="Rcaron" unicode="&#x158;" horiz-adv-x="804" 
d="M593 892l-55 93c-41 69 47 121 91 40l25 -46l77 68c68 59 126 -23 70 -66l-132 -103c-29 -23 -57 -19 -76 14zM914 329c20 0 38 -14 38 -37c0 -7 -1 -14 -3 -21c-72 -208 -186 -290 -276 -290c-98 0 -170 55 -241 283l-55 -136l-36 -87c-18 -44 -50 -61 -78 -61
c-32 0 -59 21 -59 57c0 11 2 22 7 35l23 56l184 452c20 48 51 68 80 68c31 0 58 -25 58 -62c0 -12 -2 -24 -8 -38l-9 -22l-59 -145h28c238 0 271 339 -11 339c-115 0 -226 -54 -226 -161c0 -46 23 -60 33 -77c4 -5 5 -10 5 -17c0 -22 -23 -46 -54 -46
c-62 0 -110 74 -110 139c0 180 177 273 358 273c430 0 407 -514 67 -546c47 -134 98 -168 140 -168c73 0 115 75 159 180c10 23 28 32 45 32z" />
    <glyph glyph-name="Rcommaaccent" unicode="&#x156;" horiz-adv-x="804" 
d="M914 329c20 0 38 -14 38 -37c0 -7 -1 -14 -3 -21c-72 -208 -186 -290 -276 -290c-98 0 -170 55 -241 283l-55 -136l-36 -87c-18 -44 -50 -61 -78 -61c-32 0 -59 21 -59 57c0 11 2 22 7 35l23 56l184 452c20 48 51 68 80 68c31 0 58 -25 58 -62c0 -12 -2 -24 -8 -38
l-9 -22l-59 -145h28c238 0 271 339 -11 339c-115 0 -226 -54 -226 -161c0 -46 23 -60 33 -77c4 -5 5 -10 5 -17c0 -22 -23 -46 -54 -46c-62 0 -110 74 -110 139c0 180 177 273 358 273c430 0 407 -514 67 -546c47 -134 98 -168 140 -168c73 0 115 75 159 180
c10 23 28 32 45 32zM412 -76c41 0 78 -27 78 -83c0 -63 -49 -174 -129 -201c-6 -2 -11 -3 -15 -3c-15 0 -24 11 -24 24c0 8 5 18 14 26c27 24 42 52 42 75c0 20 -12 35 -36 35c-26 0 -37 15 -37 34c0 38 43 93 107 93z" />
    <glyph glyph-name="uni1E5A" unicode="&#x1e5a;" horiz-adv-x="804" 
d="M914 329c20 0 38 -14 38 -37c0 -7 -1 -14 -3 -21c-72 -208 -186 -290 -276 -290c-98 0 -170 55 -241 283l-55 -136l-36 -87c-18 -44 -50 -61 -78 -61c-32 0 -59 21 -59 57c0 11 2 22 7 35l23 56l184 452c20 48 51 68 80 68c31 0 58 -25 58 -62c0 -12 -2 -24 -8 -38
l-9 -22l-59 -145h28c238 0 271 339 -11 339c-115 0 -226 -54 -226 -161c0 -46 23 -60 33 -77c4 -5 5 -10 5 -17c0 -22 -23 -46 -54 -46c-62 0 -110 74 -110 139c0 180 177 273 358 273c430 0 407 -514 67 -546c47 -134 98 -168 140 -168c73 0 115 75 159 180
c10 23 28 32 45 32zM382 -62c38 0 68 -31 68 -69s-30 -69 -68 -69s-69 31 -69 69s31 69 69 69z" />
    <glyph glyph-name="uni0212" unicode="&#x212;" horiz-adv-x="804" 
d="M541 872c-21 0 -40 12 -40 36c0 4 1 8 2 13c24 92 104 130 176 130c65 0 125 -41 125 -112c0 -53 -32 -80 -60 -80c-21 0 -40 16 -40 48c0 5 1 11 2 17c4 26 -16 40 -41 40c-27 0 -58 -16 -67 -49c-8 -28 -34 -43 -57 -43zM914 329c20 0 38 -14 38 -37
c0 -7 -1 -14 -3 -21c-72 -208 -186 -290 -276 -290c-98 0 -170 55 -241 283l-55 -136l-36 -87c-18 -44 -50 -61 -78 -61c-32 0 -59 21 -59 57c0 11 2 22 7 35l23 56l184 452c20 48 51 68 80 68c31 0 58 -25 58 -62c0 -12 -2 -24 -8 -38l-9 -22l-59 -145h28
c238 0 271 339 -11 339c-115 0 -226 -54 -226 -161c0 -46 23 -60 33 -77c4 -5 5 -10 5 -17c0 -22 -23 -46 -54 -46c-62 0 -110 74 -110 139c0 180 177 273 358 273c430 0 407 -514 67 -546c47 -134 98 -168 140 -168c73 0 115 75 159 180c10 23 28 32 45 32z" />
    <glyph glyph-name="uni1E5E" unicode="&#x1e5e;" horiz-adv-x="804" 
d="M914 329c20 0 38 -14 38 -37c0 -7 -1 -14 -3 -21c-72 -208 -186 -290 -276 -290c-98 0 -170 55 -241 283l-55 -136l-36 -87c-18 -44 -50 -61 -78 -61c-32 0 -59 21 -59 57c0 11 2 22 7 35l23 56l184 452c20 48 51 68 80 68c31 0 58 -25 58 -62c0 -12 -2 -24 -8 -38
l-9 -22l-59 -145h28c238 0 271 339 -11 339c-115 0 -226 -54 -226 -161c0 -46 23 -60 33 -77c4 -5 5 -10 5 -17c0 -22 -23 -46 -54 -46c-62 0 -110 74 -110 139c0 180 177 273 358 273c430 0 407 -514 67 -546c47 -134 98 -168 140 -168c73 0 115 75 159 180
c10 23 28 32 45 32zM434 -102c37 0 54 -20 54 -43c0 -27 -24 -56 -68 -56h-139c-36 0 -53 21 -53 44c0 26 23 55 66 55h140z" />
    <glyph glyph-name="uni0210" unicode="&#x210;" horiz-adv-x="804" 
d="M585 882l-75 90c-13 16 -17 33 -15 48c5 28 34 51 64 51c20 0 42 -12 55 -40l48 -103c5 -11 5 -22 4 -30c-4 -21 -22 -35 -42 -35c-14 0 -27 5 -39 19zM753 882l-74 90c-14 16 -18 33 -16 48c5 28 34 51 64 51c21 0 42 -12 55 -40l48 -103c5 -11 6 -22 5 -30
c-4 -21 -22 -35 -43 -35c-14 0 -27 5 -39 19zM914 329c20 0 38 -14 38 -37c0 -7 -1 -14 -3 -21c-72 -208 -186 -290 -276 -290c-98 0 -170 55 -241 283l-55 -136l-36 -87c-18 -44 -50 -61 -78 -61c-32 0 -59 21 -59 57c0 11 2 22 7 35l23 56l184 452c20 48 51 68 80 68
c31 0 58 -25 58 -62c0 -12 -2 -24 -8 -38l-9 -22l-59 -145h28c238 0 271 339 -11 339c-115 0 -226 -54 -226 -161c0 -46 23 -60 33 -77c4 -5 5 -10 5 -17c0 -22 -23 -46 -54 -46c-62 0 -110 74 -110 139c0 180 177 273 358 273c430 0 407 -514 67 -546
c47 -134 98 -168 140 -168c73 0 115 75 159 180c10 23 28 32 45 32z" />
    <glyph glyph-name="S" unicode="S" horiz-adv-x="557" 
d="M459 706c9 0 17 -2 25 -6c4 -2 7 -3 10 -3c4 0 6 1 6 4c0 2 -1 5 -3 8c-13 18 -36 30 -62 30c-49 0 -86 -39 -86 -91c0 -131 168 -247 168 -430c0 -175 -142 -264 -278 -264c-167 0 -256 116 -256 229c0 90 44 186 165 210c6 1 12 2 17 2c37 0 58 -26 58 -54
c0 -24 -14 -49 -47 -63c-43 -18 -64 -55 -64 -92c0 -53 44 -106 131 -106c70 0 143 43 143 126c0 136 -168 250 -168 426c0 133 108 199 207 199c116 0 171 -81 171 -153c0 -83 -55 -118 -106 -118c-62 0 -90 42 -90 81c0 34 21 65 59 65z" />
    <glyph glyph-name="Sacute" unicode="&#x15a;" horiz-adv-x="557" 
d="M470 928c-7 -11 -10 -22 -10 -30c0 -21 16 -35 37 -35c14 0 28 5 41 19l91 90c17 16 24 33 24 48c0 28 -25 51 -55 51c-21 0 -44 -12 -62 -40zM459 706c9 0 17 -2 25 -6c4 -2 7 -3 10 -3c4 0 6 1 6 4c0 2 -1 5 -3 8c-13 18 -36 30 -62 30c-49 0 -86 -39 -86 -91
c0 -131 168 -247 168 -430c0 -175 -142 -264 -278 -264c-167 0 -256 116 -256 229c0 90 44 186 165 210c6 1 12 2 17 2c37 0 58 -26 58 -54c0 -24 -14 -49 -47 -63c-43 -18 -64 -55 -64 -92c0 -53 44 -106 131 -106c70 0 143 43 143 126c0 136 -168 250 -168 426
c0 133 108 199 207 199c116 0 171 -81 171 -153c0 -83 -55 -118 -106 -118c-62 0 -90 42 -90 81c0 34 21 65 59 65z" />
    <glyph glyph-name="Scaron" unicode="&#x160;" horiz-adv-x="557" 
d="M574 1047c68 59 126 -23 70 -66l-132 -103c-29 -23 -57 -19 -76 14l-55 93c-41 69 47 121 91 40l25 -46zM425 831c116 0 171 -81 171 -153c0 -83 -55 -118 -106 -118c-62 0 -90 42 -90 81c0 34 21 65 59 65c9 0 17 -2 25 -6c4 -2 7 -3 10 -3c4 0 6 1 6 4c0 2 -1 5 -3 8
c-13 18 -36 30 -62 30c-49 0 -86 -39 -86 -91c0 -131 168 -247 168 -430c0 -175 -142 -264 -278 -264c-167 0 -256 116 -256 229c0 90 44 186 165 210c6 1 12 2 17 2c37 0 58 -26 58 -54c0 -24 -14 -49 -47 -63c-43 -18 -64 -55 -64 -92c0 -53 44 -106 131 -106
c70 0 143 43 143 126c0 136 -168 250 -168 426c0 133 108 199 207 199z" />
    <glyph glyph-name="Scedilla" unicode="&#x15e;" horiz-adv-x="557" 
d="M494 697c4 0 6 1 6 4c0 2 -1 5 -3 8c-13 18 -36 30 -62 30c-49 0 -86 -39 -86 -91c0 -131 168 -247 168 -430c0 -175 -142 -264 -278 -264h-17l-21 -48c75 -3 115 -48 115 -93c0 -48 -47 -99 -145 -99c-38 0 -79 10 -115 33c-21 13 -31 30 -31 46c0 19 15 35 41 35
c10 0 24 -2 39 -10c26 -14 56 -22 78 -22c21 0 36 7 36 23c0 39 -111 10 -111 64c0 9 3 22 12 37l24 48c-105 35 -161 126 -161 215c0 90 44 186 165 210c6 1 12 2 17 2c37 0 58 -26 58 -54c0 -24 -14 -49 -47 -63c-43 -18 -64 -55 -64 -92c0 -53 44 -106 131 -106
c70 0 143 43 143 126c0 136 -168 250 -168 426c0 133 108 199 207 199c116 0 171 -81 171 -153c0 -83 -55 -118 -106 -118c-62 0 -90 42 -90 81c0 34 21 65 59 65c9 0 17 -2 25 -6c4 -2 7 -3 10 -3z" />
    <glyph glyph-name="Scircumflex" unicode="&#x15c;" horiz-adv-x="557" 
d="M643 946c40 -69 -47 -121 -91 -40l-26 47l-77 -68c-67 -60 -125 22 -69 65l131 103c30 23 58 19 77 -14zM425 831c116 0 171 -81 171 -153c0 -83 -55 -118 -106 -118c-62 0 -90 42 -90 81c0 34 21 65 59 65c9 0 17 -2 25 -6c4 -2 7 -3 10 -3c4 0 6 1 6 4c0 2 -1 5 -3 8
c-13 18 -36 30 -62 30c-49 0 -86 -39 -86 -91c0 -131 168 -247 168 -430c0 -175 -142 -264 -278 -264c-167 0 -256 116 -256 229c0 90 44 186 165 210c6 1 12 2 17 2c37 0 58 -26 58 -54c0 -24 -14 -49 -47 -63c-43 -18 -64 -55 -64 -92c0 -53 44 -106 131 -106
c70 0 143 43 143 126c0 136 -168 250 -168 426c0 133 108 199 207 199z" />
    <glyph glyph-name="Scommaaccent" unicode="&#x218;" horiz-adv-x="557" 
d="M459 706c9 0 17 -2 25 -6c4 -2 7 -3 10 -3c4 0 6 1 6 4c0 2 -1 5 -3 8c-13 18 -36 30 -62 30c-49 0 -86 -39 -86 -91c0 -131 168 -247 168 -430c0 -175 -142 -264 -278 -264c-167 0 -256 116 -256 229c0 90 44 186 165 210c6 1 12 2 17 2c37 0 58 -26 58 -54
c0 -24 -14 -49 -47 -63c-43 -18 -64 -55 -64 -92c0 -53 44 -106 131 -106c70 0 143 43 143 126c0 136 -168 250 -168 426c0 133 108 199 207 199c116 0 171 -81 171 -153c0 -83 -55 -118 -106 -118c-62 0 -90 42 -90 81c0 34 21 65 59 65zM151 -379c-6 -2 -11 -3 -15 -3
c-15 0 -24 11 -24 24c0 8 5 18 14 26c27 24 42 52 42 75c0 20 -12 35 -36 35c-26 0 -37 15 -37 34c0 38 43 93 107 93c41 0 78 -27 78 -83c0 -63 -49 -174 -129 -201z" />
    <glyph glyph-name="uni1E60" unicode="&#x1e60;" horiz-adv-x="557" 
d="M515 870c-38 0 -69 31 -69 69s31 69 69 69s68 -31 68 -69s-30 -69 -68 -69zM459 706c9 0 17 -2 25 -6c4 -2 7 -3 10 -3c4 0 6 1 6 4c0 2 -1 5 -3 8c-13 18 -36 30 -62 30c-49 0 -86 -39 -86 -91c0 -131 168 -247 168 -430c0 -175 -142 -264 -278 -264
c-167 0 -256 116 -256 229c0 90 44 186 165 210c6 1 12 2 17 2c37 0 58 -26 58 -54c0 -24 -14 -49 -47 -63c-43 -18 -64 -55 -64 -92c0 -53 44 -106 131 -106c70 0 143 43 143 126c0 136 -168 250 -168 426c0 133 108 199 207 199c116 0 171 -81 171 -153
c0 -83 -55 -118 -106 -118c-62 0 -90 42 -90 81c0 34 21 65 59 65z" />
    <glyph glyph-name="uni1E62" unicode="&#x1e62;" horiz-adv-x="557" 
d="M459 706c9 0 17 -2 25 -6c4 -2 7 -3 10 -3c4 0 6 1 6 4c0 2 -1 5 -3 8c-13 18 -36 30 -62 30c-49 0 -86 -39 -86 -91c0 -131 168 -247 168 -430c0 -175 -142 -264 -278 -264c-167 0 -256 116 -256 229c0 90 44 186 165 210c6 1 12 2 17 2c37 0 58 -26 58 -54
c0 -24 -14 -49 -47 -63c-43 -18 -64 -55 -64 -92c0 -53 44 -106 131 -106c70 0 143 43 143 126c0 136 -168 250 -168 426c0 133 108 199 207 199c116 0 171 -81 171 -153c0 -83 -55 -118 -106 -118c-62 0 -90 42 -90 81c0 34 21 65 59 65zM159 -236c-38 0 -69 31 -69 69
s31 69 69 69s68 -31 68 -69s-30 -69 -68 -69z" />
    <glyph glyph-name="uni1E9E" unicode="&#x1e9e;" horiz-adv-x="573" 
d="M453 433c63 -36 92 -98 92 -163c0 -154 -128 -270 -298 -270c-44 0 -71 14 -71 51c0 33 22 50 62 50h31c130 0 194 253 73 285c-33 9 -48 31 -48 54c0 30 25 60 73 62c63 3 99 66 99 115c0 35 -16 63 -52 63c-37 0 -69 -39 -90 -90l-178 -442l-36 -87
c-18 -44 -50 -61 -78 -61c-32 0 -59 21 -59 57c0 11 2 22 7 35l23 56l197 487c40 100 117 162 212 162c121 0 179 -88 179 -178c0 -80 -47 -162 -138 -186z" />
    <glyph glyph-name="uni018F" unicode="&#x18f;" horiz-adv-x="659" 
d="M423 757c418 0 245 -779 -182 -779c-132 0 -202 82 -202 169c0 141 97 215 280 215h186c47 147 25 302 -105 302c-37 0 -78 -7 -118 -17c-12 -3 -22 -5 -31 -5c-32 0 -49 18 -49 39c0 19 15 40 47 49c63 18 122 27 174 27zM246 108c97 0 178 79 228 177h-148
c-107 0 -163 -37 -163 -107c0 -37 31 -70 83 -70z" />
    <glyph glyph-name="T" unicode="T" horiz-adv-x="730" 
d="M862 800c44 0 64 -23 64 -49c0 -33 -33 -72 -84 -72h-33c-83 -9 -109 -52 -185 -239l-140 -344l-36 -87c-18 -44 -50 -61 -78 -61c-32 0 -59 21 -59 57c0 11 2 22 7 35l23 56l140 343c51 124 91 198 146 240h-181c-118 0 -174 -30 -174 -92s71 -50 71 -104
c0 -32 -22 -58 -55 -58c-85 0 -140 74 -140 154c0 103 88 220 304 221h410z" />
    <glyph glyph-name="Tbar" unicode="&#x166;" horiz-adv-x="573" 
d="M862 800c44 0 64 -23 64 -49c0 -33 -33 -72 -84 -72h-33c-83 -9 -109 -52 -185 -239l-20 -49h12c80 0 66 -90 -13 -90h-36l-83 -205l-36 -87c-18 -44 -50 -61 -78 -61c-32 0 -59 21 -59 57c0 11 2 22 7 35l107 261c-76 1 -62 90 15 90h21l20 48c51 124 91 198 146 240
h-181c-118 0 -174 -30 -174 -92s71 -50 71 -104c0 -32 -22 -58 -55 -58c-85 0 -140 74 -140 154c0 103 88 220 304 221h410z" />
    <glyph glyph-name="Tcaron" unicode="&#x164;" horiz-adv-x="730" 
d="M654 892l-55 93c-41 69 47 121 91 40l25 -46l77 68c68 59 126 -23 70 -66l-132 -103c-29 -23 -57 -19 -76 14zM862 800c44 0 64 -23 64 -49c0 -33 -33 -72 -84 -72h-33c-83 -9 -109 -52 -185 -239l-140 -344l-36 -87c-18 -44 -50 -61 -78 -61c-32 0 -59 21 -59 57
c0 11 2 22 7 35l23 56l140 343c51 124 91 198 146 240h-181c-118 0 -174 -30 -174 -92s71 -50 71 -104c0 -32 -22 -58 -55 -58c-85 0 -140 74 -140 154c0 103 88 220 304 221h410z" />
    <glyph glyph-name="uni0162" unicode="&#x162;" horiz-adv-x="730" 
d="M862 800c44 0 64 -23 64 -49c0 -33 -33 -72 -84 -72h-33c-83 -9 -109 -52 -185 -239l-140 -344l-36 -87c-12 -30 -31 -47 -50 -55l-21 -48c75 -3 115 -48 115 -93c0 -48 -47 -99 -145 -99c-38 0 -79 10 -115 33c-21 13 -31 30 -31 46c0 19 15 35 41 35c10 0 24 -2 39 -10
c26 -14 56 -22 78 -22c21 0 36 7 36 23c0 39 -111 10 -111 64c0 9 3 22 12 37l25 51c-6 9 -10 20 -10 34c0 11 2 22 7 35l23 56l140 343c51 124 91 198 146 240h-181c-118 0 -174 -30 -174 -92s71 -50 71 -104c0 -32 -22 -58 -55 -58c-85 0 -140 74 -140 154
c0 103 88 220 304 221h410z" />
    <glyph glyph-name="uni021A" unicode="&#x21a;" horiz-adv-x="730" 
d="M862 800c44 0 64 -23 64 -49c0 -33 -33 -72 -84 -72h-33c-83 -9 -109 -52 -185 -239l-140 -344l-36 -87c-18 -44 -50 -61 -78 -61c-32 0 -59 21 -59 57c0 11 2 22 7 35l23 56l140 343c51 124 91 198 146 240h-181c-118 0 -174 -30 -174 -92s71 -50 71 -104
c0 -32 -22 -58 -55 -58c-85 0 -140 74 -140 154c0 103 88 220 304 221h410zM346 -106c41 0 78 -27 78 -83c0 -63 -49 -174 -129 -201c-6 -2 -11 -3 -15 -3c-15 0 -24 11 -24 24c0 8 5 18 14 26c27 24 42 52 42 75c0 20 -12 35 -36 35c-26 0 -37 15 -37 34c0 38 43 93 107 93
z" />
    <glyph glyph-name="uni1E6C" unicode="&#x1e6c;" horiz-adv-x="730" 
d="M862 800c44 0 64 -23 64 -49c0 -33 -33 -72 -84 -72h-33c-83 -9 -109 -52 -185 -239l-140 -344l-36 -87c-18 -44 -50 -61 -78 -61c-32 0 -59 21 -59 57c0 11 2 22 7 35l23 56l140 343c51 124 91 198 146 240h-181c-118 0 -174 -30 -174 -92s71 -50 71 -104
c0 -32 -22 -58 -55 -58c-85 0 -140 74 -140 154c0 103 88 220 304 221h410zM335 -98c38 0 68 -31 68 -69s-30 -69 -68 -69s-69 31 -69 69s31 69 69 69z" />
    <glyph glyph-name="uni1E6E" unicode="&#x1e6e;" horiz-adv-x="730" 
d="M862 800c44 0 64 -23 64 -49c0 -33 -33 -72 -84 -72h-33c-83 -9 -109 -52 -185 -239l-140 -344l-36 -87c-18 -44 -50 -61 -78 -61c-32 0 -59 21 -59 57c0 11 2 22 7 35l23 56l140 343c51 124 91 198 146 240h-181c-118 0 -174 -30 -174 -92s71 -50 71 -104
c0 -32 -22 -58 -55 -58c-85 0 -140 74 -140 154c0 103 88 220 304 221h410zM377 -138c37 0 54 -20 54 -43c0 -27 -24 -56 -68 -56h-139c-36 0 -53 21 -53 44c0 26 23 55 66 55h140z" />
    <glyph glyph-name="U" unicode="U" horiz-adv-x="844" 
d="M907 800c31 0 58 -25 58 -62c0 -12 -2 -24 -8 -38l-9 -22l-203 -498c-49 -117 -163 -180 -264 -180c-96 0 -180 55 -180 168c0 40 10 86 30 134l153 377h-54c-98 0 -169 -45 -169 -151c0 -12 3 -24 8 -33c9 -15 13 -30 13 -42c0 -36 -27 -60 -59 -60
c-56 0 -89 61 -89 136c0 118 85 271 300 271h147h7c30 0 56 -21 56 -56c0 -10 -1 -22 -7 -34l-189 -465c-8 -21 -12 -41 -12 -56c0 -43 28 -66 64 -66c42 0 92 32 120 101l207 508c20 48 51 68 80 68z" />
    <glyph glyph-name="Uacute" unicode="&#xda;" horiz-adv-x="844" 
d="M768 863c-21 0 -37 14 -37 35c0 8 3 19 10 30l66 103c18 28 41 40 62 40c30 0 55 -23 55 -51c0 -15 -7 -32 -24 -48l-91 -90c-13 -14 -27 -19 -41 -19zM907 800c31 0 58 -25 58 -62c0 -12 -2 -24 -8 -38l-9 -22l-203 -498c-49 -117 -163 -180 -264 -180
c-96 0 -180 55 -180 168c0 40 10 86 30 134l153 377h-54c-98 0 -169 -45 -169 -151c0 -12 3 -24 8 -33c9 -15 13 -30 13 -42c0 -36 -27 -60 -59 -60c-56 0 -89 61 -89 136c0 118 85 271 300 271h147h7c30 0 56 -21 56 -56c0 -10 -1 -22 -7 -34l-189 -465
c-8 -21 -12 -41 -12 -56c0 -43 28 -66 64 -66c42 0 92 32 120 101l207 508c20 48 51 68 80 68z" />
    <glyph glyph-name="Ubreve" unicode="&#x16c;" horiz-adv-x="844" 
d="M767 859c-66 0 -125 37 -125 110c0 9 1 18 3 29c7 36 35 53 59 53c21 0 37 -11 37 -36c0 -3 0 -7 -1 -11c-2 -7 -2 -13 -2 -18c0 -27 17 -41 36 -41c26 0 58 20 74 56c15 33 39 47 60 47c22 0 40 -16 40 -40c0 -4 -1 -9 -2 -13c-24 -92 -106 -136 -179 -136zM907 800
c31 0 58 -25 58 -62c0 -12 -2 -24 -8 -38l-9 -22l-203 -498c-49 -117 -163 -180 -264 -180c-96 0 -180 55 -180 168c0 40 10 86 30 134l153 377h-54c-98 0 -169 -45 -169 -151c0 -12 3 -24 8 -33c9 -15 13 -30 13 -42c0 -36 -27 -60 -59 -60c-56 0 -89 61 -89 136
c0 118 85 271 300 271h147h7c30 0 56 -21 56 -56c0 -10 -1 -22 -7 -34l-189 -465c-8 -21 -12 -41 -12 -56c0 -43 28 -66 64 -66c42 0 92 32 120 101l207 508c20 48 51 68 80 68z" />
    <glyph glyph-name="uni01D3" unicode="&#x1d3;" horiz-adv-x="844" 
d="M707 892l-55 93c-41 69 47 121 91 40l25 -46l77 68c68 59 126 -23 70 -66l-132 -103c-29 -23 -57 -19 -76 14zM907 800c31 0 58 -25 58 -62c0 -12 -2 -24 -8 -38l-9 -22l-203 -498c-49 -117 -163 -180 -264 -180c-96 0 -180 55 -180 168c0 40 10 86 30 134l153 377h-54
c-98 0 -169 -45 -169 -151c0 -12 3 -24 8 -33c9 -15 13 -30 13 -42c0 -36 -27 -60 -59 -60c-56 0 -89 61 -89 136c0 118 85 271 300 271h147h7c30 0 56 -21 56 -56c0 -10 -1 -22 -7 -34l-189 -465c-8 -21 -12 -41 -12 -56c0 -43 28 -66 64 -66c42 0 92 32 120 101l207 508
c20 48 51 68 80 68z" />
    <glyph glyph-name="Ucircumflex" unicode="&#xdb;" horiz-adv-x="844" 
d="M720 885c-67 -60 -125 22 -69 65l131 103c30 23 58 19 77 -14l55 -93c40 -69 -47 -121 -91 -40l-26 47zM907 800c31 0 58 -25 58 -62c0 -12 -2 -24 -8 -38l-9 -22l-203 -498c-49 -117 -163 -180 -264 -180c-96 0 -180 55 -180 168c0 40 10 86 30 134l153 377h-54
c-98 0 -169 -45 -169 -151c0 -12 3 -24 8 -33c9 -15 13 -30 13 -42c0 -36 -27 -60 -59 -60c-56 0 -89 61 -89 136c0 118 85 271 300 271h147h7c30 0 56 -21 56 -56c0 -10 -1 -22 -7 -34l-189 -465c-8 -21 -12 -41 -12 -56c0 -43 28 -66 64 -66c42 0 92 32 120 101l207 508
c20 48 51 68 80 68z" />
    <glyph glyph-name="Udieresis" unicode="&#xdc;" horiz-adv-x="844" 
d="M710 870c-38 0 -69 31 -69 69s31 69 69 69s68 -31 68 -69s-30 -69 -68 -69zM889 870c-38 0 -69 31 -69 69s31 69 69 69s68 -31 68 -69s-30 -69 -68 -69zM907 800c31 0 58 -25 58 -62c0 -12 -2 -24 -8 -38l-9 -22l-203 -498c-49 -117 -163 -180 -264 -180
c-96 0 -180 55 -180 168c0 40 10 86 30 134l153 377h-54c-98 0 -169 -45 -169 -151c0 -12 3 -24 8 -33c9 -15 13 -30 13 -42c0 -36 -27 -60 -59 -60c-56 0 -89 61 -89 136c0 118 85 271 300 271h147h7c30 0 56 -21 56 -56c0 -10 -1 -22 -7 -34l-189 -465
c-8 -21 -12 -41 -12 -56c0 -43 28 -66 64 -66c42 0 92 32 120 101l207 508c20 48 51 68 80 68z" />
    <glyph glyph-name="uni1EE4" unicode="&#x1ee4;" horiz-adv-x="844" 
d="M907 800c31 0 58 -25 58 -62c0 -12 -2 -24 -8 -38l-9 -22l-203 -498c-49 -117 -163 -180 -264 -180c-96 0 -180 55 -180 168c0 40 10 86 30 134l153 377h-54c-98 0 -169 -45 -169 -151c0 -12 3 -24 8 -33c9 -15 13 -30 13 -42c0 -36 -27 -60 -59 -60
c-56 0 -89 61 -89 136c0 118 85 271 300 271h147h7c30 0 56 -21 56 -56c0 -10 -1 -22 -7 -34l-189 -465c-8 -21 -12 -41 -12 -56c0 -43 28 -66 64 -66c42 0 92 32 120 101l207 508c20 48 51 68 80 68zM394 -57c38 0 68 -31 68 -69s-30 -69 -68 -69s-69 31 -69 69
s31 69 69 69z" />
    <glyph glyph-name="Ugrave" unicode="&#xd9;" horiz-adv-x="844" 
d="M752 875l-91 90c-16 16 -23 33 -23 48c0 28 25 51 54 51c21 0 45 -12 63 -40l65 -103c7 -11 10 -22 10 -30c0 -21 -16 -35 -37 -35c-13 0 -28 5 -41 19zM907 800c31 0 58 -25 58 -62c0 -12 -2 -24 -8 -38l-9 -22l-203 -498c-49 -117 -163 -180 -264 -180
c-96 0 -180 55 -180 168c0 40 10 86 30 134l153 377h-54c-98 0 -169 -45 -169 -151c0 -12 3 -24 8 -33c9 -15 13 -30 13 -42c0 -36 -27 -60 -59 -60c-56 0 -89 61 -89 136c0 118 85 271 300 271h147h7c30 0 56 -21 56 -56c0 -10 -1 -22 -7 -34l-189 -465
c-8 -21 -12 -41 -12 -56c0 -43 28 -66 64 -66c42 0 92 32 120 101l207 508c20 48 51 68 80 68z" />
    <glyph glyph-name="Uhungarumlaut" unicode="&#x170;" horiz-adv-x="844" 
d="M677 856c-21 0 -37 14 -37 35c0 8 3 19 10 30l66 103c18 28 41 40 62 40c30 0 55 -23 55 -51c0 -15 -7 -32 -24 -48l-90 -90c-14 -14 -28 -19 -42 -19zM946 1064c30 0 55 -23 55 -51c0 -15 -7 -32 -23 -48l-91 -90c-14 -14 -28 -19 -42 -19c-20 0 -36 14 -36 35
c0 8 2 19 9 30l66 103c18 28 42 40 62 40zM907 800c31 0 58 -25 58 -62c0 -12 -2 -24 -8 -38l-9 -22l-203 -498c-49 -117 -163 -180 -264 -180c-96 0 -180 55 -180 168c0 40 10 86 30 134l153 377h-54c-98 0 -169 -45 -169 -151c0 -12 3 -24 8 -33c9 -15 13 -30 13 -42
c0 -36 -27 -60 -59 -60c-56 0 -89 61 -89 136c0 118 85 271 300 271h147h7c30 0 56 -21 56 -56c0 -10 -1 -22 -7 -34l-189 -465c-8 -21 -12 -41 -12 -56c0 -43 28 -66 64 -66c42 0 92 32 120 101l207 508c20 48 51 68 80 68z" />
    <glyph glyph-name="uni0216" unicode="&#x216;" horiz-adv-x="844" 
d="M685 872c-21 0 -40 12 -40 36c0 4 1 8 2 13c24 92 104 130 176 130c65 0 125 -41 125 -112c0 -53 -32 -80 -60 -80c-21 0 -40 16 -40 48c0 5 1 11 2 17c4 26 -16 40 -41 40c-27 0 -58 -16 -67 -49c-8 -28 -34 -43 -57 -43zM907 800c31 0 58 -25 58 -62
c0 -12 -2 -24 -8 -38l-9 -22l-203 -498c-49 -117 -163 -180 -264 -180c-96 0 -180 55 -180 168c0 40 10 86 30 134l153 377h-54c-98 0 -169 -45 -169 -151c0 -12 3 -24 8 -33c9 -15 13 -30 13 -42c0 -36 -27 -60 -59 -60c-56 0 -89 61 -89 136c0 118 85 271 300 271h147h7
c30 0 56 -21 56 -56c0 -10 -1 -22 -7 -34l-189 -465c-8 -21 -12 -41 -12 -56c0 -43 28 -66 64 -66c42 0 92 32 120 101l207 508c20 48 51 68 80 68z" />
    <glyph glyph-name="Umacron" unicode="&#x16a;" horiz-adv-x="844" 
d="M700 883c-78 0 -66 99 13 99h140c82 0 66 -99 -14 -99h-139zM907 800c31 0 58 -25 58 -62c0 -12 -2 -24 -8 -38l-9 -22l-203 -498c-49 -117 -163 -180 -264 -180c-96 0 -180 55 -180 168c0 40 10 86 30 134l153 377h-54c-98 0 -169 -45 -169 -151c0 -12 3 -24 8 -33
c9 -15 13 -30 13 -42c0 -36 -27 -60 -59 -60c-56 0 -89 61 -89 136c0 118 85 271 300 271h147h7c30 0 56 -21 56 -56c0 -10 -1 -22 -7 -34l-189 -465c-8 -21 -12 -41 -12 -56c0 -43 28 -66 64 -66c42 0 92 32 120 101l207 508c20 48 51 68 80 68z" />
    <glyph glyph-name="Uogonek" unicode="&#x172;" horiz-adv-x="844" 
d="M907 800c31 0 58 -25 58 -62c0 -12 -2 -24 -8 -38l-9 -22l-203 -498c-35 -83 -102 -139 -174 -164c-61 -44 -95 -92 -95 -120c0 -15 10 -24 30 -24c11 0 26 3 44 8c67 19 86 -59 35 -83c-41 -19 -78 -28 -109 -28c-69 0 -114 40 -114 96c0 41 25 91 84 138
c-81 12 -145 66 -145 165c0 40 10 86 30 134l153 377h-54c-98 0 -169 -45 -169 -151c0 -12 3 -24 8 -33c9 -15 13 -30 13 -42c0 -36 -27 -60 -59 -60c-56 0 -89 61 -89 136c0 118 85 271 300 271h147h7c30 0 56 -21 56 -56c0 -10 -1 -22 -7 -34l-189 -465
c-8 -21 -12 -41 -12 -56c0 -43 28 -66 64 -66c42 0 92 32 120 101l207 508c20 48 51 68 80 68z" />
    <glyph glyph-name="Uring" unicode="&#x16e;" horiz-adv-x="844" 
d="M790 860c-60 0 -107 48 -107 107c0 60 47 108 107 108c59 0 107 -48 107 -108c0 -59 -48 -107 -107 -107zM790 1002c-19 0 -35 -16 -35 -35c0 -18 16 -34 35 -34s34 16 34 34c0 19 -15 35 -34 35zM907 800c31 0 58 -25 58 -62c0 -12 -2 -24 -8 -38l-9 -22l-203 -498
c-49 -117 -163 -180 -264 -180c-96 0 -180 55 -180 168c0 40 10 86 30 134l153 377h-54c-98 0 -169 -45 -169 -151c0 -12 3 -24 8 -33c9 -15 13 -30 13 -42c0 -36 -27 -60 -59 -60c-56 0 -89 61 -89 136c0 118 85 271 300 271h147h7c30 0 56 -21 56 -56c0 -10 -1 -22 -7 -34
l-189 -465c-8 -21 -12 -41 -12 -56c0 -43 28 -66 64 -66c42 0 92 32 120 101l207 508c20 48 51 68 80 68z" />
    <glyph glyph-name="Utilde" unicode="&#x168;" horiz-adv-x="844" 
d="M630 867c-27 12 -33 38 -16 65c32 52 68 77 110 77c57 0 87 -52 120 -52c10 0 23 7 35 21c22 27 41 33 65 19c26 -14 32 -38 16 -65c-30 -51 -66 -75 -111 -75c-60 0 -84 51 -117 51c-7 0 -14 -2 -23 -9c-33 -28 -52 -46 -79 -32zM907 800c31 0 58 -25 58 -62
c0 -12 -2 -24 -8 -38l-9 -22l-203 -498c-49 -117 -163 -180 -264 -180c-96 0 -180 55 -180 168c0 40 10 86 30 134l153 377h-54c-98 0 -169 -45 -169 -151c0 -12 3 -24 8 -33c9 -15 13 -30 13 -42c0 -36 -27 -60 -59 -60c-56 0 -89 61 -89 136c0 118 85 271 300 271h147h7
c30 0 56 -21 56 -56c0 -10 -1 -22 -7 -34l-189 -465c-8 -21 -12 -41 -12 -56c0 -43 28 -66 64 -66c42 0 92 32 120 101l207 508c20 48 51 68 80 68z" />
    <glyph glyph-name="uni0214" unicode="&#x214;" horiz-adv-x="844" 
d="M679 882l-75 90c-13 16 -17 33 -15 48c5 28 34 51 64 51c20 0 42 -12 55 -40l48 -103c5 -11 5 -22 4 -30c-4 -21 -22 -35 -42 -35c-14 0 -27 5 -39 19zM847 882l-74 90c-14 16 -18 33 -16 48c5 28 34 51 64 51c21 0 42 -12 55 -40l48 -103c5 -11 6 -22 5 -30
c-4 -21 -22 -35 -43 -35c-14 0 -27 5 -39 19zM907 800c31 0 58 -25 58 -62c0 -12 -2 -24 -8 -38l-9 -22l-203 -498c-49 -117 -163 -180 -264 -180c-96 0 -180 55 -180 168c0 40 10 86 30 134l153 377h-54c-98 0 -169 -45 -169 -151c0 -12 3 -24 8 -33c9 -15 13 -30 13 -42
c0 -36 -27 -60 -59 -60c-56 0 -89 61 -89 136c0 118 85 271 300 271h147h7c30 0 56 -21 56 -56c0 -10 -1 -22 -7 -34l-189 -465c-8 -21 -12 -41 -12 -56c0 -43 28 -66 64 -66c42 0 92 32 120 101l207 508c20 48 51 68 80 68z" />
    <glyph glyph-name="V" unicode="V" horiz-adv-x="889" 
d="M918 799c33 0 67 -34 67 -105c0 -159 -196 -434 -301 -641c-26 -49 -62 -72 -100 -72c-55 0 -81 34 -82 103l-9 450c0 93 -44 138 -92 138c-84 0 -128 -65 -128 -121c0 -44 26 -81 79 -81c25 0 85 -2 85 -54c0 -39 -29 -76 -117 -76c-85 0 -186 55 -186 187
c0 169 150 273 285 273c112 0 207 -70 207 -235l8 -351c101 182 222 362 221 494c-1 59 31 91 63 91z" />
    <glyph glyph-name="W" unicode="W" horiz-adv-x="1260" 
d="M1291 800c33 0 66 -34 66 -104c0 -160 -198 -439 -303 -646c-27 -47 -65 -69 -98 -69c-38 0 -69 29 -69 87v455l-235 -478c-22 -45 -59 -64 -90 -64c-41 0 -78 32 -77 97l9 453c2 96 -48 137 -102 137c-58 0 -119 -48 -119 -127c0 -38 20 -68 61 -68c16 0 36 7 57 7
c39 0 57 -22 57 -55c0 -56 -75 -87 -127 -87c-123 0 -184 90 -184 192c0 177 141 270 273 270c119 0 230 -76 223 -237l-12 -311l231 474c25 50 62 74 94 74c37 0 68 -31 68 -89l2 -475c99 174 212 345 211 471c-1 60 32 93 64 93z" />
    <glyph glyph-name="Wacute" unicode="&#x1e82;" horiz-adv-x="1260" 
d="M956 863c-21 0 -37 14 -37 35c0 8 3 19 10 30l66 103c18 28 41 40 62 40c30 0 55 -23 55 -51c0 -15 -7 -32 -24 -48l-91 -90c-13 -14 -27 -19 -41 -19zM1291 800c33 0 66 -34 66 -104c0 -160 -198 -439 -303 -646c-27 -47 -65 -69 -98 -69c-38 0 -69 29 -69 87v455
l-235 -478c-22 -45 -59 -64 -90 -64c-41 0 -78 32 -77 97l9 453c2 96 -48 137 -102 137c-58 0 -119 -48 -119 -127c0 -38 20 -68 61 -68c16 0 36 7 57 7c39 0 57 -22 57 -55c0 -56 -75 -87 -127 -87c-123 0 -184 90 -184 192c0 177 141 270 273 270c119 0 230 -76 223 -237
l-12 -311l231 474c25 50 62 74 94 74c37 0 68 -31 68 -89l2 -475c99 174 212 345 211 471c-1 60 32 93 64 93z" />
    <glyph glyph-name="Wcircumflex" unicode="&#x174;" horiz-adv-x="1260" 
d="M908 885c-67 -60 -125 22 -69 65l131 103c30 23 58 19 77 -14l55 -93c40 -69 -47 -121 -91 -40l-26 47zM1291 800c33 0 66 -34 66 -104c0 -160 -198 -439 -303 -646c-27 -47 -65 -69 -98 -69c-38 0 -69 29 -69 87v455l-235 -478c-22 -45 -59 -64 -90 -64
c-41 0 -78 32 -77 97l9 453c2 96 -48 137 -102 137c-58 0 -119 -48 -119 -127c0 -38 20 -68 61 -68c16 0 36 7 57 7c39 0 57 -22 57 -55c0 -56 -75 -87 -127 -87c-123 0 -184 90 -184 192c0 177 141 270 273 270c119 0 230 -76 223 -237l-12 -311l231 474c25 50 62 74 94 74
c37 0 68 -31 68 -89l2 -475c99 174 212 345 211 471c-1 60 32 93 64 93z" />
    <glyph glyph-name="Wdieresis" unicode="&#x1e84;" horiz-adv-x="1260" 
d="M898 870c-38 0 -69 31 -69 69s31 69 69 69s68 -31 68 -69s-30 -69 -68 -69zM1077 870c-38 0 -69 31 -69 69s31 69 69 69s68 -31 68 -69s-30 -69 -68 -69zM1291 800c33 0 66 -34 66 -104c0 -160 -198 -439 -303 -646c-27 -47 -65 -69 -98 -69c-38 0 -69 29 -69 87v455
l-235 -478c-22 -45 -59 -64 -90 -64c-41 0 -78 32 -77 97l9 453c2 96 -48 137 -102 137c-58 0 -119 -48 -119 -127c0 -38 20 -68 61 -68c16 0 36 7 57 7c39 0 57 -22 57 -55c0 -56 -75 -87 -127 -87c-123 0 -184 90 -184 192c0 177 141 270 273 270c119 0 230 -76 223 -237
l-12 -311l231 474c25 50 62 74 94 74c37 0 68 -31 68 -89l2 -475c99 174 212 345 211 471c-1 60 32 93 64 93z" />
    <glyph glyph-name="Wgrave" unicode="&#x1e80;" horiz-adv-x="1260" 
d="M940 875l-91 90c-16 16 -23 33 -23 48c0 28 25 51 54 51c21 0 45 -12 63 -40l65 -103c7 -11 10 -22 10 -30c0 -21 -16 -35 -37 -35c-13 0 -28 5 -41 19zM1291 800c33 0 66 -34 66 -104c0 -160 -198 -439 -303 -646c-27 -47 -65 -69 -98 -69c-38 0 -69 29 -69 87v455
l-235 -478c-22 -45 -59 -64 -90 -64c-41 0 -78 32 -77 97l9 453c2 96 -48 137 -102 137c-58 0 -119 -48 -119 -127c0 -38 20 -68 61 -68c16 0 36 7 57 7c39 0 57 -22 57 -55c0 -56 -75 -87 -127 -87c-123 0 -184 90 -184 192c0 177 141 270 273 270c119 0 230 -76 223 -237
l-12 -311l231 474c25 50 62 74 94 74c37 0 68 -31 68 -89l2 -475c99 174 212 345 211 471c-1 60 32 93 64 93z" />
    <glyph glyph-name="X" unicode="X" horiz-adv-x="865" 
d="M973 329c22 0 41 -15 41 -39c0 -6 -1 -13 -4 -20c-59 -157 -111 -289 -248 -289c-82 0 -121 48 -159 194l-19 66l-245 -287c-27 -32 -55 -45 -78 -45c-28 0 -48 20 -48 50c0 19 9 45 32 72l299 350l-66 234c-11 40 -44 58 -80 58c-56 0 -120 -44 -120 -116
c0 -35 20 -65 65 -65c17 0 36 7 57 7c39 0 57 -21 57 -55c0 -55 -75 -87 -127 -87c-129 0 -190 89 -190 187c0 161 138 256 266 256c85 0 166 -43 198 -140l44 -157l219 255c26 29 52 42 73 42c28 0 48 -21 48 -51c0 -20 -9 -44 -30 -71l-270 -316l47 -166
c23 -71 43 -87 68 -87c38 0 81 62 127 188c9 23 27 32 43 32z" />
    <glyph glyph-name="Y" unicode="Y" horiz-adv-x="676" 
d="M785 330c22 0 42 -16 42 -40c0 -6 -1 -12 -4 -19c-115 -285 -176 -375 -396 -399l-40 -102c-36 -90 -122 -137 -200 -137c-114 0 -173 74 -173 152c0 83 68 168 212 168c34 0 64 0 93 1l63 156c-42 -35 -91 -53 -134 -53c-131 0 -166 154 -108 290l134 331l22 54
c20 48 51 68 80 68c31 0 58 -25 58 -62c0 -12 -2 -24 -8 -38l-9 -22l-152 -373c-25 -65 -16 -123 47 -123c48 0 112 36 138 96l162 400l22 54c20 48 51 68 80 68c31 0 58 -25 58 -62c0 -12 -2 -24 -8 -38l-9 -22l-290 -711c141 27 186 106 277 330c10 23 27 33 43 33z
M187 -252c46 0 62 33 95 116c-21 -1 -42 -1 -65 -1c-63 0 -89 -31 -89 -61c0 -27 23 -54 59 -54z" />
    <glyph glyph-name="Yacute" unicode="&#xdd;" horiz-adv-x="676" 
d="M568 843c-21 0 -37 14 -37 35c0 8 3 19 10 30l66 103c18 28 41 40 62 40c30 0 55 -23 55 -51c0 -15 -7 -32 -24 -48l-91 -90c-13 -14 -27 -19 -41 -19zM785 330c22 0 42 -16 42 -40c0 -6 -1 -12 -4 -19c-115 -285 -176 -375 -396 -399l-40 -102
c-36 -90 -122 -137 -200 -137c-114 0 -173 74 -173 152c0 83 68 168 212 168c34 0 64 0 93 1l63 156c-42 -35 -91 -53 -134 -53c-131 0 -166 154 -108 290l134 331l22 54c20 48 51 68 80 68c31 0 58 -25 58 -62c0 -12 -2 -24 -8 -38l-9 -22l-152 -373
c-25 -65 -16 -123 47 -123c48 0 112 36 138 96l162 400l22 54c20 48 51 68 80 68c31 0 58 -25 58 -62c0 -12 -2 -24 -8 -38l-9 -22l-290 -711c141 27 186 106 277 330c10 23 27 33 43 33zM187 -252c46 0 62 33 95 116c-21 -1 -42 -1 -65 -1c-63 0 -89 -31 -89 -61
c0 -27 23 -54 59 -54z" />
    <glyph glyph-name="Ycircumflex" unicode="&#x176;" horiz-adv-x="676" 
d="M520 865c-67 -60 -125 22 -69 65l131 103c30 23 58 19 77 -14l55 -93c40 -69 -47 -121 -91 -40l-26 47zM785 330c22 0 42 -16 42 -40c0 -6 -1 -12 -4 -19c-115 -285 -176 -375 -396 -399l-40 -102c-36 -90 -122 -137 -200 -137c-114 0 -173 74 -173 152
c0 83 68 168 212 168c34 0 64 0 93 1l63 156c-42 -35 -91 -53 -134 -53c-131 0 -166 154 -108 290l134 331l22 54c20 48 51 68 80 68c31 0 58 -25 58 -62c0 -12 -2 -24 -8 -38l-9 -22l-152 -373c-25 -65 -16 -123 47 -123c48 0 112 36 138 96l162 400l22 54
c20 48 51 68 80 68c31 0 58 -25 58 -62c0 -12 -2 -24 -8 -38l-9 -22l-290 -711c141 27 186 106 277 330c10 23 27 33 43 33zM187 -252c46 0 62 33 95 116c-21 -1 -42 -1 -65 -1c-63 0 -89 -31 -89 -61c0 -27 23 -54 59 -54z" />
    <glyph glyph-name="Ydieresis" unicode="&#x178;" horiz-adv-x="676" 
d="M510 850c-38 0 -69 31 -69 69s31 69 69 69s68 -31 68 -69s-30 -69 -68 -69zM689 850c-38 0 -69 31 -69 69s31 69 69 69s68 -31 68 -69s-30 -69 -68 -69zM785 330c22 0 42 -16 42 -40c0 -6 -1 -12 -4 -19c-115 -285 -176 -375 -396 -399l-40 -102
c-36 -90 -122 -137 -200 -137c-114 0 -173 74 -173 152c0 83 68 168 212 168c34 0 64 0 93 1l63 156c-42 -35 -91 -53 -134 -53c-131 0 -166 154 -108 290l134 331l22 54c20 48 51 68 80 68c31 0 58 -25 58 -62c0 -12 -2 -24 -8 -38l-9 -22l-152 -373
c-25 -65 -16 -123 47 -123c48 0 112 36 138 96l162 400l22 54c20 48 51 68 80 68c31 0 58 -25 58 -62c0 -12 -2 -24 -8 -38l-9 -22l-290 -711c141 27 186 106 277 330c10 23 27 33 43 33zM187 -252c46 0 62 33 95 116c-21 -1 -42 -1 -65 -1c-63 0 -89 -31 -89 -61
c0 -27 23 -54 59 -54z" />
    <glyph glyph-name="uni1E8E" unicode="&#x1e8e;" horiz-adv-x="676" 
d="M586 850c-38 0 -69 31 -69 69s31 69 69 69s68 -31 68 -69s-30 -69 -68 -69zM785 330c22 0 42 -16 42 -40c0 -6 -1 -12 -4 -19c-115 -285 -176 -375 -396 -399l-40 -102c-36 -90 -122 -137 -200 -137c-114 0 -173 74 -173 152c0 83 68 168 212 168c34 0 64 0 93 1l63 156
c-42 -35 -91 -53 -134 -53c-131 0 -166 154 -108 290l134 331l22 54c20 48 51 68 80 68c31 0 58 -25 58 -62c0 -12 -2 -24 -8 -38l-9 -22l-152 -373c-25 -65 -16 -123 47 -123c48 0 112 36 138 96l162 400l22 54c20 48 51 68 80 68c31 0 58 -25 58 -62c0 -12 -2 -24 -8 -38
l-9 -22l-290 -711c141 27 186 106 277 330c10 23 27 33 43 33zM187 -252c46 0 62 33 95 116c-21 -1 -42 -1 -65 -1c-63 0 -89 -31 -89 -61c0 -27 23 -54 59 -54z" />
    <glyph glyph-name="uni1EF4" unicode="&#x1ef4;" horiz-adv-x="676" 
d="M785 330c22 0 42 -16 42 -40c0 -6 -1 -12 -4 -19c-115 -285 -176 -375 -396 -399l-40 -102c-36 -90 -122 -137 -200 -137c-114 0 -173 74 -173 152c0 83 68 168 212 168c34 0 64 0 93 1l63 156c-42 -35 -91 -53 -134 -53c-131 0 -166 154 -108 290l134 331l22 54
c20 48 51 68 80 68c31 0 58 -25 58 -62c0 -12 -2 -24 -8 -38l-9 -22l-152 -373c-25 -65 -16 -123 47 -123c48 0 112 36 138 96l162 400l22 54c20 48 51 68 80 68c31 0 58 -25 58 -62c0 -12 -2 -24 -8 -38l-9 -22l-290 -711c141 27 186 106 277 330c10 23 27 33 43 33z
M187 -252c46 0 62 33 95 116c-21 -1 -42 -1 -65 -1c-63 0 -89 -31 -89 -61c0 -27 23 -54 59 -54zM92 -418c38 0 68 -31 68 -69s-30 -69 -68 -69s-69 31 -69 69s31 69 69 69z" />
    <glyph glyph-name="Ygrave" unicode="&#x1ef2;" horiz-adv-x="676" 
d="M552 855l-91 90c-16 16 -23 33 -23 48c0 28 25 51 54 51c21 0 45 -12 63 -40l65 -103c7 -11 10 -22 10 -30c0 -21 -16 -35 -37 -35c-13 0 -28 5 -41 19zM785 330c22 0 42 -16 42 -40c0 -6 -1 -12 -4 -19c-115 -285 -176 -375 -396 -399l-40 -102
c-36 -90 -122 -137 -200 -137c-114 0 -173 74 -173 152c0 83 68 168 212 168c34 0 64 0 93 1l63 156c-42 -35 -91 -53 -134 -53c-131 0 -166 154 -108 290l134 331l22 54c20 48 51 68 80 68c31 0 58 -25 58 -62c0 -12 -2 -24 -8 -38l-9 -22l-152 -373
c-25 -65 -16 -123 47 -123c48 0 112 36 138 96l162 400l22 54c20 48 51 68 80 68c31 0 58 -25 58 -62c0 -12 -2 -24 -8 -38l-9 -22l-290 -711c141 27 186 106 277 330c10 23 27 33 43 33zM187 -252c46 0 62 33 95 116c-21 -1 -42 -1 -65 -1c-63 0 -89 -31 -89 -61
c0 -27 23 -54 59 -54z" />
    <glyph glyph-name="uni0232" unicode="&#x232;" horiz-adv-x="676" 
d="M500 863c-78 0 -66 99 13 99h140c82 0 66 -99 -14 -99h-139zM785 330c22 0 42 -16 42 -40c0 -6 -1 -12 -4 -19c-115 -285 -176 -375 -396 -399l-40 -102c-36 -90 -122 -137 -200 -137c-114 0 -173 74 -173 152c0 83 68 168 212 168c34 0 64 0 93 1l63 156
c-42 -35 -91 -53 -134 -53c-131 0 -166 154 -108 290l134 331l22 54c20 48 51 68 80 68c31 0 58 -25 58 -62c0 -12 -2 -24 -8 -38l-9 -22l-152 -373c-25 -65 -16 -123 47 -123c48 0 112 36 138 96l162 400l22 54c20 48 51 68 80 68c31 0 58 -25 58 -62c0 -12 -2 -24 -8 -38
l-9 -22l-290 -711c141 27 186 106 277 330c10 23 27 33 43 33zM187 -252c46 0 62 33 95 116c-21 -1 -42 -1 -65 -1c-63 0 -89 -31 -89 -61c0 -27 23 -54 59 -54z" />
    <glyph glyph-name="uni1EF8" unicode="&#x1ef8;" horiz-adv-x="676" 
d="M430 847c-27 12 -33 38 -16 65c32 52 68 77 110 77c57 0 87 -52 120 -52c10 0 23 7 35 21c22 27 41 33 65 19c26 -14 32 -38 16 -65c-30 -51 -66 -75 -111 -75c-60 0 -84 51 -117 51c-7 0 -14 -2 -23 -9c-33 -28 -52 -46 -79 -32zM785 330c22 0 42 -16 42 -40
c0 -6 -1 -12 -4 -19c-115 -285 -176 -375 -396 -399l-40 -102c-36 -90 -122 -137 -200 -137c-114 0 -173 74 -173 152c0 83 68 168 212 168c34 0 64 0 93 1l63 156c-42 -35 -91 -53 -134 -53c-131 0 -166 154 -108 290l134 331l22 54c20 48 51 68 80 68c31 0 58 -25 58 -62
c0 -12 -2 -24 -8 -38l-9 -22l-152 -373c-25 -65 -16 -123 47 -123c48 0 112 36 138 96l162 400l22 54c20 48 51 68 80 68c31 0 58 -25 58 -62c0 -12 -2 -24 -8 -38l-9 -22l-290 -711c141 27 186 106 277 330c10 23 27 33 43 33zM187 -252c46 0 62 33 95 116
c-21 -1 -42 -1 -65 -1c-63 0 -89 -31 -89 -61c0 -27 23 -54 59 -54z" />
    <glyph glyph-name="Z" unicode="Z" horiz-adv-x="616" 
d="M724 330c22 0 42 -16 42 -40c0 -6 -1 -12 -4 -19c-91 -225 -149 -310 -278 -342c-61 -158 -230 -297 -448 -297c-172 0 -263 103 -263 200c0 87 71 168 221 168h283c30 0 58 0 82 1c4 16 6 32 6 48c0 74 -43 143 -145 174c-41 12 -60 32 -60 57c0 21 13 45 37 73l286 325
h-214c-49 0 -71 27 -71 55c0 33 28 67 81 67h310c58 0 88 -22 88 -66c0 -23 -11 -47 -34 -72l-310 -346c122 -58 176 -156 176 -260c0 -9 0 -17 -1 -26c68 35 109 109 173 267c10 23 27 33 43 33zM33 -239c127 0 231 66 287 150c-48 -1 -103 -1 -167 -1h-160
c-50 0 -76 -30 -76 -63c0 -40 39 -86 116 -86z" />
    <glyph glyph-name="Zacute" unicode="&#x179;" horiz-adv-x="616" 
d="M516 863c-21 0 -37 14 -37 35c0 8 3 19 10 30l66 103c18 28 41 40 62 40c30 0 55 -23 55 -51c0 -15 -7 -32 -24 -48l-91 -90c-13 -14 -27 -19 -41 -19zM724 330c22 0 42 -16 42 -40c0 -6 -1 -12 -4 -19c-91 -225 -149 -310 -278 -342c-61 -158 -230 -297 -448 -297
c-172 0 -263 103 -263 200c0 87 71 168 221 168h283c30 0 58 0 82 1c4 16 6 32 6 48c0 74 -43 143 -145 174c-41 12 -60 32 -60 57c0 21 13 45 37 73l286 325h-214c-49 0 -71 27 -71 55c0 33 28 67 81 67h310c58 0 88 -22 88 -66c0 -23 -11 -47 -34 -72l-310 -346
c122 -58 176 -156 176 -260c0 -9 0 -17 -1 -26c68 35 109 109 173 267c10 23 27 33 43 33zM33 -239c127 0 231 66 287 150c-48 -1 -103 -1 -167 -1h-160c-50 0 -76 -30 -76 -63c0 -40 39 -86 116 -86z" />
    <glyph glyph-name="Zcaron" unicode="&#x17d;" horiz-adv-x="616" 
d="M455 892l-55 93c-41 69 47 121 91 40l25 -46l77 68c68 59 126 -23 70 -66l-132 -103c-29 -23 -57 -19 -76 14zM724 330c22 0 42 -16 42 -40c0 -6 -1 -12 -4 -19c-91 -225 -149 -310 -278 -342c-61 -158 -230 -297 -448 -297c-172 0 -263 103 -263 200
c0 87 71 168 221 168h283c30 0 58 0 82 1c4 16 6 32 6 48c0 74 -43 143 -145 174c-41 12 -60 32 -60 57c0 21 13 45 37 73l286 325h-214c-49 0 -71 27 -71 55c0 33 28 67 81 67h310c58 0 88 -22 88 -66c0 -23 -11 -47 -34 -72l-310 -346c122 -58 176 -156 176 -260
c0 -9 0 -17 -1 -26c68 35 109 109 173 267c10 23 27 33 43 33zM33 -239c127 0 231 66 287 150c-48 -1 -103 -1 -167 -1h-160c-50 0 -76 -30 -76 -63c0 -40 39 -86 116 -86z" />
    <glyph glyph-name="Zdotaccent" unicode="&#x17b;" horiz-adv-x="616" 
d="M534 870c-38 0 -69 31 -69 69s31 69 69 69s68 -31 68 -69s-30 -69 -68 -69zM724 330c22 0 42 -16 42 -40c0 -6 -1 -12 -4 -19c-91 -225 -149 -310 -278 -342c-61 -158 -230 -297 -448 -297c-172 0 -263 103 -263 200c0 87 71 168 221 168h283c30 0 58 0 82 1
c4 16 6 32 6 48c0 74 -43 143 -145 174c-41 12 -60 32 -60 57c0 21 13 45 37 73l286 325h-214c-49 0 -71 27 -71 55c0 33 28 67 81 67h310c58 0 88 -22 88 -66c0 -23 -11 -47 -34 -72l-310 -346c122 -58 176 -156 176 -260c0 -9 0 -17 -1 -26c68 35 109 109 173 267
c10 23 27 33 43 33zM33 -239c127 0 231 66 287 150c-48 -1 -103 -1 -167 -1h-160c-50 0 -76 -30 -76 -63c0 -40 39 -86 116 -86z" />
    <glyph glyph-name="uni1E92" unicode="&#x1e92;" horiz-adv-x="616" 
d="M724 330c22 0 42 -16 42 -40c0 -6 -1 -12 -4 -19c-91 -225 -149 -310 -278 -342c-61 -158 -230 -297 -448 -297c-172 0 -263 103 -263 200c0 87 71 168 221 168h283c30 0 58 0 82 1c4 16 6 32 6 48c0 74 -43 143 -145 174c-41 12 -60 32 -60 57c0 21 13 45 37 73l286 325
h-214c-49 0 -71 27 -71 55c0 33 28 67 81 67h310c58 0 88 -22 88 -66c0 -23 -11 -47 -34 -72l-310 -346c122 -58 176 -156 176 -260c0 -9 0 -17 -1 -26c68 35 109 109 173 267c10 23 27 33 43 33zM33 -239c127 0 231 66 287 150c-48 -1 -103 -1 -167 -1h-160
c-50 0 -76 -30 -76 -63c0 -40 39 -86 116 -86zM0 -434c38 0 68 -31 68 -69s-30 -69 -68 -69s-69 31 -69 69s31 69 69 69z" />
    <glyph glyph-name="A.02" horiz-adv-x="868" 
d="M930 801c30 0 57 -20 57 -55c0 -10 -2 -21 -8 -34l-188 -463c-47 -116 -54 -150 -54 -186c0 -31 24 -51 24 -86c0 -41 -38 -67 -71 -67c-55 0 -94 73 -94 139c0 48 17 108 53 197l10 25h-147l-75 -131c-60 -111 -152 -159 -236 -159c-102 0 -191 69 -191 180
c0 110 97 231 281 231h141l62 109c113 209 219 300 428 300h8zM708 392l113 278c-78 -6 -122 -64 -200 -206l-40 -72h127zM209 108c62 0 98 58 156 163h-50c-128 0 -172 -50 -172 -95c0 -36 29 -68 66 -68z" />
    <glyph glyph-name="B.01" horiz-adv-x="857" 
d="M699 396c81 -22 120 -89 120 -162c0 -114 -97 -245 -283 -245h-166l-29 -71c-37 -90 -122 -137 -201 -137c-115 0 -172 73 -172 150c0 84 71 173 211 173h96l250 615c-107 -6 -204 -60 -204 -160c0 -46 23 -60 34 -77c3 -5 4 -10 4 -17c0 -22 -22 -46 -54 -46
c-62 0 -110 74 -110 139c0 180 178 273 359 273c8 0 17 0 25 -1c17 18 36 26 54 26c26 0 49 -17 56 -44c104 -31 183 -102 183 -215c0 -91 -60 -178 -173 -201zM748 591c0 53 -36 89 -88 110l-98 -241h12c110 0 174 67 174 131zM498 104c120 0 182 70 182 135
c0 59 -49 114 -148 114h-13l-102 -249h81zM140 -104c43 0 61 26 89 93h-59c-55 0 -80 -28 -80 -52c0 -22 18 -41 50 -41z" />
    <glyph glyph-name="C.01" horiz-adv-x="668" 
d="M777 331c22 0 42 -16 42 -41c0 -6 -1 -12 -4 -18c-92 -252 -293 -358 -442 -358c-198 0 -279 132 -279 297c0 90 24 189 65 281c-72 38 -124 98 -124 179c0 72 43 143 107 174c14 7 27 10 39 10c33 0 55 -24 55 -52c0 -20 -10 -42 -36 -58c-28 -18 -41 -40 -41 -74
c0 -33 23 -58 56 -77c87 136 214 237 354 237c116 0 170 -63 170 -139c0 -113 -122 -255 -341 -255c-37 0 -75 4 -112 11c-31 -72 -50 -149 -50 -216c0 -109 49 -192 175 -192c101 0 250 73 323 258c9 23 27 33 43 33zM568 717c-80 0 -161 -68 -223 -160c17 -2 33 -3 48 -3
c142 0 229 79 229 126c0 22 -17 37 -54 37z" />
    <glyph glyph-name="D.01" horiz-adv-x="927" 
d="M690 806c151 -58 224 -209 224 -366c0 -218 -141 -451 -409 -451h-139l-29 -71c-37 -90 -120 -137 -199 -137c-115 0 -172 73 -172 150c0 84 71 173 211 173h96l249 612c-105 -8 -203 -72 -203 -157c0 -46 23 -60 34 -77c3 -5 4 -10 4 -17c0 -22 -22 -46 -54 -46
c-62 0 -110 74 -110 139c0 166 177 273 355 273c10 0 20 0 30 -1c17 17 37 25 55 25c29 0 53 -18 57 -49zM506 104c184 0 279 176 279 333c0 107 -44 209 -132 255l-240 -588h93zM138 -104c43 0 61 26 89 93h-59c-55 0 -80 -28 -80 -52c0 -22 18 -41 50 -41z" />
    <glyph glyph-name="E.01" horiz-adv-x="632" 
d="M664 714c0 -102 -119 -155 -249 -159c9 -15 23 -28 42 -36c30 -11 42 -33 42 -55c0 -28 -21 -55 -55 -55h-84c-130 0 -195 -89 -195 -174c0 -74 50 -143 151 -143c86 0 155 63 155 134c0 18 -4 36 -13 53c-6 11 -8 22 -8 33c0 35 28 63 61 63c23 0 50 -14 70 -50
c16 -29 24 -62 24 -97c0 -126 -105 -270 -310 -270c-174 0 -269 131 -269 265s94 272 300 287c-18 17 -31 35 -40 54c-161 30 -216 123 -216 200c0 64 38 118 83 118c27 0 50 -19 50 -49c0 -12 -7 -30 -7 -48c0 -45 36 -76 84 -94c26 80 106 149 220 149
c108 0 164 -62 164 -126zM416 668c68 0 127 16 127 46c0 11 -15 22 -39 22c-44 0 -77 -30 -93 -68h5z" />
    <glyph glyph-name="F.01" horiz-adv-x="770" 
d="M907 800c37 0 58 -24 58 -52c0 -30 -25 -66 -79 -82c-24 -7 -47 -10 -70 -11c-43 -28 -73 -89 -127 -222l-15 -38h34c35 0 50 -19 50 -40c0 -28 -26 -61 -71 -61h-55l-116 -287c-17 -40 -44 -59 -81 -59c-46 0 -65 42 -47 89l104 256h-18c-33 0 -49 19 -49 41
c0 28 27 60 70 60h38l16 40c48 118 87 191 137 234c-77 15 -165 36 -283 40c-108 2 -153 -53 -153 -101c0 -34 24 -64 67 -64c24 0 52 9 76 27c15 12 30 16 44 16c29 0 51 -23 51 -52c0 -15 -5 -32 -20 -49c-43 -48 -101 -72 -158 -72c-123 0 -191 91 -191 188
c0 108 86 222 275 222c184 0 324 -43 413 -43c20 0 39 2 54 9c18 7 33 11 46 11z" />
    <glyph glyph-name="G.01" horiz-adv-x="675" 
d="M784 331c22 0 42 -16 42 -40c0 -6 -1 -12 -4 -19c-115 -285 -176 -375 -396 -399l-41 -103c-36 -90 -121 -136 -199 -136c-114 0 -173 74 -173 152c0 83 69 168 212 168c33 0 64 0 92 1c16 38 39 95 61 150c-35 -30 -78 -46 -120 -46c-85 0 -164 64 -164 214
c0 70 19 149 53 225c-66 39 -112 96 -112 173c0 72 43 143 107 174c14 7 27 10 38 10c34 0 56 -24 56 -52c0 -20 -11 -42 -37 -58c-28 -18 -40 -40 -40 -74c0 -29 18 -52 45 -70c85 129 215 230 365 230c115 0 169 -63 169 -139c0 -113 -121 -255 -340 -255
c-41 0 -84 5 -126 14c-23 -55 -37 -111 -37 -158c0 -87 37 -123 81 -123c43 0 93 33 123 88l3 7c17 41 50 60 78 60c30 0 56 -22 56 -59c0 -12 -1 -25 -7 -39l-105 -259c141 27 186 106 277 330c10 23 27 33 43 33zM567 717c-88 0 -174 -69 -236 -158c22 -3 43 -5 62 -5
c142 0 228 79 228 126c0 22 -17 37 -54 37zM186 -251c47 0 62 32 95 116c-21 -1 -42 -1 -65 -1c-63 0 -89 -31 -89 -61c0 -27 23 -54 59 -54z" />
    <glyph glyph-name="H.01" horiz-adv-x="880" 
d="M941 800c36 0 57 -26 57 -58c0 -11 -3 -21 -8 -33l-188 -461c-47 -116 -52 -149 -52 -185c0 -31 23 -51 23 -86c0 -41 -38 -67 -70 -67c-56 0 -95 73 -95 139c0 48 18 112 54 200l9 22h-182l-54 -132c-45 -110 -134 -158 -228 -158c-102 0 -191 69 -191 180
c0 110 97 231 281 231h100l116 287h-70c-84 0 -136 -31 -136 -76c0 -33 27 -53 27 -88c0 -33 -28 -54 -59 -54c-42 0 -91 37 -91 132c0 93 75 205 263 207h170h1c30 0 56 -23 56 -58c0 -10 -2 -21 -8 -34l-128 -316h182l140 344c17 43 51 64 81 64zM215 108
c63 5 95 66 134 163h-28c-128 0 -172 -50 -172 -95c0 -36 29 -68 66 -68z" />
    <glyph glyph-name="J.01" horiz-adv-x="649" 
d="M776 800c99 0 87 -121 -20 -121h-1c-40 -29 -69 -91 -122 -220l-170 -417c-56 -140 -143 -219 -270 -247c-8 -2 -16 -3 -23 -3c-34 0 -55 22 -55 56c0 42 23 62 67 75c74 21 124 79 164 177l147 361c43 105 78 174 121 218h-167c-118 0 -174 -29 -174 -91s71 -50 71 -104
c0 -32 -22 -58 -55 -58c-85 0 -140 74 -140 154c0 103 88 220 304 220h323z" />
    <glyph glyph-name="L.01" horiz-adv-x="840" 
d="M888 -23c38 0 60 -28 60 -59c0 -25 -15 -52 -50 -66c-72 -28 -121 -37 -180 -37c-159 0 -228 131 -299 236c-45 -47 -100 -70 -174 -70c-130 0 -193 74 -193 150c0 78 68 155 198 155c55 0 100 -16 139 -42l12 30c6 15 50 122 77 190c-107 34 -193 103 -193 208
c0 71 43 143 107 174c15 7 27 10 39 10c33 0 56 -24 56 -52c0 -20 -11 -42 -37 -58c-28 -17 -41 -40 -41 -74c0 -49 52 -82 114 -100c84 191 152 252 265 259c116 7 172 -68 172 -147c0 -112 -111 -246 -311 -246c-13 0 -26 0 -40 1c-31 -77 -68 -167 -88 -216
c-11 -27 -22 -51 -33 -73c78 -96 139 -208 252 -208c37 0 71 12 113 27c13 5 24 8 35 8zM797 712c-54 0 -95 -52 -141 -158c121 5 184 72 184 117c0 26 -17 41 -43 41zM249 99c39 0 64 10 90 47c-26 22 -57 35 -93 35c-46 0 -70 -20 -70 -41c0 -20 25 -41 73 -41z" />
    <glyph glyph-name="M.01" horiz-adv-x="1049" 
d="M1170 327c26 -8 35 -29 24 -57c-10 -26 -27 -69 -38 -95c-56 -132 -123 -194 -237 -194c-79 0 -142 48 -142 117c0 31 14 70 63 191l99 244c21 51 40 98 40 115c0 20 -9 33 -34 33c-33 0 -64 -23 -97 -84c-7 -20 -16 -42 -25 -64l-164 -404l-36 -87
c-18 -44 -50 -61 -78 -61c-32 0 -59 21 -59 57c0 11 2 22 7 35l23 56l164 404c21 51 40 98 40 115c0 20 -9 33 -34 33c-31 0 -61 -21 -93 -77l-193 -475l-36 -87c-18 -44 -50 -61 -78 -61c-32 0 -59 21 -59 57c0 11 2 22 7 35l23 56l223 549v1h-50c-98 0 -169 -45 -169 -151
c0 -12 3 -24 8 -33c9 -15 13 -30 13 -42c0 -36 -27 -60 -59 -60c-56 0 -89 61 -89 136c0 118 85 271 300 271h147h1c27 0 51 -19 57 -48c39 33 84 48 123 48c52 0 97 -26 110 -73c45 50 101 73 149 73c63 0 114 -38 114 -104c0 -29 -26 -96 -53 -163l-99 -244
c-28 -66 -48 -120 -53 -132c-14 -39 2 -72 36 -72c33 0 74 32 104 104c6 13 23 57 44 108c12 28 30 38 56 30z" />
    <glyph glyph-name="N.01" horiz-adv-x="837" 
d="M958 327c26 -8 35 -29 24 -57c-10 -26 -27 -69 -38 -95c-56 -132 -123 -194 -237 -194c-79 0 -142 48 -142 117c0 31 14 70 63 191l99 244c21 51 40 98 40 115c0 28 -17 41 -41 41c-39 0 -99 -36 -137 -96l-189 -464l-36 -87c-18 -44 -50 -61 -78 -61
c-32 0 -59 21 -59 57c0 11 2 22 7 35l23 56l223 549v1h-50c-98 0 -169 -45 -169 -151c0 -12 3 -24 8 -33c9 -15 13 -30 13 -42c0 -36 -27 -60 -59 -60c-56 0 -89 61 -89 136c0 118 85 271 300 271h147h1c31 0 58 -25 58 -62c55 41 119 62 169 62c63 0 114 -38 114 -104
c0 -29 -26 -96 -53 -163l-99 -244c-28 -66 -48 -120 -53 -132c-14 -39 2 -72 36 -72c33 0 74 32 104 104c6 13 23 57 44 108c12 28 30 38 56 30z" />
    <glyph glyph-name="P.01" horiz-adv-x="767" 
d="M639 810c127 -43 186 -147 186 -251c0 -139 -103 -278 -288 -278h-101l-97 -239c-57 -140 -143 -219 -270 -247c-48 -11 -78 12 -78 53c0 42 23 62 67 75c74 21 124 79 164 177l251 619c-106 -7 -202 -60 -202 -160c0 -46 23 -60 33 -77c4 -5 5 -10 5 -17
c0 -22 -23 -46 -54 -46c-62 0 -110 74 -110 139c0 180 177 273 358 273c9 0 17 0 25 -1c17 17 38 25 56 25c27 0 50 -16 55 -45zM513 388c122 0 186 83 186 166c0 56 -30 113 -93 144l-126 -310h33z" />
    <glyph glyph-name="T.01" horiz-adv-x="770" 
d="M907 800c37 0 58 -24 58 -52c0 -30 -25 -66 -79 -82c-24 -7 -47 -10 -70 -11c-43 -28 -73 -89 -127 -222l-173 -426c-17 -40 -44 -59 -81 -59c-46 0 -65 42 -47 89l161 397c48 118 87 191 137 234c-77 15 -165 36 -283 40c-108 2 -153 -53 -153 -101c0 -34 24 -64 67 -64
c24 0 52 9 76 27c15 12 30 16 44 16c29 0 51 -23 51 -52c0 -15 -5 -32 -20 -49c-43 -48 -101 -72 -158 -72c-123 0 -191 91 -191 188c0 108 86 222 275 222c184 0 324 -43 413 -43c20 0 39 2 54 9c18 7 33 11 46 11z" />
    <glyph glyph-name="A.swsh" horiz-adv-x="679" 
d="M800 327c26 -8 35 -29 24 -57c-10 -26 -27 -69 -38 -95c-56 -132 -123 -194 -237 -194c-66 0 -121 34 -137 85c-48 -57 -107 -85 -162 -85c-86 0 -163 68 -163 206c0 247 189 624 436 624c67 0 114 -31 134 -80c17 20 38 29 57 29c31 0 58 -25 58 -62
c0 -12 -2 -24 -8 -38l-9 -22c-57 -142 -100 -247 -142 -349c-28 -66 -48 -120 -53 -132c-14 -39 2 -72 36 -72c33 0 74 32 104 104c6 13 23 57 44 108c12 28 30 38 56 30zM299 107c50 0 113 54 154 141l17 41l119 291c3 12 4 23 4 34c0 44 -27 80 -78 80
c-134 0 -280 -312 -280 -484c0 -72 27 -103 64 -103z" />
    <glyph glyph-name="C.swsh" horiz-adv-x="882" 
d="M991 331c21 0 41 -16 41 -41c0 -6 -1 -12 -3 -18c-92 -252 -294 -358 -442 -358c-198 0 -279 132 -279 297c0 124 49 273 131 394c-75 43 -145 84 -225 84s-121 -48 -121 -91s32 -65 71 -65c24 0 50 8 73 26c15 11 29 15 43 15c31 0 55 -26 55 -57c0 -17 -6 -34 -20 -50
c-43 -48 -102 -72 -159 -72c-99 0 -194 69 -194 188c0 108 83 223 247 223c108 0 215 -52 310 -101c76 76 168 126 267 126c117 0 171 -64 171 -136c0 -87 -83 -184 -240 -184c-61 0 -114 14 -163 35c-63 -97 -105 -219 -105 -314c0 -109 49 -192 175 -192
c101 0 251 73 324 258c9 23 27 33 43 33zM785 717c-51 0 -102 -27 -148 -70c35 -15 66 -24 93 -24c67 0 105 34 105 62c0 18 -16 32 -50 32z" />
    <glyph glyph-name="E.swsh" horiz-adv-x="843" 
d="M711 840c223 0 223 -264 -26 -264c-25 0 -48 1 -70 4c7 -27 24 -49 53 -61c30 -11 42 -33 42 -55c0 -28 -21 -55 -55 -55h-84c-130 0 -195 -89 -195 -174c0 -74 50 -143 151 -143c86 0 155 63 155 134c0 18 -4 36 -13 53c-6 11 -8 22 -8 33c0 35 28 63 61 63
c23 0 50 -14 70 -50c16 -29 24 -62 24 -97c0 -126 -105 -270 -310 -270c-174 0 -269 131 -269 265s94 272 300 287c-32 30 -49 66 -54 103c-93 36 -159 85 -265 85c-80 0 -121 -48 -121 -91s32 -65 71 -65c24 0 50 8 73 26c15 11 29 15 43 15c31 0 55 -26 55 -57
c0 -17 -6 -34 -20 -50c-43 -48 -102 -72 -159 -72c-99 0 -194 69 -194 188c0 108 83 223 247 223c115 0 213 -42 301 -77c37 58 106 102 197 102zM715 736c-33 0 -59 -17 -77 -41c20 -4 40 -7 60 -7c75 0 68 48 17 48z" />
    <glyph glyph-name="G.swsh" horiz-adv-x="894" 
d="M1004 331c21 0 41 -16 41 -40c0 -6 -1 -12 -4 -19c-115 -285 -176 -374 -396 -399l-41 -103c-36 -90 -121 -136 -199 -136c-113 0 -173 74 -173 152c0 83 70 168 212 168c34 0 64 0 93 1l60 150c-35 -30 -78 -46 -120 -46c-85 0 -164 64 -164 214c0 105 43 232 117 339
c-71 40 -138 77 -214 77c-78 0 -119 -51 -119 -95c0 -33 24 -63 71 -63c25 0 51 8 74 26c15 11 30 16 43 16c30 0 53 -24 53 -53c0 -15 -7 -32 -21 -48c-43 -49 -102 -72 -159 -72c-99 0 -194 68 -194 188c0 108 83 223 247 223c105 0 210 -51 303 -100
c76 72 170 120 274 120c117 0 171 -64 171 -136c0 -87 -83 -184 -240 -184c-65 0 -121 17 -173 40c-56 -83 -91 -182 -91 -258c0 -87 36 -123 81 -123s96 36 126 95c16 41 49 60 77 60c31 0 57 -22 57 -59c0 -12 -2 -25 -8 -39l-104 -259c140 27 186 106 276 330
c10 23 27 33 44 33zM787 717c-54 0 -107 -26 -154 -66c37 -17 70 -28 99 -28c67 0 105 34 105 62c0 18 -16 32 -50 32zM405 -251c47 0 63 32 96 116c-21 -1 -43 -1 -66 -1c-62 0 -88 -31 -88 -61c0 -27 22 -54 58 -54z" />
    <glyph glyph-name="K.swsh" horiz-adv-x="870" 
d="M938 802c32 0 52 -23 52 -53c0 -22 -10 -48 -36 -72l-306 -297l154 -384c3 -12 5 -23 5 -33c0 -45 -32 -71 -64 -71c-25 0 -51 15 -64 49l-176 438l-137 -336c-17 -43 -49 -62 -79 -62s-57 21 -57 56c0 10 1 22 7 34l247 608h-54c-98 0 -169 -45 -169 -151
c0 -12 3 -24 8 -33c9 -15 13 -30 13 -42c0 -36 -27 -60 -59 -60c-56 0 -89 61 -89 136c0 118 85 271 300 271h153h2c36 0 55 -26 55 -58c0 -10 -2 -21 -7 -33l-107 -264l332 320c28 26 54 37 76 37z" />
    <glyph glyph-name="L.swsh" horiz-adv-x="841" 
d="M1270 -35c32 0 55 -29 55 -63c0 -22 -9 -45 -31 -65c-94 -84 -183 -117 -266 -117c-221 0 -404 233 -576 368c-52 -72 -116 -107 -207 -107c-129 0 -192 75 -192 150c0 78 66 155 197 155c51 0 100 -11 145 -29l6 14c6 16 50 124 78 193c-107 34 -193 103 -193 208
c0 71 43 143 107 174c15 7 27 10 39 10c33 0 56 -24 56 -52c0 -20 -11 -42 -37 -58c-28 -17 -41 -40 -41 -74c0 -49 52 -82 114 -100c84 191 152 252 265 259c116 7 172 -68 172 -147c0 -112 -111 -246 -311 -246c-13 0 -26 0 -40 1c-31 -77 -69 -169 -88 -216l-12 -28
c185 -125 335 -335 515 -335c61 0 125 24 196 84c17 15 34 21 49 21zM798 712c-54 0 -95 -52 -141 -158c121 5 184 72 184 117c0 26 -17 41 -43 41zM249 99c43 0 69 11 98 57c-34 16 -68 25 -101 25c-45 0 -69 -21 -69 -41s24 -41 72 -41z" />
    <glyph glyph-name="R.swsh" horiz-adv-x="810" 
d="M825 558c0 -128 -89 -256 -253 -272l110 -290c3 -12 5 -23 5 -33c0 -45 -32 -71 -64 -71c-25 0 -51 15 -64 49l-127 330l-107 -263c-17 -43 -49 -61 -79 -61c-31 0 -57 20 -57 55c0 10 2 22 7 34l277 683c-106 -7 -202 -60 -202 -160c0 -46 23 -60 33 -77
c4 -5 5 -10 5 -17c0 -22 -23 -46 -54 -46c-62 0 -110 74 -110 139c0 180 177 273 358 273c9 0 17 0 25 -1c17 17 38 25 56 25c28 0 50 -17 55 -45c127 -43 186 -147 186 -252zM508 381c121 0 190 88 190 174c0 57 -29 113 -92 143l-129 -317h31z" />
    <glyph glyph-name="T.ss01" horiz-adv-x="718" 
d="M1243 800c44 0 64 -23 64 -49c0 -33 -33 -72 -84 -72h-414c-83 -9 -109 -52 -185 -239l-140 -344l-36 -87c-18 -44 -50 -61 -78 -61c-32 0 -59 21 -59 57c0 11 2 22 7 35l23 56l140 343c51 124 91 198 146 240h-181c-118 0 -174 -30 -174 -92s71 -50 71 -104
c0 -32 -22 -58 -55 -58c-85 0 -140 74 -140 154c0 103 88 220 304 221h791z" />
    <glyph glyph-name="Y.swsh" horiz-adv-x="862" 
d="M1403 -132c33 0 55 -29 55 -63c0 -22 -9 -44 -30 -64c-70 -65 -150 -89 -235 -89c-148 0 -393 101 -585 167c-57 -95 -128 -141 -233 -141c-123 0 -179 75 -179 152c0 76 62 153 186 153c46 0 97 -7 152 -19c1 2 1 3 2 4l58 143c-43 -35 -91 -54 -135 -54
c-90 0 -135 73 -135 163c0 118 118 270 118 381c0 64 -45 95 -96 95c-64 0 -136 -49 -136 -142c0 -44 24 -81 79 -81c39 0 59 -24 59 -51c0 -35 -31 -73 -91 -73c-123 0 -185 93 -185 197c0 128 95 271 286 271c116 0 221 -65 221 -194c0 -144 -116 -304 -116 -379
c0 -36 18 -62 60 -62c49 0 115 38 140 101l49 119l137 337c17 41 47 61 79 61c35 0 57 -25 57 -58c0 -10 -1 -20 -6 -30l-317 -779c202 -57 418 -142 531 -142c59 0 113 16 163 57c17 14 33 20 47 20zM384 -204c44 0 70 12 100 62c-41 11 -76 18 -103 18
c-40 0 -59 -19 -59 -39c0 -21 21 -41 62 -41z" />
    <glyph glyph-name="G.titl" horiz-adv-x="689" 
d="M798 331c22 0 42 -16 42 -40c0 -6 -1 -12 -4 -19c-115 -285 -176 -375 -397 -399l-40 -103c-36 -90 -121 -136 -199 -136c-114 0 -173 74 -173 152c0 83 69 168 212 168c34 0 64 0 92 1l66 162c-38 -38 -85 -59 -139 -59c-106 0 -152 87 -152 203c0 221 186 553 415 553
c64 0 109 -29 131 -74c18 31 43 44 66 44c32 0 59 -26 59 -64c0 -11 -3 -22 -8 -34l-292 -719c141 27 187 106 278 331c10 23 27 33 43 33zM325 176c46 0 110 46 149 130l112 276c18 58 -8 115 -73 115c-129 0 -264 -259 -264 -409c0 -65 23 -112 76 -112zM200 -251
c47 0 62 33 95 116c-21 -1 -42 -1 -65 -1c-63 0 -89 -31 -89 -61c0 -27 23 -54 59 -54z" />
    <glyph glyph-name="H.titl" horiz-adv-x="842" 
d="M905 800c31 0 58 -25 58 -62c0 -12 -2 -24 -8 -38l-9 -22l-241 -594l-36 -87c-18 -44 -50 -61 -78 -61c-32 0 -59 21 -59 57c0 11 2 22 7 35l23 56l123 302h-180l-97 -238l-36 -87c-18 -44 -50 -61 -78 -61c-32 0 -59 21 -59 57c0 11 2 22 7 35l23 56l97 238h-24
c-103 0 -193 70 -193 182c0 111 98 232 284 232h150h3c31 0 58 -25 58 -62c0 -12 -2 -24 -8 -38l-9 -22l-68 -168h180l68 168l22 54c20 48 51 68 80 68zM362 510h50l68 168l1 3h-42c-211 0 -185 -171 -77 -171z" />
    <glyph glyph-name="L.titl" horiz-adv-x="851" 
d="M1298 -35c32 0 55 -29 55 -63c0 -22 -9 -45 -31 -65c-94 -84 -183 -117 -266 -117c-220 0 -404 233 -576 368c-52 -73 -115 -107 -207 -107c-129 0 -192 75 -192 150c0 78 66 155 197 155c51 0 100 -11 145 -29l6 14l121 298c-68 40 -122 86 -217 86
c-78 0 -119 -51 -119 -95c0 -33 24 -62 70 -62c24 0 50 8 73 26c16 12 30 16 44 16c29 0 53 -25 53 -55c0 -15 -6 -32 -20 -48c-43 -48 -102 -72 -159 -72c-129 0 -194 91 -194 188c0 109 82 224 247 224c115 0 203 -49 279 -92c67 106 147 146 217 146
c107 0 160 -65 160 -136c0 -87 -79 -182 -231 -182c-31 0 -57 3 -82 8l-122 -301c-4 -9 -7 -17 -11 -25c185 -125 335 -335 515 -335c61 0 125 24 196 84c17 15 34 21 49 21zM823 711c-40 0 -70 -25 -101 -79c15 -4 29 -6 44 -6c64 0 100 32 100 57c0 15 -15 28 -43 28z
M277 99c43 0 69 11 98 57c-34 16 -68 25 -101 25c-45 0 -69 -21 -69 -41s24 -41 72 -41z" />
    <glyph glyph-name="a" unicode="a" horiz-adv-x="547" 
d="M668 327c26 -8 35 -29 24 -57c-10 -26 -20 -50 -31 -76c-56 -132 -123 -194 -237 -194c-54 0 -101 23 -125 59c-40 -40 -86 -59 -129 -59c-94 0 -132 69 -132 158c0 165 131 398 299 398c40 0 78 -18 94 -46c19 27 43 39 65 39c31 0 58 -25 58 -62c0 -12 -2 -24 -8 -38
l-9 -22l-56 -138c-28 -66 -41 -101 -46 -113c-14 -39 2 -72 36 -72c33 0 74 32 104 104c6 13 16 38 37 89c12 28 30 38 56 30zM218 120c27 0 63 27 91 97l29 72l50 123c-3 18 -15 32 -35 32c-84 0 -171 -178 -171 -270c0 -33 11 -54 36 -54z" />
    <glyph glyph-name="aacute" unicode="&#xe1;" horiz-adv-x="547" 
d="M432 612c-21 0 -37 14 -37 35c0 8 3 19 10 30l66 103c18 28 41 40 62 40c30 0 55 -23 55 -51c0 -15 -7 -32 -24 -48l-91 -90c-13 -14 -27 -19 -41 -19zM668 327c26 -8 35 -29 24 -57c-10 -26 -20 -50 -31 -76c-56 -132 -123 -194 -237 -194c-54 0 -101 23 -125 59
c-40 -40 -86 -59 -129 -59c-94 0 -132 69 -132 158c0 165 131 398 299 398c40 0 78 -18 94 -46c19 27 43 39 65 39c31 0 58 -25 58 -62c0 -12 -2 -24 -8 -38l-9 -22l-56 -138c-28 -66 -41 -101 -46 -113c-14 -39 2 -72 36 -72c33 0 74 32 104 104c6 13 16 38 37 89
c12 28 30 38 56 30zM218 120c27 0 63 27 91 97l29 72l50 123c-3 18 -15 32 -35 32c-84 0 -171 -178 -171 -270c0 -33 11 -54 36 -54z" />
    <glyph glyph-name="abreve" unicode="&#x103;" horiz-adv-x="547" 
d="M431 608c-66 0 -125 37 -125 110c0 9 1 18 3 29c7 36 35 53 59 53c21 0 37 -11 37 -36c0 -3 0 -7 -1 -11c-2 -7 -2 -13 -2 -18c0 -27 17 -41 36 -41c26 0 58 20 74 56c15 33 39 47 60 47c22 0 40 -16 40 -40c0 -4 -1 -9 -2 -13c-24 -92 -106 -136 -179 -136zM668 327
c26 -8 35 -29 24 -57c-10 -26 -20 -50 -31 -76c-56 -132 -123 -194 -237 -194c-54 0 -101 23 -125 59c-40 -40 -86 -59 -129 -59c-94 0 -132 69 -132 158c0 165 131 398 299 398c40 0 78 -18 94 -46c19 27 43 39 65 39c31 0 58 -25 58 -62c0 -12 -2 -24 -8 -38l-9 -22
l-56 -138c-28 -66 -41 -101 -46 -113c-14 -39 2 -72 36 -72c33 0 74 32 104 104c6 13 16 38 37 89c12 28 30 38 56 30zM218 120c27 0 63 27 91 97l29 72l50 123c-3 18 -15 32 -35 32c-84 0 -171 -178 -171 -270c0 -33 11 -54 36 -54z" />
    <glyph glyph-name="uni01CE" unicode="&#x1ce;" horiz-adv-x="547" 
d="M371 641l-55 93c-41 69 47 121 91 40l25 -46l77 68c68 59 126 -23 70 -66l-132 -103c-29 -23 -57 -19 -76 14zM668 327c26 -8 35 -29 24 -57c-10 -26 -20 -50 -31 -76c-56 -132 -123 -194 -237 -194c-54 0 -101 23 -125 59c-40 -40 -86 -59 -129 -59
c-94 0 -132 69 -132 158c0 165 131 398 299 398c40 0 78 -18 94 -46c19 27 43 39 65 39c31 0 58 -25 58 -62c0 -12 -2 -24 -8 -38l-9 -22l-56 -138c-28 -66 -41 -101 -46 -113c-14 -39 2 -72 36 -72c33 0 74 32 104 104c6 13 16 38 37 89c12 28 30 38 56 30zM218 120
c27 0 63 27 91 97l29 72l50 123c-3 18 -15 32 -35 32c-84 0 -171 -178 -171 -270c0 -33 11 -54 36 -54z" />
    <glyph glyph-name="acircumflex" unicode="&#xe2;" horiz-adv-x="547" 
d="M384 634c-67 -60 -125 22 -69 65l131 103c30 23 58 19 77 -14l55 -93c40 -69 -47 -121 -91 -40l-26 47zM668 327c26 -8 35 -29 24 -57c-10 -26 -20 -50 -31 -76c-56 -132 -123 -194 -237 -194c-54 0 -101 23 -125 59c-40 -40 -86 -59 -129 -59c-94 0 -132 69 -132 158
c0 165 131 398 299 398c40 0 78 -18 94 -46c19 27 43 39 65 39c31 0 58 -25 58 -62c0 -12 -2 -24 -8 -38l-9 -22l-56 -138c-28 -66 -41 -101 -46 -113c-14 -39 2 -72 36 -72c33 0 74 32 104 104c6 13 16 38 37 89c12 28 30 38 56 30zM218 120c27 0 63 27 91 97l29 72l50 123
c-3 18 -15 32 -35 32c-84 0 -171 -178 -171 -270c0 -33 11 -54 36 -54z" />
    <glyph glyph-name="adieresis" unicode="&#xe4;" horiz-adv-x="547" 
d="M374 619c-38 0 -69 31 -69 69s31 69 69 69s68 -31 68 -69s-30 -69 -68 -69zM553 619c-38 0 -69 31 -69 69s31 69 69 69s68 -31 68 -69s-30 -69 -68 -69zM668 327c26 -8 35 -29 24 -57c-10 -26 -20 -50 -31 -76c-56 -132 -123 -194 -237 -194c-54 0 -101 23 -125 59
c-40 -40 -86 -59 -129 -59c-94 0 -132 69 -132 158c0 165 131 398 299 398c40 0 78 -18 94 -46c19 27 43 39 65 39c31 0 58 -25 58 -62c0 -12 -2 -24 -8 -38l-9 -22l-56 -138c-28 -66 -41 -101 -46 -113c-14 -39 2 -72 36 -72c33 0 74 32 104 104c6 13 16 38 37 89
c12 28 30 38 56 30zM218 120c27 0 63 27 91 97l29 72l50 123c-3 18 -15 32 -35 32c-84 0 -171 -178 -171 -270c0 -33 11 -54 36 -54z" />
    <glyph glyph-name="uni1EA1" unicode="&#x1ea1;" horiz-adv-x="547" 
d="M668 327c26 -8 35 -29 24 -57c-10 -26 -20 -50 -31 -76c-56 -132 -123 -194 -237 -194c-54 0 -101 23 -125 59c-40 -40 -86 -59 -129 -59c-94 0 -132 69 -132 158c0 165 131 398 299 398c40 0 78 -18 94 -46c19 27 43 39 65 39c31 0 58 -25 58 -62c0 -12 -2 -24 -8 -38
l-9 -22l-56 -138c-28 -66 -41 -101 -46 -113c-14 -39 2 -72 36 -72c33 0 74 32 104 104c6 13 16 38 37 89c12 28 30 38 56 30zM218 120c27 0 63 27 91 97l29 72l50 123c-3 18 -15 32 -35 32c-84 0 -171 -178 -171 -270c0 -33 11 -54 36 -54zM169 -58c38 0 68 -31 68 -69
s-30 -69 -68 -69s-69 31 -69 69s31 69 69 69z" />
    <glyph glyph-name="agrave" unicode="&#xe0;" horiz-adv-x="547" 
d="M416 624l-91 90c-16 16 -23 33 -23 48c0 28 25 51 54 51c21 0 45 -12 63 -40l65 -103c7 -11 10 -22 10 -30c0 -21 -16 -35 -37 -35c-13 0 -28 5 -41 19zM668 327c26 -8 35 -29 24 -57c-10 -26 -20 -50 -31 -76c-56 -132 -123 -194 -237 -194c-54 0 -101 23 -125 59
c-40 -40 -86 -59 -129 -59c-94 0 -132 69 -132 158c0 165 131 398 299 398c40 0 78 -18 94 -46c19 27 43 39 65 39c31 0 58 -25 58 -62c0 -12 -2 -24 -8 -38l-9 -22l-56 -138c-28 -66 -41 -101 -46 -113c-14 -39 2 -72 36 -72c33 0 74 32 104 104c6 13 16 38 37 89
c12 28 30 38 56 30zM218 120c27 0 63 27 91 97l29 72l50 123c-3 18 -15 32 -35 32c-84 0 -171 -178 -171 -270c0 -33 11 -54 36 -54z" />
    <glyph glyph-name="uni0203" unicode="&#x203;" horiz-adv-x="547" 
d="M349 621c-21 0 -40 12 -40 36c0 4 1 8 2 13c24 92 104 130 176 130c65 0 125 -41 125 -112c0 -53 -32 -80 -60 -80c-21 0 -40 16 -40 48c0 5 1 11 2 17c4 26 -16 40 -41 40c-27 0 -58 -16 -67 -49c-8 -28 -34 -43 -57 -43zM668 327c26 -8 35 -29 24 -57
c-10 -26 -20 -50 -31 -76c-56 -132 -123 -194 -237 -194c-54 0 -101 23 -125 59c-40 -40 -86 -59 -129 -59c-94 0 -132 69 -132 158c0 165 131 398 299 398c40 0 78 -18 94 -46c19 27 43 39 65 39c31 0 58 -25 58 -62c0 -12 -2 -24 -8 -38l-9 -22l-56 -138
c-28 -66 -41 -101 -46 -113c-14 -39 2 -72 36 -72c33 0 74 32 104 104c6 13 16 38 37 89c12 28 30 38 56 30zM218 120c27 0 63 27 91 97l29 72l50 123c-3 18 -15 32 -35 32c-84 0 -171 -178 -171 -270c0 -33 11 -54 36 -54z" />
    <glyph glyph-name="amacron" unicode="&#x101;" horiz-adv-x="547" 
d="M364 632c-78 0 -66 99 13 99h140c82 0 66 -99 -14 -99h-139zM668 327c26 -8 35 -29 24 -57c-10 -26 -20 -50 -31 -76c-56 -132 -123 -194 -237 -194c-54 0 -101 23 -125 59c-40 -40 -86 -59 -129 -59c-94 0 -132 69 -132 158c0 165 131 398 299 398c40 0 78 -18 94 -46
c19 27 43 39 65 39c31 0 58 -25 58 -62c0 -12 -2 -24 -8 -38l-9 -22l-56 -138c-28 -66 -41 -101 -46 -113c-14 -39 2 -72 36 -72c33 0 74 32 104 104c6 13 16 38 37 89c12 28 30 38 56 30zM218 120c27 0 63 27 91 97l29 72l50 123c-3 18 -15 32 -35 32
c-84 0 -171 -178 -171 -270c0 -33 11 -54 36 -54z" />
    <glyph glyph-name="aogonek" unicode="&#x105;" horiz-adv-x="547" 
d="M668 327c26 -8 35 -29 24 -57c-10 -26 -20 -50 -31 -76c-41 -97 -89 -157 -156 -181c-59 -43 -91 -89 -91 -117c0 -15 10 -24 30 -24c11 0 26 3 44 8c67 19 86 -59 35 -83c-41 -19 -78 -28 -109 -28c-69 0 -114 40 -114 96c0 41 26 92 86 139c-38 8 -69 28 -87 55
c-40 -40 -86 -59 -129 -59c-94 0 -132 69 -132 158c0 165 131 398 299 398c40 0 78 -18 94 -46c19 27 43 39 65 39c31 0 58 -25 58 -62c0 -12 -2 -24 -8 -38l-9 -22l-56 -138c-28 -66 -41 -101 -46 -113c-14 -39 2 -72 36 -72c33 0 74 32 104 104c6 13 16 38 37 89
c12 28 30 38 56 30zM218 120c27 0 63 27 91 97l29 72l50 123c-3 18 -15 32 -35 32c-84 0 -171 -178 -171 -270c0 -33 11 -54 36 -54z" />
    <glyph glyph-name="aring" unicode="&#xe5;" horiz-adv-x="547" 
d="M454 609c-60 0 -107 48 -107 107c0 60 47 108 107 108c59 0 107 -48 107 -108c0 -59 -48 -107 -107 -107zM454 751c-19 0 -35 -16 -35 -35c0 -18 16 -34 35 -34s34 16 34 34c0 19 -15 35 -34 35zM668 327c26 -8 35 -29 24 -57c-10 -26 -20 -50 -31 -76
c-56 -132 -123 -194 -237 -194c-54 0 -101 23 -125 59c-40 -40 -86 -59 -129 -59c-94 0 -132 69 -132 158c0 165 131 398 299 398c40 0 78 -18 94 -46c19 27 43 39 65 39c31 0 58 -25 58 -62c0 -12 -2 -24 -8 -38l-9 -22l-56 -138c-28 -66 -41 -101 -46 -113
c-14 -39 2 -72 36 -72c33 0 74 32 104 104c6 13 16 38 37 89c12 28 30 38 56 30zM218 120c27 0 63 27 91 97l29 72l50 123c-3 18 -15 32 -35 32c-84 0 -171 -178 -171 -270c0 -33 11 -54 36 -54z" />
    <glyph glyph-name="aringacute" unicode="&#x1fb;" horiz-adv-x="547" 
d="M669 894c28 -9 45 -39 37 -65c-5 -15 -17 -29 -38 -39l-109 -56c1 -6 2 -12 2 -18c0 -59 -48 -107 -107 -107c-60 0 -107 48 -107 107c0 60 47 108 107 108c23 0 43 -7 61 -19l82 69c26 22 52 26 72 20zM454 682c19 0 34 16 34 34c0 19 -15 35 -34 35s-35 -16 -35 -35
c0 -18 16 -34 35 -34zM668 327c26 -8 35 -29 24 -57c-10 -26 -20 -50 -31 -76c-56 -132 -123 -194 -237 -194c-54 0 -101 23 -125 59c-40 -40 -86 -59 -129 -59c-94 0 -132 69 -132 158c0 165 131 398 299 398c40 0 78 -18 94 -46c19 27 43 39 65 39c31 0 58 -25 58 -62
c0 -12 -2 -24 -8 -38l-9 -22l-56 -138c-28 -66 -41 -101 -46 -113c-14 -39 2 -72 36 -72c33 0 74 32 104 104c6 13 16 38 37 89c12 28 30 38 56 30zM218 120c27 0 63 27 91 97l29 72l50 123c-3 18 -15 32 -35 32c-84 0 -171 -178 -171 -270c0 -33 11 -54 36 -54z" />
    <glyph glyph-name="atilde" unicode="&#xe3;" horiz-adv-x="547" 
d="M294 616c-27 12 -33 38 -16 65c32 52 68 77 110 77c57 0 87 -52 120 -52c10 0 23 7 35 21c22 27 41 33 65 19c26 -14 32 -38 16 -65c-30 -51 -66 -75 -111 -75c-60 0 -84 51 -117 51c-7 0 -14 -2 -23 -9c-33 -28 -52 -46 -79 -32zM668 327c26 -8 35 -29 24 -57
c-10 -26 -20 -50 -31 -76c-56 -132 -123 -194 -237 -194c-54 0 -101 23 -125 59c-40 -40 -86 -59 -129 -59c-94 0 -132 69 -132 158c0 165 131 398 299 398c40 0 78 -18 94 -46c19 27 43 39 65 39c31 0 58 -25 58 -62c0 -12 -2 -24 -8 -38l-9 -22l-56 -138
c-28 -66 -41 -101 -46 -113c-14 -39 2 -72 36 -72c33 0 74 32 104 104c6 13 16 38 37 89c12 28 30 38 56 30zM218 120c27 0 63 27 91 97l29 72l50 123c-3 18 -15 32 -35 32c-84 0 -171 -178 -171 -270c0 -33 11 -54 36 -54z" />
    <glyph glyph-name="uni0201" unicode="&#x201;" horiz-adv-x="547" 
d="M363 631l-75 90c-13 16 -17 33 -15 48c5 28 34 51 64 51c20 0 42 -12 55 -40l48 -103c5 -11 5 -22 4 -30c-4 -21 -22 -35 -42 -35c-14 0 -27 5 -39 19zM531 631l-74 90c-14 16 -18 33 -16 48c5 28 34 51 64 51c21 0 42 -12 55 -40l48 -103c5 -11 6 -22 5 -30
c-4 -21 -22 -35 -43 -35c-14 0 -27 5 -39 19zM668 327c26 -8 35 -29 24 -57c-10 -26 -20 -50 -31 -76c-56 -132 -123 -194 -237 -194c-54 0 -101 23 -125 59c-40 -40 -86 -59 -129 -59c-94 0 -132 69 -132 158c0 165 131 398 299 398c40 0 78 -18 94 -46c19 27 43 39 65 39
c31 0 58 -25 58 -62c0 -12 -2 -24 -8 -38l-9 -22l-56 -138c-28 -66 -41 -101 -46 -113c-14 -39 2 -72 36 -72c33 0 74 32 104 104c6 13 16 38 37 89c12 28 30 38 56 30zM218 120c27 0 63 27 91 97l29 72l50 123c-3 18 -15 32 -35 32c-84 0 -171 -178 -171 -270
c0 -33 11 -54 36 -54z" />
    <glyph glyph-name="ae" unicode="&#xe6;" horiz-adv-x="725" 
d="M830 329c31 0 45 -18 45 -38c0 -7 -2 -15 -5 -21c-8 -20 -15 -38 -23 -57c-71 -164 -196 -234 -311 -234s-181 46 -210 113c-45 -63 -103 -92 -156 -92c-94 0 -132 69 -132 158c0 165 131 398 299 398c47 0 96 -22 101 -81c51 49 113 81 179 81c94 0 139 -58 139 -120
c0 -73 -63 -153 -184 -153h-104c-10 -29 -15 -59 -15 -86c0 -64 29 -114 110 -114c73 0 161 49 209 170c5 12 10 27 18 44c10 20 22 32 40 32zM604 452c-32 0 -70 -36 -99 -86h65c52 0 77 28 77 53c0 18 -15 33 -43 33zM218 120c27 0 63 29 91 99h1c7 65 34 133 74 192
c0 20 -8 33 -31 33c-84 0 -171 -178 -171 -270c0 -33 11 -54 36 -54z" />
    <glyph glyph-name="aeacute" unicode="&#x1fd;" horiz-adv-x="725" 
d="M456 631c-21 0 -37 14 -37 35c0 8 3 19 10 30l66 103c18 28 41 40 62 40c30 0 55 -23 55 -51c0 -15 -7 -32 -24 -48l-91 -90c-13 -14 -27 -19 -41 -19zM830 329c31 0 45 -18 45 -38c0 -7 -2 -15 -5 -21c-8 -20 -15 -38 -23 -57c-71 -164 -196 -234 -311 -234
s-181 46 -210 113c-45 -63 -103 -92 -156 -92c-94 0 -132 69 -132 158c0 165 131 398 299 398c47 0 96 -22 101 -81c51 49 113 81 179 81c94 0 139 -58 139 -120c0 -73 -63 -153 -184 -153h-104c-10 -29 -15 -59 -15 -86c0 -64 29 -114 110 -114c73 0 161 49 209 170
c5 12 10 27 18 44c10 20 22 32 40 32zM604 452c-32 0 -70 -36 -99 -86h65c52 0 77 28 77 53c0 18 -15 33 -43 33zM218 120c27 0 63 29 91 99h1c7 65 34 133 74 192c0 20 -8 33 -31 33c-84 0 -171 -178 -171 -270c0 -33 11 -54 36 -54z" />
    <glyph glyph-name="b" unicode="b" horiz-adv-x="490" 
d="M378 556c78 0 112 -68 112 -156c0 -165 -117 -400 -290 -400c-39 0 -80 19 -97 46c-19 -33 -46 -46 -71 -46c-32 0 -59 21 -59 57c0 11 2 22 7 35l23 56l262 645c20 48 51 68 80 68c31 0 58 -25 58 -62c0 -12 -2 -24 -8 -38l-9 -22l-87 -215c23 20 50 32 79 32zM183 113
c89 0 168 179 168 276c0 36 -11 60 -36 60c-26 0 -58 -29 -85 -94l-84 -207l-2 -6c3 -17 17 -29 39 -29z" />
    <glyph glyph-name="c" unicode="c" horiz-adv-x="456" 
d="M561 329c31 0 45 -18 45 -38c0 -7 -2 -15 -5 -21c-8 -20 -15 -38 -23 -57c-57 -145 -164 -220 -311 -220c-139 0 -223 78 -223 189c0 166 142 374 305 374c96 0 151 -58 151 -129c0 -70 -55 -125 -118 -125c-54 0 -78 33 -78 66c0 32 23 63 65 63c10 0 21 -3 30 -8
c10 -7 18 -4 13 7c-8 18 -25 28 -50 28c-87 0 -170 -143 -170 -249c0 -62 29 -112 102 -112c98 0 169 53 209 156c6 12 10 27 18 44c8 21 22 32 40 32z" />
    <glyph glyph-name="cacute" unicode="&#x107;" horiz-adv-x="456" 
d="M378 677c-7 -11 -10 -22 -10 -30c0 -21 16 -35 37 -35c14 0 28 5 41 19l91 90c17 16 24 33 24 48c0 28 -25 51 -55 51c-21 0 -44 -12 -62 -40zM561 329c31 0 45 -18 45 -38c0 -7 -2 -15 -5 -21c-8 -20 -15 -38 -23 -57c-57 -145 -164 -220 -311 -220
c-139 0 -223 78 -223 189c0 166 142 374 305 374c96 0 151 -58 151 -129c0 -70 -55 -125 -118 -125c-54 0 -78 33 -78 66c0 32 23 63 65 63c10 0 21 -3 30 -8c10 -7 18 -4 13 7c-8 18 -25 28 -50 28c-87 0 -170 -143 -170 -249c0 -62 29 -112 102 -112c98 0 169 53 209 156
c6 12 10 27 18 44c8 21 22 32 40 32z" />
    <glyph glyph-name="ccaron" unicode="&#x10d;" horiz-adv-x="456" 
d="M344 641l-55 93c-41 69 47 121 91 40l25 -46l77 68c68 59 126 -23 70 -66l-132 -103c-29 -23 -57 -19 -76 14zM561 329c31 0 45 -18 45 -38c0 -7 -2 -15 -5 -21c-8 -20 -15 -38 -23 -57c-57 -145 -164 -220 -311 -220c-139 0 -223 78 -223 189c0 166 142 374 305 374
c96 0 151 -58 151 -129c0 -70 -55 -125 -118 -125c-54 0 -78 33 -78 66c0 32 23 63 65 63c10 0 21 -3 30 -8c10 -7 18 -4 13 7c-8 18 -25 28 -50 28c-87 0 -170 -143 -170 -249c0 -62 29 -112 102 -112c98 0 169 53 209 156c6 12 10 27 18 44c8 21 22 32 40 32z" />
    <glyph glyph-name="ccedilla" unicode="&#xe7;" horiz-adv-x="456" 
d="M561 329c31 0 45 -18 45 -38c0 -7 -2 -15 -5 -21c-8 -20 -15 -38 -23 -57c-57 -145 -163 -220 -310 -220l-25 -57c75 -3 115 -48 115 -93c0 -48 -47 -99 -145 -99c-38 0 -79 10 -115 33c-21 13 -31 30 -31 46c0 19 15 35 41 35c10 0 24 -2 39 -10c26 -14 56 -22 78 -22
c21 0 36 7 36 23c0 39 -111 10 -111 64c0 9 3 22 12 37l26 53c-91 24 -144 91 -144 179c0 166 142 374 305 374c96 0 151 -58 151 -129c0 -70 -55 -125 -118 -125c-54 0 -78 33 -78 66c0 32 23 63 65 63c10 0 21 -3 30 -8c10 -7 18 -4 13 7c-8 18 -25 28 -50 28
c-87 0 -170 -143 -170 -249c0 -62 29 -112 102 -112c98 0 169 53 209 156c6 12 10 27 18 44c8 21 22 32 40 32z" />
    <glyph glyph-name="ccircumflex" unicode="&#x109;" horiz-adv-x="456" 
d="M357 634c-67 -60 -125 22 -69 65l131 103c30 23 58 19 77 -14l55 -93c40 -69 -47 -121 -91 -40l-26 47zM561 329c31 0 45 -18 45 -38c0 -7 -2 -15 -5 -21c-8 -20 -15 -38 -23 -57c-57 -145 -164 -220 -311 -220c-139 0 -223 78 -223 189c0 166 142 374 305 374
c96 0 151 -58 151 -129c0 -70 -55 -125 -118 -125c-54 0 -78 33 -78 66c0 32 23 63 65 63c10 0 21 -3 30 -8c10 -7 18 -4 13 7c-8 18 -25 28 -50 28c-87 0 -170 -143 -170 -249c0 -62 29 -112 102 -112c98 0 169 53 209 156c6 12 10 27 18 44c8 21 22 32 40 32z" />
    <glyph glyph-name="cdotaccent" unicode="&#x10b;" horiz-adv-x="456" 
d="M423 619c-38 0 -69 31 -69 69s31 69 69 69s68 -31 68 -69s-30 -69 -68 -69zM561 329c31 0 45 -18 45 -38c0 -7 -2 -15 -5 -21c-8 -20 -15 -38 -23 -57c-57 -145 -164 -220 -311 -220c-139 0 -223 78 -223 189c0 166 142 374 305 374c96 0 151 -58 151 -129
c0 -70 -55 -125 -118 -125c-54 0 -78 33 -78 66c0 32 23 63 65 63c10 0 21 -3 30 -8c10 -7 18 -4 13 7c-8 18 -25 28 -50 28c-87 0 -170 -143 -170 -249c0 -62 29 -112 102 -112c98 0 169 53 209 156c6 12 10 27 18 44c8 21 22 32 40 32z" />
    <glyph glyph-name="d" unicode="d" horiz-adv-x="547" 
d="M668 327c26 -8 35 -29 24 -57c-10 -26 -20 -50 -31 -76c-56 -132 -123 -194 -237 -194c-54 0 -101 23 -125 59c-40 -40 -86 -59 -129 -59c-94 0 -132 69 -132 158c0 165 131 398 299 398c38 0 75 -17 92 -43l114 280c20 48 51 68 80 68c31 0 58 -25 58 -62
c0 -12 -2 -24 -8 -38l-9 -22l-183 -450c-28 -66 -41 -101 -46 -113c-14 -39 2 -72 36 -72c33 0 74 32 104 104c6 13 16 38 37 89c12 28 30 38 56 30zM218 120c27 0 63 27 91 97l29 72l50 123c-3 18 -14 32 -35 32c-84 0 -171 -178 -171 -270c0 -33 11 -54 36 -54z" />
    <glyph glyph-name="eth" unicode="&#xf0;" horiz-adv-x="537" 
d="M415 694c70 -88 105 -204 105 -316c0 -204 -109 -398 -302 -398c-128 0 -180 86 -180 190c0 161 122 368 308 386c-7 16 -17 33 -30 50l-24 -21c-58 -51 -107 25 -50 77l6 5c-27 20 -37 44 -37 65c0 34 28 63 64 63c15 0 31 -5 48 -16c10 -6 19 -13 29 -21l22 20
c60 53 109 -23 50 -76zM227 93c91 0 160 169 160 276c0 50 -15 86 -49 86c-78 0 -157 -181 -157 -288c0 -44 14 -74 46 -74z" />
    <glyph glyph-name="dcaron" unicode="&#x10f;" horiz-adv-x="547" 
d="M668 327c26 -8 35 -29 24 -57c-10 -26 -20 -50 -31 -76c-56 -132 -123 -194 -237 -194c-54 0 -101 23 -125 59c-40 -40 -86 -59 -129 -59c-94 0 -132 69 -132 158c0 165 131 398 299 398c38 0 75 -17 92 -43l114 280c20 48 51 68 80 68c31 0 58 -25 58 -62
c0 -12 -2 -24 -8 -38l-9 -22l-183 -450c-28 -66 -41 -101 -46 -113c-14 -39 2 -72 36 -72c33 0 74 32 104 104c6 13 16 38 37 89c12 28 30 38 56 30zM749 786c27 0 54 -20 54 -59c0 -42 -31 -94 -85 -139c-22 -18 -42 -15 -50 -1s0 27 21 44c15 13 31 28 37 45
c-20 8 -35 28 -35 51c0 38 30 59 58 59zM218 120c27 0 63 27 91 97l29 72l50 123c-3 18 -14 32 -35 32c-84 0 -171 -178 -171 -270c0 -33 11 -54 36 -54z" />
    <glyph glyph-name="dcroat" unicode="&#x111;" horiz-adv-x="547" 
d="M668 327c26 -8 35 -29 24 -57c-10 -26 -20 -50 -31 -76c-56 -132 -123 -194 -237 -194c-54 0 -101 23 -125 59c-40 -40 -86 -59 -129 -59c-94 0 -132 69 -132 158c0 165 131 398 299 398c38 0 75 -17 92 -43l41 100h-10c-77 0 -63 90 14 90h32l15 36l22 54
c20 48 51 68 80 68c31 0 58 -25 58 -62c0 -12 -2 -24 -8 -38l-9 -22l-15 -36h1c80 0 66 -90 -13 -90h-24l-132 -324c-28 -66 -41 -101 -46 -113c-14 -39 2 -72 36 -72c33 0 74 32 104 104c6 13 16 38 37 89c12 28 30 38 56 30zM218 120c27 0 63 27 91 97l29 72l50 123
c-3 18 -14 32 -35 32c-84 0 -171 -178 -171 -270c0 -33 11 -54 36 -54z" />
    <glyph glyph-name="uni1E0D" unicode="&#x1e0d;" horiz-adv-x="547" 
d="M668 327c26 -8 35 -29 24 -57c-10 -26 -20 -50 -31 -76c-56 -132 -123 -194 -237 -194c-54 0 -101 23 -125 59c-40 -40 -86 -59 -129 -59c-94 0 -132 69 -132 158c0 165 131 398 299 398c38 0 75 -17 92 -43l114 280c20 48 51 68 80 68c31 0 58 -25 58 -62
c0 -12 -2 -24 -8 -38l-9 -22l-183 -450c-28 -66 -41 -101 -46 -113c-14 -39 2 -72 36 -72c33 0 74 32 104 104c6 13 16 38 37 89c12 28 30 38 56 30zM218 120c27 0 63 27 91 97l29 72l50 123c-3 18 -14 32 -35 32c-84 0 -171 -178 -171 -270c0 -33 11 -54 36 -54zM161 -58
c38 0 68 -31 68 -69s-30 -69 -68 -69s-69 31 -69 69s31 69 69 69z" />
    <glyph glyph-name="uni1E0F" unicode="&#x1e0f;" horiz-adv-x="547" 
d="M668 327c26 -8 35 -29 24 -57c-10 -26 -20 -50 -31 -76c-56 -132 -123 -194 -237 -194c-54 0 -101 23 -125 59c-40 -40 -86 -59 -129 -59c-94 0 -132 69 -132 158c0 165 131 398 299 398c38 0 75 -17 92 -43l114 280c20 48 51 68 80 68c31 0 58 -25 58 -62
c0 -12 -2 -24 -8 -38l-9 -22l-183 -450c-28 -66 -41 -101 -46 -113c-14 -39 2 -72 36 -72c33 0 74 32 104 104c6 13 16 38 37 89c12 28 30 38 56 30zM218 120c27 0 63 27 91 97l29 72l50 123c-3 18 -14 32 -35 32c-84 0 -171 -178 -171 -270c0 -33 11 -54 36 -54zM253 -98
c37 0 54 -20 54 -43c0 -27 -24 -56 -68 -56h-139c-36 0 -53 21 -53 44c0 26 23 55 66 55h140z" />
    <glyph glyph-name="e" unicode="e" horiz-adv-x="462" 
d="M583 327c26 -8 35 -29 24 -57l-24 -59c-65 -166 -195 -218 -310 -218c-153 0 -228 82 -228 192c0 165 141 370 307 371c95 0 141 -57 141 -120c0 -73 -63 -153 -184 -153h-102c-9 -29 -15 -59 -15 -86c0 -58 35 -100 108 -100s161 36 209 157l18 43c12 28 30 38 56 30z
M343 452c-32 0 -69 -36 -99 -86h63c51 0 77 28 77 53c0 18 -12 33 -41 33z" />
    <glyph glyph-name="eacute" unicode="&#xe9;" horiz-adv-x="462" 
d="M399 612c-21 0 -37 14 -37 35c0 8 3 19 10 30l66 103c18 28 41 40 62 40c30 0 55 -23 55 -51c0 -15 -7 -32 -24 -48l-91 -90c-13 -14 -27 -19 -41 -19zM583 327c26 -8 35 -29 24 -57l-24 -59c-65 -166 -195 -218 -310 -218c-153 0 -228 82 -228 192
c0 165 141 370 307 371c95 0 141 -57 141 -120c0 -73 -63 -153 -184 -153h-102c-9 -29 -15 -59 -15 -86c0 -58 35 -100 108 -100s161 36 209 157l18 43c12 28 30 38 56 30zM343 452c-32 0 -69 -36 -99 -86h63c51 0 77 28 77 53c0 18 -12 33 -41 33z" />
    <glyph glyph-name="ebreve" unicode="&#x115;" horiz-adv-x="462" 
d="M398 608c-66 0 -125 37 -125 110c0 9 1 18 3 29c7 36 35 53 59 53c21 0 37 -11 37 -36c0 -3 0 -7 -1 -11c-2 -7 -2 -13 -2 -18c0 -27 17 -41 36 -41c26 0 58 20 74 56c15 33 39 47 60 47c22 0 40 -16 40 -40c0 -4 -1 -9 -2 -13c-24 -92 -106 -136 -179 -136zM583 327
c26 -8 35 -29 24 -57l-24 -59c-65 -166 -195 -218 -310 -218c-153 0 -228 82 -228 192c0 165 141 370 307 371c95 0 141 -57 141 -120c0 -73 -63 -153 -184 -153h-102c-9 -29 -15 -59 -15 -86c0 -58 35 -100 108 -100s161 36 209 157l18 43c12 28 30 38 56 30zM343 452
c-32 0 -69 -36 -99 -86h63c51 0 77 28 77 53c0 18 -12 33 -41 33z" />
    <glyph glyph-name="ecaron" unicode="&#x11b;" horiz-adv-x="462" 
d="M338 641l-55 93c-41 69 47 121 91 40l25 -46l77 68c68 59 126 -23 70 -66l-132 -103c-29 -23 -57 -19 -76 14zM583 327c26 -8 35 -29 24 -57l-24 -59c-65 -166 -195 -218 -310 -218c-153 0 -228 82 -228 192c0 165 141 370 307 371c95 0 141 -57 141 -120
c0 -73 -63 -153 -184 -153h-102c-9 -29 -15 -59 -15 -86c0 -58 35 -100 108 -100s161 36 209 157l18 43c12 28 30 38 56 30zM343 452c-32 0 -69 -36 -99 -86h63c51 0 77 28 77 53c0 18 -12 33 -41 33z" />
    <glyph glyph-name="ecircumflex" unicode="&#xea;" horiz-adv-x="462" 
d="M351 634c-67 -60 -125 22 -69 65l131 103c30 23 58 19 77 -14l55 -93c40 -69 -47 -121 -91 -40l-26 47zM583 327c26 -8 35 -29 24 -57l-24 -59c-65 -166 -195 -218 -310 -218c-153 0 -228 82 -228 192c0 165 141 370 307 371c95 0 141 -57 141 -120
c0 -73 -63 -153 -184 -153h-102c-9 -29 -15 -59 -15 -86c0 -58 35 -100 108 -100s161 36 209 157l18 43c12 28 30 38 56 30zM343 452c-32 0 -69 -36 -99 -86h63c51 0 77 28 77 53c0 18 -12 33 -41 33z" />
    <glyph glyph-name="edieresis" unicode="&#xeb;" horiz-adv-x="462" 
d="M341 619c-38 0 -69 31 -69 69s31 69 69 69s68 -31 68 -69s-30 -69 -68 -69zM520 619c-38 0 -69 31 -69 69s31 69 69 69s68 -31 68 -69s-30 -69 -68 -69zM583 327c26 -8 35 -29 24 -57l-24 -59c-65 -166 -195 -218 -310 -218c-153 0 -228 82 -228 192
c0 165 141 370 307 371c95 0 141 -57 141 -120c0 -73 -63 -153 -184 -153h-102c-9 -29 -15 -59 -15 -86c0 -58 35 -100 108 -100s161 36 209 157l18 43c12 28 30 38 56 30zM343 452c-32 0 -69 -36 -99 -86h63c51 0 77 28 77 53c0 18 -12 33 -41 33z" />
    <glyph glyph-name="edotaccent" unicode="&#x117;" horiz-adv-x="462" 
d="M417 619c-38 0 -69 31 -69 69s31 69 69 69s68 -31 68 -69s-30 -69 -68 -69zM583 327c26 -8 35 -29 24 -57l-24 -59c-65 -166 -195 -218 -310 -218c-153 0 -228 82 -228 192c0 165 141 370 307 371c95 0 141 -57 141 -120c0 -73 -63 -153 -184 -153h-102
c-9 -29 -15 -59 -15 -86c0 -58 35 -100 108 -100s161 36 209 157l18 43c12 28 30 38 56 30zM343 452c-32 0 -69 -36 -99 -86h63c51 0 77 28 77 53c0 18 -12 33 -41 33z" />
    <glyph glyph-name="uni1EB9" unicode="&#x1eb9;" horiz-adv-x="462" 
d="M583 327c26 -8 35 -29 24 -57l-24 -59c-65 -166 -195 -218 -310 -218c-153 0 -228 82 -228 192c0 165 141 370 307 371c95 0 141 -57 141 -120c0 -73 -63 -153 -184 -153h-102c-9 -29 -15 -59 -15 -86c0 -58 35 -100 108 -100s161 36 209 157l18 43c12 28 30 38 56 30z
M343 452c-32 0 -69 -36 -99 -86h63c51 0 77 28 77 53c0 18 -12 33 -41 33zM198 -68c38 0 68 -31 68 -69s-30 -69 -68 -69s-69 31 -69 69s31 69 69 69z" />
    <glyph glyph-name="egrave" unicode="&#xe8;" horiz-adv-x="462" 
d="M383 624l-91 90c-16 16 -23 33 -23 48c0 28 25 51 54 51c21 0 45 -12 63 -40l65 -103c7 -11 10 -22 10 -30c0 -21 -16 -35 -37 -35c-13 0 -28 5 -41 19zM583 327c26 -8 35 -29 24 -57l-24 -59c-65 -166 -195 -218 -310 -218c-153 0 -228 82 -228 192
c0 165 141 370 307 371c95 0 141 -57 141 -120c0 -73 -63 -153 -184 -153h-102c-9 -29 -15 -59 -15 -86c0 -58 35 -100 108 -100s161 36 209 157l18 43c12 28 30 38 56 30zM343 452c-32 0 -69 -36 -99 -86h63c51 0 77 28 77 53c0 18 -12 33 -41 33z" />
    <glyph glyph-name="uni0207" unicode="&#x207;" horiz-adv-x="462" 
d="M330 631l-75 90c-13 16 -17 33 -15 48c5 28 34 51 64 51c20 0 42 -12 55 -40l48 -103c5 -11 5 -22 4 -30c-4 -21 -22 -35 -42 -35c-14 0 -27 5 -39 19zM498 631l-74 90c-14 16 -18 33 -16 48c5 28 34 51 64 51c21 0 42 -12 55 -40l48 -103c5 -11 6 -22 5 -30
c-4 -21 -22 -35 -43 -35c-14 0 -27 5 -39 19zM583 327c26 -8 35 -29 24 -57l-24 -59c-65 -166 -195 -218 -310 -218c-153 0 -228 82 -228 192c0 165 141 370 307 371c95 0 141 -57 141 -120c0 -73 -63 -153 -184 -153h-102c-9 -29 -15 -59 -15 -86c0 -58 35 -100 108 -100
s161 36 209 157l18 43c12 28 30 38 56 30zM343 452c-32 0 -69 -36 -99 -86h63c51 0 77 28 77 53c0 18 -12 33 -41 33z" />
    <glyph glyph-name="emacron" unicode="&#x113;" horiz-adv-x="462" 
d="M331 632c-78 0 -66 99 13 99h140c82 0 66 -99 -14 -99h-139zM583 327c26 -8 35 -29 24 -57l-24 -59c-65 -166 -195 -218 -310 -218c-153 0 -228 82 -228 192c0 165 141 370 307 371c95 0 141 -57 141 -120c0 -73 -63 -153 -184 -153h-102c-9 -29 -15 -59 -15 -86
c0 -58 35 -100 108 -100s161 36 209 157l18 43c12 28 30 38 56 30zM343 452c-32 0 -69 -36 -99 -86h63c51 0 77 28 77 53c0 18 -12 33 -41 33z" />
    <glyph glyph-name="eogonek" unicode="&#x119;" horiz-adv-x="462" 
d="M583 327c26 -8 35 -29 24 -57l-24 -59c-38 -96 -97 -154 -163 -186c-69 -46 -108 -99 -108 -129c0 -15 10 -24 30 -24c11 0 26 3 44 8c67 19 86 -59 35 -83c-41 -19 -78 -28 -109 -28c-69 0 -114 40 -114 96c0 38 22 84 72 128c-151 1 -225 83 -225 192
c0 165 141 370 307 371c95 0 141 -57 141 -120c0 -73 -63 -153 -184 -153h-102c-9 -29 -15 -59 -15 -86c0 -58 35 -100 108 -100s161 36 209 157l18 43c12 28 30 38 56 30zM343 452c-32 0 -69 -36 -99 -86h63c51 0 77 28 77 53c0 18 -12 33 -41 33z" />
    <glyph glyph-name="uni1EBD" unicode="&#x1ebd;" horiz-adv-x="462" 
d="M261 616c-27 12 -33 38 -16 65c32 52 68 77 110 77c57 0 87 -52 120 -52c10 0 23 7 35 21c22 27 41 33 65 19c26 -14 32 -38 16 -65c-30 -51 -66 -75 -111 -75c-60 0 -84 51 -117 51c-7 0 -14 -2 -23 -9c-33 -28 -52 -46 -79 -32zM583 327c26 -8 35 -29 24 -57l-24 -59
c-65 -166 -195 -218 -310 -218c-153 0 -228 82 -228 192c0 165 141 370 307 371c95 0 141 -57 141 -120c0 -73 -63 -153 -184 -153h-102c-9 -29 -15 -59 -15 -86c0 -58 35 -100 108 -100s161 36 209 157l18 43c12 28 30 38 56 30zM343 452c-32 0 -69 -36 -99 -86h63
c51 0 77 28 77 53c0 18 -12 33 -41 33z" />
    <glyph glyph-name="uni0205" unicode="&#x205;" horiz-adv-x="462" 
d="M330 631l-75 90c-13 16 -17 33 -15 48c5 28 34 51 64 51c20 0 42 -12 55 -40l48 -103c5 -11 5 -22 4 -30c-4 -21 -22 -35 -42 -35c-14 0 -27 5 -39 19zM498 631l-74 90c-14 16 -18 33 -16 48c5 28 34 51 64 51c21 0 42 -12 55 -40l48 -103c5 -11 6 -22 5 -30
c-4 -21 -22 -35 -43 -35c-14 0 -27 5 -39 19zM583 327c26 -8 35 -29 24 -57l-24 -59c-65 -166 -195 -218 -310 -218c-153 0 -228 82 -228 192c0 165 141 370 307 371c95 0 141 -57 141 -120c0 -73 -63 -153 -184 -153h-102c-9 -29 -15 -59 -15 -86c0 -58 35 -100 108 -100
s161 36 209 157l18 43c12 28 30 38 56 30zM343 452c-32 0 -69 -36 -99 -86h63c51 0 77 28 77 53c0 18 -12 33 -41 33z" />
    <glyph glyph-name="uni0259" unicode="&#x259;" horiz-adv-x="588" 
d="M379 556c109 0 200 -68 200 -192c0 -165 -129 -370 -289 -371c-95 -1 -141 57 -141 120c0 73 63 153 184 153h90c5 24 8 48 8 70c0 74 -32 118 -107 118c-55 0 -111 -30 -168 -159l-18 -43c-9 -22 -22 -33 -40 -33c-5 0 -10 1 -16 3c-19 6 -29 18 -29 35c0 7 2 14 5 22
c8 20 15 39 24 59c73 169 158 218 297 218zM299 97c36 0 71 38 96 90h-57c-51 0 -80 -30 -80 -57c0 -18 12 -33 41 -33z" />
    <glyph glyph-name="f" unicode="f" horiz-adv-x="479" 
d="M600 327c26 -8 35 -29 24 -57c-62 -164 -173 -279 -333 -279c-71 0 -136 29 -177 79l-96 -237l-36 -87c-18 -44 -50 -61 -78 -61c-32 0 -59 21 -59 57c0 11 2 22 7 35l23 56c108 266 257 628 358 881c40 101 95 146 175 146c68 0 144 -45 144 -142
c0 -42 -11 -94 -37 -156l-77 -190c-50 -119 -122 -174 -229 -174h-43l-9 -23c31 -57 87 -89 148 -89c114 0 190 93 239 211c12 28 30 38 56 30zM372 707l-171 -423h25c47 0 87 36 127 113l98 241c11 25 16 48 16 66c0 35 -17 55 -38 55c-19 0 -41 -17 -57 -52z" />
    <glyph glyph-name="g" unicode="g" horiz-adv-x="541" 
d="M650 331c22 0 42 -16 42 -40c0 -6 -1 -12 -4 -19c-106 -284 -171 -373 -376 -399l-43 -105c-37 -90 -121 -134 -199 -134c-114 0 -173 74 -173 152c0 83 68 168 212 168c35 0 66 0 94 1l23 55c-19 -7 -38 -10 -56 -10c-94 0 -132 69 -132 158c0 165 131 398 299 398
c40 0 79 -19 95 -47c19 28 42 40 65 40c31 0 58 -25 58 -62c0 -12 -2 -24 -8 -38l-9 -22l-185 -455c120 31 164 113 254 326c10 23 27 33 43 33zM182 174c0 -33 11 -54 36 -54c27 0 63 27 91 97l79 193c-3 19 -14 34 -35 34c-84 0 -171 -178 -171 -270zM70 -251
c47 0 63 32 97 116c-21 -1 -44 -1 -67 -1c-62 0 -89 -31 -89 -61c0 -27 23 -54 59 -54z" />
    <glyph glyph-name="gbreve" unicode="&#x11f;" horiz-adv-x="541" 
d="M431 608c-66 0 -125 37 -125 110c0 9 1 18 3 29c7 36 35 53 59 53c21 0 37 -11 37 -36c0 -3 0 -7 -1 -11c-2 -7 -2 -13 -2 -18c0 -27 17 -41 36 -41c26 0 58 20 74 56c15 33 39 47 60 47c22 0 40 -16 40 -40c0 -4 -1 -9 -2 -13c-24 -92 -106 -136 -179 -136zM650 331
c22 0 42 -16 42 -40c0 -6 -1 -12 -4 -19c-106 -284 -171 -373 -376 -399l-43 -105c-37 -90 -121 -134 -199 -134c-114 0 -173 74 -173 152c0 83 68 168 212 168c35 0 66 0 94 1l23 55c-19 -7 -38 -10 -56 -10c-94 0 -132 69 -132 158c0 165 131 398 299 398
c40 0 79 -19 95 -47c19 28 42 40 65 40c31 0 58 -25 58 -62c0 -12 -2 -24 -8 -38l-9 -22l-185 -455c120 31 164 113 254 326c10 23 27 33 43 33zM182 174c0 -33 11 -54 36 -54c27 0 63 27 91 97l79 193c-3 19 -14 34 -35 34c-84 0 -171 -178 -171 -270zM70 -251
c47 0 63 32 97 116c-21 -1 -44 -1 -67 -1c-62 0 -89 -31 -89 -61c0 -27 23 -54 59 -54z" />
    <glyph glyph-name="gcaron" unicode="&#x1e7;" horiz-adv-x="541" 
d="M371 641l-55 93c-41 69 47 121 91 40l25 -46l77 68c68 59 126 -23 70 -66l-132 -103c-29 -23 -57 -19 -76 14zM650 331c22 0 42 -16 42 -40c0 -6 -1 -12 -4 -19c-106 -284 -171 -373 -376 -399l-43 -105c-37 -90 -121 -134 -199 -134c-114 0 -173 74 -173 152
c0 83 68 168 212 168c35 0 66 0 94 1l23 55c-19 -7 -38 -10 -56 -10c-94 0 -132 69 -132 158c0 165 131 398 299 398c40 0 79 -19 95 -47c19 28 42 40 65 40c31 0 58 -25 58 -62c0 -12 -2 -24 -8 -38l-9 -22l-185 -455c120 31 164 113 254 326c10 23 27 33 43 33zM182 174
c0 -33 11 -54 36 -54c27 0 63 27 91 97l79 193c-3 19 -14 34 -35 34c-84 0 -171 -178 -171 -270zM70 -251c47 0 63 32 97 116c-21 -1 -44 -1 -67 -1c-62 0 -89 -31 -89 -61c0 -27 23 -54 59 -54z" />
    <glyph glyph-name="gcircumflex" unicode="&#x11d;" horiz-adv-x="541" 
d="M384 634c-67 -60 -125 22 -69 65l131 103c30 23 58 19 77 -14l55 -93c40 -69 -47 -121 -91 -40l-26 47zM650 331c22 0 42 -16 42 -40c0 -6 -1 -12 -4 -19c-106 -284 -171 -373 -376 -399l-43 -105c-37 -90 -121 -134 -199 -134c-114 0 -173 74 -173 152
c0 83 68 168 212 168c35 0 66 0 94 1l23 55c-19 -7 -38 -10 -56 -10c-94 0 -132 69 -132 158c0 165 131 398 299 398c40 0 79 -19 95 -47c19 28 42 40 65 40c31 0 58 -25 58 -62c0 -12 -2 -24 -8 -38l-9 -22l-185 -455c120 31 164 113 254 326c10 23 27 33 43 33zM182 174
c0 -33 11 -54 36 -54c27 0 63 27 91 97l79 193c-3 19 -14 34 -35 34c-84 0 -171 -178 -171 -270zM70 -251c47 0 63 32 97 116c-21 -1 -44 -1 -67 -1c-62 0 -89 -31 -89 -61c0 -27 23 -54 59 -54z" />
    <glyph glyph-name="gcommaaccent" unicode="&#x123;" horiz-adv-x="541" 
d="M445 601c-41 0 -78 27 -78 83c0 63 49 174 129 201c6 2 11 3 15 3c15 0 24 -11 24 -24c0 -8 -5 -18 -14 -26c-27 -24 -42 -52 -42 -75c0 -20 12 -35 36 -35c26 0 37 -15 37 -34c0 -38 -43 -93 -107 -93zM650 331c22 0 42 -16 42 -40c0 -6 -1 -12 -4 -19
c-106 -284 -171 -373 -376 -399l-43 -105c-37 -90 -121 -134 -199 -134c-114 0 -173 74 -173 152c0 83 68 168 212 168c35 0 66 0 94 1l23 55c-19 -7 -38 -10 -56 -10c-94 0 -132 69 -132 158c0 165 131 398 299 398c40 0 79 -19 95 -47c19 28 42 40 65 40
c31 0 58 -25 58 -62c0 -12 -2 -24 -8 -38l-9 -22l-185 -455c120 31 164 113 254 326c10 23 27 33 43 33zM182 174c0 -33 11 -54 36 -54c27 0 63 27 91 97l79 193c-3 19 -14 34 -35 34c-84 0 -171 -178 -171 -270zM70 -251c47 0 63 32 97 116c-21 -1 -44 -1 -67 -1
c-62 0 -89 -31 -89 -61c0 -27 23 -54 59 -54z" />
    <glyph glyph-name="gdotaccent" unicode="&#x121;" horiz-adv-x="541" 
d="M450 619c-38 0 -69 31 -69 69s31 69 69 69s68 -31 68 -69s-30 -69 -68 -69zM650 331c22 0 42 -16 42 -40c0 -6 -1 -12 -4 -19c-106 -284 -171 -373 -376 -399l-43 -105c-37 -90 -121 -134 -199 -134c-114 0 -173 74 -173 152c0 83 68 168 212 168c35 0 66 0 94 1l23 55
c-19 -7 -38 -10 -56 -10c-94 0 -132 69 -132 158c0 165 131 398 299 398c40 0 79 -19 95 -47c19 28 42 40 65 40c31 0 58 -25 58 -62c0 -12 -2 -24 -8 -38l-9 -22l-185 -455c120 31 164 113 254 326c10 23 27 33 43 33zM182 174c0 -33 11 -54 36 -54c27 0 63 27 91 97
l79 193c-3 19 -14 34 -35 34c-84 0 -171 -178 -171 -270zM70 -251c47 0 63 32 97 116c-21 -1 -44 -1 -67 -1c-62 0 -89 -31 -89 -61c0 -27 23 -54 59 -54z" />
    <glyph glyph-name="uni1E21" unicode="&#x1e21;" horiz-adv-x="541" 
d="M364 632c-78 0 -66 99 13 99h140c82 0 66 -99 -14 -99h-139zM650 331c22 0 42 -16 42 -40c0 -6 -1 -12 -4 -19c-106 -284 -171 -373 -376 -399l-43 -105c-37 -90 -121 -134 -199 -134c-114 0 -173 74 -173 152c0 83 68 168 212 168c35 0 66 0 94 1l23 55
c-19 -7 -38 -10 -56 -10c-94 0 -132 69 -132 158c0 165 131 398 299 398c40 0 79 -19 95 -47c19 28 42 40 65 40c31 0 58 -25 58 -62c0 -12 -2 -24 -8 -38l-9 -22l-185 -455c120 31 164 113 254 326c10 23 27 33 43 33zM182 174c0 -33 11 -54 36 -54c27 0 63 27 91 97
l79 193c-3 19 -14 34 -35 34c-84 0 -171 -178 -171 -270zM70 -251c47 0 63 32 97 116c-21 -1 -44 -1 -67 -1c-62 0 -89 -31 -89 -61c0 -27 23 -54 59 -54z" />
    <glyph glyph-name="h" unicode="h" horiz-adv-x="522" 
d="M643 327c26 -8 35 -29 24 -57c-10 -26 -20 -50 -31 -76c-56 -132 -123 -194 -237 -194c-79 0 -142 48 -142 117c0 31 14 70 56 172c21 51 40 98 40 115c0 20 -9 33 -34 33c-26 0 -50 -14 -76 -50l-97 -239l-36 -87c-18 -44 -50 -61 -78 -61c-32 0 -59 21 -59 57
c0 11 2 22 7 35l23 56l262 645c20 48 51 68 80 68c31 0 58 -25 58 -62c0 -12 -2 -24 -8 -38l-9 -22l-86 -211c32 19 65 28 95 28c63 0 114 -38 114 -104c0 -29 -26 -96 -53 -163c-28 -66 -41 -101 -46 -113c-14 -39 2 -72 36 -72c33 0 74 32 104 104c6 13 16 38 37 89
c12 28 30 38 56 30z" />
    <glyph glyph-name="hbar" unicode="&#x127;" horiz-adv-x="521" 
d="M642 327c26 -8 35 -29 24 -57l-32 -76c-56 -132 -128 -194 -236 -194c-79 0 -143 48 -143 117c0 56 98 248 98 287c0 20 -11 33 -36 33c-27 0 -52 -14 -82 -66l-126 -311c-16 -40 -46 -60 -83 -60c-47 0 -67 41 -47 89l213 524h-10c-77 0 -63 90 14 90h32l33 80
c22 54 45 77 88 77c46 0 67 -45 48 -92l-26 -65h1c80 0 66 -90 -13 -90h-25l-34 -85c28 18 60 28 89 28c69 0 120 -43 120 -104c0 -47 -68 -191 -100 -276c-14 -39 2 -72 36 -72c43 0 75 32 105 104c5 13 14 38 36 89c11 28 30 38 56 30z" />
    <glyph glyph-name="hcircumflex" unicode="&#x125;" horiz-adv-x="522" 
d="M322 917c-67 -60 -125 22 -69 65l131 103c30 23 58 19 77 -14l55 -93c40 -69 -47 -121 -91 -40l-26 47zM643 327c26 -8 35 -29 24 -57c-10 -26 -20 -50 -31 -76c-56 -132 -123 -194 -237 -194c-79 0 -142 48 -142 117c0 31 14 70 56 172c21 51 40 98 40 115
c0 20 -9 33 -34 33c-26 0 -50 -14 -76 -50l-97 -239l-36 -87c-18 -44 -50 -61 -78 -61c-32 0 -59 21 -59 57c0 11 2 22 7 35l23 56l262 645c20 48 51 68 80 68c31 0 58 -25 58 -62c0 -12 -2 -24 -8 -38l-9 -22l-86 -211c32 19 65 28 95 28c63 0 114 -38 114 -104
c0 -29 -26 -96 -53 -163c-28 -66 -41 -101 -46 -113c-14 -39 2 -72 36 -72c33 0 74 32 104 104c6 13 16 38 37 89c12 28 30 38 56 30z" />
    <glyph glyph-name="uni1E25" unicode="&#x1e25;" horiz-adv-x="522" 
d="M643 327c26 -8 35 -29 24 -57c-10 -26 -20 -50 -31 -76c-56 -132 -123 -194 -237 -194c-79 0 -142 48 -142 117c0 31 14 70 56 172c21 51 40 98 40 115c0 20 -9 33 -34 33c-26 0 -50 -14 -76 -50l-97 -239l-36 -87c-18 -44 -50 -61 -78 -61c-32 0 -59 21 -59 57
c0 11 2 22 7 35l23 56l262 645c20 48 51 68 80 68c31 0 58 -25 58 -62c0 -12 -2 -24 -8 -38l-9 -22l-86 -211c32 19 65 28 95 28c63 0 114 -38 114 -104c0 -29 -26 -96 -53 -163c-28 -66 -41 -101 -46 -113c-14 -39 2 -72 36 -72c33 0 74 32 104 104c6 13 16 38 37 89
c12 28 30 38 56 30zM138 -58c38 0 68 -31 68 -69s-30 -69 -68 -69s-69 31 -69 69s31 69 69 69z" />
    <glyph glyph-name="i" unicode="i" 
d="M285 596c-42 0 -76 34 -76 76c0 43 34 77 76 77s76 -34 76 -77c0 -42 -34 -76 -76 -76zM390 327c26 -8 35 -29 24 -57c-10 -26 -20 -50 -31 -76c-56 -132 -123 -194 -237 -194c-79 0 -142 48 -142 117c0 31 14 70 56 172l78 192c20 48 51 68 80 68c31 0 58 -25 58 -62
c0 -12 -2 -24 -8 -38l-9 -22l-56 -138c-28 -66 -41 -101 -46 -113c-14 -39 2 -72 36 -72c33 0 74 32 104 104c6 13 16 38 37 89c12 28 30 38 56 30z" />
    <glyph glyph-name="dotlessi" unicode="&#x131;" 
d="M390 327c26 -8 35 -29 24 -57c-10 -26 -20 -50 -31 -76c-56 -132 -123 -194 -237 -194c-79 0 -142 48 -142 117c0 31 14 70 56 172l78 192c20 48 51 68 80 68c31 0 58 -25 58 -62c0 -12 -2 -24 -8 -38l-9 -22l-56 -138c-28 -66 -41 -101 -46 -113c-14 -39 2 -72 36 -72
c33 0 74 32 104 104c6 13 16 38 37 89c12 28 30 38 56 30z" />
    <glyph glyph-name="iacute" unicode="&#xed;" 
d="M251 612c-21 0 -37 14 -37 35c0 8 3 19 10 30l66 103c18 28 41 40 62 40c30 0 55 -23 55 -51c0 -15 -7 -32 -24 -48l-91 -90c-13 -14 -27 -19 -41 -19zM390 327c26 -8 35 -29 24 -57c-10 -26 -20 -50 -31 -76c-56 -132 -123 -194 -237 -194c-79 0 -142 48 -142 117
c0 31 14 70 56 172l78 192c20 48 51 68 80 68c31 0 58 -25 58 -62c0 -12 -2 -24 -8 -38l-9 -22l-56 -138c-28 -66 -41 -101 -46 -113c-14 -39 2 -72 36 -72c33 0 74 32 104 104c6 13 16 38 37 89c12 28 30 38 56 30z" />
    <glyph glyph-name="ibreve" unicode="&#x12d;" 
d="M391 797c22 0 40 -16 40 -40c0 -4 -1 -9 -2 -13c-24 -92 -106 -136 -179 -136c-66 0 -125 37 -125 110c0 9 1 18 3 29c7 36 35 53 59 53c21 0 37 -11 37 -36c0 -3 0 -7 -1 -11c-2 -7 -2 -13 -2 -18c0 -27 17 -41 36 -41c26 0 58 20 74 56c15 33 39 47 60 47zM390 327
c26 -8 35 -29 24 -57c-10 -26 -20 -50 -31 -76c-56 -132 -123 -194 -237 -194c-79 0 -142 48 -142 117c0 31 14 70 56 172l78 192c20 48 51 68 80 68c31 0 58 -25 58 -62c0 -12 -2 -24 -8 -38l-9 -22l-56 -138c-28 -66 -41 -101 -46 -113c-14 -39 2 -72 36 -72
c33 0 74 32 104 104c6 13 16 38 37 89c12 28 30 38 56 30z" />
    <glyph glyph-name="uni01D0" unicode="&#x1d0;" 
d="M190 641l-55 93c-41 69 47 121 91 40l25 -46l77 68c68 59 126 -23 70 -66l-132 -103c-29 -23 -57 -19 -76 14zM390 327c26 -8 35 -29 24 -57c-10 -26 -20 -50 -31 -76c-56 -132 -123 -194 -237 -194c-79 0 -142 48 -142 117c0 31 14 70 56 172l78 192c20 48 51 68 80 68
c31 0 58 -25 58 -62c0 -12 -2 -24 -8 -38l-9 -22l-56 -138c-28 -66 -41 -101 -46 -113c-14 -39 2 -72 36 -72c33 0 74 32 104 104c6 13 16 38 37 89c12 28 30 38 56 30z" />
    <glyph glyph-name="icircumflex" unicode="&#xee;" 
d="M203 634c-67 -60 -125 22 -69 65l131 103c30 23 58 19 77 -14l55 -93c40 -69 -47 -121 -91 -40l-26 47zM390 327c26 -8 35 -29 24 -57c-10 -26 -20 -50 -31 -76c-56 -132 -123 -194 -237 -194c-79 0 -142 48 -142 117c0 31 14 70 56 172l78 192c20 48 51 68 80 68
c31 0 58 -25 58 -62c0 -12 -2 -24 -8 -38l-9 -22l-56 -138c-28 -66 -41 -101 -46 -113c-14 -39 2 -72 36 -72c33 0 74 32 104 104c6 13 16 38 37 89c12 28 30 38 56 30z" />
    <glyph glyph-name="idieresis" unicode="&#xef;" 
d="M193 619c-38 0 -69 31 -69 69s31 69 69 69s68 -31 68 -69s-30 -69 -68 -69zM372 757c38 0 68 -31 68 -69s-30 -69 -68 -69s-69 31 -69 69s31 69 69 69zM390 327c26 -8 35 -29 24 -57c-10 -26 -20 -50 -31 -76c-56 -132 -123 -194 -237 -194c-79 0 -142 48 -142 117
c0 31 14 70 56 172l78 192c20 48 51 68 80 68c31 0 58 -25 58 -62c0 -12 -2 -24 -8 -38l-9 -22l-56 -138c-28 -66 -41 -101 -46 -113c-14 -39 2 -72 36 -72c33 0 74 32 104 104c6 13 16 38 37 89c12 28 30 38 56 30z" />
    <glyph glyph-name="i.loclTRK" 
d="M269 619c-38 0 -69 31 -69 69s31 69 69 69s68 -31 68 -69s-30 -69 -68 -69zM390 327c26 -8 35 -29 24 -57c-10 -26 -20 -50 -31 -76c-56 -132 -123 -194 -237 -194c-79 0 -142 48 -142 117c0 31 14 70 56 172l78 192c20 48 51 68 80 68c31 0 58 -25 58 -62
c0 -12 -2 -24 -8 -38l-9 -22l-56 -138c-28 -66 -41 -101 -46 -113c-14 -39 2 -72 36 -72c33 0 74 32 104 104c6 13 16 38 37 89c12 28 30 38 56 30z" />
    <glyph glyph-name="uni1ECB" unicode="&#x1ecb;" 
d="M285 596c-42 0 -76 34 -76 76c0 43 34 77 76 77s76 -34 76 -77c0 -42 -34 -76 -76 -76zM390 327c26 -8 35 -29 24 -57c-10 -26 -20 -50 -31 -76c-56 -132 -123 -194 -237 -194c-79 0 -142 48 -142 117c0 31 14 70 56 172l78 192c20 48 51 68 80 68c31 0 58 -25 58 -62
c0 -12 -2 -24 -8 -38l-9 -22l-56 -138c-28 -66 -41 -101 -46 -113c-14 -39 2 -72 36 -72c33 0 74 32 104 104c6 13 16 38 37 89c12 28 30 38 56 30zM13 -58c38 0 68 -31 68 -69s-30 -69 -68 -69s-69 31 -69 69s31 69 69 69z" />
    <glyph glyph-name="igrave" unicode="&#xec;" 
d="M235 624l-91 90c-16 16 -23 33 -23 48c0 28 25 51 54 51c21 0 45 -12 63 -40l65 -103c7 -11 10 -22 10 -30c0 -21 -16 -35 -37 -35c-13 0 -28 5 -41 19zM390 327c26 -8 35 -29 24 -57c-10 -26 -20 -50 -31 -76c-56 -132 -123 -194 -237 -194c-79 0 -142 48 -142 117
c0 31 14 70 56 172l78 192c20 48 51 68 80 68c31 0 58 -25 58 -62c0 -12 -2 -24 -8 -38l-9 -22l-56 -138c-28 -66 -41 -101 -46 -113c-14 -39 2 -72 36 -72c33 0 74 32 104 104c6 13 16 38 37 89c12 28 30 38 56 30z" />
    <glyph glyph-name="uni020B" unicode="&#x20b;" 
d="M168 621c-21 0 -40 12 -40 36c0 4 1 8 2 13c24 92 104 130 176 130c65 0 125 -41 125 -112c0 -53 -32 -80 -60 -80c-21 0 -40 16 -40 48c0 5 1 11 2 17c4 26 -16 40 -41 40c-27 0 -58 -16 -67 -49c-8 -28 -34 -43 -57 -43zM390 327c26 -8 35 -29 24 -57
c-10 -26 -20 -50 -31 -76c-56 -132 -123 -194 -237 -194c-79 0 -142 48 -142 117c0 31 14 70 56 172l78 192c20 48 51 68 80 68c31 0 58 -25 58 -62c0 -12 -2 -24 -8 -38l-9 -22l-56 -138c-28 -66 -41 -101 -46 -113c-14 -39 2 -72 36 -72c33 0 74 32 104 104
c6 13 16 38 37 89c12 28 30 38 56 30z" />
    <glyph glyph-name="ij" unicode="&#x133;" horiz-adv-x="534" 
d="M285 596c-42 0 -76 34 -76 76c0 43 34 77 76 77s76 -34 76 -77c0 -42 -34 -76 -76 -76zM553 596c-42 0 -76 34 -76 76c0 43 34 77 76 77s76 -34 76 -77c0 -42 -34 -76 -76 -76zM643 331c22 0 42 -16 42 -40c0 -6 -1 -12 -4 -19c-106 -284 -171 -373 -376 -399l-43 -105
c-37 -90 -121 -134 -199 -134c-114 0 -173 74 -173 152c0 83 68 168 212 168c35 0 66 0 94 1l22 55c-21 -7 -45 -10 -72 -10c-79 0 -142 48 -142 117c0 31 14 70 56 172l78 192c20 48 51 68 80 68c31 0 58 -25 58 -62c0 -12 -2 -24 -8 -38l-9 -22l-56 -138
c-28 -66 -41 -101 -46 -113c-14 -39 2 -72 36 -72c33 0 74 32 104 104c6 13 16 38 37 89c2 4 3 7 5 10l71 174c20 48 51 68 80 68c31 0 58 -25 58 -62c0 -12 -2 -24 -8 -38l-9 -22l-185 -455c120 31 164 113 254 326c10 23 27 33 43 33zM63 -251c47 0 63 32 97 116
c-21 -1 -44 -1 -67 -1c-62 0 -89 -31 -89 -61c0 -27 23 -54 59 -54z" />
    <glyph glyph-name="uniE132" unicode="&#xe132;" horiz-adv-x="534" 
d="M251 612c-21 0 -37 14 -37 35c0 8 3 19 10 30l66 103c18 28 41 40 62 40c30 0 55 -23 55 -51c0 -15 -7 -32 -24 -48l-91 -90c-13 -14 -27 -19 -41 -19zM526 612c-21 0 -37 14 -37 35c0 8 3 19 10 30l66 103c18 28 41 40 62 40c30 0 55 -23 55 -51c0 -15 -7 -32 -24 -48
l-91 -90c-13 -14 -27 -19 -41 -19zM643 331c22 0 42 -16 42 -40c0 -6 -1 -12 -4 -19c-106 -284 -171 -373 -376 -399l-43 -105c-37 -90 -121 -134 -199 -134c-114 0 -173 74 -173 152c0 83 68 168 212 168c35 0 66 0 94 1l22 55c-21 -7 -45 -10 -72 -10
c-79 0 -142 48 -142 117c0 31 14 70 56 172l78 192c20 48 51 68 80 68c31 0 58 -25 58 -62c0 -12 -2 -24 -8 -38l-9 -22l-56 -138c-28 -66 -41 -101 -46 -113c-14 -39 2 -72 36 -72c33 0 74 32 104 104c6 13 16 38 37 89c2 4 3 7 5 10l71 174c20 48 51 68 80 68
c31 0 58 -25 58 -62c0 -12 -2 -24 -8 -38l-9 -22l-185 -455c120 31 164 113 254 326c10 23 27 33 43 33zM63 -251c47 0 63 32 97 116c-21 -1 -44 -1 -67 -1c-62 0 -89 -31 -89 -61c0 -27 23 -54 59 -54z" />
    <glyph glyph-name="imacron" unicode="&#x12b;" 
d="M183 632c-78 0 -66 99 13 99h140c82 0 66 -99 -14 -99h-139zM390 327c26 -8 35 -29 24 -57c-10 -26 -20 -50 -31 -76c-56 -132 -123 -194 -237 -194c-79 0 -142 48 -142 117c0 31 14 70 56 172l78 192c20 48 51 68 80 68c31 0 58 -25 58 -62c0 -12 -2 -24 -8 -38l-9 -22
l-56 -138c-28 -66 -41 -101 -46 -113c-14 -39 2 -72 36 -72c33 0 74 32 104 104c6 13 16 38 37 89c12 28 30 38 56 30z" />
    <glyph glyph-name="iogonek" unicode="&#x12f;" 
d="M269 619c-38 0 -69 31 -69 69s31 69 69 69s68 -31 68 -69s-30 -69 -68 -69zM390 327c26 -8 35 -29 24 -57c-10 -26 -20 -50 -31 -76c-56 -132 -123 -194 -237 -194h-12c-48 -39 -74 -79 -74 -104c0 -15 10 -24 30 -24c11 0 26 3 44 8c67 19 86 -59 35 -83
c-41 -19 -78 -28 -109 -28c-69 0 -114 40 -114 96c0 47 33 106 113 158c-34 21 -55 54 -55 94c0 31 14 70 56 172l78 192c20 48 51 68 80 68c31 0 58 -25 58 -62c0 -12 -2 -24 -8 -38l-9 -22l-56 -138c-28 -66 -41 -101 -46 -113c-14 -39 2 -72 36 -72c33 0 74 32 104 104
c6 13 16 38 37 89c12 28 30 38 56 30z" />
    <glyph glyph-name="itilde" unicode="&#x129;" 
d="M427 746c26 -14 32 -38 16 -65c-30 -51 -66 -75 -111 -75c-60 0 -84 51 -117 51c-7 0 -14 -2 -23 -9c-33 -28 -52 -46 -79 -32c-27 12 -33 38 -16 65c32 52 68 77 110 77c57 0 87 -52 120 -52c10 0 23 7 35 21c22 27 41 33 65 19zM390 327c26 -8 35 -29 24 -57
c-10 -26 -20 -50 -31 -76c-56 -132 -123 -194 -237 -194c-79 0 -142 48 -142 117c0 31 14 70 56 172l78 192c20 48 51 68 80 68c31 0 58 -25 58 -62c0 -12 -2 -24 -8 -38l-9 -22l-56 -138c-28 -66 -41 -101 -46 -113c-14 -39 2 -72 36 -72c33 0 74 32 104 104
c6 13 16 38 37 89c12 28 30 38 56 30z" />
    <glyph glyph-name="uni0209" unicode="&#x209;" 
d="M182 631l-75 90c-13 16 -17 33 -15 48c5 28 34 51 64 51c20 0 42 -12 55 -40l48 -103c5 -11 5 -22 4 -30c-4 -21 -22 -35 -42 -35c-14 0 -27 5 -39 19zM427 677c5 -11 6 -22 5 -30c-4 -21 -22 -35 -43 -35c-14 0 -27 5 -39 19l-74 90c-14 16 -18 33 -16 48
c5 28 34 51 64 51c21 0 42 -12 55 -40zM390 327c26 -8 35 -29 24 -57c-10 -26 -20 -50 -31 -76c-56 -132 -123 -194 -237 -194c-79 0 -142 48 -142 117c0 31 14 70 56 172l78 192c20 48 51 68 80 68c31 0 58 -25 58 -62c0 -12 -2 -24 -8 -38l-9 -22l-56 -138
c-28 -66 -41 -101 -46 -113c-14 -39 2 -72 36 -72c33 0 74 32 104 104c6 13 16 38 37 89c12 28 30 38 56 30z" />
    <glyph glyph-name="j" unicode="j" horiz-adv-x="265" 
d="M284 596c-42 0 -76 34 -76 76c0 43 34 77 76 77s76 -34 76 -77c0 -42 -34 -76 -76 -76zM374 331c22 0 42 -16 42 -40c0 -6 -1 -12 -4 -19c-106 -284 -171 -373 -376 -399l-43 -105c-37 -90 -121 -134 -199 -134c-114 0 -173 74 -173 152c0 83 68 168 212 168
c35 0 66 0 94 1l70 173l144 353c20 48 51 68 80 68c31 0 58 -25 58 -62c0 -12 -2 -24 -8 -38l-9 -22l-185 -455c120 31 164 113 254 326c10 23 27 33 43 33zM-206 -251c47 0 63 32 97 116c-21 -1 -44 -1 -67 -1c-62 0 -89 -31 -89 -61c0 -27 23 -54 59 -54z" />
    <glyph glyph-name="uni0237" unicode="&#x237;" horiz-adv-x="265" 
d="M374 331c22 0 42 -16 42 -40c0 -6 -1 -12 -4 -19c-106 -284 -171 -373 -376 -399l-43 -105c-37 -90 -121 -134 -199 -134c-114 0 -173 74 -173 152c0 83 68 168 212 168c35 0 66 0 94 1l70 173l144 353c20 48 51 68 80 68c31 0 58 -25 58 -62c0 -12 -2 -24 -8 -38l-9 -22
l-185 -455c120 31 164 113 254 326c10 23 27 33 43 33zM-206 -251c47 0 63 32 97 116c-21 -1 -44 -1 -67 -1c-62 0 -89 -31 -89 -61c0 -27 23 -54 59 -54z" />
    <glyph glyph-name="jcircumflex" unicode="&#x135;" horiz-adv-x="265" 
d="M217 634c-67 -60 -125 22 -69 65l131 103c30 23 58 19 77 -14l55 -93c40 -69 -47 -121 -91 -40l-26 47zM374 331c22 0 42 -16 42 -40c0 -6 -1 -12 -4 -19c-106 -284 -171 -373 -376 -399l-43 -105c-37 -90 -121 -134 -199 -134c-114 0 -173 74 -173 152
c0 83 68 168 212 168c35 0 66 0 94 1l70 173l144 353c20 48 51 68 80 68c31 0 58 -25 58 -62c0 -12 -2 -24 -8 -38l-9 -22l-185 -455c120 31 164 113 254 326c10 23 27 33 43 33zM-206 -251c47 0 63 32 97 116c-21 -1 -44 -1 -67 -1c-62 0 -89 -31 -89 -61
c0 -27 23 -54 59 -54z" />
    <glyph glyph-name="k" unicode="k" horiz-adv-x="490" 
d="M466 549c32 0 54 -22 54 -51c0 -20 -11 -44 -37 -66l-124 -101l79 -230c3 -10 4 -19 4 -27c0 -46 -36 -74 -72 -74c-26 0 -53 16 -64 50l-91 268l-69 -170l-36 -87c-18 -44 -50 -61 -78 -61c-32 0 -59 21 -59 57c0 11 2 22 7 35l23 56l262 645c20 48 51 68 80 68
c31 0 58 -25 58 -62c0 -12 -2 -24 -8 -38l-9 -22l-137 -338l153 122c23 18 45 26 64 26z" />
    <glyph glyph-name="kcommaaccent" unicode="&#x137;" horiz-adv-x="490" 
d="M466 549c32 0 54 -22 54 -51c0 -20 -11 -44 -37 -66l-124 -101l79 -230c3 -10 4 -19 4 -27c0 -46 -36 -74 -72 -74c-26 0 -53 16 -64 50l-91 268l-69 -170l-36 -87c-18 -44 -50 -61 -78 -61c-32 0 -59 21 -59 57c0 11 2 22 7 35l23 56l262 645c20 48 51 68 80 68
c31 0 58 -25 58 -62c0 -12 -2 -24 -8 -38l-9 -22l-137 -338l153 122c23 18 45 26 64 26zM152 -76c41 0 78 -27 78 -83c0 -63 -49 -174 -129 -201c-6 -2 -11 -3 -15 -3c-15 0 -24 11 -24 24c0 8 5 18 14 26c27 24 42 52 42 75c0 20 -12 35 -36 35c-26 0 -37 15 -37 34
c0 38 43 93 107 93z" />
    <glyph glyph-name="kgreenlandic" unicode="&#x138;" horiz-adv-x="471" 
d="M415 523c88 78 162 -16 81 -91l-156 -158l51 -173c31 -106 -100 -149 -132 -43l-64 211l-49 -121l-36 -87c-18 -44 -50 -61 -78 -61c-32 0 -59 21 -59 57c0 11 2 22 7 35l23 56l135 333c20 48 51 68 80 68c31 0 58 -25 58 -62c0 -12 -2 -24 -8 -38l-49 -121z" />
    <glyph glyph-name="l" unicode="l" 
d="M390 327c26 -8 35 -29 24 -57c-10 -26 -20 -50 -31 -76c-56 -132 -123 -194 -237 -194c-79 0 -142 48 -142 117c0 31 14 70 56 172l205 504c20 48 51 68 80 68c31 0 58 -25 58 -62c0 -12 -2 -24 -8 -38l-9 -22l-183 -450c-28 -66 -41 -101 -46 -113c-14 -39 2 -72 36 -72
c33 0 74 32 104 104c6 13 16 38 37 89c12 28 30 38 56 30z" />
    <glyph glyph-name="lacute" unicode="&#x13a;" 
d="M526 1121c30 0 55 -23 55 -51c0 -15 -7 -32 -24 -48l-91 -90c-13 -14 -27 -19 -41 -19c-21 0 -37 14 -37 35c0 8 3 19 10 30l66 103c18 28 41 40 62 40zM390 327c26 -8 35 -29 24 -57c-10 -26 -20 -50 -31 -76c-56 -132 -123 -194 -237 -194c-79 0 -142 48 -142 117
c0 31 14 70 56 172l205 504c20 48 51 68 80 68c31 0 58 -25 58 -62c0 -12 -2 -24 -8 -38l-9 -22l-183 -450c-28 -66 -41 -101 -46 -113c-14 -39 2 -72 36 -72c33 0 74 32 104 104c6 13 16 38 37 89c12 28 30 38 56 30z" />
    <glyph glyph-name="lcaron" unicode="&#x13e;" 
d="M502 1097c68 59 126 -23 70 -66l-132 -103c-29 -23 -57 -19 -76 14l-55 93c-41 69 47 121 91 40l25 -46zM390 327c26 -8 35 -29 24 -57c-10 -26 -20 -50 -31 -76c-56 -132 -123 -194 -237 -194c-79 0 -142 48 -142 117c0 31 14 70 56 172l205 504c20 48 51 68 80 68
c31 0 58 -25 58 -62c0 -12 -2 -24 -8 -38l-9 -22l-183 -450c-28 -66 -41 -101 -46 -113c-14 -39 2 -72 36 -72c33 0 74 32 104 104c6 13 16 38 37 89c12 28 30 38 56 30z" />
    <glyph glyph-name="lcommaaccent" unicode="&#x13c;" 
d="M390 327c26 -8 35 -29 24 -57c-10 -26 -20 -50 -31 -76c-56 -132 -123 -194 -237 -194c-79 0 -142 48 -142 117c0 31 14 70 56 172l205 504c20 48 51 68 80 68c31 0 58 -25 58 -62c0 -12 -2 -24 -8 -38l-9 -22l-183 -450c-28 -66 -41 -101 -46 -113c-14 -39 2 -72 36 -72
c33 0 74 32 104 104c6 13 16 38 37 89c12 28 30 38 56 30zM82 -76c41 0 78 -27 78 -83c0 -63 -49 -174 -129 -201c-6 -2 -11 -3 -15 -3c-15 0 -24 11 -24 24c0 8 5 18 14 26c27 24 42 52 42 75c0 20 -12 35 -36 35c-26 0 -37 15 -37 34c0 38 43 93 107 93z" />
    <glyph glyph-name="uni1E37" unicode="&#x1e37;" 
d="M390 327c26 -8 35 -29 24 -57c-10 -26 -20 -50 -31 -76c-56 -132 -123 -194 -237 -194c-79 0 -142 48 -142 117c0 31 14 70 56 172l205 504c20 48 51 68 80 68c31 0 58 -25 58 -62c0 -12 -2 -24 -8 -38l-9 -22l-183 -450c-28 -66 -41 -101 -46 -113c-14 -39 2 -72 36 -72
c33 0 74 32 104 104c6 13 16 38 37 89c12 28 30 38 56 30zM32 -58c38 0 68 -31 68 -69s-30 -69 -68 -69s-69 31 -69 69s31 69 69 69z" />
    <glyph glyph-name="uni1E3B" unicode="&#x1e3b;" 
d="M390 327c26 -8 35 -29 24 -57c-10 -26 -20 -50 -31 -76c-56 -132 -123 -194 -237 -194c-79 0 -142 48 -142 117c0 31 14 70 56 172l205 504c20 48 51 68 80 68c31 0 58 -25 58 -62c0 -12 -2 -24 -8 -38l-9 -22l-183 -450c-28 -66 -41 -101 -46 -113c-14 -39 2 -72 36 -72
c33 0 74 32 104 104c6 13 16 38 37 89c12 28 30 38 56 30zM124 -98c37 0 54 -20 54 -43c0 -27 -24 -56 -68 -56h-139c-36 0 -53 21 -53 44c0 26 23 55 66 55h140z" />
    <glyph glyph-name="lslash" unicode="&#x142;" horiz-adv-x="270" 
d="M392 327c26 -8 36 -29 24 -57l-32 -76c-56 -132 -128 -194 -236 -194c-79 0 -142 48 -142 117c0 32 19 79 44 142l34 84c-66 -5 -65 80 8 92l32 6l109 266c23 54 45 77 88 77c47 0 68 -41 48 -90l-92 -227c67 3 64 -80 -9 -92l-31 -6c-40 -97 -73 -180 -78 -193
c-15 -39 2 -72 36 -72c43 0 75 32 105 104c5 13 14 38 36 89c11 28 30 38 56 30z" />
    <glyph glyph-name="lmiddledot" unicode="&#x140;" 
d="M390 327c26 -8 35 -29 24 -57c-10 -26 -20 -50 -31 -76c-56 -132 -123 -194 -237 -194c-79 0 -142 48 -142 117c0 31 14 70 56 172l205 504c20 48 51 68 80 68c31 0 58 -25 58 -62c0 -12 -2 -24 -8 -38l-9 -22l-183 -450c-28 -66 -41 -101 -46 -113c-14 -39 2 -72 36 -72
c33 0 74 32 104 104c6 13 16 38 37 89c12 28 30 38 56 30zM280 420c0 22 19 42 41 41s39 -19 39 -41s-17 -40 -39 -40s-41 18 -41 40z" />
    <glyph glyph-name="m" unicode="m" horiz-adv-x="775" 
d="M896 327c26 -8 35 -29 24 -57c-10 -26 -20 -50 -31 -76c-56 -132 -123 -194 -237 -194c-79 0 -142 48 -142 117c0 31 14 70 56 172c21 51 40 98 40 115c0 20 -9 33 -34 33c-27 0 -54 -16 -81 -58c-10 -27 -22 -59 -35 -90l-57 -141l-36 -87c-18 -44 -50 -61 -78 -61
c-32 0 -59 21 -59 57c0 11 2 22 7 35l23 56l57 141c21 51 40 98 40 115c0 20 -9 33 -34 33c-26 0 -51 -14 -76 -50l-97 -239l-36 -87c-18 -44 -50 -61 -78 -61c-32 0 -59 21 -59 57c0 11 2 22 7 35l23 56l135 333c20 48 51 68 80 68c25 0 47 -16 55 -41c39 33 83 48 122 48
c51 0 93 -24 108 -68c45 46 98 68 145 68c63 0 114 -38 114 -104c0 -29 -26 -96 -53 -163c-28 -66 -41 -101 -46 -113c-14 -39 2 -72 36 -72c33 0 74 32 104 104c6 13 16 38 37 89c12 28 30 38 56 30z" />
    <glyph glyph-name="uni1E43" unicode="&#x1e43;" horiz-adv-x="775" 
d="M896 327c26 -8 35 -29 24 -57c-10 -26 -20 -50 -31 -76c-56 -132 -123 -194 -237 -194c-79 0 -142 48 -142 117c0 31 14 70 56 172c21 51 40 98 40 115c0 20 -9 33 -34 33c-27 0 -54 -16 -81 -58c-10 -27 -22 -59 -35 -90l-57 -141l-36 -87c-18 -44 -50 -61 -78 -61
c-32 0 -59 21 -59 57c0 11 2 22 7 35l23 56l57 141c21 51 40 98 40 115c0 20 -9 33 -34 33c-26 0 -51 -14 -76 -50l-97 -239l-36 -87c-18 -44 -50 -61 -78 -61c-32 0 -59 21 -59 57c0 11 2 22 7 35l23 56l135 333c20 48 51 68 80 68c25 0 47 -16 55 -41c39 33 83 48 122 48
c51 0 93 -24 108 -68c45 46 98 68 145 68c63 0 114 -38 114 -104c0 -29 -26 -96 -53 -163c-28 -66 -41 -101 -46 -113c-14 -39 2 -72 36 -72c33 0 74 32 104 104c6 13 16 38 37 89c12 28 30 38 56 30zM261 -45c38 0 68 -31 68 -69s-30 -69 -68 -69s-69 31 -69 69
s31 69 69 69z" />
    <glyph glyph-name="n" unicode="n" horiz-adv-x="522" 
d="M643 327c26 -8 35 -29 24 -57c-10 -26 -20 -50 -31 -76c-56 -132 -123 -194 -237 -194c-79 0 -142 48 -142 117c0 31 14 70 56 172c21 51 40 98 40 115c0 20 -9 33 -34 33c-26 0 -51 -14 -76 -50l-97 -239l-36 -87c-18 -44 -50 -61 -78 -61c-32 0 -59 21 -59 57
c0 11 2 22 7 35l23 56l135 333c20 48 51 68 80 68c25 0 47 -16 55 -41c39 33 83 48 122 48c63 0 114 -38 114 -104c0 -29 -26 -96 -53 -163c-28 -66 -41 -101 -46 -113c-14 -39 2 -72 36 -72c33 0 74 32 104 104c6 13 16 38 37 89c12 28 30 38 56 30z" />
    <glyph glyph-name="nacute" unicode="&#x144;" horiz-adv-x="522" 
d="M422 612c-21 0 -37 14 -37 35c0 8 3 19 10 30l66 103c18 28 41 40 62 40c30 0 55 -23 55 -51c0 -15 -7 -32 -24 -48l-91 -90c-13 -14 -27 -19 -41 -19zM643 327c26 -8 35 -29 24 -57c-10 -26 -20 -50 -31 -76c-56 -132 -123 -194 -237 -194c-79 0 -142 48 -142 117
c0 31 14 70 56 172c21 51 40 98 40 115c0 20 -9 33 -34 33c-26 0 -51 -14 -76 -50l-97 -239l-36 -87c-18 -44 -50 -61 -78 -61c-32 0 -59 21 -59 57c0 11 2 22 7 35l23 56l135 333c20 48 51 68 80 68c25 0 47 -16 55 -41c39 33 83 48 122 48c63 0 114 -38 114 -104
c0 -29 -26 -96 -53 -163c-28 -66 -41 -101 -46 -113c-14 -39 2 -72 36 -72c33 0 74 32 104 104c6 13 16 38 37 89c12 28 30 38 56 30z" />
    <glyph glyph-name="napostrophe" unicode="&#x149;" horiz-adv-x="522" 
d="M191 580c-22 -18 -42 -15 -50 -1s0 27 21 44c15 13 31 28 37 45c-20 8 -35 28 -35 51c0 38 30 59 58 59c27 0 54 -20 54 -59c0 -42 -31 -94 -85 -139zM643 327c26 -8 35 -29 24 -57c-10 -26 -20 -50 -31 -76c-56 -132 -123 -194 -237 -194c-79 0 -142 48 -142 117
c0 31 14 70 56 172c21 51 40 98 40 115c0 20 -9 33 -34 33c-26 0 -51 -14 -76 -50l-97 -239l-36 -87c-18 -44 -50 -61 -78 -61c-32 0 -59 21 -59 57c0 11 2 22 7 35l23 56l135 333c20 48 51 68 80 68c25 0 47 -16 55 -41c39 33 83 48 122 48c63 0 114 -38 114 -104
c0 -29 -26 -96 -53 -163c-28 -66 -41 -101 -46 -113c-14 -39 2 -72 36 -72c33 0 74 32 104 104c6 13 16 38 37 89c12 28 30 38 56 30z" />
    <glyph glyph-name="ncaron" unicode="&#x148;" horiz-adv-x="522" 
d="M361 641l-55 93c-41 69 47 121 91 40l25 -46l77 68c68 59 126 -23 70 -66l-132 -103c-29 -23 -57 -19 -76 14zM643 327c26 -8 35 -29 24 -57c-10 -26 -20 -50 -31 -76c-56 -132 -123 -194 -237 -194c-79 0 -142 48 -142 117c0 31 14 70 56 172c21 51 40 98 40 115
c0 20 -9 33 -34 33c-26 0 -51 -14 -76 -50l-97 -239l-36 -87c-18 -44 -50 -61 -78 -61c-32 0 -59 21 -59 57c0 11 2 22 7 35l23 56l135 333c20 48 51 68 80 68c25 0 47 -16 55 -41c39 33 83 48 122 48c63 0 114 -38 114 -104c0 -29 -26 -96 -53 -163
c-28 -66 -41 -101 -46 -113c-14 -39 2 -72 36 -72c33 0 74 32 104 104c6 13 16 38 37 89c12 28 30 38 56 30z" />
    </font>
</defs>
</svg>
