<?xml version="1.0" standalone="no"?>
<!DOCTYPE svg PUBLIC "-//W3C//DTD SVG 1.1//EN" "http://www.w3.org/Graphics/SVG/1.1/DTD/svg11.dtd" >
<svg xmlns="http://www.w3.org/2000/svg" xmlns:xlink="http://www.w3.org/1999/xlink" version="1.1">
<metadata>
Created by FontForge 20170812 at Tue Aug 27 16:00:47 2019
 By www-data
Copyright \050c\051 2018 by Connary Fagen. All rights reserved.
</metadata>
<defs>
<font id="greycliff-cf-heavy" horiz-adv-x="1236" >
  <font-face 
    font-family="greycliff-cf-heavy"
    font-weight="800"
    font-stretch="normal"
    units-per-em="2048"
    panose-1="2 0 9 3 0 0 0 0 0 0"
    ascent="1638"
    descent="-410"
    x-height="1004"
    cap-height="1434"
    bbox="-338 -569 2189.03 1921"
    underline-thickness="0"
    underline-position="0"
    unicode-range="U+0020-FB02"
  />
<missing-glyph horiz-adv-x="1013" 
d="M831 1638v-2027h-643v2027h643zM676 1503h-336v-67h133v-76h-135v-66h338v66h-135v76h135v67zM541 1241h-203v-211h338v70h-135v141zM473 1171v-71h-67v71h67zM676 975h-338v-66h135v-75h-135v-68h203v143h135v66zM676 854h-68v-133h-270v-70h338v203zM676 606h-203v-112
h68v45h67v-95h-202v162h-68v-229h338v229zM676 256h-338v-229h338v229zM608 188v-94h-202v94h202zM676 -20h-338v-66h143l-143 -96v-68h338v68h-207l141 96h66v66z" />
    <glyph glyph-name=".notdef" horiz-adv-x="1013" 
d="M831 1638v-2027h-643v2027h643zM676 1503h-336v-67h133v-76h-135v-66h338v66h-135v76h135v67zM541 1241h-203v-211h338v70h-135v141zM473 1171v-71h-67v71h67zM676 975h-338v-66h135v-75h-135v-68h203v143h135v66zM676 854h-68v-133h-270v-70h338v203zM676 606h-203v-112
h68v45h67v-95h-202v162h-68v-229h338v229zM676 256h-338v-229h338v229zM608 188v-94h-202v94h202zM676 -20h-338v-66h143l-143 -96v-68h338v68h-207l141 96h66v66z" />
    <glyph glyph-name="glyph1" horiz-adv-x="0" 
 />
    <glyph glyph-name="glyph2" horiz-adv-x="681" 
 />
    <glyph glyph-name="space" unicode=" " horiz-adv-x="573" 
 />
    <glyph glyph-name="exclam" unicode="!" horiz-adv-x="503" 
d="M344 1352l-47 -932q0 -31 -33 -31h-24q-33 0 -33 31l-47 932q-2 41 26.5 69.5t65.5 28.5t65.5 -28.5t26.5 -69.5zM252 -27q-41 0 -69.5 29t-28.5 70t28.5 69.5t69.5 28.5t69.5 -28.5t28.5 -69.5t-28.5 -70t-69.5 -29z" />
    <glyph glyph-name="quotedbl" unicode="&#x22;" horiz-adv-x="552" 
d="M205 1434q31 0 31 -31l-13 -389q0 -31 -30 -31h-58q-31 0 -31 31l-12 389q0 31 31 31h82zM430 1434q31 0 31 -31l-12 -389q0 -31 -31 -31h-58q-31 0 -30 31l-13 389q0 31 31 31h82z" />
    <glyph glyph-name="numbersign" unicode="#" horiz-adv-x="1150" 
d="M981 1016h-143v-434h143q37 0 37 -31v-70q0 -31 -37 -30h-143v-256q0 -31 -31 -31h-86q-31 0 -31 31v256h-235v-256q0 -31 -31 -31h-86q-31 0 -31 31v256h-143q-31 0 -31 30v70q0 31 31 31h143v434h-143q-31 0 -31 31v69q0 31 31 31h143v256q0 31 31 31h86q31 0 31 -31
v-256h235v256q0 31 31 31h86q31 0 31 -31v-256h143q37 0 37 -31v-69q0 -31 -37 -31zM690 582v434h-235v-434h235z" />
    <glyph glyph-name="dollar" unicode="$" horiz-adv-x="1126" 
d="M1024 371q0 -152 -115.5 -262.5t-287.5 -128.5v-134q0 -31 -31 -30h-70q-31 0 -31 30v134q-127 12 -227 69t-153 144q-14 23 6 40l59 58q20 18 43 -4q164 -164 338 -164q139 0 225 73.5t86 182.5q0 94 -74.5 159.5t-182 107.5t-215 89t-182.5 135t-75 215
q0 143 98.5 242.5t253.5 118.5v141q0 31 31 31h70q31 0 31 -31v-141q199 -29 335 -189q18 -20 -2 -43l-51 -53q-23 -23 -43 -2q-145 145 -309 146q-115 0 -188.5 -59.5t-73.5 -162.5q0 -92 75.5 -155.5t183 -103.5t216 -88t184.5 -139t76 -226z" />
    <glyph glyph-name="percent" unicode="%" horiz-adv-x="1490" 
d="M381 1444q117 0 199 -80t82 -196.5t-82 -197.5t-199 -81q-115 0 -197 81t-82 197.5t82 196.5t197 80zM1163 1442l94 -66l-929 -1384l-95 65zM381 1333q-70 0 -119 -47t-49 -118.5t49 -120t119 -48.5q72 0 121 47.5t49 120.5q0 72 -49 119t-121 47zM1110 545
q115 0 197 -81t82 -197.5t-82 -196.5t-197 -80q-117 0 -199 80t-82 196.5t82 197.5t199 81zM1110 434q-72 0 -121 -47t-49 -121q0 -72 49 -119t121 -47q70 0 119 47.5t49 119t-49 119.5t-119 48z" />
    <glyph glyph-name="ampersand" unicode="&#x26;" horiz-adv-x="1366" 
d="M1286 98q20 -25 -2 -43l-53 -53q-23 -23 -43 0l-164 178q-213 -199 -463 -198q-188 0 -318 104t-130 291q0 141 85 240.5t236 199.5q-176 199 -176 336q0 121 89 209t233 88q141 0 235 -89t94 -208q0 -106 -68.5 -190t-193.5 -172l379 -410q80 96 137 190q16 25 37 11
l70 -52q23 -16 4 -41q-86 -131 -156 -210zM406 1153q0 -96 145 -258q104 70 157.5 128t53.5 130q0 68 -53.5 112t-128.5 44q-74 0 -124 -44t-50 -112zM571 127q182 0 357 156l-398 428q-127 -86 -194.5 -161t-67.5 -169q0 -117 89 -185.5t214 -68.5z" />
    <glyph glyph-name="quotesingle" unicode="'" horiz-adv-x="327" 
d="M205 1434q31 0 31 -31l-13 -389q0 -31 -30 -31h-58q-31 0 -31 31l-12 389q0 31 31 31h82z" />
    <glyph glyph-name="parenleft" unicode="(" horiz-adv-x="600" 
d="M451 1526q39 0 22 -37q-188 -365 -188 -834q0 -498 188 -884q16 -37 -22 -37h-91q-25 0 -36 20q-201 352 -201 901q0 500 201 850q12 20 36 21h91z" />
    <glyph glyph-name="parenright" unicode=")" horiz-adv-x="600" 
d="M150 1526h90q25 0 36 -21q201 -350 201 -850q0 -549 -201 -901q-12 -20 -36 -20h-90q-39 0 -23 37q188 387 188 884q0 469 -188 834q-16 37 23 37z" />
    <glyph glyph-name="asterisk" unicode="*" horiz-adv-x="946" 
d="M518 1434l-4 -244h-82l-6 244h92zM197 1262l235 -72l-20 -78l-238 64zM750 1262l22 -86l-237 -64l-21 78zM412 1112l61 -53l-137 -199l-76 51zM535 1112l151 -201l-76 -51l-137 199z" />
    <glyph glyph-name="plus" unicode="+" horiz-adv-x="886" 
d="M723 647q31 0 31 -31v-69q0 -31 -31 -31h-213v-215q0 -31 -31 -31h-69q-31 0 -31 31v215h-215q-31 0 -31 31v69q0 31 31 31h215v213q0 31 31 31h69q31 0 31 -31v-213h213z" />
    <glyph glyph-name="comma" unicode="," horiz-adv-x="395" 
d="M195 170q45 0 76.5 -34t31.5 -99q0 -72 -41 -173.5t-108 -185.5l-50 35q76 115 86 256q-45 4 -71.5 32t-26.5 69q0 43 30 71.5t73 28.5z" />
    <glyph glyph-name="hyphen" unicode="-" horiz-adv-x="890" 
d="M748 645q31 0 30 -31v-71q0 -31 -30 -31h-605q-31 0 -30 31v71q0 31 30 31h605z" />
    <glyph glyph-name="period" unicode="." horiz-adv-x="380" 
d="M190.5 -27q-40.5 0 -69.5 29t-29 70t29 69.5t69.5 28.5t69.5 -28.5t29 -69.5t-29 -70t-69.5 -29z" />
    <glyph glyph-name="slash" unicode="/" horiz-adv-x="909" 
d="M840 1526q37 0 24 -35l-671 -1733q-8 -25 -37 -24h-86q-37 0 -25 35l672 1732q8 25 37 25h86z" />
    <glyph glyph-name="zero" unicode="0" horiz-adv-x="1277" 
d="M639 1450q246 0 391.5 -195.5t145.5 -543.5q0 -346 -145.5 -542t-391.5 -196t-391.5 196t-145.5 542q0 348 145.5 543.5t391.5 195.5zM639 1311q-180 0 -284.5 -160t-104.5 -440.5t104.5 -439t284.5 -158.5t284.5 158.5t104.5 439t-104.5 440.5t-284.5 160z" />
    <glyph glyph-name="one" unicode="1" horiz-adv-x="634" 
d="M471 1434q31 0 31 -31v-1372q0 -31 -31 -31h-92q-31 0 -31 31v1269h-219q-27 0 -27 31v72q0 31 27 31h342z" />
    <glyph glyph-name="two" unicode="2" horiz-adv-x="1071" 
d="M928 133q31 0 30 -31v-71q0 -31 -30 -31h-805q-31 0 -31 31v102l338 356q231 244 279 308q92 121 92 231q0 127 -78 204t-213 77q-76 0 -144.5 -31t-93 -52.5t-71.5 -68.5q-23 -23 -45 0l-54 51q-20 20 -2 43q168 199 410 199q199 0 318.5 -120t119.5 -302
q0 -94 -48 -189.5t-111.5 -170t-208.5 -226.5l-295 -309h643z" />
    <glyph glyph-name="three" unicode="3" horiz-adv-x="1075" 
d="M700 768q129 -47 206 -143.5t77 -229.5q0 -184 -137 -303t-346 -119q-252 0 -410 183q-18 23 2 43l51 47q23 23 45 0q133 -133 314 -133q150 0 242 78.5t92 207.5q0 137 -104.5 216t-268.5 83q-31 0 -31 31v66q0 33 31 32q150 4 233.5 76t83.5 178q0 104 -76.5 168
t-191.5 64q-156 0 -283 -137q-23 -23 -45 0l-49 47q-20 20 -2 43q160 184 381 184q168 0 288 -104.5t120 -262.5q0 -104 -59 -186t-163 -129z" />
    <glyph glyph-name="four" unicode="4" horiz-adv-x="1126" 
d="M1004 479q31 0 30 -30v-72q0 -31 -30 -31h-144v-315q0 -31 -31 -31h-92q-31 0 -30 31v315h-594q-31 0 -31 31v82q0 25 10 39l602 915q14 20 37 21h98q31 0 31 -31v-924h144zM707 479v707l-463 -707h463z" />
    <glyph glyph-name="five" unicode="5" horiz-adv-x="1095" 
d="M528 936q188 0 326.5 -134t138.5 -339q0 -219 -141 -353.5t-346 -134.5q-131 0 -236.5 55.5t-158.5 131.5q-18 27 6 43l59 49q27 18 45 -6q115 -133 287 -133q133 0 235.5 97t102.5 251q0 145 -103.5 240.5t-228.5 95.5q-168 0 -274 -127q-16 -23 -41 -10l-70 30
q-27 12 -20 39l176 676q6 27 32 27h562q31 0 30 -31v-70q0 -31 -30 -30h-484l-112 -441q93 74 245 74z" />
    <glyph glyph-name="six" unicode="6" horiz-adv-x="1085" 
d="M543 905q195 0 328 -134t133 -328.5t-133.5 -332t-328 -137.5t-327.5 137.5t-133 331.5q0 166 127 340l498 676q20 27 43 6l59 -51q23 -20 6 -43l-350 -471q37 6 78 6zM543 113q135 0 224 93t89 236q0 141 -89 233.5t-224 92.5t-224.5 -92t-89.5 -234q0 -143 89.5 -236
t224.5 -93z" />
    <glyph glyph-name="seven" unicode="7" horiz-adv-x="1046" 
d="M958 1434q14 0 22.5 -9.5t2.5 -21.5l-561 -1372q-14 -31 -37 -31h-92q-14 0 -22.5 9t-2.5 22l525 1269h-660q-31 0 -31 31v72q0 31 31 31h825z" />
    <glyph glyph-name="eight" unicode="8" horiz-adv-x="1101" 
d="M550.5 -27q-194.5 0 -326.5 119t-132 305q0 139 81 245t200 151q-94 47 -146.5 130t-52.5 177q0 141 105.5 245.5t271.5 104.5t271.5 -104.5t105.5 -245.5q0 -94 -52.5 -177t-146.5 -130q119 -45 200 -150.5t81 -245.5q0 -186 -132.5 -305t-327 -119zM551 864
q100 0 172 70t70 170q-2 92 -68 156.5t-174.5 64.5t-174 -64.5t-67.5 -156.5q-2 -100 70 -170t172 -70zM551 113q137 0 224 79.5t87 206.5q0 135 -90 220.5t-221 85.5t-221 -85t-90 -221q0 -125 87 -205.5t224 -80.5z" />
    <glyph glyph-name="nine" unicode="9" horiz-adv-x="1085" 
d="M542.5 1450q194.5 0 328 -137t133.5 -332q0 -166 -127 -340l-498 -676q-20 -27 -43 -6l-60 51q-23 20 -6 43l351 471q-37 -6 -78 -6q-195 0 -328 134t-133 329t133 332t327.5 137zM543 655q135 0 224 92.5t89 233.5q0 143 -89 236.5t-224 93.5t-224.5 -93.5t-89.5 -236.5
q0 -141 89.5 -233.5t224.5 -92.5z" />
    <glyph glyph-name="colon" unicode=":" horiz-adv-x="380" 
d="M190.5 817q-40.5 0 -69.5 28.5t-29 69.5t29 70t69.5 29t69.5 -29t29 -70t-29 -69.5t-69.5 -28.5zM190.5 -27q-40.5 0 -69.5 29t-29 70t29 69.5t69.5 28.5t69.5 -28.5t29 -69.5t-29 -70t-69.5 -29z" />
    <glyph glyph-name="semicolon" unicode=";" horiz-adv-x="382" 
d="M192.5 817q-40.5 0 -69.5 28.5t-29 69.5t29 70t69.5 29t69.5 -29t29 -70t-29 -69.5t-69.5 -28.5zM195 170q45 0 76.5 -34t31.5 -99q0 -72 -41 -173.5t-108 -185.5l-50 35q76 115 86 256q-45 4 -71.5 32t-26.5 69q0 43 30 71.5t73 28.5z" />
    <glyph glyph-name="less" unicode="&#x3c;" horiz-adv-x="1038" 
d="M899 985q14 8 25.5 1t11.5 -23v-74q0 -25 -23 -37l-651 -342l651 -342q23 -12 23 -37v-74q0 -16 -11.5 -22t-25.5 2l-754 401q-23 12 -22 37v72q0 25 22 37z" />
    <glyph glyph-name="equal" unicode="=" horiz-adv-x="927" 
d="M764 780q31 0 31 -30v-70q0 -31 -31 -31h-600q-31 0 -31 31v70q0 31 31 30h600zM764 516q31 0 31 -31v-69q0 -31 -31 -31h-600q-31 0 -31 31v69q0 31 31 31h600z" />
    <glyph glyph-name="greater" unicode="&#x3e;" horiz-adv-x="1079" 
d="M180 985l754 -401q23 -12 22 -37v-72q0 -25 -22 -37l-754 -401q-16 -8 -26.5 -2t-10.5 22v74q0 25 23 37l651 342l-651 342q-23 12 -23 37v74q0 16 10.5 23t26.5 -1z" />
    <glyph glyph-name="question" unicode="?" horiz-adv-x="1028" 
d="M506 1450q186 0 308 -104.5t122 -264.5q0 -143 -97.5 -244.5t-283.5 -181.5l-8 -237q0 -31 -31 -31h-67q-29 0 -29 31l-12 297q0 27 26 35q190 66 269 142.5t79 188.5q0 104 -76.5 163t-199.5 59q-170 0 -328 -142q-37 -33 -63 0l-29 35q-25 33 -2 61q68 86 184.5 139.5
t237.5 53.5zM485 170q41 0 70 -28.5t29 -69.5t-29 -70t-70 -29t-69.5 29t-28.5 70t28.5 69.5t69.5 28.5z" />
    <glyph glyph-name="at" unicode="@" horiz-adv-x="1701" 
d="M1237 1044l-45 -454q-14 -145 104 -146q152 0 152 291q0 272 -172 427t-418 155q-238 0 -421 -161t-183 -441q0 -143 53 -260t141.5 -188.5t194 -110.5t215.5 -39q184 0 322 94l98 -80q-188 -147 -420 -147q-193 0 -360.5 87t-276 257t-108.5 387q0 221 108.5 392
t276.5 257t360 86q301 0 516 -198.5t215 -516.5q0 -213 -93 -316.5t-220 -103.5q-139 0 -189 113q-102 -102 -256 -102q-164 0 -271 109.5t-107 269t107.5 269t270.5 109.5q178 0 285 -133l29 94h92zM831 451q111 0 181.5 73.5t70.5 180t-70.5 180t-181.5 73.5
q-113 0 -180 -72.5t-67 -181t67 -181t180 -72.5z" />
    <glyph glyph-name="A" unicode="A" horiz-adv-x="1351" 
d="M1268 35q14 -35 -25 -35h-98q-27 0 -35 25l-113 317h-643l-112 -317q-8 -25 -35 -25h-98q-39 0 -25 35l504 1374q10 25 37 25h102q27 0 37 -25zM401 473h549l-274 766z" />
    <glyph glyph-name="B" unicode="B" horiz-adv-x="1218" 
d="M827 776q139 -33 219 -129t80 -229q0 -203 -128 -310.5t-382 -107.5h-432q-31 0 -30 31v1372q0 31 30 31h437q211 0 313 -100.5t102 -241.5q0 -113 -53.5 -196t-155.5 -120zM881 1081q0 205 -275 205h-293v-450h293q129 0 202 64t73 181zM610 147q176 0 264.5 66
t88.5 211q0 272 -353 272h-297v-549h297z" />
    <glyph glyph-name="C" unicode="C" horiz-adv-x="1431" 
d="M1255 274l64 -63q23 -23 -2 -43q-227 -195 -483 -195q-303 0 -512 215t-209 523q0 309 208.5 524t512.5 215q256 0 483 -195q25 -20 2 -43l-64 -63q-20 -20 -43 0q-172 145 -378 145q-233 0 -396.5 -168t-163.5 -415q0 -246 163 -414t397 -168q207 0 378 145q23 20 43 0z
" />
    <glyph glyph-name="D" unicode="D" horiz-adv-x="1357" 
d="M506 1434q360 0 554.5 -200t194.5 -517.5t-194.5 -517t-554.5 -199.5h-322q-31 0 -30 31v1372q0 31 30 31h322zM506 147q289 0 438.5 149.5t149.5 420t-149.5 420t-438.5 149.5h-193v-1139h193z" />
    <glyph glyph-name="E" unicode="E" horiz-adv-x="1054" 
d="M891 147q31 0 31 -30v-86q0 -31 -31 -31h-707q-31 0 -30 31v1372q0 31 30 31h705q31 0 31 -31v-86q0 -31 -31 -31h-576v-452h541q31 0 31 -31v-86q0 -31 -31 -31h-541v-539h578z" />
    <glyph glyph-name="F" unicode="F" horiz-adv-x="1024" 
d="M870 1434q31 0 31 -31v-86q0 -31 -31 -31h-557v-452h531q31 0 30 -31v-86q0 -31 -30 -31h-531v-655q0 -31 -30 -31h-99q-31 0 -30 31v1372q0 31 30 31h686z" />
    <glyph glyph-name="G" unicode="G" horiz-adv-x="1599" 
d="M1466 743q31 0 31 -30v-64q0 -293 -180 -484.5t-481 -191.5q-309 0 -516 215t-207 529q0 305 208.5 519t512.5 214q256 0 483 -195q25 -20 2 -43l-64 -63q-20 -20 -43 0q-172 145 -378 145q-231 0 -395.5 -166.5t-164.5 -410.5q0 -252 162 -420t400 -168q217 0 360 131
t150 338h-488q-31 0 -31 31v84q0 31 31 30h608z" />
    <glyph glyph-name="H" unicode="H" horiz-adv-x="1296" 
d="M1112 1434q31 0 31 -31v-1372q0 -31 -31 -31h-98q-31 0 -31 31v608h-670v-608q0 -31 -30 -31h-99q-31 0 -30 31v1372q0 31 30 31h99q31 0 30 -31v-617h670v617q0 31 31 31h98z" />
    <glyph glyph-name="I" unicode="I" horiz-adv-x="466" 
d="M154 1403q0 31 30 31h99q31 0 30 -31v-1372q0 -31 -30 -31h-99q-31 0 -30 31v1372z" />
    <glyph glyph-name="J" unicode="J" horiz-adv-x="1030" 
d="M154 219q18 23 45 0q102 -88 235 -88q135 0 209 97.5t74 293.5v881q0 31 31 31h98q31 0 31 -31v-887q0 -272 -116 -403t-325 -131q-219 0 -334 131q-20 23 -2 43z" />
    <glyph glyph-name="K" unicode="K" horiz-adv-x="1239" 
d="M1151 37q10 -16 5 -26.5t-23 -10.5h-121q-25 0 -37 18l-522 699l-140 -154v-532q0 -31 -30 -31h-99q-31 0 -30 31v1372q0 31 30 31h99q31 0 30 -31v-625l574 639q14 16 37 17h129q20 0 25 -11.5t-9 -25.5l-514 -568z" />
    <glyph glyph-name="L" unicode="L" horiz-adv-x="993" 
d="M850 147q31 0 31 -30v-86q0 -31 -31 -31h-666q-31 0 -30 31v1372q0 31 30 31h99q31 0 30 -31v-1256h537z" />
    <glyph glyph-name="M" unicode="M" horiz-adv-x="1748" 
d="M1565 1434q31 0 30 -31v-1372q0 -31 -30 -31h-99q-31 0 -30 31v1118l-31 -76l-444 -1050q-8 -23 -35 -23h-103q-27 0 -35 23l-444 1050l-31 76v-1118q0 -31 -30 -31h-99q-31 0 -30 31v1372q0 31 30 31h133q29 0 37 -21l520 -1235l521 1235q8 20 37 21h133z" />
    <glyph glyph-name="N" unicode="N" horiz-adv-x="1363" 
d="M1180 1434q31 0 30 -31v-1372q0 -27 -24 -31h-137q-25 0 -37 20l-699 1184v-1173q0 -31 -30 -31h-99q-31 0 -30 31v1372q0 27 24 31h137q25 0 37 -21l699 -1184v1174q0 31 30 31h99z" />
    <glyph glyph-name="O" unicode="O" horiz-adv-x="1689" 
d="M846 -27q-305 0 -519 215t-214 523q0 309 214 524t519 215q303 0 517 -216t214 -523.5t-214 -522.5t-517 -215zM845.5 129q241.5 0 406.5 168t165 414q0 248 -165 415.5t-406 167.5q-244 0 -409 -168t-165 -415q0 -246 166 -414t407.5 -168z" />
    <glyph glyph-name="P" unicode="P" horiz-adv-x="1140" 
d="M569 1434q227 0 353.5 -124t126.5 -320.5t-126 -320.5t-354 -124h-256v-514q0 -31 -30 -31h-99q-31 0 -30 31v1372q0 31 30 31h385zM561 692q150 0 241 72t91 225.5t-91 225t-241 71.5h-248v-594h248z" />
    <glyph glyph-name="Q" unicode="Q" horiz-adv-x="1689" 
d="M1411 242l156 -156q23 -20 0 -43l-64 -63q-23 -23 -45 0l-155 155q-197 -162 -457 -162q-305 0 -519 215t-214 523q0 309 214 524t519 215q303 0 517 -216t214 -523q0 -268 -166 -469zM846 129q195 0 348 115l-190 190q-20 20 0 43l63 64q23 20 43 0l190 -189
q117 156 117 359q0 248 -165 415.5t-406 167.5q-244 0 -409 -168t-165 -415q0 -246 166 -414t408 -168z" />
    <glyph glyph-name="R" unicode="R" horiz-adv-x="1173" 
d="M1055 37q23 -37 -21 -37h-108q-25 0 -37 20l-348 525h-228v-514q0 -31 -30 -31h-99q-31 0 -30 31v1372q0 31 30 31h385q227 0 353.5 -124t126.5 -321q0 -164 -90.5 -280.5t-256.5 -151.5zM313 1286v-594h248q150 0 241 72t91 225.5t-91 225t-241 71.5h-248z" />
    <glyph glyph-name="S" unicode="S" horiz-adv-x="1126" 
d="M289 1083q0 -92 75.5 -155.5t183 -103.5t216 -88t184.5 -139t76 -226q0 -166 -136 -281t-331 -115q-147 0 -267 59.5t-181 158.5q-14 23 6 40l59 58q20 18 43 -4q164 -164 338 -164q139 0 225 73.5t86 182.5q0 94 -74.5 159.5t-182 107.5t-215 89t-182.5 135t-75 215
q0 158 118 261.5t296 103.5q115 0 222.5 -51t182.5 -142q18 -20 -2 -43l-51 -53q-23 -23 -43 -2q-145 145 -309 146q-115 0 -188.5 -60t-73.5 -162z" />
    <glyph glyph-name="T" unicode="T" horiz-adv-x="1097" 
d="M954 1434q31 0 31 -31v-86q0 -31 -31 -31h-325v-1255q0 -31 -31 -31h-98q-31 0 -31 31v1255h-326q-31 0 -30 31v86q0 31 30 31h811z" />
    <glyph glyph-name="U" unicode="U" horiz-adv-x="1314" 
d="M1141 1434q31 0 30 -31v-848q0 -279 -141 -430.5t-372.5 -151.5t-373 151.5t-141.5 430.5v848q0 31 31 31h98q31 0 31 -31v-848q0 -213 97.5 -322.5t257 -109.5t257 109.5t97.5 322.5v848q0 31 30 31h99z" />
    <glyph glyph-name="V" unicode="V" horiz-adv-x="1392" 
d="M1130 1409q8 25 35 25h99q39 0 24 -35l-504 -1374q-10 -25 -36 -25h-103q-27 0 -37 25l-504 1374q-14 35 25 35h98q27 0 35 -25l434 -1214z" />
    <glyph glyph-name="W" unicode="W" horiz-adv-x="2267" 
d="M2138 1434q35 0 25 -35l-447 -1374q-8 -25 -37 -25h-108q-31 0 -37 25l-401 1169l-404 -1169q-8 -25 -37 -25h-108q-31 0 -37 25l-443 1374q-14 35 25 35h98q27 0 35 -25l377 -1214l414 1214q4 12 12 18q6 6 20 7h93q10 0 18 -4q8 -6 14 -21l414 -1214l381 1214
q6 25 35 25h98z" />
    <glyph glyph-name="X" unicode="X" horiz-adv-x="1265" 
d="M1157 37q10 -16 4 -26.5t-24 -10.5h-105q-25 0 -37 20l-362 576l-363 -576q-12 -20 -37 -20h-104q-18 0 -24.5 10t4.5 27l438 696l-418 664q-10 16 -4 26.5t25 10.5h104q25 0 37 -21l342 -543l342 543q12 20 37 21h104q18 0 24.5 -10.5t-3.5 -26.5l-418 -664z" />
    <glyph glyph-name="Y" unicode="Y" horiz-adv-x="1224" 
d="M1096 1434q18 0 24 -10.5t-4 -26.5l-424 -703v-663q0 -31 -30 -31h-99q-31 0 -31 31v663l-423 703q-10 16 -4 26.5t24 10.5h104q25 0 37 -21l342 -569l342 569q12 20 37 21h105z" />
    <glyph glyph-name="Z" unicode="Z" horiz-adv-x="1191" 
d="M1038 147q31 0 31 -30v-86q0 -31 -31 -31h-884q-31 0 -31 31v96q0 18 12 37l748 1122h-709q-31 0 -31 31v86q0 31 31 31h844q31 0 31 -31v-96q0 -18 -13 -37l-747 -1123h749z" />
    <glyph glyph-name="bracketleft" unicode="[" horiz-adv-x="589" 
d="M436 1526q31 0 31 -31v-70q0 -31 -31 -30h-153v-1530h153q31 0 31 -31v-70q0 -31 -31 -30h-282q-31 0 -31 30v1731q0 31 31 31h282z" />
    <glyph glyph-name="backslash" unicode="\" horiz-adv-x="909" 
d="M70 1526h86q29 0 37 -25l671 -1732q12 -35 -24 -35h-86q-29 0 -37 24l-672 1733q-12 35 25 35z" />
    <glyph glyph-name="bracketright" unicode="]" horiz-adv-x="589" 
d="M154 1526h282q31 0 31 -31v-1731q0 -31 -31 -30h-282q-31 0 -31 30v70q0 31 31 31h153v1530h-153q-31 0 -31 30v70q0 31 31 31z" />
    <glyph glyph-name="asciicircum" unicode="^" horiz-adv-x="1202" 
d="M1075 657q8 -14 1 -25t-23 -11h-74q-25 0 -37 22l-342 651l-342 -651q-12 -23 -37 -22h-74q-16 0 -22 11t2 25l401 754q12 23 37 23h72q25 0 37 -23z" />
    <glyph glyph-name="underscore" unicode="_" horiz-adv-x="1269" 
d="M1116 0q31 0 31 -31v-71q0 -31 -31 -31h-962q-31 0 -31 31v71q0 31 31 31h962z" />
    <glyph glyph-name="grave" unicode="`" horiz-adv-x="366" 
d="M106 1491h68q25 0 35 -25l123 -258q16 -35 -25 -34h-67q-25 0 -35 24l-123 258q-17 35 24 35z" />
    <glyph glyph-name="a" unicode="a" 
d="M1073 1004q31 0 31 -31v-942q0 -31 -31 -31h-84q-27 0 -31 31l-10 129q-129 -174 -354 -174q-213 0 -352.5 149.5t-139.5 364.5q0 221 139.5 372.5t352.5 151.5q227 0 356 -184l8 133q4 31 31 31h84zM606 125q152 0 253.5 108.5t101.5 268.5t-101.5 271.5t-253.5 111.5
q-154 0 -255 -109.5t-101 -273.5q0 -160 101 -268.5t255 -108.5z" />
    <glyph glyph-name="b" unicode="b" 
d="M643 1024q213 0 352.5 -151.5t139.5 -372.5q0 -215 -139.5 -364.5t-352.5 -149.5q-225 0 -354 174l-10 -129q-4 -31 -31 -31h-84q-31 0 -31 31v1433q0 31 31 31h92q31 0 31 -31v-622q131 182 356 182zM631 125q154 0 255 108.5t101 268.5q0 164 -101.5 273.5
t-254.5 109.5q-152 0 -253.5 -111.5t-101.5 -271.5t101.5 -268.5t253.5 -108.5z" />
    <glyph glyph-name="c" unicode="c" horiz-adv-x="1095" 
d="M606 125q76 0 136.5 23.5t88 45t66.5 60.5q23 23 45 0l51 -47q20 -20 2 -43q-156 -178 -389 -178q-215 0 -359.5 149.5t-144.5 364.5q0 221 144.5 372.5t359.5 151.5q227 0 383 -178q18 -23 -2 -43l-51 -47q-20 -20 -45 0q-2 2 -22.5 20.5t-25.5 22.5t-25.5 20.5
t-32 21.5t-35 16t-43 15.5t-46 8.5t-55.5 4q-156 0 -256 -109.5t-100 -275.5q0 -158 100 -266.5t256 -108.5z" />
    <glyph glyph-name="d" unicode="d" 
d="M1073 1495q31 0 31 -31v-1433q0 -31 -31 -31h-84q-27 0 -31 31l-10 129q-129 -174 -354 -174q-213 0 -352.5 149.5t-139.5 364.5q0 221 139.5 372.5t352.5 151.5q225 0 356 -182v622q0 31 31 31h92zM606 125q152 0 253.5 108.5t101.5 268.5t-101.5 271.5t-253.5 111.5
q-154 0 -255 -109.5t-101 -273.5q0 -160 101 -268.5t255 -108.5z" />
    <glyph glyph-name="e" unicode="e" horiz-adv-x="1167" 
d="M594 1024q209 0 340 -142.5t131 -336.5q0 -57 -11.5 -80t-47.5 -23h-752q18 -141 118.5 -230t254.5 -89q160 0 274 96q25 20 43 4l39 -37q25 -25 2 -47q-147 -154 -375 -153q-221 0 -364.5 150.5t-143.5 369.5t139.5 368.5t352.5 149.5zM594 887q-139 0 -232.5 -91
t-109.5 -235h678q-8 139 -101.5 232.5t-234.5 93.5z" />
    <glyph glyph-name="f" unicode="f" horiz-adv-x="751" 
d="M756 1397q10 -12 -2 -25l-54 -53q-12 -12 -26 -4q-4 2 -18.5 11t-18.5 11t-16.5 9.5t-18.5 9.5t-17.5 6t-19.5 6t-18 3t-23 1q-78 0 -108.5 -36t-30.5 -109v-223h201q31 0 30 -31v-70q0 -31 -30 -31h-201v-841q0 -31 -31 -31h-92q-31 0 -31 31v841h-118q-31 0 -31 31v70
q0 31 31 31h118v231q0 272 287 272q148 1 238 -110z" />
    <glyph glyph-name="g" unicode="g" horiz-adv-x="1234" 
d="M1071 1004q31 0 31 -31v-953q0 -111 -46 -196.5t-122 -133.5t-162 -72t-178 -24q-227 0 -383 99q-25 14 -10 43l28 53q12 27 41 12q147 -72 314 -71q150 0 259 70.5t109 215.5v164q-129 -184 -358 -184q-213 0 -352.5 149.5t-139.5 364.5t139.5 364.5t352.5 149.5
q225 0 354 -180l8 129q4 31 31 31h84zM606 135q152 0 253.5 111.5t101.5 265.5q0 152 -101.5 262.5t-253.5 110.5q-154 0 -255 -107.5t-101 -265.5q0 -160 101 -268.5t255 -108.5z" />
    <glyph glyph-name="h" unicode="h" horiz-adv-x="1112" 
d="M627 1026q164 0 258 -101.5t94 -297.5v-596q0 -31 -31 -31h-92q-31 0 -31 31v585q0 131 -61.5 202t-169.5 71q-129 0 -218 -93.5t-89 -144.5v-620q0 -31 -31 -31h-92q-31 0 -31 31v1433q0 31 31 31h92q31 0 31 -31v-633q133 195 340 195z" />
    <glyph glyph-name="i" unicode="i" horiz-adv-x="460" 
d="M231 1243q-43 0 -70.5 28.5t-27.5 69.5t27.5 70t70.5 29q41 0 69 -29t28 -70t-28 -69.5t-69 -28.5zM154 973q0 31 30 31h92q31 0 31 -31v-942q0 -31 -31 -31h-92q-31 0 -30 31v942z" />
    <glyph glyph-name="j" unicode="j" horiz-adv-x="577" 
d="M346 1243q-41 0 -69.5 28.5t-28.5 69.5t28.5 70t69.5 29t69.5 -29t28.5 -70t-28.5 -69.5t-69.5 -28.5zM301 1004h92q31 0 31 -31v-963q0 -205 -87 -307t-245 -109q-18 0 -22 19l-27 96q-8 23 16 23q109 8 160 76.5t51 211.5v953q0 31 31 31z" />
    <glyph glyph-name="k" unicode="k" horiz-adv-x="1067" 
d="M997 37q12 -16 6 -26.5t-24 -10.5h-102q-25 0 -37 18l-365 465l-188 -196v-256q0 -31 -31 -31h-92q-31 0 -31 31v1433q0 31 31 31h92q31 0 31 -31v-997l493 520q14 16 39 17h105q20 0 25 -10.5t-9 -26.5l-371 -387z" />
    <glyph glyph-name="l" unicode="l" horiz-adv-x="419" 
d="M133 1464q0 31 31 31h92q31 0 31 -31v-1433q0 -31 -31 -31h-92q-31 0 -31 31v1433z" />
    <glyph glyph-name="m" unicode="m" horiz-adv-x="1804" 
d="M1317 1026q164 0 259 -101.5t95 -297.5v-596q0 -31 -31 -31h-92q-31 0 -30 31v585q0 131 -61.5 202t-170.5 71q-147 0 -227 -89t-80 -179v-590q0 -31 -31 -31h-92q-31 0 -31 31v585q0 131 -61.5 202t-169.5 71q-129 0 -218 -93.5t-89 -144.5v-620q0 -31 -31 -31h-92
q-31 0 -31 31v942q0 31 31 31h84q27 0 31 -31l8 -142q133 195 340 195q240 0 319 -205q125 205 371 205z" />
    <glyph glyph-name="n" unicode="n" horiz-adv-x="1112" 
d="M627 1026q164 0 258 -101.5t94 -297.5v-596q0 -31 -31 -31h-92q-31 0 -31 31v585q0 131 -61.5 202t-169.5 71q-129 0 -218 -93.5t-89 -144.5v-620q0 -31 -31 -31h-92q-31 0 -31 31v942q0 31 31 31h84q27 0 31 -31l8 -142q133 195 340 195z" />
    <glyph glyph-name="o" unicode="o" horiz-adv-x="1220" 
d="M610 -20q-215 0 -361.5 151.5t-146.5 370.5q0 221 146.5 372.5t361.5 151.5t361.5 -151.5t146.5 -372.5q0 -219 -146.5 -370.5t-361.5 -151.5zM610.5 119q153.5 0 257 108.5t103.5 274.5t-103.5 275.5t-257 109.5t-257 -109.5t-103.5 -275.5t103.5 -274.5t257 -108.5z
" />
    <glyph glyph-name="p" unicode="p" 
d="M643 1024q213 0 352.5 -151.5t139.5 -372.5q0 -215 -139.5 -364.5t-352.5 -149.5q-225 0 -354 174l-2 -19v-499q0 -31 -31 -31h-92q-31 0 -31 31v1331q0 31 31 31h84q27 0 31 -31l8 -133q129 184 356 184zM631 125q154 0 255 108.5t101 268.5q0 164 -101.5 273.5
t-254.5 109.5q-152 0 -253.5 -111.5t-101.5 -271.5t101.5 -268.5t253.5 -108.5z" />
    <glyph glyph-name="q" unicode="q" 
d="M1073 1004q31 0 31 -31v-1331q0 -31 -31 -31h-92q-31 0 -31 31v499l-2 19q-129 -174 -354 -174q-213 0 -352.5 149.5t-139.5 364.5q0 221 139.5 372.5t352.5 151.5q227 0 356 -184l8 133q4 31 31 31h84zM606 125q152 0 253.5 108.5t101.5 268.5t-101.5 271.5
t-253.5 111.5q-154 0 -255 -109.5t-101 -273.5q0 -160 101 -268.5t255 -108.5z" />
    <glyph glyph-name="r" unicode="r" horiz-adv-x="704" 
d="M653 993q16 -10 6 -32l-32 -72q-10 -20 -37 -15q-45 10 -80 11q-94 0 -158.5 -63.5t-64.5 -159.5v-631q0 -31 -31 -31h-92q-31 0 -31 31v942q0 31 31 31h82q27 0 30 -31l9 -88q92 141 247 141q76 0 121 -33z" />
    <glyph glyph-name="s" unicode="s" horiz-adv-x="913" 
d="M268 752q0 -61 57.5 -102.5t138.5 -68t162 -58t138 -98.5t57 -165q0 -123 -104.5 -201.5t-241.5 -78.5q-117 0 -215 48t-158 119q-18 20 -2 39l45 56q16 20 43 -2q135 -125 283 -125q90 0 145.5 39t55.5 108q0 66 -56.5 110t-137.5 71.5t-163 59.5t-138 94t-56 155
q0 119 93 196.5t230 77.5q84 0 172.5 -40t149.5 -112q16 -18 -2 -43l-35 -45q-16 -23 -45 2q-123 106 -240 107q-68 0 -122 -34.5t-54 -108.5z" />
    <glyph glyph-name="t" unicode="t" horiz-adv-x="706" 
d="M594 1004q31 0 31 -31v-70q0 -31 -31 -31h-164v-841q0 -31 -31 -31h-92q-31 0 -31 31v841h-163q-31 0 -31 31v70q0 31 31 31h163v276q0 31 31 31h92q31 0 31 -31v-276h164z" />
    <glyph glyph-name="u" unicode="u" horiz-adv-x="1101" 
d="M938 1004q31 0 31 -31v-942q0 -31 -31 -31h-84q-27 0 -31 31l-8 123q-123 -180 -321 -181q-176 0 -273.5 102.5t-97.5 301.5v596q0 31 31 31h92q31 0 30 -31v-586q0 -133 63.5 -205.5t176.5 -72.5q127 0 213 91t86 156v617q0 31 31 31h92z" />
    <glyph glyph-name="v" unicode="v" horiz-adv-x="1097" 
d="M856 979q10 25 37 25h94q37 0 25 -35l-375 -944q-10 -25 -37 -25h-102q-27 0 -37 25l-375 944q-12 35 25 35h94q29 0 37 -25l307 -805z" />
    <glyph glyph-name="w" unicode="w" horiz-adv-x="1828" 
d="M1718 1004q37 0 25 -35l-357 -944q-10 -25 -36 -25h-101q-29 0 -37 25l-297 776l-299 -776q-10 -25 -36 -25h-101q-29 0 -37 25l-356 944q-12 35 25 35h90q29 0 37 -25l294 -809l306 809q6 18 20 20q8 4 16 5h80q8 0 17 -5q14 -2 20 -20l305 -809l295 809q10 25 37 25h90
z" />
    <glyph glyph-name="x" unicode="x" horiz-adv-x="999" 
d="M899 37q10 -16 4 -26.5t-24 -10.5h-105q-25 0 -37 20l-237 371l-238 -371q-14 -20 -37 -20h-104q-18 0 -24.5 10t3.5 27l320 475l-305 455q-10 16 -4 26.5t24 10.5h105q23 0 36 -21l224 -348l223 348q12 20 37 21h104q18 0 24.5 -10.5t-3.5 -26.5l-307 -455z" />
    <glyph glyph-name="y" unicode="y" horiz-adv-x="1099" 
d="M989 1004q37 0 25 -35l-529 -1334q-10 -25 -36 -24h-95q-37 0 -24 35l141 350l-385 973q-12 35 25 35h94q29 0 37 -25l307 -805l307 805q10 25 37 25h96z" />
    <glyph glyph-name="z" unicode="z" horiz-adv-x="993" 
d="M901 973v-78q0 -25 -14 -39l-615 -725h598q31 0 31 -31v-69q0 -31 -31 -31h-747q-31 0 -31 31v78q0 25 14 38l615 725h-598q-31 0 -31 31v70q0 31 31 31h747q31 0 31 -31z" />
    <glyph glyph-name="braceleft" unicode="{" horiz-adv-x="634" 
d="M481 1526q31 0 31 -31v-72q0 -31 -31 -30h-41q-33 0 -52 -19.5t-19 -52.5v-535q0 -18 -11 -38l-59 -101q-10 -23 0 -41l59 -96q10 -18 11 -39v-532q0 -33 19.5 -52.5t51.5 -19.5h41q31 0 31 -31v-72q0 -31 -31 -30h-123q-66 0 -107.5 43t-41.5 110v574q0 23 -10 39
l-68 106q-12 23 -2 41l70 111q10 18 10 39v575q0 68 42 111t107 43h123z" />
    <glyph glyph-name="bar" unicode="|" horiz-adv-x="466" 
d="M154 1608q0 31 30 30h99q31 0 30 -30v-1966q0 -31 -30 -31h-99q-31 0 -30 31v1966z" />
    <glyph glyph-name="braceright" unicode="}" horiz-adv-x="583" 
d="M102 1526h123q66 0 108 -43t42 -111v-575q0 -20 10 -39l70 -111q10 -18 -2 -41l-68 -106q-10 -16 -10 -39v-574q0 -68 -42 -110.5t-108 -42.5h-123q-31 0 -30 30v72q0 31 30 31h41q33 0 52.5 19.5t19.5 52.5v532q0 20 10 39l60 96q10 18 0 41l-60 101q-10 20 -10 38v535
q0 33 -19.5 52.5t-52.5 19.5h-41q-31 0 -30 30v72q-1 31 30 31z" />
    <glyph glyph-name="asciitilde" unicode="~" horiz-adv-x="927" 
d="M311 717q84 2 173 -74t143 -76q68 2 96 72q6 20 25 18h34q10 2 17.5 -4t5.5 -18q-14 -82 -63.5 -126t-118.5 -44q-55 0 -102.5 23.5t-76 51t-66.5 50t-77 22.5q-74 2 -96 -69q-8 -18 -25 -21h-37q-23 4 -20 29q10 82 61 125t127 41z" />
    <glyph glyph-name="exclamdown" unicode="&#xa1;" horiz-adv-x="380" 
d="M252 1092q41 0 69.5 -29t28.5 -70t-28.5 -69.5t-69.5 -28.5t-69.5 28.5t-28.5 69.5t28.5 70t69.5 29zM344 -287q2 -41 -26.5 -69.5t-65.5 -28.5t-65.5 28.5t-26.5 69.5l47 932q0 31 33 31h24q33 0 33 -31z" />
    <glyph glyph-name="cent" unicode="&#xa2;" horiz-adv-x="1095" 
d="M993 356q20 -20 2 -43q-143 -160 -354 -172v-192q0 -31 -31 -31h-57q-31 0 -31 31v196q-184 29 -302 169.5t-118 328.5q0 195 118 337t302 171v252q0 31 31 31h57q31 0 31 -31v-248q205 -12 348 -172q18 -23 -2 -43l-51 -45q-20 -20 -45 0q-4 4 -23.5 20.5t-28 23.5
t-27.5 21.5t-34.5 21.5t-38 16.5t-47 13.5t-51.5 6v-739q63 4 116.5 26.5t78 42t61.5 55.5q23 20 45 0zM250 643q0 -133 74.5 -231.5t197.5 -126.5v725q-123 -29 -197.5 -129.5t-74.5 -237.5z" />
    <glyph glyph-name="sterling" unicode="&#xa3;" horiz-adv-x="1124" 
d="M573 1294q-102 0 -175.5 -66.5t-73.5 -178.5q0 -55 13 -100.5t45 -112t44 -95.5h469q31 0 31 -30v-86q0 -31 -31 -31h-428q10 -61 10 -127q0 -186 -143 -320h622q31 0 31 -30v-86q0 -31 -31 -31h-802q-31 0 -31 31v116q76 43 141.5 128t65.5 196q0 72 -15 123h-161
q-31 0 -31 31v86q0 31 31 30h108q-2 6 -8 17q-84 166 -84 297q0 166 119 280.5t284 114.5q246 0 416 -213q23 -29 -2 -61l-29 -35q-27 -33 -63 0q-92 84 -160 118.5t-162 34.5z" />
    <glyph glyph-name="currency" unicode="&#xa4;" horiz-adv-x="1191" 
d="M1055 975q0 -152 -92 -277l96 -96l-88 -86l-94 94q-123 -94 -281 -94t-281 94l-94 -94l-88 86l96 96q-92 125 -92 277q0 154 92 278l-96 97l88 86l96 -97q123 94 279 94.5t278 -94.5l97 97l88 -86l-96 -97q92 -124 92 -278zM236 975q0 -147 107.5 -254t252.5 -107
q147 0 254.5 106.5t107.5 254.5q0 145 -108.5 252.5t-253.5 107.5t-252.5 -107.5t-107.5 -252.5z" />
    <glyph glyph-name="yen" unicode="&#xa5;" horiz-adv-x="1224" 
d="M1116 1397l-424 -703v-20h170q31 0 31 -31v-70q0 -31 -31 -30h-170v-88h170q31 0 31 -31v-70q0 -31 -31 -30h-170v-293q0 -31 -30 -31h-99q-31 0 -31 31v293h-188q-31 0 -31 30v70q0 31 31 31h188v88h-188q-31 0 -31 30v70q0 31 31 31h188v20l-423 703q-10 16 -4 26.5
t24 10.5h104q25 0 37 -21l342 -569l342 569q12 20 37 21h105q18 0 24 -10.5t-4 -26.5z" />
    <glyph glyph-name="brokenbar" unicode="&#xa6;" horiz-adv-x="466" 
d="M283 1638q31 0 30 -30v-574q0 -31 -30 -30h-99q-31 0 -30 30v574q0 31 30 30h99zM283 246q31 0 30 -31v-573q0 -31 -30 -31h-99q-31 0 -30 31v573q0 31 30 31h99z" />
    <glyph glyph-name="section" unicode="&#xa7;" horiz-adv-x="1363" 
d="M1262 559q0 -205 -187 -313q-31 -139 -161 -221t-302 -82q-158 0 -286.5 66.5t-210.5 168.5q-23 29 -2 55l39 50q27 31 61 -4q92 -92 182 -138.5t223 -46.5q141 0 225.5 64.5t84.5 181.5q0 96 -81 159.5t-196.5 103.5t-231.5 85t-197 133t-81 219q0 205 185 308
q29 131 146.5 210.5t285.5 79.5q125 0 241.5 -54t200.5 -159q25 -29 -2 -61l-29 -35q-27 -33 -63 0q-94 88 -168 125t-180 37q-131 0 -209 -58.5t-78 -162.5q0 -94 82 -156.5t197.5 -102.5t231.5 -87t198 -138.5t82 -226.5zM1069 442q35 53 35 127q0 88 -68.5 149.5
t-172 99.5t-211 76t-197.5 105.5t-121 163.5q-39 -55 -39 -123q0 -86 68.5 -146t172 -98t211 -77t199.5 -109t123 -168z" />
    <glyph glyph-name="dieresis" unicode="&#xa8;" horiz-adv-x="616" 
d="M121 1266q-37 0 -63.5 26.5t-26.5 63.5q0 35 26.5 61.5t63.5 26.5t63.5 -26.5t26.5 -61.5q0 -37 -26.5 -63.5t-63.5 -26.5zM495.5 1266q-36.5 0 -63 26.5t-26.5 63.5q0 35 26.5 61.5t63 26.5t63.5 -26.5t27 -61.5q0 -37 -27 -63.5t-63.5 -26.5z" />
    <glyph glyph-name="copyright" unicode="&#xa9;" horiz-adv-x="1396" 
d="M698.5 279q-243.5 0 -414.5 172t-171 413.5t171 413.5t414.5 172t414.5 -172t171 -413.5t-171 -413.5t-414.5 -172zM698.5 397q192.5 0 326.5 136.5t134 331t-134 330.5t-326.5 136t-327.5 -136t-135 -330.5t135 -331t327.5 -136.5zM905 639q23 -23 0 -43
q-82 -70 -198 -70q-139 0 -235.5 97.5t-96.5 241t96 240.5t236 97q117 0 198 -69q23 -20 0 -43l-28 -29q-18 -18 -43 -2q-59 37 -125 37q-96 0 -161 -66.5t-65 -165t64.5 -165t161.5 -66.5q66 0 125 37q25 16 43 -2z" />
    <glyph glyph-name="ordfeminine" unicode="&#xaa;" horiz-adv-x="942" 
d="M741 1434h99v-736h-99l-20 101q-94 -100 -246 -101q-156 0 -264.5 108.5t-108.5 264.5t108.5 264.5t264.5 108.5q154 0 246 -103zM475.5 813q106.5 0 182 75t75.5 183.5t-75.5 183t-182 74.5t-182.5 -74.5t-76 -183t76 -183.5t182.5 -75z" />
    <glyph glyph-name="guillemotleft" unicode="&#xab;" horiz-adv-x="745" 
d="M92 645q0 23 17 37l204 178q14 12 25.5 8t11.5 -24v-62q0 -23 -16 -37l-170 -147l170 -147q16 -14 16 -37v-62q0 -20 -11 -24t-26 8l-204 178q-16 14 -17 37v94zM395 645q0 23 17 37l204 178q14 12 25.5 8t11.5 -24v-62q0 -23 -16 -37l-170 -147l170 -147q16 -14 16 -37
v-62q0 -20 -11 -24t-26 8l-204 178q-16 14 -17 37v94z" />
    <glyph glyph-name="logicalnot" unicode="&#xac;" horiz-adv-x="1034" 
d="M881 618q31 0 30 -30v-254q0 -31 -30 -31h-93q-31 0 -30 31v153h-604q-31 0 -31 31v70q0 31 31 30h727z" />
    <glyph glyph-name="uni00AD" unicode="&#xad;" horiz-adv-x="890" 
d="M748 645q31 0 30 -31v-71q0 -31 -30 -31h-605q-31 0 -30 31v71q0 31 30 31h605z" />
    <glyph glyph-name="registered" unicode="&#xae;" horiz-adv-x="1396" 
d="M698.5 1450q243.5 0 414.5 -172t171 -413.5t-171 -413.5t-414.5 -172t-414.5 172t-171 413.5t171 413.5t414.5 172zM698.5 397q192.5 0 326.5 136.5t134 331t-134 330.5t-326.5 136t-327.5 -136t-135 -330.5t135 -331t327.5 -136.5zM981 969q0 -78 -47 -128t-135 -63
l172 -190q8 -10 5 -17.5t-18 -7.5h-86q-12 0 -22 12l-176 199h-125v-192q0 -18 -19 -19h-69q-18 0 -19 19v567q0 18 19 18h278q115 0 178.5 -53t63.5 -145zM741 872q68 0 102 28t34 69q0 98 -136 98h-192v-195h192z" />
    <glyph glyph-name="macron" unicode="&#xaf;" horiz-adv-x="679" 
d="M618 1434q31 0 31 -31v-66q0 -31 -31 -30h-557q-31 0 -30 30v66q0 31 30 31h557z" />
    <glyph glyph-name="degree" unicode="&#xb0;" horiz-adv-x="843" 
d="M422 1473q125 0 212 -87.5t87 -209.5q0 -125 -87 -213.5t-212 -88.5t-212 88.5t-87 213.5q0 123 87 210t212 87zM422 1364q-80 0 -134.5 -54.5t-54.5 -133.5q0 -82 55.5 -136.5t133.5 -54.5t133 54.5t55 136.5q0 80 -54 134t-134 54z" />
    <glyph glyph-name="plusminus" unicode="&#xb1;" horiz-adv-x="927" 
d="M184 496q-31 0 -30 30v70q0 31 30 31h215v213q0 31 31 30h70q31 0 30 -30v-213h213q31 0 31 -31v-70q0 -31 -31 -30h-213v-215q0 -31 -30 -31h-70q-31 0 -31 31v215h-215zM764 131q31 0 31 -31v-69q0 -31 -31 -31h-600q-31 0 -31 31v69q0 31 31 31h600z" />
    <glyph glyph-name="uni00B2" unicode="&#xb2;" horiz-adv-x="555" 
d="M264 1442q70 0 121 -46t51 -108q0 -53 -29.5 -96t-109.5 -125l-96 -100h241v-66h-344v66l140 141q57 59 74.5 78.5t31.5 46.5t14 55q0 37 -28.5 63.5t-65.5 26.5q-39 0 -67.5 -26.5t-28.5 -75.5v-29h-76v29q0 72 50 119t122 47z" />
    <glyph glyph-name="uni00B3" unicode="&#xb3;" horiz-adv-x="548" 
d="M268 1440q66 0 115 -42t49 -98q0 -66 -61 -108q86 -37 86 -135q0 -70 -56.5 -117t-132.5 -47q-82 0 -136 55.5t-50 130.5h78q0 -49 29.5 -85t78.5 -36q45 0 78 28t33 71q0 98 -152 98v59q129 0 129 86q0 33 -25.5 54.5t-62.5 21.5q-45 0 -70.5 -29.5t-25.5 -82.5h-76
q-2 78 47 127t125 49z" />
    <glyph glyph-name="acute" unicode="&#xb4;" horiz-adv-x="319" 
d="M260 1491q41 0 25 -35l-123 -258q-10 -25 -35 -24h-68q-41 0 -24 34l123 258q10 25 35 25h67z" />
    <glyph glyph-name="uni00B5" unicode="&#xb5;" horiz-adv-x="1112" 
d="M948 1004q31 0 31 -31v-942q0 -31 -31 -31h-84q-27 0 -30 31l-9 123q-123 -180 -321 -181q-139 0 -228 64v-395q0 -31 -30 -31h-92q-31 0 -31 31v1013h10v318q0 31 31 31h92q31 0 31 -31v-586q0 -133 63.5 -205.5t175.5 -72.5q127 0 213 91t86 156v617q0 31 31 31h92z
" />
    <glyph glyph-name="paragraph" unicode="&#xb6;" horiz-adv-x="1478" 
d="M592 1434h385q31 0 31 -31v-1372q0 -31 -31 -31h-98q-31 0 -31 31v514h-256q-227 0 -353 124t-126 320.5t126 320.5t353 124zM1165 1403q0 31 31 31h98q31 0 31 -31v-1372q0 -31 -31 -31h-98q-31 0 -31 31v1372zM600 692h248v594h-248q-150 0 -241 -71.5t-91 -225
t91 -225.5t241 -72z" />
    <glyph glyph-name="periodcentered" unicode="&#xb7;" horiz-adv-x="380" 
d="M190.5 483q-40.5 0 -69.5 29t-29 70t29 69.5t69.5 28.5t69.5 -28.5t29 -69.5t-29 -70t-69.5 -29z" />
    <glyph glyph-name="cedilla" unicode="&#xb8;" horiz-adv-x="389" 
d="M193 -80q70 -4 117.5 -47t47.5 -111q0 -117 -93 -164t-216 -30q-18 2 -18 22v58q0 20 22 20q84 -10 133.5 12.5t49.5 71.5q0 45 -53.5 64.5t-127.5 -4.5q-25 -10 -24 14v53q0 10 10 25l90 96h139z" />
    <glyph glyph-name="uni00B9" unicode="&#xb9;" horiz-adv-x="366" 
d="M233 1436v-535h-75v461h-56v74h131z" />
    <glyph glyph-name="ordmasculine" unicode="&#xba;" horiz-adv-x="950" 
d="M475 698q-156 0 -264.5 108.5t-108.5 264.5t108.5 264.5t264.5 108.5t264.5 -108.5t108.5 -264.5t-108.5 -264.5t-264.5 -108.5zM475.5 813q106.5 0 182 75t75.5 183.5t-75.5 183t-182 74.5t-182.5 -74.5t-76 -183t76 -183.5t182.5 -75z" />
    <glyph glyph-name="guillemotright" unicode="&#xbb;" horiz-adv-x="745" 
d="M350 645v-94q0 -23 -16 -37l-205 -178q-14 -12 -25.5 -8t-11.5 24v62q0 23 17 37l170 147l-170 147q-16 14 -17 37v62q0 20 11.5 24t25.5 -8l205 -178q16 -14 16 -37zM653 645v-94q0 -23 -16 -37l-205 -178q-14 -12 -25.5 -8t-11.5 24v62q0 23 17 37l170 147l-170 147
q-16 14 -17 37v62q0 20 11.5 24t25.5 -8l205 -178q16 -14 16 -37z" />
    <glyph glyph-name="onequarter" unicode="&#xbc;" horiz-adv-x="1220" 
d="M213 1436v-535h-76v461h-55v74h131zM1075 1434l-880 -1434h-99l893 1434h86zM1083 535v-316h56v-63h-56v-156h-75v156h-271l271 379h75zM1008 424l-144 -205h144v205z" />
    <glyph glyph-name="onehalf" unicode="&#xbd;" horiz-adv-x="1169" 
d="M213 1436v-535h-76v461h-55v74h131zM1075 1434l-880 -1434h-99l893 1434h86zM909 541q70 0 121 -46t51 -108q0 -53 -29.5 -96t-109.5 -125l-96 -100h241v-66h-344v66l140 141q57 59 74.5 78.5t32 46t14.5 55.5q0 37 -29 63.5t-66 26.5q-39 0 -67.5 -26.5t-28.5 -75.5v-29
h-76v29q0 72 50 119t122 47z" />
    <glyph glyph-name="threequarters" unicode="&#xbe;" horiz-adv-x="1263" 
d="M268 1440q66 0 115 -42t49 -98q0 -66 -61 -108q86 -37 86 -135q0 -70 -56.5 -117t-132.5 -47q-82 0 -136 55.5t-50 130.5h78q0 -49 29.5 -85t78.5 -36q45 0 78 28t33 71q0 98 -152 98v59q129 0 129 86q0 33 -25.5 54.5t-62.5 21.5q-45 0 -70.5 -29.5t-25.5 -82.5h-76
q-2 78 47 127t125 49zM1139 1434l-881 -1434h-98l893 1434h86zM1126 535v-316h56v-63h-56v-156h-75v156h-271l271 379h75zM1051 424l-144 -205h144v205z" />
    <glyph glyph-name="questiondown" unicode="&#xbf;" horiz-adv-x="1028" 
d="M543 895q-41 0 -70 28.5t-29 69.5t29 70t70 29t69.5 -29t28.5 -70t-28.5 -69.5t-69.5 -28.5zM942 -131q25 -33 2 -62q-68 -86 -184.5 -139t-237.5 -53q-186 0 -308 104.5t-122 264.5q0 143 97.5 244.5t283.5 181.5l8 237q0 31 31 31h68q29 0 28 -31l13 -297
q0 -27 -27 -35q-190 -66 -269 -142.5t-79 -188.5q0 -104 76.5 -163t199.5 -59q170 0 328 142q37 33 63 0z" />
    <glyph glyph-name="Agrave" unicode="&#xc0;" horiz-adv-x="1351" 
d="M598 1567l-123 258q-16 35 25 35h67q25 0 35 -25l123 -258q16 -35 -25 -35h-67q-25 0 -35 25zM1268 35q14 -35 -25 -35h-98q-27 0 -35 25l-113 317h-643l-112 -317q-8 -25 -35 -25h-98q-39 0 -25 35l504 1374q10 25 37 25h102q27 0 37 -25zM401 473h549l-274 766z" />
    <glyph glyph-name="Aacute" unicode="&#xc1;" horiz-adv-x="1351" 
d="M657 1542q-41 0 -24 35l123 258q10 25 35 25h67q41 0 25 -35l-123 -258q-10 -25 -35 -25h-68zM1268 35q14 -35 -25 -35h-98q-27 0 -35 25l-113 317h-643l-112 -317q-8 -25 -35 -25h-98q-39 0 -25 35l504 1374q10 25 37 25h102q27 0 37 -25zM401 473h549l-274 766z" />
    <glyph glyph-name="Acircumflex" unicode="&#xc2;" horiz-adv-x="1351" 
d="M440 1602q-20 0 -24 10t8 26l178 205q14 16 37 17h94q23 0 37 -17l178 -205q12 -16 8 -26t-24 -10h-62q-23 0 -36 16l-148 170l-147 -170q-14 -16 -37 -16h-62zM1268 35q14 -35 -25 -35h-98q-27 0 -35 25l-113 317h-643l-112 -317q-8 -25 -35 -25h-98q-39 0 -25 35
l504 1374q10 25 37 25h102q27 0 37 -25zM401 473h549l-274 766z" />
    <glyph glyph-name="Atilde" unicode="&#xc3;" horiz-adv-x="1351" 
d="M397 1720q-20 0 -18 25q8 74 55 112.5t117 38.5q76 0 156.5 -67.5t130.5 -67.5q63 0 86 64q6 18 22 18h33q20 0 20 -20q-8 -74 -55 -115t-110 -41q-80 0 -162 67.5t-131 67.5q-66 0 -88 -63q-6 -18 -23 -19h-33zM1268 35q14 -35 -25 -35h-98q-27 0 -35 25l-113 317h-643
l-112 -317q-8 -25 -35 -25h-98q-39 0 -25 35l504 1374q10 25 37 25h102q27 0 37 -25zM401 473h549l-274 766z" />
    <glyph glyph-name="Adieresis" unicode="&#xc4;" horiz-adv-x="1351" 
d="M500 1696q-37 0 -63.5 26.5t-26.5 63.5q0 35 26.5 61.5t63.5 26.5t63.5 -26.5t26.5 -61.5q0 -37 -26.5 -63.5t-63.5 -26.5zM874.5 1696q-36.5 0 -63.5 26.5t-27 63.5q0 35 27 61.5t63.5 26.5t63.5 -26.5t27 -61.5q0 -37 -27 -63.5t-63.5 -26.5zM1268 35q14 -35 -25 -35
h-98q-27 0 -35 25l-113 317h-643l-112 -317q-8 -25 -35 -25h-98q-39 0 -25 35l504 1374q10 25 37 25h102q27 0 37 -25zM401 473h549l-274 766z" />
    <glyph glyph-name="Aring" unicode="&#xc5;" horiz-adv-x="1351" 
d="M688 1579q-70 0 -118 47t-48 114.5t48 115t118 47.5q66 0 114 -48.5t48 -114t-48 -113.5t-114 -48zM688 1796q-25 0 -41 -16.5t-16 -39t16.5 -38.5t40.5 -16q23 0 39 16t16 38.5t-16 39t-39 16.5zM1268 35q14 -35 -25 -35h-98q-27 0 -35 25l-113 317h-643l-112 -317
q-8 -25 -35 -25h-98q-39 0 -25 35l504 1374q10 25 37 25h102q27 0 37 -25zM401 473h549l-274 766z" />
    <glyph glyph-name="AE" unicode="&#xc6;" horiz-adv-x="1777" 
d="M1614 147q31 0 31 -30v-86q0 -31 -31 -31h-707q-31 0 -30 31v321h-467l-162 -327q-10 -25 -35 -25h-102q-16 0 -24.5 10t-0.5 25l688 1374q12 25 37 25h801q31 0 30 -31v-86q0 -31 -30 -31h-576v-452h541q31 0 31 -31v-86q0 -31 -31 -31h-541v-539h578zM479 494h398v811z
" />
    <glyph glyph-name="Ccedilla" unicode="&#xc7;" horiz-adv-x="1431" 
d="M1255 274l64 -63q23 -23 -2 -43q-207 -178 -443 -193l-53 -55q70 -4 118 -47t48 -111q0 -117 -93 -164t-216 -30q-18 2 -19 22v58q0 20 23 20q84 -10 133 12.5t49 71.5q0 45 -53 64.5t-127 -4.5q-25 -10 -25 14v53q0 10 11 25l71 76q-270 35 -449 241.5t-179 489.5
q0 309 208.5 524t512.5 215q256 0 483 -195q25 -20 2 -43l-64 -63q-20 -20 -43 0q-172 145 -378 145q-233 0 -396.5 -168t-163.5 -415q0 -246 163 -414t397 -168q207 0 378 145q23 20 43 0z" />
    <glyph glyph-name="Egrave" unicode="&#xc8;" horiz-adv-x="1054" 
d="M352 1860h68q25 0 35 -25l123 -258q16 -35 -25 -35h-68q-25 0 -34 25l-123 258q-17 35 24 35zM891 147q31 0 31 -30v-86q0 -31 -31 -31h-707q-31 0 -30 31v1372q0 31 30 31h705q31 0 31 -31v-86q0 -31 -31 -31h-576v-452h541q31 0 31 -31v-86q0 -31 -31 -31h-541v-539
h578z" />
    <glyph glyph-name="Eacute" unicode="&#xc9;" horiz-adv-x="1054" 
d="M711 1860q41 0 24 -35l-123 -258q-10 -25 -34 -25h-68q-41 0 -25 35l123 258q10 25 35 25h68zM891 147q31 0 31 -30v-86q0 -31 -31 -31h-707q-31 0 -30 31v1372q0 31 30 31h705q31 0 31 -31v-86q0 -31 -31 -31h-576v-452h541q31 0 31 -31v-86q0 -31 -31 -31h-541v-539
h578z" />
    <glyph glyph-name="Ecircumflex" unicode="&#xca;" horiz-adv-x="1054" 
d="M586 1860q23 0 37 -17l178 -205q12 -16 8 -26t-25 -10h-61q-23 0 -37 16l-147 170l-148 -170q-14 -16 -37 -16h-61q-20 0 -24.5 10t7.5 26l179 205q14 16 37 17h94zM891 147q31 0 31 -30v-86q0 -31 -31 -31h-707q-31 0 -30 31v1372q0 31 30 31h705q31 0 31 -31v-86
q0 -31 -31 -31h-576v-452h541q31 0 31 -31v-86q0 -31 -31 -31h-541v-539h578z" />
    <glyph glyph-name="Edieresis" unicode="&#xcb;" horiz-adv-x="1054" 
d="M352 1696q-37 0 -63.5 26.5t-26.5 63.5q0 35 26.5 61.5t63.5 26.5t63.5 -26.5t26.5 -61.5q0 -37 -26.5 -63.5t-63.5 -26.5zM727 1696q-37 0 -63.5 26.5t-26.5 63.5q0 35 26.5 61.5t63.5 26.5t63.5 -26.5t26.5 -61.5q0 -37 -26.5 -63.5t-63.5 -26.5zM891 147q31 0 31 -30
v-86q0 -31 -31 -31h-707q-31 0 -30 31v1372q0 31 30 31h705q31 0 31 -31v-86q0 -31 -31 -31h-576v-452h541q31 0 31 -31v-86q0 -31 -31 -31h-541v-539h578z" />
    <glyph glyph-name="Igrave" unicode="&#xcc;" horiz-adv-x="466" 
d="M47 1860h68q25 0 35 -25l122 -258q16 -35 -24 -35h-68q-25 0 -35 25l-122 258q-17 35 24 35zM154 1403q0 31 30 31h99q31 0 30 -31v-1372q0 -31 -30 -31h-99q-31 0 -30 31v1372z" />
    <glyph glyph-name="Iacute" unicode="&#xcd;" horiz-adv-x="466" 
d="M406 1860q41 0 24 -35l-123 -258q-10 -25 -35 -25h-67q-41 0 -25 35l123 258q10 25 35 25h68zM154 1403q0 31 30 31h99q31 0 30 -31v-1372q0 -31 -30 -31h-99q-31 0 -30 31v1372z" />
    <glyph glyph-name="Icircumflex" unicode="&#xce;" horiz-adv-x="466" 
d="M281 1860q23 0 36 -17l179 -205q12 -16 8 -26t-25 -10h-61q-23 0 -37 16l-148 170l-147 -170q-14 -16 -37 -16h-61q-20 0 -24.5 10t7.5 26l179 205q14 16 36 17h95zM154 1403q0 31 30 31h99q31 0 30 -31v-1372q0 -31 -30 -31h-99q-31 0 -30 31v1372z" />
    <glyph glyph-name="Idieresis" unicode="&#xcf;" horiz-adv-x="466" 
d="M47 1696q-37 0 -63.5 26.5t-26.5 63.5q0 35 26.5 61.5t63.5 26.5t63.5 -26.5t26.5 -61.5q0 -37 -26.5 -63.5t-63.5 -26.5zM422 1696q-37 0 -63.5 26.5t-26.5 63.5q0 35 26.5 61.5t63.5 26.5t63.5 -26.5t26.5 -61.5q0 -37 -26.5 -63.5t-63.5 -26.5zM154 1403q0 31 30 31
h99q31 0 30 -31v-1372q0 -31 -30 -31h-99q-31 0 -30 31v1372z" />
    <glyph glyph-name="Eth" unicode="&#xd0;" horiz-adv-x="1374" 
d="M522 1434q360 0 555 -200t195 -517.5t-194.5 -517t-555.5 -199.5h-321q-31 0 -31 31v622h-88q-31 0 -31 31v66q0 31 31 30h88v623q0 31 31 31h321zM522 147q289 0 438.5 149.5t149.5 420t-149.5 420t-438.5 149.5h-192v-506h309q31 0 31 -30v-66q0 -31 -31 -31h-309v-506
h192z" />
    <glyph glyph-name="Ntilde" unicode="&#xd1;" horiz-adv-x="1363" 
d="M393 1720q-20 0 -18 25q8 74 55 112.5t117 38.5q76 0 156.5 -67.5t130.5 -67.5q63 0 86 64q6 18 22 18h33q20 0 20 -20q-8 -74 -55 -115t-111 -41q-80 0 -161.5 67.5t-130.5 67.5q-66 0 -88 -63q-6 -18 -23 -19h-33zM1180 1434q31 0 30 -31v-1372q0 -27 -24 -31h-137
q-25 0 -37 20l-699 1184v-1173q0 -31 -30 -31h-99q-31 0 -30 31v1372q0 27 24 31h137q25 0 37 -21l699 -1184v1174q0 31 30 31h99z" />
    <glyph glyph-name="Ograve" unicode="&#xd2;" horiz-adv-x="1689" 
d="M659 1860h68q25 0 35 -25l123 -258q16 -35 -25 -35h-67q-25 0 -35 25l-123 258q-17 35 24 35zM846 -27q-305 0 -519 215t-214 523q0 309 214 524t519 215q303 0 517 -216t214 -523.5t-214 -522.5t-517 -215zM845.5 129q241.5 0 406.5 168t165 414q0 248 -165 415.5
t-406 167.5q-244 0 -409 -168t-165 -415q0 -246 166 -414t407.5 -168z" />
    <glyph glyph-name="Oacute" unicode="&#xd3;" horiz-adv-x="1689" 
d="M1018 1860q41 0 24 -35l-122 -258q-10 -25 -35 -25h-68q-41 0 -24 35l122 258q10 25 35 25h68zM846 -27q-305 0 -519 215t-214 523q0 309 214 524t519 215q303 0 517 -216t214 -523.5t-214 -522.5t-517 -215zM845.5 129q241.5 0 406.5 168t165 414q0 248 -165 415.5
t-406 167.5q-244 0 -409 -168t-165 -415q0 -246 166 -414t407.5 -168z" />
    <glyph glyph-name="Ocircumflex" unicode="&#xd4;" horiz-adv-x="1689" 
d="M893 1860q23 0 37 -17l178 -205q12 -16 8 -26t-24 -10h-62q-23 0 -37 16l-147 170l-148 -170q-14 -16 -36 -16h-62q-20 0 -24.5 10t8.5 26l178 205q14 16 37 17h94zM846 -27q-305 0 -519 215t-214 523q0 309 214 524t519 215q303 0 517 -216t214 -523.5t-214 -522.5
t-517 -215zM845.5 129q241.5 0 406.5 168t165 414q0 248 -165 415.5t-406 167.5q-244 0 -409 -168t-165 -415q0 -246 166 -414t407.5 -168z" />
    <glyph glyph-name="Otilde" unicode="&#xd5;" horiz-adv-x="1689" 
d="M711 1896q76 0 156.5 -67.5t129.5 -67.5q63 0 86 64q6 18 23 18h33q20 0 20 -20q-8 -74 -55 -115t-111 -41q-80 0 -161.5 67.5t-131.5 67.5q-66 0 -88 -63q-6 -18 -22 -19h-33q-20 0 -18 25q8 74 55 112.5t117 38.5zM846 -27q-305 0 -519 215t-214 523q0 309 214 524
t519 215q303 0 517 -216t214 -523.5t-214 -522.5t-517 -215zM845.5 129q241.5 0 406.5 168t165 414q0 248 -165 415.5t-406 167.5q-244 0 -409 -168t-165 -415q0 -246 166 -414t407.5 -168z" />
    <glyph glyph-name="Odieresis" unicode="&#xd6;" horiz-adv-x="1689" 
d="M659.5 1696q-36.5 0 -63.5 26.5t-27 63.5q0 35 27 61.5t63.5 26.5t63.5 -26.5t27 -61.5q0 -37 -27 -63.5t-63.5 -26.5zM1034 1696q-37 0 -63.5 26.5t-26.5 63.5q0 35 26.5 61.5t63.5 26.5t63.5 -26.5t26.5 -61.5q0 -37 -26.5 -63.5t-63.5 -26.5zM846 -27q-305 0 -519 215
t-214 523q0 309 214 524t519 215q303 0 517 -216t214 -523.5t-214 -522.5t-517 -215zM845.5 129q241.5 0 406.5 168t165 414q0 248 -165 415.5t-406 167.5q-244 0 -409 -168t-165 -415q0 -246 166 -414t407.5 -168z" />
    <glyph glyph-name="multiply" unicode="&#xd7;" horiz-adv-x="774" 
d="M481 582l150 -152q20 -23 0 -43l-49 -49q-20 -25 -43 0l-150 151l-153 -153q-23 -20 -43 0l-50 49q-25 20 0 43l154 154l-154 151q-23 20 0 43l50 49q20 23 43 0l153 -151l150 149q23 25 43 0l49 -49q20 -20 0 -43z" />
    <glyph glyph-name="Oslash" unicode="&#xd8;" horiz-adv-x="1689" 
d="M1202 1358q170 -96 272.5 -268t102.5 -379q0 -307 -214 -522.5t-517 -215.5q-131 0 -248 43l-43 -96q-8 -23 -35 -22h-88q-39 0 -22 36l63 142q-164 96 -262 265t-98 370q0 309 214 524t519 215q121 0 229 -37l41 90q8 23 35 23h88q39 0 23 -37zM272 711q0 -156 71 -286
t194 -208l475 1053q-80 25 -166 24q-244 0 -409 -167.5t-165 -415.5zM846 129q242 0 406.5 168t164.5 414q0 162 -74.5 295t-203.5 208l-477 -1056q90 -29 184 -29z" />
    <glyph glyph-name="Ugrave" unicode="&#xd9;" horiz-adv-x="1314" 
d="M471 1860h68q25 0 34 -25l123 -258q16 -35 -24 -35h-68q-25 0 -35 25l-123 258q-16 35 25 35zM1141 1434q31 0 30 -31v-848q0 -279 -141 -430.5t-372.5 -151.5t-373 151.5t-141.5 430.5v848q0 31 31 31h98q31 0 31 -31v-848q0 -213 97.5 -322.5t257 -109.5t257 109.5
t97.5 322.5v848q0 31 30 31h99z" />
    <glyph glyph-name="Uacute" unicode="&#xda;" horiz-adv-x="1314" 
d="M829 1860q41 0 25 -35l-123 -258q-10 -25 -35 -25h-67q-41 0 -25 35l123 258q10 25 35 25h67zM1141 1434q31 0 30 -31v-848q0 -279 -141 -430.5t-372.5 -151.5t-373 151.5t-141.5 430.5v848q0 31 31 31h98q31 0 31 -31v-848q0 -213 97.5 -322.5t257 -109.5t257 109.5
t97.5 322.5v848q0 31 30 31h99z" />
    <glyph glyph-name="Ucircumflex" unicode="&#xdb;" horiz-adv-x="1314" 
d="M705 1860q23 0 36 -17l179 -205q12 -16 8 -26t-25 -10h-61q-23 0 -37 16l-148 170l-147 -170q-14 -16 -37 -16h-61q-20 0 -24.5 10t7.5 26l178 205q14 16 37 17h95zM1141 1434q31 0 30 -31v-848q0 -279 -141 -430.5t-372.5 -151.5t-373 151.5t-141.5 430.5v848
q0 31 31 31h98q31 0 31 -31v-848q0 -213 97.5 -322.5t257 -109.5t257 109.5t97.5 322.5v848q0 31 30 31h99z" />
    <glyph glyph-name="Udieresis" unicode="&#xdc;" horiz-adv-x="1314" 
d="M471 1696q-37 0 -63.5 26.5t-26.5 63.5q0 35 26.5 61.5t63.5 26.5t63.5 -26.5t26.5 -61.5q0 -37 -26.5 -63.5t-63.5 -26.5zM846 1696q-37 0 -63.5 26.5t-26.5 63.5q0 35 26.5 61.5t63.5 26.5t63.5 -26.5t26.5 -61.5q0 -37 -26.5 -63.5t-63.5 -26.5zM1141 1434
q31 0 30 -31v-848q0 -279 -141 -430.5t-372.5 -151.5t-373 151.5t-141.5 430.5v848q0 31 31 31h98q31 0 31 -31v-848q0 -213 97.5 -322.5t257 -109.5t257 109.5t97.5 322.5v848q0 31 30 31h99z" />
    <glyph glyph-name="Yacute" unicode="&#xdd;" horiz-adv-x="1224" 
d="M584 1542q-41 0 -25 35l123 258q10 25 35 25h67q41 0 25 -35l-123 -258q-10 -25 -35 -25h-67zM1096 1434q18 0 24 -10.5t-4 -26.5l-424 -703v-663q0 -31 -30 -31h-99q-31 0 -31 31v663l-423 703q-10 16 -4 26.5t24 10.5h104q25 0 37 -21l342 -569l342 569q12 20 37 21
h105z" />
    <glyph glyph-name="Thorn" unicode="&#xde;" horiz-adv-x="1150" 
d="M586 1161q227 0 350 -123t123 -321.5t-123 -321.5t-350 -123h-273v-241q0 -31 -30 -31h-99q-31 0 -30 31v1372q0 31 30 31h99q31 0 30 -31v-242h273zM571 420q332 0 332 297t-332 297h-258v-594h258z" />
    <glyph glyph-name="germandbls" unicode="&#xdf;" horiz-adv-x="1228" 
d="M809 776q158 -31 243 -127t85 -239q0 -213 -138.5 -311.5t-429.5 -98.5h-125q-31 0 -30 31v69q0 31 30 31h125q217 0 318.5 63.5t101.5 219.5q0 141 -109.5 212.5t-308.5 71.5h-127q-31 0 -30 31v70q0 31 30 30h127q160 0 248 67t88 191q0 102 -81 157.5t-232 55.5
q-158 0 -222.5 -61t-64.5 -174v-1034q0 -31 -31 -31h-92q-31 0 -30 31v1034q0 168 113.5 268.5t326.5 100.5t337 -93.5t124 -253.5q0 -115 -63.5 -196.5t-182.5 -114.5z" />
    <glyph glyph-name="agrave" unicode="&#xe0;" 
d="M524 1137l-123 258q-16 35 25 35h68q25 0 34 -25l123 -258q16 -35 -24 -35h-68q-25 0 -35 25zM1073 1004q31 0 31 -31v-942q0 -31 -31 -31h-84q-27 0 -31 31l-10 129q-129 -174 -354 -174q-213 0 -352.5 149.5t-139.5 364.5q0 221 139.5 372.5t352.5 151.5
q227 0 356 -184l8 133q4 31 31 31h84zM606 125q152 0 253.5 108.5t101.5 268.5t-101.5 271.5t-253.5 111.5q-154 0 -255 -109.5t-101 -273.5q0 -160 101 -268.5t255 -108.5z" />
    <glyph glyph-name="aacute" unicode="&#xe1;" 
d="M584 1112q-41 0 -25 35l123 258q10 25 35 25h67q41 0 25 -35l-123 -258q-10 -25 -35 -25h-67zM1073 1004q31 0 31 -31v-942q0 -31 -31 -31h-84q-27 0 -31 31l-10 129q-129 -174 -354 -174q-213 0 -352.5 149.5t-139.5 364.5q0 221 139.5 372.5t352.5 151.5
q227 0 356 -184l8 133q4 31 31 31h84zM606 125q152 0 253.5 108.5t101.5 268.5t-101.5 271.5t-253.5 111.5q-154 0 -255 -109.5t-101 -273.5q0 -160 101 -268.5t255 -108.5z" />
    <glyph glyph-name="acircumflex" unicode="&#xe2;" 
d="M367 1171q-20 0 -24.5 10.5t7.5 26.5l178 205q14 16 37 17h94q23 0 37 -17l178 -205q12 -16 8.5 -26.5t-24.5 -10.5h-61q-23 0 -37 17l-148 170l-147 -170q-14 -16 -37 -17h-61zM1073 1004q31 0 31 -31v-942q0 -31 -31 -31h-84q-27 0 -31 31l-10 129q-129 -174 -354 -174
q-213 0 -352.5 149.5t-139.5 364.5q0 221 139.5 372.5t352.5 151.5q227 0 356 -184l8 133q4 31 31 31h84zM606 125q152 0 253.5 108.5t101.5 268.5t-101.5 271.5t-253.5 111.5q-154 0 -255 -109.5t-101 -273.5q0 -160 101 -268.5t255 -108.5z" />
    <glyph glyph-name="atilde" unicode="&#xe3;" 
d="M324 1290q-20 0 -19 25q8 74 55.5 112.5t116.5 38.5q76 0 157 -67.5t130 -67.5q63 0 86 64q6 18 22 18h33q20 0 21 -20q-8 -74 -55.5 -115t-110.5 -41q-80 0 -162 67.5t-131 67.5q-66 0 -88 -63q-6 -18 -23 -19h-32zM1073 1004q31 0 31 -31v-942q0 -31 -31 -31h-84
q-27 0 -31 31l-10 129q-129 -174 -354 -174q-213 0 -352.5 149.5t-139.5 364.5q0 221 139.5 372.5t352.5 151.5q227 0 356 -184l8 133q4 31 31 31h84zM606 125q152 0 253.5 108.5t101.5 268.5t-101.5 271.5t-253.5 111.5q-154 0 -255 -109.5t-101 -273.5q0 -160 101 -268.5
t255 -108.5z" />
    <glyph glyph-name="adieresis" unicode="&#xe4;" 
d="M426 1266q-37 0 -63.5 26.5t-26.5 63.5q0 35 26.5 61.5t63.5 26.5t63.5 -26.5t26.5 -61.5q0 -37 -26.5 -63.5t-63.5 -26.5zM801 1266q-37 0 -63.5 26.5t-26.5 63.5q0 35 26.5 61.5t63.5 26.5t63.5 -26.5t26.5 -61.5q0 -37 -26.5 -63.5t-63.5 -26.5zM1073 1004
q31 0 31 -31v-942q0 -31 -31 -31h-84q-27 0 -31 31l-10 129q-129 -174 -354 -174q-213 0 -352.5 149.5t-139.5 364.5q0 221 139.5 372.5t352.5 151.5q227 0 356 -184l8 133q4 31 31 31h84zM606 125q152 0 253.5 108.5t101.5 268.5t-101.5 271.5t-253.5 111.5
q-154 0 -255 -109.5t-101 -273.5q0 -160 101 -268.5t255 -108.5z" />
    <glyph glyph-name="aring" unicode="&#xe5;" 
d="M614 1149q-70 0 -117.5 47t-47.5 114.5t48 115t117 47.5q66 0 114 -48.5t48 -114t-48 -113.5t-114 -48zM614 1366q-25 0 -41 -16.5t-16 -39t16.5 -39t40.5 -16.5q23 0 39.5 16.5t16.5 39t-16.5 39t-39.5 16.5zM1073 1004q31 0 31 -31v-942q0 -31 -31 -31h-84
q-27 0 -31 31l-10 129q-129 -174 -354 -174q-213 0 -352.5 149.5t-139.5 364.5q0 221 139.5 372.5t352.5 151.5q227 0 356 -184l8 133q4 31 31 31h84zM606 125q152 0 253.5 108.5t101.5 268.5t-101.5 271.5t-253.5 111.5q-154 0 -255 -109.5t-101 -273.5q0 -160 101 -268.5
t255 -108.5z" />
    <glyph glyph-name="ae" unicode="&#xe6;" horiz-adv-x="2025" 
d="M1452 1024q209 0 340 -142.5t131 -336.5q0 -57 -11 -80t-48 -23h-752q18 -141 118.5 -230t254.5 -89q160 0 274 96q25 20 43 4l39 -37q25 -25 2 -47q-147 -154 -375 -153q-219 0 -364 149v-104q0 -31 -31 -31h-84q-27 0 -31 31l-10 129q-129 -174 -354 -174
q-213 0 -352.5 149.5t-139.5 364.5q0 221 139.5 372.5t352.5 151.5q227 0 356 -184l8 133q4 31 31 31h84q31 0 31 -31v-94q139 145 348 145zM1452 887q-139 0 -232.5 -91t-109.5 -235h678q-8 139 -101.5 232.5t-234.5 93.5zM606 125q152 0 253.5 108.5t101.5 268.5
t-101.5 271.5t-253.5 111.5q-154 0 -255 -109.5t-101 -273.5q0 -160 101 -268.5t255 -108.5z" />
    <glyph glyph-name="ccedilla" unicode="&#xe7;" horiz-adv-x="1159" 
d="M993 207q20 -20 2 -43q-125 -145 -311 -172l-70 -72q70 -4 118 -47t48 -111q0 -117 -93 -164t-216 -30q-18 2 -18 22v58q0 20 22 20q84 -10 133 12.5t49 71.5q0 45 -53 64.5t-127 -4.5q-25 -10 -24 14v53q0 10 10 25l80 86q-190 23 -315.5 168t-125.5 342
q0 221 144.5 372.5t359.5 151.5q227 0 383 -178q18 -23 -2 -43l-51 -47q-20 -20 -45 0q-2 2 -22.5 20.5t-25.5 22.5t-25.5 20.5t-32 21.5t-35 16t-43 15.5t-46 8.5t-55.5 4q-156 0 -256 -109.5t-100 -275.5q0 -158 100.5 -266.5t255.5 -108.5q76 0 136.5 23.5t88 45
t66.5 60.5q23 23 45 0z" />
    <glyph glyph-name="egrave" unicode="&#xe8;" horiz-adv-x="1167" 
d="M496 1137l-123 258q-16 35 24 35h68q25 0 35 -25l123 -258q16 -35 -25 -35h-68q-24 0 -34 25zM594 1024q209 0 340 -142.5t131 -336.5q0 -57 -11.5 -80t-47.5 -23h-752q18 -141 118.5 -230t254.5 -89q160 0 274 96q25 20 43 4l39 -37q25 -25 2 -47q-147 -154 -375 -153
q-221 0 -364.5 150.5t-143.5 369.5t139.5 368.5t352.5 149.5zM594 887q-139 0 -232.5 -91t-109.5 -235h678q-8 139 -101.5 232.5t-234.5 93.5z" />
    <glyph glyph-name="eacute" unicode="&#xe9;" horiz-adv-x="1167" 
d="M555 1112q-41 0 -25 35l123 258q10 25 35 25h68q41 0 24 -35l-123 -258q-10 -25 -34 -25h-68zM594 1024q209 0 340 -142.5t131 -336.5q0 -57 -11.5 -80t-47.5 -23h-752q18 -141 118.5 -230t254.5 -89q160 0 274 96q25 20 43 4l39 -37q25 -25 2 -47q-147 -154 -375 -153
q-221 0 -364.5 150.5t-143.5 369.5t139.5 368.5t352.5 149.5zM594 887q-139 0 -232.5 -91t-109.5 -235h678q-8 139 -101.5 232.5t-234.5 93.5z" />
    <glyph glyph-name="ecircumflex" unicode="&#xea;" horiz-adv-x="1167" 
d="M338 1171q-20 0 -24.5 10.5t8.5 26.5l178 205q14 16 37 17h94q23 0 37 -17l178 -205q12 -16 8 -26.5t-25 -10.5h-61q-23 0 -37 17l-147 170l-148 -170q-14 -16 -37 -17h-61zM594 1024q209 0 340 -142.5t131 -336.5q0 -57 -11.5 -80t-47.5 -23h-752q18 -141 118.5 -230
t254.5 -89q160 0 274 96q25 20 43 4l39 -37q25 -25 2 -47q-147 -154 -375 -153q-221 0 -364.5 150.5t-143.5 369.5t139.5 368.5t352.5 149.5zM594 887q-139 0 -232.5 -91t-109.5 -235h678q-8 139 -101.5 232.5t-234.5 93.5z" />
    <glyph glyph-name="edieresis" unicode="&#xeb;" horiz-adv-x="1167" 
d="M397 1266q-37 0 -63.5 26.5t-26.5 63.5q0 35 26.5 61.5t63.5 26.5t63.5 -26.5t26.5 -61.5q0 -37 -26.5 -63.5t-63.5 -26.5zM772 1266q-37 0 -63.5 26.5t-26.5 63.5q0 35 26.5 61.5t63.5 26.5t63.5 -26.5t26.5 -61.5q0 -37 -26.5 -63.5t-63.5 -26.5zM594 1024
q209 0 340 -142.5t131 -336.5q0 -57 -11.5 -80t-47.5 -23h-752q18 -141 118.5 -230t254.5 -89q160 0 274 96q25 20 43 4l39 -37q25 -25 2 -47q-147 -154 -375 -153q-221 0 -364.5 150.5t-143.5 369.5t139.5 368.5t352.5 149.5zM594 887q-139 0 -232.5 -91t-109.5 -235h678
q-8 139 -101.5 232.5t-234.5 93.5z" />
    <glyph glyph-name="igrave" unicode="&#xec;" horiz-adv-x="399" 
d="M14 1430h68q25 0 35 -25l123 -258q16 -35 -25 -35h-68q-25 0 -34 25l-123 258q-17 35 24 35zM123 973q0 31 31 31h92q31 0 30 -31v-942q0 -31 -30 -31h-92q-31 0 -31 31v942z" />
    <glyph glyph-name="iacute" unicode="&#xed;" horiz-adv-x="399" 
d="M373 1430q41 0 24 -35l-123 -258q-10 -25 -34 -25h-68q-41 0 -25 35l123 258q10 25 35 25h68zM123 973q0 31 31 31h92q31 0 30 -31v-942q0 -31 -30 -31h-92q-31 0 -31 31v942z" />
    <glyph glyph-name="icircumflex" unicode="&#xee;" horiz-adv-x="399" 
d="M248 1430q23 0 37 -17l178 -205q12 -16 8 -26.5t-25 -10.5h-61q-23 0 -37 17l-147 170l-148 -170q-14 -16 -37 -17h-61q-20 0 -24.5 10.5t8.5 26.5l178 205q14 16 37 17h94zM123 973q0 31 31 31h92q31 0 30 -31v-942q0 -31 -30 -31h-92q-31 0 -31 31v942z" />
    <glyph glyph-name="idieresis" unicode="&#xef;" horiz-adv-x="399" 
d="M14 1266q-37 0 -63.5 26.5t-26.5 63.5q0 35 26.5 61.5t63.5 26.5t63.5 -26.5t26.5 -61.5q0 -37 -26.5 -63.5t-63.5 -26.5zM389 1266q-37 0 -63.5 26.5t-26.5 63.5q0 35 26.5 61.5t63.5 26.5t63.5 -26.5t26.5 -61.5q0 -37 -26.5 -63.5t-63.5 -26.5zM123 973q0 31 31 31h92
q31 0 30 -31v-942q0 -31 -30 -31h-92q-31 0 -31 31v942z" />
    <glyph glyph-name="eth" unicode="&#xf0;" horiz-adv-x="1210" 
d="M1147 1288q33 4 33 -28v-60q0 -29 -29 -33l-47 -6v-1130q0 -31 -31 -31h-84q-27 0 -31 31l-10 129q-129 -174 -354 -174q-213 0 -352.5 149.5t-139.5 364.5q0 221 139.5 372.5t352.5 151.5q225 0 356 -182v297l-190 -27q-33 -4 -33 29v59q0 29 29 33l194 27v204
q0 31 31 31h92q31 0 31 -31v-182zM606 125q152 0 253.5 108.5t101.5 268.5t-101.5 271.5t-253.5 111.5q-154 0 -255 -109.5t-101 -273.5q0 -160 101 -268.5t255 -108.5z" />
    <glyph glyph-name="ntilde" unicode="&#xf1;" horiz-adv-x="1112" 
d="M268 1290q-23 0 -18 25q8 74 55 112.5t117 38.5q76 0 156.5 -67.5t130.5 -67.5q63 0 86 64q6 18 22 18h33q20 0 20 -20q-8 -74 -55 -115t-110.5 -41t-113.5 34t-93 67.5t-86 33.5q-66 0 -88 -63q-6 -18 -23 -19h-33zM627 1026q164 0 258 -101.5t94 -297.5v-596
q0 -31 -31 -31h-92q-31 0 -31 31v585q0 131 -61.5 202t-169.5 71q-129 0 -218 -93.5t-89 -144.5v-620q0 -31 -31 -31h-92q-31 0 -31 31v942q0 31 31 31h84q27 0 31 -31l8 -142q133 195 340 195z" />
    <glyph glyph-name="ograve" unicode="&#xf2;" horiz-adv-x="1220" 
d="M424 1430h68q25 0 34 -25l123 -258q16 -35 -24 -35h-68q-25 0 -35 25l-123 258q-16 35 25 35zM610 -20q-215 0 -361.5 151.5t-146.5 370.5q0 221 146.5 372.5t361.5 151.5t361.5 -151.5t146.5 -372.5q0 -219 -146.5 -370.5t-361.5 -151.5zM610.5 119q153.5 0 257 108.5
t103.5 274.5t-103.5 275.5t-257 109.5t-257 -109.5t-103.5 -275.5t103.5 -274.5t257 -108.5z" />
    <glyph glyph-name="oacute" unicode="&#xf3;" horiz-adv-x="1220" 
d="M782 1430q41 0 25 -35l-123 -258q-10 -25 -35 -25h-67q-41 0 -25 35l123 258q10 25 35 25h67zM610 -20q-215 0 -361.5 151.5t-146.5 370.5q0 221 146.5 372.5t361.5 151.5t361.5 -151.5t146.5 -372.5q0 -219 -146.5 -370.5t-361.5 -151.5zM610.5 119q153.5 0 257 108.5
t103.5 274.5t-103.5 275.5t-257 109.5t-257 -109.5t-103.5 -275.5t103.5 -274.5t257 -108.5z" />
    <glyph glyph-name="ocircumflex" unicode="&#xf4;" horiz-adv-x="1220" 
d="M657 1430q23 0 37 -17l178 -205q12 -16 8.5 -26.5t-24.5 -10.5h-61q-23 0 -37 17l-148 170l-147 -170q-14 -16 -37 -17h-61q-20 0 -24.5 10.5t7.5 26.5l178 205q14 16 37 17h94zM610 -20q-215 0 -361.5 151.5t-146.5 370.5q0 221 146.5 372.5t361.5 151.5t361.5 -151.5
t146.5 -372.5q0 -219 -146.5 -370.5t-361.5 -151.5zM610.5 119q153.5 0 257 108.5t103.5 274.5t-103.5 275.5t-257 109.5t-257 -109.5t-103.5 -275.5t103.5 -274.5t257 -108.5z" />
    <glyph glyph-name="otilde" unicode="&#xf5;" horiz-adv-x="1220" 
d="M475 1466q76 0 157 -67.5t130 -67.5q63 0 86 64q6 18 22 18h33q20 0 21 -20q-8 -74 -55.5 -115t-111 -41t-113.5 34t-93 67.5t-86 33.5q-66 0 -88 -63q-6 -18 -23 -19h-32q-23 0 -19 25q8 74 55 112.5t117 38.5zM610 -20q-215 0 -361.5 151.5t-146.5 370.5
q0 221 146.5 372.5t361.5 151.5t361.5 -151.5t146.5 -372.5q0 -219 -146.5 -370.5t-361.5 -151.5zM610.5 119q153.5 0 257 108.5t103.5 274.5t-103.5 275.5t-257 109.5t-257 -109.5t-103.5 -275.5t103.5 -274.5t257 -108.5z" />
    <glyph glyph-name="odieresis" unicode="&#xf6;" horiz-adv-x="1220" 
d="M424 1266q-37 0 -63.5 26.5t-26.5 63.5q0 35 26.5 61.5t63.5 26.5t63.5 -26.5t26.5 -61.5q0 -37 -26.5 -63.5t-63.5 -26.5zM799 1266q-37 0 -63.5 26.5t-26.5 63.5q0 35 26.5 61.5t63.5 26.5t63.5 -26.5t26.5 -61.5q0 -37 -26.5 -63.5t-63.5 -26.5zM610 -20
q-215 0 -361.5 151.5t-146.5 370.5q0 221 146.5 372.5t361.5 151.5t361.5 -151.5t146.5 -372.5q0 -219 -146.5 -370.5t-361.5 -151.5zM610.5 119q153.5 0 257 108.5t103.5 274.5t-103.5 275.5t-257 109.5t-257 -109.5t-103.5 -275.5t103.5 -274.5t257 -108.5z" />
    <glyph glyph-name="divide" unicode="&#xf7;" horiz-adv-x="927" 
d="M465 754q-41 0 -69.5 28.5t-28.5 69.5t28.5 69.5t69.5 28.5t69.5 -28.5t28.5 -69.5t-28.5 -69.5t-69.5 -28.5zM764 647q31 0 31 -31v-69q0 -31 -31 -31h-600q-31 0 -31 31v69q0 31 31 31h600zM465 180q-41 0 -69.5 29t-28.5 69.5t28.5 69.5t69.5 29t69.5 -29t28.5 -69.5
t-28.5 -69.5t-69.5 -29z" />
    <glyph glyph-name="oslash" unicode="&#xf8;" horiz-adv-x="1220" 
d="M877 952q111 -70 176 -188.5t65 -261.5q0 -219 -146.5 -370.5t-361.5 -151.5q-82 0 -166 26l-57 -127q-10 -23 -35 -22h-73q-39 0 -23 37l76 167q-106 70 -168 187t-62 254q0 221 146.5 372.5t361.5 151.5q76 0 150 -22l53 116q10 23 35 23h76q39 0 22 -37zM250 502
q0 -199 141 -309l311 681q-47 12 -92 13q-154 0 -257 -109.5t-103 -275.5zM610 119q154 0 257.5 108.5t103.5 274.5q0 209 -154 319l-313 -686q53 -16 106 -16z" />
    <glyph glyph-name="ugrave" unicode="&#xf9;" horiz-adv-x="1101" 
d="M459 1137l-123 258q-16 35 24 35h68q25 0 35 -25l123 -258q16 -35 -25 -35h-67q-25 0 -35 25zM938 1004q31 0 31 -31v-942q0 -31 -31 -31h-84q-27 0 -31 31l-8 123q-123 -180 -321 -181q-176 0 -273.5 102.5t-97.5 301.5v596q0 31 31 31h92q31 0 30 -31v-586
q0 -133 63.5 -205.5t176.5 -72.5q127 0 213 91t86 156v617q0 31 31 31h92z" />
    <glyph glyph-name="uacute" unicode="&#xfa;" horiz-adv-x="1101" 
d="M518 1112q-41 0 -24 35l122 258q10 25 35 25h68q41 0 24 -35l-122 -258q-10 -25 -35 -25h-68zM938 1004q31 0 31 -31v-942q0 -31 -31 -31h-84q-27 0 -31 31l-8 123q-123 -180 -321 -181q-176 0 -273.5 102.5t-97.5 301.5v596q0 31 31 31h92q31 0 30 -31v-586
q0 -133 63.5 -205.5t176.5 -72.5q127 0 213 91t86 156v617q0 31 31 31h92z" />
    <glyph glyph-name="ucircumflex" unicode="&#xfb;" horiz-adv-x="1101" 
d="M301 1171q-20 0 -24.5 10.5t8.5 26.5l178 205q14 16 37 17h94q23 0 37 -17l178 -205q12 -16 8 -26.5t-24 -10.5h-62q-23 0 -37 17l-147 170l-148 -170q-14 -16 -37 -17h-61zM938 1004q31 0 31 -31v-942q0 -31 -31 -31h-84q-27 0 -31 31l-8 123q-123 -180 -321 -181
q-176 0 -273.5 102.5t-97.5 301.5v596q0 31 31 31h92q31 0 30 -31v-586q0 -133 63.5 -205.5t176.5 -72.5q127 0 213 91t86 156v617q0 31 31 31h92z" />
    <glyph glyph-name="udieresis" unicode="&#xfc;" horiz-adv-x="1101" 
d="M360.5 1266q-36.5 0 -63.5 26.5t-27 63.5q0 35 27 61.5t63.5 26.5t63.5 -26.5t27 -61.5q0 -37 -27 -63.5t-63.5 -26.5zM735 1266q-37 0 -63.5 26.5t-26.5 63.5q0 35 26.5 61.5t63.5 26.5t63.5 -26.5t26.5 -61.5q0 -37 -26.5 -63.5t-63.5 -26.5zM938 1004q31 0 31 -31
v-942q0 -31 -31 -31h-84q-27 0 -31 31l-8 123q-123 -180 -321 -181q-176 0 -273.5 102.5t-97.5 301.5v596q0 31 31 31h92q31 0 30 -31v-586q0 -133 63.5 -205.5t176.5 -72.5q127 0 213 91t86 156v617q0 31 31 31h92z" />
    <glyph glyph-name="yacute" unicode="&#xfd;" horiz-adv-x="1099" 
d="M721 1430q41 0 24 -35l-122 -258q-10 -25 -35 -25h-68q-41 0 -24 35l122 258q10 25 35 25h68zM989 1004q37 0 25 -35l-529 -1334q-10 -25 -36 -24h-95q-37 0 -24 35l141 350l-385 973q-12 35 25 35h94q29 0 37 -25l307 -805l307 805q10 25 37 25h96z" />
    <glyph glyph-name="thorn" unicode="&#xfe;" horiz-adv-x="1251" 
d="M657 1024q213 0 352.5 -151.5t139.5 -372.5q0 -215 -139.5 -364.5t-352.5 -149.5h-6h-8q-215 0 -342 157v-501q0 -31 -31 -31h-92q-31 0 -31 31v362q-14 8 -14 27v1433q0 31 31 31h92q31 0 31 -31v-473q6 -6 6 -18l6 -115q129 166 344 166h8h6zM291 501.5
q0 -157.5 98 -266t250 -110.5q150 2 249 110.5t99 266.5q0 162 -98 270.5t-250 112.5q-150 -2 -249 -114t-99 -269.5z" />
    <glyph glyph-name="ydieresis" unicode="&#xff;" horiz-adv-x="1099" 
d="M362.5 1266q-36.5 0 -63.5 26.5t-27 63.5q0 35 27 61.5t63.5 26.5t63.5 -26.5t27 -61.5q0 -37 -27 -63.5t-63.5 -26.5zM737 1266q-37 0 -63.5 26.5t-26.5 63.5q0 35 26.5 61.5t63.5 26.5t63.5 -26.5t26.5 -61.5q0 -37 -26.5 -63.5t-63.5 -26.5zM989 1004q37 0 25 -35
l-529 -1334q-10 -25 -36 -24h-95q-37 0 -24 35l141 350l-385 973q-12 35 25 35h94q29 0 37 -25l307 -805l307 805q10 25 37 25h96z" />
    <glyph glyph-name="Amacron" unicode="&#x100;" horiz-adv-x="1351" 
d="M408 1733q-31 0 -31 30v66q0 31 31 31h557q31 0 30 -31v-66q0 -31 -30 -30h-557zM1268 35q14 -35 -25 -35h-98q-27 0 -35 25l-113 317h-643l-112 -317q-8 -25 -35 -25h-98q-39 0 -25 35l504 1374q10 25 37 25h102q27 0 37 -25zM401 473h549l-274 766z" />
    <glyph glyph-name="amacron" unicode="&#x101;" 
d="M334 1303q-31 0 -31 30v66q0 31 31 31h557q31 0 31 -31v-66q0 -31 -31 -30h-557zM1073 1004q31 0 31 -31v-942q0 -31 -31 -31h-84q-27 0 -31 31l-10 129q-129 -174 -354 -174q-213 0 -352.5 149.5t-139.5 364.5q0 221 139.5 372.5t352.5 151.5q227 0 356 -184l8 133
q4 31 31 31h84zM606 125q152 0 253.5 108.5t101.5 268.5t-101.5 271.5t-253.5 111.5q-154 0 -255 -109.5t-101 -273.5q0 -160 101 -268.5t255 -108.5z" />
    <glyph glyph-name="Abreve" unicode="&#x102;" horiz-adv-x="1351" 
d="M686 1589q-119 0 -194.5 68.5t-85.5 173.5q-4 31 28 31h45q27 0 33 -29q12 -61 58 -99t116 -38t116 38t58 99q6 29 33 29h45q33 0 29 -31q-10 -104 -86 -173t-195 -69zM1268 35q14 -35 -25 -35h-98q-27 0 -35 25l-113 317h-643l-112 -317q-8 -25 -35 -25h-98
q-39 0 -25 35l504 1374q10 25 37 25h102q27 0 37 -25zM401 473h549l-274 766z" />
    <glyph glyph-name="abreve" unicode="&#x103;" 
d="M612.5 1159q-118.5 0 -194.5 68.5t-86 173.5q-4 31 28 31h46q27 0 32 -29q12 -61 58.5 -99t116 -38t115.5 37.5t58 99.5q6 29 33 29h45q33 0 29 -31q-10 -104 -86 -173t-194.5 -69zM1073 1004q31 0 31 -31v-942q0 -31 -31 -31h-84q-27 0 -31 31l-10 129
q-129 -174 -354 -174q-213 0 -352.5 149.5t-139.5 364.5q0 221 139.5 372.5t352.5 151.5q227 0 356 -184l8 133q4 31 31 31h84zM606 125q152 0 253.5 108.5t101.5 268.5t-101.5 271.5t-253.5 111.5q-154 0 -255 -109.5t-101 -273.5q0 -160 101 -268.5t255 -108.5z" />
    <glyph glyph-name="Aogonek" unicode="&#x104;" horiz-adv-x="1351" 
d="M1268 35q14 -35 -25 -35q-100 0 -166.5 -59.5t-66.5 -126.5q0 -70 47 -98.5t129 -10.5v-111q-37 -16 -89.5 -17t-102.5 16.5t-86 65.5t-36 122q0 98 64.5 168.5t161.5 107.5l-101 285h-643l-112 -317q-8 -25 -35 -25h-98q-39 0 -25 35l504 1374q10 25 37 25h102
q27 0 37 -25zM401 473h549l-274 766z" />
    <glyph glyph-name="aogonek" unicode="&#x105;" 
d="M1073 1004q31 0 31 -31v-942q0 -31 -29 -31q-106 0 -169.5 -58.5t-63.5 -128t47 -98t129 -10.5v-111q-37 -16 -89 -17t-102.5 16.5t-86 65.5t-35.5 122q0 102 72.5 176t178.5 109l-8 94q-129 -174 -354 -174q-213 0 -352.5 149.5t-139.5 364.5q0 221 139.5 372.5
t352.5 151.5q227 0 356 -184l8 133q4 31 31 31h84zM606 125q152 0 253.5 108.5t101.5 268.5t-101.5 271.5t-253.5 111.5q-154 0 -255 -109.5t-101 -273.5q0 -160 101 -268.5t255 -108.5z" />
    <glyph glyph-name="Cacute" unicode="&#x106;" horiz-adv-x="1431" 
d="M991 1860q41 0 25 -35l-123 -258q-10 -25 -35 -25h-67q-41 0 -25 35l123 258q10 25 35 25h67zM1255 274l64 -63q23 -23 -2 -43q-227 -195 -483 -195q-303 0 -512 215t-209 523q0 309 208.5 524t512.5 215q256 0 483 -195q25 -20 2 -43l-64 -63q-20 -20 -43 0
q-172 145 -378 145q-233 0 -396.5 -168t-163.5 -415q0 -246 163 -414t397 -168q207 0 378 145q23 20 43 0z" />
    <glyph glyph-name="cacute" unicode="&#x107;" horiz-adv-x="1159" 
d="M788 1491q41 0 25 -35l-123 -258q-10 -25 -35 -24h-67q-41 0 -25 34l123 258q10 25 35 25h67zM606 125q76 0 136.5 23.5t88 45t66.5 60.5q23 23 45 0l51 -47q20 -20 2 -43q-156 -178 -389 -178q-215 0 -359.5 149.5t-144.5 364.5q0 221 144.5 372.5t359.5 151.5
q227 0 383 -178q18 -23 -2 -43l-51 -47q-20 -20 -45 0q-2 2 -22.5 20.5t-25.5 22.5t-25.5 20.5t-32 21.5t-35 16t-43 15.5t-46 8.5t-55.5 4q-156 0 -256 -109.5t-100 -275.5q0 -158 100 -266.5t256 -108.5z" />
    <glyph glyph-name="Cdotaccent" unicode="&#x10a;" horiz-adv-x="1431" 
d="M819 1696q-37 0 -63.5 26.5t-26.5 63.5q0 35 26.5 61.5t63.5 26.5t63.5 -26.5t26.5 -61.5q0 -37 -26.5 -63.5t-63.5 -26.5zM1255 274l64 -63q23 -23 -2 -43q-227 -195 -483 -195q-303 0 -512 215t-209 523q0 309 208.5 524t512.5 215q256 0 483 -195q25 -20 2 -43
l-64 -63q-20 -20 -43 0q-172 145 -378 145q-233 0 -396.5 -168t-163.5 -415q0 -246 163 -414t397 -168q207 0 378 145q23 20 43 0z" />
    <glyph glyph-name="cdotaccent" unicode="&#x10b;" horiz-adv-x="1159" 
d="M612 1266q-37 0 -63.5 26.5t-26.5 63.5q0 35 26.5 61.5t63.5 26.5t63.5 -26.5t26.5 -61.5q0 -37 -26.5 -63.5t-63.5 -26.5zM606 125q76 0 136.5 23.5t88 45t66.5 60.5q23 23 45 0l51 -47q20 -20 2 -43q-156 -178 -389 -178q-215 0 -359.5 149.5t-144.5 364.5
q0 221 144.5 372.5t359.5 151.5q227 0 383 -178q18 -23 -2 -43l-51 -47q-20 -20 -45 0q-2 2 -22.5 20.5t-25.5 22.5t-25.5 20.5t-32 21.5t-35 16t-43 15.5t-46 8.5t-55.5 4q-156 0 -256 -109.5t-100 -275.5q0 -158 100 -266.5t256 -108.5z" />
    <glyph glyph-name="Ccaron" unicode="&#x10c;" horiz-adv-x="1431" 
d="M866 1602h-94q-23 0 -37 16l-178 205q-12 16 -8 26.5t24 10.5h62q23 0 37 -17l147 -170l148 170q14 16 37 17h61q20 0 24.5 -10.5t-8.5 -26.5l-178 -205q-14 -16 -37 -16zM1255 274l64 -63q23 -23 -2 -43q-227 -195 -483 -195q-303 0 -512 215t-209 523q0 309 208.5 524
t512.5 215q256 0 483 -195q25 -20 2 -43l-64 -63q-20 -20 -43 0q-172 145 -378 145q-233 0 -396.5 -168t-163.5 -415q0 -246 163 -414t397 -168q207 0 378 145q23 20 43 0z" />
    <glyph glyph-name="ccaron" unicode="&#x10d;" horiz-adv-x="1159" 
d="M623 1176h-95q-23 0 -36 16l-179 205q-12 16 -8 26.5t25 10.5h61q23 0 37 -17l147 -170l148 170q14 16 37 17h61q20 0 24.5 -10.5t-7.5 -26.5l-179 -205q-13 -16 -36 -16zM606 125q76 0 136.5 23.5t88 45t66.5 60.5q23 23 45 0l51 -47q20 -20 2 -43q-156 -178 -389 -178
q-215 0 -359.5 149.5t-144.5 364.5q0 221 144.5 372.5t359.5 151.5q227 0 383 -178q18 -23 -2 -43l-51 -47q-20 -20 -45 0q-2 2 -22.5 20.5t-25.5 22.5t-25.5 20.5t-32 21.5t-35 16t-43 15.5t-46 8.5t-55.5 4q-156 0 -256 -109.5t-100 -275.5q0 -158 100 -266.5t256 -108.5z
" />
    <glyph glyph-name="Dcaron" unicode="&#x10e;" horiz-adv-x="1357" 
d="M575 1618l-178 205q-12 16 -8 26.5t25 10.5h61q23 0 37 -17l147 -170l148 170q14 16 37 17h61q20 0 24.5 -10.5t-7.5 -26.5l-179 -205q-14 -16 -36 -16h-95q-23 0 -37 16zM506 1434q360 0 554.5 -200t194.5 -517.5t-194.5 -517t-554.5 -199.5h-322q-31 0 -30 31v1372
q0 31 30 31h322zM506 147q289 0 438.5 149.5t149.5 420t-149.5 420t-438.5 149.5h-193v-1139h193z" />
    <glyph glyph-name="dcaron" unicode="&#x10f;" horiz-adv-x="1435" 
d="M1073 1495q31 0 31 -31v-1433q0 -31 -31 -31h-84q-27 0 -31 31l-10 129q-129 -174 -354 -174q-213 0 -352.5 149.5t-139.5 364.5q0 221 139.5 372.5t352.5 151.5q225 0 356 -182v622q0 31 31 31h92zM1409 1495q41 0 25 -35l-123 -258q-10 -25 -35 -24h-68q-41 0 -24 34
l123 258q10 25 34 25h68zM606 125q152 0 253.5 108.5t101.5 268.5t-101.5 271.5t-253.5 111.5q-154 0 -255 -109.5t-101 -273.5q0 -160 101 -268.5t255 -108.5z" />
    <glyph glyph-name="Dcroat" unicode="&#x110;" horiz-adv-x="1374" 
d="M522 1434q360 0 555 -200t195 -517.5t-194.5 -517t-555.5 -199.5h-321q-31 0 -31 31v622h-88q-31 0 -31 31v66q0 31 31 30h88v623q0 31 31 31h321zM522 147q289 0 438.5 149.5t149.5 420t-149.5 420t-438.5 149.5h-192v-506h309q31 0 31 -30v-66q0 -31 -31 -31h-309v-506
h192z" />
    <glyph glyph-name="dcroat" unicode="&#x111;" horiz-adv-x="1269" 
d="M1208 1303q31 0 31 -31v-66q0 -31 -31 -30h-104v-1145q0 -31 -31 -31h-84q-27 0 -31 31l-10 129q-129 -174 -354 -174q-213 0 -352.5 149.5t-139.5 364.5q0 221 139.5 372.5t352.5 151.5q225 0 356 -182v334h-299q-31 0 -30 30v66q0 31 30 31h299v161q0 31 31 31h92
q31 0 31 -31v-161h104zM606 125q152 0 253.5 108.5t101.5 268.5t-101.5 271.5t-253.5 111.5q-154 0 -255 -109.5t-101 -273.5q0 -160 101 -268.5t255 -108.5z" />
    <glyph glyph-name="Emacron" unicode="&#x112;" horiz-adv-x="1054" 
d="M817 1860q31 0 31 -31v-66q0 -31 -31 -30h-557q-31 0 -31 30v66q0 31 31 31h557zM891 147q31 0 31 -30v-86q0 -31 -31 -31h-707q-31 0 -30 31v1372q0 31 30 31h705q31 0 31 -31v-86q0 -31 -31 -31h-576v-452h541q31 0 31 -31v-86q0 -31 -31 -31h-541v-539h578z" />
    <glyph glyph-name="emacron" unicode="&#x113;" horiz-adv-x="1167" 
d="M305 1303q-31 0 -31 30v66q0 31 31 31h557q31 0 31 -31v-66q0 -31 -31 -30h-557zM594 1024q209 0 340 -142.5t131 -336.5q0 -57 -11.5 -80t-47.5 -23h-752q18 -141 118.5 -230t254.5 -89q160 0 274 96q25 20 43 4l39 -37q25 -25 2 -47q-147 -154 -375 -153
q-221 0 -364.5 150.5t-143.5 369.5t139.5 368.5t352.5 149.5zM594 887q-139 0 -232.5 -91t-109.5 -235h678q-8 139 -101.5 232.5t-234.5 93.5z" />
    <glyph glyph-name="Edotaccent" unicode="&#x116;" horiz-adv-x="1054" 
d="M538.5 1696q-36.5 0 -63 26.5t-26.5 63.5q0 35 26.5 61.5t63 26.5t63.5 -26.5t27 -61.5q0 -37 -27 -63.5t-63.5 -26.5zM891 147q31 0 31 -30v-86q0 -31 -31 -31h-707q-31 0 -30 31v1372q0 31 30 31h705q31 0 31 -31v-86q0 -31 -31 -31h-576v-452h541q31 0 31 -31v-86
q0 -31 -31 -31h-541v-539h578z" />
    <glyph glyph-name="edotaccent" unicode="&#x117;" horiz-adv-x="1167" 
d="M584 1266q-37 0 -63.5 26.5t-26.5 63.5q0 35 26.5 61.5t63.5 26.5t63.5 -26.5t26.5 -61.5q0 -37 -26.5 -63.5t-63.5 -26.5zM594 1024q209 0 340 -142.5t131 -336.5q0 -57 -11.5 -80t-47.5 -23h-752q18 -141 118.5 -230t254.5 -89q160 0 274 96q25 20 43 4l39 -37
q25 -25 2 -47q-147 -154 -375 -153q-221 0 -364.5 150.5t-143.5 369.5t139.5 368.5t352.5 149.5zM594 887q-139 0 -232.5 -91t-109.5 -235h678q-8 139 -101.5 232.5t-234.5 93.5z" />
    <glyph glyph-name="Eogonek" unicode="&#x118;" horiz-adv-x="1054" 
d="M891 147q31 0 31 -30v-86q0 -31 -31 -31h-82q-59 -25 -94 -72t-35 -94q0 -70 47 -98.5t129 -9.5v-111q-37 -16 -89 -17t-102.5 16t-86 65.5t-35.5 121.5q0 115 94 199h-453q-31 0 -30 31v1372q0 31 30 31h705q31 0 31 -31v-86q0 -31 -31 -31h-576v-452h541q31 0 31 -31
v-86q0 -31 -31 -31h-541v-539h578z" />
    <glyph glyph-name="eogonek" unicode="&#x119;" horiz-adv-x="1167" 
d="M594 1024q209 0 340 -142.5t131 -336.5q0 -57 -11.5 -80t-47.5 -23h-752q18 -141 118.5 -230t254.5 -89q160 0 274 96q25 20 43 4l39 -37q25 -25 2 -47q-92 -94 -215 -131v-8q-94 -25 -153.5 -81t-59.5 -121.5t47 -93.5t129 -9v-111q-37 -16 -89 -17t-102 16.5t-86 65.5
t-36 122q0 125 127 219q-197 20 -321 166.5t-124 349.5q0 219 139.5 368.5t352.5 149.5zM594 887q-139 0 -232.5 -91t-109.5 -235h678q-8 139 -101.5 232.5t-234.5 93.5z" />
    <glyph glyph-name="Ecaron" unicode="&#x11a;" horiz-adv-x="1054" 
d="M586 1602h-94q-23 0 -37 16l-179 205q-12 16 -8 26.5t25 10.5h61q23 0 37 -17l148 -170l147 170q14 16 37 17h61q20 0 24.5 -10.5t-7.5 -26.5l-178 -205q-14 -16 -37 -16zM891 147q31 0 31 -30v-86q0 -31 -31 -31h-707q-31 0 -30 31v1372q0 31 30 31h705q31 0 31 -31v-86
q0 -31 -31 -31h-576v-452h541q31 0 31 -31v-86q0 -31 -31 -31h-541v-539h578z" />
    <glyph glyph-name="ecaron" unicode="&#x11b;" horiz-adv-x="1167" 
d="M500 1188l-178 205q-12 16 -8.5 26.5t24.5 10.5h61q23 0 37 -17l148 -170l147 170q14 16 37 17h61q20 0 24.5 -10.5t-7.5 -26.5l-178 -205q-14 -16 -37 -17h-94q-23 1 -37 17zM594 1024q209 0 340 -142.5t131 -336.5q0 -57 -11.5 -80t-47.5 -23h-752q18 -141 118.5 -230
t254.5 -89q160 0 274 96q25 20 43 4l39 -37q25 -25 2 -47q-147 -154 -375 -153q-221 0 -364.5 150.5t-143.5 369.5t139.5 368.5t352.5 149.5zM594 887q-139 0 -232.5 -91t-109.5 -235h678q-8 139 -101.5 232.5t-234.5 93.5z" />
    <glyph glyph-name="Gbreve" unicode="&#x11e;" horiz-adv-x="1599" 
d="M827.5 1589q-118.5 0 -194.5 68.5t-86 173.5q-2 31 28 31h46q27 0 32 -29q12 -61 58.5 -99t116 -38t115.5 38t58 99q6 29 33 29h45q31 0 29 -31q-10 -104 -86 -173t-194.5 -69zM1466 743q31 0 31 -30v-64q0 -293 -180 -484.5t-481 -191.5q-309 0 -516 215t-207 529
q0 305 208.5 519t512.5 214q256 0 483 -195q25 -20 2 -43l-64 -63q-20 -20 -43 0q-172 145 -378 145q-231 0 -395.5 -166.5t-164.5 -410.5q0 -252 162 -420t400 -168q217 0 360 131t150 338h-488q-31 0 -31 31v84q0 31 31 30h608z" />
    <glyph glyph-name="gbreve" unicode="&#x11f;" horiz-adv-x="1234" 
d="M618.5 1159q-118.5 0 -194.5 68.5t-86 173.5q-2 31 29 31h45q27 0 32 -29q12 -61 58.5 -99t116 -38t115.5 37.5t59 99.5q6 29 32 29h45q31 0 29 -31q-10 -104 -86 -173t-194.5 -69zM1071 1004q31 0 31 -31v-953q0 -111 -46 -196.5t-122 -133.5t-162 -72t-178 -24
q-227 0 -383 99q-25 14 -10 43l28 53q12 27 41 12q147 -72 314 -71q150 0 259 70.5t109 215.5v164q-129 -184 -358 -184q-213 0 -352.5 149.5t-139.5 364.5t139.5 364.5t352.5 149.5q225 0 354 -180l8 129q4 31 31 31h84zM606 135q152 0 253.5 111.5t101.5 265.5
q0 152 -101.5 262.5t-253.5 110.5q-154 0 -255 -107.5t-101 -265.5q0 -160 101 -268.5t255 -108.5z" />
    <glyph glyph-name="Gdotaccent" unicode="&#x120;" horiz-adv-x="1599" 
d="M827.5 1696q-36.5 0 -63.5 26.5t-27 63.5q0 35 27 61.5t63.5 26.5t63.5 -26.5t27 -61.5q0 -37 -27 -63.5t-63.5 -26.5zM1466 743q31 0 31 -30v-64q0 -293 -180 -484.5t-481 -191.5q-309 0 -516 215t-207 529q0 305 208.5 519t512.5 214q256 0 483 -195q25 -20 2 -43
l-64 -63q-20 -20 -43 0q-172 145 -378 145q-231 0 -395.5 -166.5t-164.5 -410.5q0 -252 162 -420t400 -168q217 0 360 131t150 338h-488q-31 0 -31 31v84q0 31 31 30h608z" />
    <glyph glyph-name="gdotaccent" unicode="&#x121;" horiz-adv-x="1234" 
d="M618.5 1266q-36.5 0 -63.5 26.5t-27 63.5q0 35 27 61.5t63.5 26.5t63.5 -26.5t27 -61.5q0 -37 -27 -63.5t-63.5 -26.5zM1071 1004q31 0 31 -31v-953q0 -111 -46 -196.5t-122 -133.5t-162 -72t-178 -24q-227 0 -383 99q-25 14 -10 43l28 53q12 27 41 12q147 -72 314 -71
q150 0 259 70.5t109 215.5v164q-129 -184 -358 -184q-213 0 -352.5 149.5t-139.5 364.5t139.5 364.5t352.5 149.5q225 0 354 -180l8 129q4 31 31 31h84zM606 135q152 0 253.5 111.5t101.5 265.5q0 152 -101.5 262.5t-253.5 110.5q-154 0 -255 -107.5t-101 -265.5
q0 -160 101 -268.5t255 -108.5z" />
    <glyph glyph-name="Gcommaaccent" unicode="&#x122;" horiz-adv-x="1599" 
d="M1466 743q31 0 31 -30v-64q0 -293 -180 -484.5t-481 -191.5q-309 0 -516 215t-207 529q0 305 208.5 519t512.5 214q256 0 483 -195q25 -20 2 -43l-64 -63q-20 -20 -43 0q-172 145 -378 145q-231 0 -395.5 -166.5t-164.5 -410.5q0 -252 162 -420t400 -168q217 0 360 131
t150 338h-488q-31 0 -31 31v84q0 31 31 30h608zM809 -78q45 0 77 -33.5t32 -99.5q0 -72 -41 -173t-109 -185l-49 34q76 115 86 256q-45 4 -71.5 32t-26.5 69q0 43 29.5 71.5t72.5 28.5z" />
    <glyph glyph-name="gcommaaccent" unicode="&#x123;" horiz-adv-x="1234" 
d="M608 1137q-45 0 -76.5 33.5t-31.5 99.5q0 72 41 173t108 185l49 -35q-76 -115 -86 -256q45 -4 72 -31.5t27 -68.5q0 -43 -30 -71.5t-73 -28.5zM1071 1004q31 0 31 -31v-953q0 -111 -46 -196.5t-122 -133.5t-162 -72t-178 -24q-227 0 -383 99q-25 14 -10 43l28 53
q12 27 41 12q147 -72 314 -71q150 0 259 70.5t109 215.5v164q-129 -184 -358 -184q-213 0 -352.5 149.5t-139.5 364.5t139.5 364.5t352.5 149.5q225 0 354 -180l8 129q4 31 31 31h84zM606 135q152 0 253.5 111.5t101.5 265.5q0 152 -101.5 262.5t-253.5 110.5
q-154 0 -255 -107.5t-101 -265.5q0 -160 101 -268.5t255 -108.5z" />
    <glyph glyph-name="Hbar" unicode="&#x126;" horiz-adv-x="1296" 
d="M1112 1434q31 0 31 -31v-1372q0 -31 -31 -31h-98q-31 0 -31 31v608h-670v-608q0 -31 -30 -31h-99q-31 0 -30 31v1372q0 31 30 31h99q31 0 30 -31v-281h670v281q0 31 31 31h98zM313 786h670v197h-670v-197z" />
    <glyph glyph-name="hbar" unicode="&#x127;" horiz-adv-x="1122" 
d="M637 1026q164 0 258 -101.5t94 -297.5v-596q0 -31 -31 -31h-92q-31 0 -30 31v585q0 131 -61.5 202t-170.5 71q-129 0 -218 -93.5t-89 -144.5v-620q0 -31 -31 -31h-92q-31 0 -31 31v1143h-82q-31 0 -30 30v66q0 31 30 30h82v164q0 31 31 31h92q31 0 31 -31v-164h321
q31 0 31 -30v-66q0 -31 -31 -30h-321v-343q133 195 340 195z" />
    <glyph glyph-name="Imacron" unicode="&#x12a;" horiz-adv-x="466" 
d="M512 1860q31 0 31 -31v-66q0 -31 -31 -30h-557q-31 0 -31 30v66q0 31 31 31h557zM154 1403q0 31 30 31h99q31 0 30 -31v-1372q0 -31 -30 -31h-99q-31 0 -30 31v1372z" />
    <glyph glyph-name="imacron" unicode="&#x12b;" horiz-adv-x="399" 
d="M479 1430q31 0 31 -31v-66q0 -31 -31 -30h-557q-31 0 -31 30v66q0 31 31 31h557zM123 973q0 31 31 31h92q31 0 30 -31v-942q0 -31 -30 -31h-92q-31 0 -31 31v942z" />
    <glyph glyph-name="Iogonek" unicode="&#x12e;" horiz-adv-x="466" 
d="M283 1434q31 0 30 -31v-1372q0 -31 -30 -31q-100 0 -167 -59.5t-67 -126.5q0 -70 47 -98.5t129 -10.5v-111q-37 -16 -89 -17t-102 16.5t-86 65.5t-36 122q0 104 69.5 176t172.5 106v1340q0 31 30 31h99z" />
    <glyph glyph-name="iogonek" unicode="&#x12f;" horiz-adv-x="399" 
d="M201 1266q-37 0 -63.5 26.5t-26.5 63.5q0 35 26.5 61.5t63.5 26.5t63.5 -26.5t26.5 -61.5q0 -37 -26.5 -63.5t-63.5 -26.5zM246 1004q31 0 30 -31v-942q0 -31 -30 -31q-100 0 -167 -59.5t-67 -126.5q0 -70 47 -98.5t129 -10.5v-111q-37 -16 -89 -17t-102 16.5t-86 65.5
t-36 122q0 104 72.5 178t175.5 107v907q0 31 31 31h92z" />
    <glyph glyph-name="Idotaccent" unicode="&#x130;" horiz-adv-x="466" 
d="M233.5 1696q-36.5 0 -63.5 26.5t-27 63.5q0 35 27 61.5t63.5 26.5t63.5 -26.5t27 -61.5q0 -37 -27 -63.5t-63.5 -26.5zM154 1403q0 31 30 31h99q31 0 30 -31v-1372q0 -31 -30 -31h-99q-31 0 -30 31v1372z" />
    <glyph glyph-name="dotlessi" unicode="&#x131;" horiz-adv-x="399" 
d="M123 973q0 31 31 31h92q31 0 30 -31v-942q0 -31 -30 -31h-92q-31 0 -31 31v942z" />
    <glyph glyph-name="IJ" unicode="&#x132;" horiz-adv-x="1497" 
d="M154 1403q0 31 30 31h99q31 0 30 -31v-1372q0 -31 -30 -31h-99q-31 0 -30 31v1372zM621 219q18 23 45 0q102 -88 235 -88q135 0 209 97.5t74 293.5v881q0 31 30 31h99q31 0 30 -31v-887q0 -272 -115.5 -403t-324.5 -131q-219 0 -334 131q-20 23 -2 43z" />
    <glyph glyph-name="ij" unicode="&#x133;" horiz-adv-x="976" 
d="M231 1243q-43 0 -70.5 28.5t-27.5 69.5t27.5 70t70.5 29q41 0 69 -29t28 -70t-28 -69.5t-69 -28.5zM745.5 1243q-40.5 0 -69.5 28.5t-29 69.5t29 70t69.5 29t69.5 -29t29 -70t-29 -69.5t-69.5 -28.5zM154 973q0 31 30 31h92q31 0 31 -31v-942q0 -31 -31 -31h-92
q-31 0 -30 31v942zM700 1004h93q31 0 30 -31v-963q0 -205 -87 -307t-244 -109q-18 0 -23 19l-27 96q-8 23 17 23q109 8 160 76.5t51 211.5v953q-1 31 30 31z" />
    <glyph glyph-name="Kcommaaccent" unicode="&#x136;" horiz-adv-x="1112" 
d="M1151 37q10 -16 5 -26.5t-23 -10.5h-121q-25 0 -37 18l-522 699l-140 -154v-532q0 -31 -30 -31h-99q-31 0 -30 31v1372q0 31 30 31h99q31 0 30 -31v-625l574 639q14 16 37 17h129q20 0 25 -11.5t-9 -25.5l-514 -568zM565 -78q45 0 77 -33.5t32 -99.5q0 -72 -41 -173
t-109 -185l-49 34q76 115 86 256q-45 4 -71.5 32t-26.5 69q0 43 29.5 71.5t72.5 28.5z" />
    <glyph glyph-name="kcommaaccent" unicode="&#x137;" horiz-adv-x="1067" 
d="M997 37q12 -16 6 -26.5t-24 -10.5h-102q-25 0 -37 18l-365 465l-188 -196v-256q0 -31 -31 -31h-92q-31 0 -31 31v1433q0 31 31 31h92q31 0 31 -31v-997l493 520q14 16 39 17h105q20 0 25 -10.5t-9 -26.5l-371 -387zM557 -78q45 0 77 -33.5t32 -99.5q0 -72 -41 -173
t-109 -185l-49 34q76 115 86 256q-45 4 -71.5 32t-26.5 69q0 43 29.5 71.5t72.5 28.5z" />
    <glyph glyph-name="Lacute" unicode="&#x139;" horiz-adv-x="993" 
d="M229 1538q-41 0 -24 35l123 258q10 25 34 24h68q41 0 25 -34l-123 -258q-10 -25 -35 -25h-68zM850 147q31 0 31 -30v-86q0 -31 -31 -31h-666q-31 0 -30 31v1372q0 31 30 31h99q31 0 30 -31v-1256h537z" />
    <glyph glyph-name="lacute" unicode="&#x13a;" horiz-adv-x="419" 
d="M383 1921q41 0 25 -35l-123 -258q-10 -25 -35 -24h-68q-41 0 -24 34l123 258q10 25 34 25h68zM133 1464q0 31 31 31h92q31 0 31 -31v-1433q0 -31 -31 -31h-92q-31 0 -31 31v1433z" />
    <glyph glyph-name="Lcommaaccent" unicode="&#x13b;" horiz-adv-x="993" 
d="M850 147q31 0 31 -30v-86q0 -31 -31 -31h-666q-31 0 -30 31v1372q0 31 30 31h99q31 0 30 -31v-1256h537zM498 -78q45 0 76.5 -33.5t31.5 -99.5q0 -72 -41 -173t-108 -185l-49 34q76 115 86 256q-45 4 -72 32t-27 69q0 43 30 71.5t73 28.5z" />
    <glyph glyph-name="lcommaaccent" unicode="&#x13c;" horiz-adv-x="419" 
d="M164 0q-31 0 -31 31v1433q0 31 31 31h92q31 0 31 -31v-1433q0 -31 -31 -31h-92zM217 -78q45 0 77 -33.5t32 -99.5q0 -72 -41 -173t-109 -185l-49 34q76 115 86 256q-45 4 -71.5 32t-26.5 69q0 43 29.5 71.5t72.5 28.5z" />
    <glyph glyph-name="Lcaron" unicode="&#x13d;" horiz-adv-x="993" 
d="M600 1272q-45 4 -71.5 31.5t-26.5 68.5q0 43 29.5 72t72.5 29q45 0 77 -34t32 -100q0 -72 -41 -173t-109 -185l-49 35q76 115 86 256zM850 147q31 0 31 -30v-86q0 -31 -31 -31h-666q-31 0 -30 31v1372q0 31 30 31h99q31 0 30 -31v-1256h537z" />
    <glyph glyph-name="lcaron" unicode="&#x13e;" horiz-adv-x="641" 
d="M494 1532q45 0 76.5 -34t31.5 -99q0 -72 -41 -173.5t-108 -185.5l-50 35q76 115 86 256q-45 4 -71.5 32t-26.5 69q0 43 30 71.5t73 28.5zM256 1495q31 0 31 -31v-1433q0 -31 -31 -31h-92q-31 0 -31 31v1433q0 31 31 31h92z" />
    <glyph glyph-name="Ldot" unicode="&#x13f;" horiz-adv-x="993" 
d="M850 147q31 0 31 -30v-86q0 -31 -31 -31h-666q-31 0 -30 31v1372q0 31 30 31h99q31 0 30 -31v-1256h537zM653 662q-41 0 -69.5 28.5t-28.5 69.5t28.5 69.5t69.5 28.5t70 -28.5t29 -69.5t-29 -69.5t-70 -28.5z" />
    <glyph glyph-name="ldot" unicode="&#x140;" horiz-adv-x="645" 
d="M133 1464q0 31 31 31h92q31 0 31 -31v-1433q0 -31 -31 -31h-92q-31 0 -31 31v1433zM465 657q-41 0 -69.5 29t-28.5 70t28.5 69.5t69.5 28.5t69.5 -28.5t28.5 -69.5t-28.5 -70t-69.5 -29z" />
    <glyph glyph-name="Lslash" unicode="&#x141;" horiz-adv-x="1026" 
d="M883 147q31 0 30 -30v-86q0 -31 -30 -31h-666q-31 0 -31 31v461l-88 -86q-16 -14 -26.5 -9.5t-10.5 25.5v100q0 23 17 39l108 105v737q0 31 31 31h98q31 0 31 -31v-582l213 207q14 14 25.5 9t11.5 -25v-99q0 -23 -16 -39l-234 -227v-500h537z" />
    <glyph glyph-name="lslash" unicode="&#x142;" horiz-adv-x="718" 
d="M627 1065v-133l-205 -215v-686q0 -31 -31 -31h-92q-31 0 -31 31v524l-176 -186v135l176 186v774q0 31 31 31h92q31 0 31 -31v-612l203 213h2z" />
    <glyph glyph-name="Nacute" unicode="&#x143;" horiz-adv-x="1363" 
d="M653 1542q-41 0 -24 35l123 258q10 25 34 25h68q41 0 25 -35l-123 -258q-10 -25 -35 -25h-68zM1180 1434q31 0 30 -31v-1372q0 -27 -24 -31h-137q-25 0 -37 20l-699 1184v-1173q0 -31 -30 -31h-99q-31 0 -30 31v1372q0 27 24 31h137q25 0 37 -21l699 -1184v1174
q0 31 30 31h99z" />
    <glyph glyph-name="nacute" unicode="&#x144;" horiz-adv-x="1112" 
d="M528 1112q-41 0 -24 35l123 258q10 25 35 25h67q41 0 25 -35l-123 -258q-10 -25 -35 -25h-68zM627 1026q164 0 258 -101.5t94 -297.5v-596q0 -31 -31 -31h-92q-31 0 -31 31v585q0 131 -61.5 202t-169.5 71q-129 0 -218 -93.5t-89 -144.5v-620q0 -31 -31 -31h-92
q-31 0 -31 31v942q0 31 31 31h84q27 0 31 -31l8 -142q133 195 340 195z" />
    <glyph glyph-name="Ncommaaccent" unicode="&#x145;" horiz-adv-x="1363" 
d="M1180 1434q31 0 30 -31v-1372q0 -27 -24 -31h-137q-25 0 -37 20l-699 1184v-1173q0 -31 -30 -31h-99q-31 0 -30 31v1372q0 27 24 31h137q25 0 37 -21l699 -1184v1174q0 31 30 31h99zM688 -78q45 0 77 -33.5t32 -99.5q0 -72 -41 -173t-109 -185l-49 34q76 115 86 256
q-45 4 -71.5 32t-26.5 69q0 43 29.5 71.5t72.5 28.5z" />
    <glyph glyph-name="ncommaaccent" unicode="&#x146;" horiz-adv-x="1112" 
d="M627 1026q164 0 258 -101.5t94 -297.5v-596q0 -31 -31 -31h-92q-31 0 -31 31v585q0 131 -61.5 202t-169.5 71q-129 0 -218 -93.5t-89 -144.5v-620q0 -31 -31 -31h-92q-31 0 -31 31v942q0 31 31 31h84q27 0 31 -31l8 -142q133 195 340 195zM563 -78q45 0 77 -33.5
t32 -99.5q0 -72 -41 -173t-109 -185l-49 34q76 115 86 256q-45 4 -71.5 32t-26.5 69q0 43 29.5 71.5t72.5 28.5z" />
    <glyph glyph-name="Ncaron" unicode="&#x147;" horiz-adv-x="1363" 
d="M598 1618l-178 205q-12 16 -8 26.5t24 10.5h62q23 0 37 -17l147 -170l147 170q14 16 37 17h62q20 0 24 -10.5t-8 -26.5l-178 -205q-14 -16 -37 -16h-94q-23 0 -37 16zM1180 1434q31 0 30 -31v-1372q0 -27 -24 -31h-137q-25 0 -37 20l-699 1184v-1173q0 -31 -30 -31h-99
q-31 0 -30 31v1372q0 27 24 31h137q25 0 37 -21l699 -1184v1174q0 31 30 31h99z" />
    <glyph glyph-name="ncaron" unicode="&#x148;" horiz-adv-x="1112" 
d="M473 1188l-178 205q-12 16 -8 26.5t24 10.5h62q23 0 37 -17l147 -170l148 170q14 16 36 17h62q20 0 24 -10.5t-8 -26.5l-178 -205q-14 -16 -37 -17h-94q-23 1 -37 17zM627 1026q164 0 258 -101.5t94 -297.5v-596q0 -31 -31 -31h-92q-31 0 -31 31v585q0 131 -61.5 202
t-169.5 71q-129 0 -218 -93.5t-89 -144.5v-620q0 -31 -31 -31h-92q-31 0 -31 31v942q0 31 31 31h84q27 0 31 -31l8 -142q133 195 340 195z" />
    <glyph glyph-name="Eng" unicode="&#x14a;" horiz-adv-x="1363" 
d="M1180 1434q31 0 30 -31v-1372q0 -8 -4 -17q-20 -223 -134 -330.5t-302 -107.5q-219 0 -334 131q-18 23 -2 43l53 64q18 23 45 0q102 -88 236 -88q231 0 274 274q-18 4 -30 20l-699 1184v-1173q0 -31 -30 -31h-99q-31 0 -30 31v1372q0 27 24 31h137q25 0 37 -21l699 -1184
v1174q0 31 30 31h99z" />
    <glyph glyph-name="eng" unicode="&#x14b;" horiz-adv-x="1112" 
d="M627 1026q164 0 258 -101.5t94 -297.5v-596q0 -14 -10 -25q-2 -205 -88 -308.5t-244 -103.5q-18 0 -23 19l-26 96q-8 23 16 23q211 0 211 288v156h10v440q0 131 -61.5 202t-169.5 71q-129 0 -218 -93.5t-89 -144.5v-620q0 -31 -31 -31h-92q-31 0 -31 31v942q0 31 31 31
h84q27 0 31 -31l8 -142q133 195 340 195z" />
    <glyph glyph-name="Omacron" unicode="&#x14c;" horiz-adv-x="1689" 
d="M1124 1860q31 0 31 -31v-66q0 -31 -31 -30h-557q-31 0 -30 30v66q0 31 30 31h557zM846 -27q-305 0 -519 215t-214 523q0 309 214 524t519 215q303 0 517 -216t214 -523.5t-214 -522.5t-517 -215zM845.5 129q241.5 0 406.5 168t165 414q0 248 -165 415.5t-406 167.5
q-244 0 -409 -168t-165 -415q0 -246 166 -414t407.5 -168z" />
    <glyph glyph-name="omacron" unicode="&#x14d;" horiz-adv-x="1220" 
d="M889 1430q31 0 31 -31v-66q0 -31 -31 -30h-557q-31 0 -31 30v66q0 31 31 31h557zM610 -20q-215 0 -361.5 151.5t-146.5 370.5q0 221 146.5 372.5t361.5 151.5t361.5 -151.5t146.5 -372.5q0 -219 -146.5 -370.5t-361.5 -151.5zM610.5 119q153.5 0 257 108.5t103.5 274.5
t-103.5 275.5t-257 109.5t-257 -109.5t-103.5 -275.5t103.5 -274.5t257 -108.5z" />
    <glyph glyph-name="Ohungarumlaut" unicode="&#x150;" horiz-adv-x="1689" 
d="M815 1860q41 0 25 -35l-123 -258q-10 -25 -35 -25h-68q-41 0 -24 35l123 258q10 25 35 25h67zM1112 1860q41 0 25 -35l-123 -258q-10 -25 -35 -25h-68q-41 0 -24 35l123 258q10 25 34 25h68zM846 -27q-305 0 -519 215t-214 523q0 309 214 524t519 215q303 0 517 -216
t214 -523.5t-214 -522.5t-517 -215zM845.5 129q241.5 0 406.5 168t165 414q0 248 -165 415.5t-406 167.5q-244 0 -409 -168t-165 -415q0 -246 166 -414t407.5 -168z" />
    <glyph glyph-name="ohungarumlaut" unicode="&#x151;" horiz-adv-x="1220" 
d="M580 1430q41 0 24 -35l-123 -258q-10 -25 -35 -25h-67q-41 0 -25 35l123 258q10 25 35 25h68zM877 1430q41 0 24 -35l-123 -258q-10 -25 -35 -25h-67q-41 0 -25 35l123 258q10 25 35 25h68zM610 -20q-215 0 -361.5 151.5t-146.5 370.5q0 221 146.5 372.5t361.5 151.5
t361.5 -151.5t146.5 -372.5q0 -219 -146.5 -370.5t-361.5 -151.5zM610.5 119q153.5 0 257 108.5t103.5 274.5t-103.5 275.5t-257 109.5t-257 -109.5t-103.5 -275.5t103.5 -274.5t257 -108.5z" />
    <glyph glyph-name="OE" unicode="&#x152;" horiz-adv-x="2322" 
d="M2159 147q31 0 30 -30v-86q0 -31 -30 -31h-707q-31 0 -31 31v223q-102 -131 -252.5 -206t-322.5 -75q-305 0 -519 215t-214 523q0 309 214 524t519 215q172 0 322.5 -76t252.5 -207v236q0 31 31 31h705q31 0 30 -31v-86q0 -31 -30 -31h-576v-452h541q31 0 30 -31v-86
q0 -31 -30 -31h-541v-539h578zM845.5 129q241.5 0 406.5 168t165 414q0 248 -165 415.5t-406 167.5q-244 0 -409 -168t-165 -415q0 -246 166 -414t407.5 -168z" />
    <glyph glyph-name="oe" unicode="&#x153;" horiz-adv-x="2035" 
d="M1462 1024q209 0 340 -142.5t131 -336.5q0 -57 -11 -80t-48 -23h-752q18 -141 118.5 -230t254.5 -89q160 0 274 96q25 20 43 4l39 -37q25 -25 2 -47q-147 -154 -374 -153q-141 0 -255 64.5t-180 176.5q-68 -115 -182 -181t-252 -66q-215 0 -361.5 151.5t-146.5 370.5
q0 221 146.5 372.5t361.5 151.5q137 0 251 -65.5t181 -178.5q63 111 173 176.5t247 65.5zM610.5 119q153.5 0 257 108.5t103.5 274.5t-103.5 275.5t-257 109.5t-257 -109.5t-103.5 -275.5t103.5 -274.5t257 -108.5zM1462 887q-139 0 -232 -91t-110 -235h678
q-8 139 -101.5 232.5t-234.5 93.5z" />
    <glyph glyph-name="Racute" unicode="&#x154;" horiz-adv-x="1173" 
d="M532 1542q-41 0 -24 35l123 258q10 25 35 25h67q41 0 25 -35l-123 -258q-10 -25 -35 -25h-68zM1055 37q23 -37 -21 -37h-108q-25 0 -37 20l-348 525h-228v-514q0 -31 -30 -31h-99q-31 0 -30 31v1372q0 31 30 31h385q227 0 353.5 -124t126.5 -321q0 -164 -90.5 -280.5
t-256.5 -151.5zM313 1286v-594h248q150 0 241 72t91 225.5t-91 225t-241 71.5h-248z" />
    <glyph glyph-name="racute" unicode="&#x155;" horiz-adv-x="704" 
d="M313 1112q-41 0 -24 35l123 258q10 25 34 25h68q41 0 25 -35l-123 -258q-10 -25 -35 -25h-68zM653 993q16 -10 6 -32l-32 -72q-10 -20 -37 -15q-45 10 -80 11q-94 0 -158.5 -63.5t-64.5 -159.5v-631q0 -31 -31 -31h-92q-31 0 -31 31v942q0 31 31 31h82q27 0 30 -31l9 -88
q92 141 247 141q76 0 121 -33z" />
    <glyph glyph-name="Rcommaaccent" unicode="&#x156;" horiz-adv-x="1173" 
d="M1055 37q23 -37 -21 -37h-108q-25 0 -37 20l-348 525h-228v-514q0 -31 -30 -31h-99q-31 0 -30 31v1372q0 31 30 31h385q227 0 353.5 -124t126.5 -321q0 -164 -90.5 -280.5t-256.5 -151.5zM313 1286v-594h248q150 0 241 72t91 225.5t-91 225t-241 71.5h-248zM567 -78
q45 0 77 -33.5t32 -99.5q0 -72 -41 -173t-109 -185l-49 34q76 115 86 256q-45 4 -71.5 32t-26.5 69q0 43 29.5 71.5t72.5 28.5z" />
    <glyph glyph-name="rcommaaccent" unicode="&#x157;" horiz-adv-x="704" 
d="M653 993q16 -10 6 -32l-32 -72q-10 -20 -37 -15q-45 10 -80 11q-94 0 -158.5 -63.5t-64.5 -159.5v-631q0 -31 -31 -31h-92q-31 0 -31 31v942q0 31 31 31h82q27 0 30 -31l9 -88q92 141 247 141q76 0 121 -33zM217 -78q45 0 77 -33.5t32 -99.5q0 -72 -41 -173t-109 -185
l-49 34q76 115 86 256q-45 4 -71.5 32t-26.5 69q0 43 29.5 71.5t72.5 28.5z" />
    <glyph glyph-name="Rcaron" unicode="&#x158;" horiz-adv-x="1173" 
d="M477 1618l-178 205q-12 16 -8 26.5t24 10.5h62q23 0 37 -17l147 -170l148 170q14 16 36 17h62q20 0 24.5 -10.5t-8.5 -26.5l-178 -205q-14 -16 -37 -16h-94q-23 0 -37 16zM1055 37q23 -37 -21 -37h-108q-25 0 -37 20l-348 525h-228v-514q0 -31 -30 -31h-99q-31 0 -30 31
v1372q0 31 30 31h385q227 0 353.5 -124t126.5 -321q0 -164 -90.5 -280.5t-256.5 -151.5zM313 1286v-594h248q150 0 241 72t91 225.5t-91 225t-241 71.5h-248z" />
    <glyph glyph-name="rcaron" unicode="&#x159;" horiz-adv-x="704" 
d="M295 1171q-23 0 -37 17l-178 205q-12 16 -8 26.5t24 10.5h62q23 0 37 -17l147 -170l147 170q14 16 37 17h62q20 0 24 -10.5t-8 -26.5l-178 -205q-14 -16 -37 -17h-94zM653 993q16 -10 6 -32l-32 -72q-10 -20 -37 -15q-45 10 -80 11q-94 0 -158.5 -63.5t-64.5 -159.5v-631
q0 -31 -31 -31h-92q-31 0 -31 31v942q0 31 31 31h82q27 0 30 -31l9 -88q92 141 247 141q76 0 121 -33z" />
    <glyph glyph-name="Sacute" unicode="&#x15a;" horiz-adv-x="1126" 
d="M717 1860q41 0 24 -35l-123 -258q-10 -25 -34 -25h-68q-41 0 -24 35l122 258q10 25 35 25h68zM289 1083q0 -92 75.5 -155.5t183 -103.5t216 -88t184.5 -139t76 -226q0 -166 -136 -281t-331 -115q-147 0 -267 59.5t-181 158.5q-14 23 6 40l59 58q20 18 43 -4
q164 -164 338 -164q139 0 225 73.5t86 182.5q0 94 -74.5 159.5t-182 107.5t-215 89t-182.5 135t-75 215q0 158 118 261.5t296 103.5q115 0 222.5 -51t182.5 -142q18 -20 -2 -43l-51 -53q-23 -23 -43 -2q-145 145 -309 146q-115 0 -188.5 -60t-73.5 -162z" />
    <glyph glyph-name="sacute" unicode="&#x15b;" horiz-adv-x="913" 
d="M631 1430q41 0 24 -35l-123 -258q-10 -25 -34 -25h-68q-41 0 -24 35l122 258q10 25 35 25h68zM268 752q0 -61 57.5 -102.5t138.5 -68t162 -58t138 -98.5t57 -165q0 -123 -104.5 -201.5t-241.5 -78.5q-117 0 -215 48t-158 119q-18 20 -2 39l45 56q16 20 43 -2
q135 -125 283 -125q90 0 145.5 39t55.5 108q0 66 -56.5 110t-137.5 71.5t-163 59.5t-138 94t-56 155q0 119 93 196.5t230 77.5q84 0 172.5 -40t149.5 -112q16 -18 -2 -43l-35 -45q-16 -23 -45 2q-123 106 -240 107q-68 0 -122 -34.5t-54 -108.5z" />
    <glyph glyph-name="Scedilla" unicode="&#x15e;" horiz-adv-x="1126" 
d="M1024 371q0 -156 -121 -267.5t-301 -126.5l-55 -57q70 -4 118 -47t48 -111q0 -117 -93.5 -164t-216.5 -30q-18 2 -18 22v58q0 20 23 20q84 -10 133 12.5t49 71.5q0 45 -53.5 64.5t-126.5 -4.5q-25 -10 -25 14v53q0 10 10 25l74 78q-119 16 -214 72.5t-146 138.5
q-14 23 6 40l59 58q20 18 43 -4q164 -164 338 -164q139 0 225 73.5t86 182.5q0 94 -74.5 159.5t-182 107.5t-215 89t-182.5 135t-75 215q0 158 118 261.5t296 103.5q115 0 222.5 -51t182.5 -142q18 -20 -2 -43l-51 -53q-23 -23 -43 -2q-145 145 -309 146
q-115 0 -188.5 -59.5t-73.5 -162.5q0 -92 75.5 -155.5t183 -103.5t216 -88t184.5 -139t76 -226z" />
    <glyph glyph-name="scedilla" unicode="&#x15f;" horiz-adv-x="913" 
d="M821 260q0 -113 -88 -188.5t-213 -89.5l-59 -62q70 -4 118 -47t48 -111q0 -117 -93.5 -164t-216.5 -30q-18 2 -18 22v58q0 20 23 20q84 -10 133 12.5t49 71.5q0 45 -53.5 64.5t-126.5 -4.5q-25 -10 -25 14v53q0 10 10 25l78 84q-174 31 -285 159q-18 20 -2 39l45 56
q16 20 43 -2q135 -125 283 -125q90 0 145.5 39t55.5 108q0 66 -56.5 110t-137.5 71.5t-163 59.5t-138 94t-56 155q0 119 93 196.5t230 77.5q84 0 172.5 -40t149.5 -112q16 -18 -2 -43l-35 -45q-16 -23 -45 2q-123 106 -240 107q-68 0 -122 -35t-54 -108q0 -61 57.5 -102.5
t138.5 -68t162 -58t138 -98.5t57 -165z" />
    <glyph glyph-name="Scaron" unicode="&#x160;" horiz-adv-x="1126" 
d="M592 1602h-94q-23 0 -37 16l-178 205q-12 16 -8 26.5t24 10.5h61q23 0 37 -17l148 -170l147 170q14 16 37 17h62q20 0 24 -10.5t-8 -26.5l-178 -205q-14 -16 -37 -16zM289 1083q0 -92 75.5 -155.5t183 -103.5t216 -88t184.5 -139t76 -226q0 -166 -136 -281t-331 -115
q-147 0 -267 59.5t-181 158.5q-14 23 6 40l59 58q20 18 43 -4q164 -164 338 -164q139 0 225 73.5t86 182.5q0 94 -74.5 159.5t-182 107.5t-215 89t-182.5 135t-75 215q0 158 118 261.5t296 103.5q115 0 222.5 -51t182.5 -142q18 -20 -2 -43l-51 -53q-23 -23 -43 -2
q-145 145 -309 146q-115 0 -188.5 -60t-73.5 -162z" />
    <glyph glyph-name="scaron" unicode="&#x161;" horiz-adv-x="913" 
d="M506 1171h-94q-23 0 -37 17l-178 205q-12 16 -8 26.5t24 10.5h61q23 0 37 -17l148 -170l147 170q14 16 37 17h62q20 0 24 -10.5t-8 -26.5l-178 -205q-14 -17 -37 -17zM268 752q0 -61 57.5 -102.5t138.5 -68t162 -58t138 -98.5t57 -165q0 -123 -104.5 -201.5t-241.5 -78.5
q-117 0 -215 48t-158 119q-18 20 -2 39l45 56q16 20 43 -2q135 -125 283 -125q90 0 145.5 39t55.5 108q0 66 -56.5 110t-137.5 71.5t-163 59.5t-138 94t-56 155q0 119 93 196.5t230 77.5q84 0 172.5 -40t149.5 -112q16 -18 -2 -43l-35 -45q-16 -23 -45 2q-123 106 -240 107
q-68 0 -122 -34.5t-54 -108.5z" />
    <glyph glyph-name="Tcommaaccent" unicode="&#x162;" horiz-adv-x="1097" 
d="M954 1434q31 0 31 -31v-86q0 -31 -31 -31h-325v-1255q0 -31 -31 -31h31l-78 -80q70 -4 118 -47t48 -111q0 -117 -93.5 -164t-215.5 -30q-18 2 -19 22v58q0 20 23 20q84 -10 133 12.5t49 71.5q0 45 -53.5 64.5t-126.5 -4.5q-25 -10 -25 14v53q0 10 10 25l90 96h11
q-31 0 -31 31v1255h-326q-31 0 -30 31v86q0 31 30 31h811z" />
    <glyph glyph-name="tcommaaccent" unicode="&#x163;" horiz-adv-x="706" 
d="M594 1004q31 0 31 -31v-70q0 -31 -31 -31h-164v-841q0 -25 -22 -31l-62 -61q70 -4 118 -47.5t48 -110.5q0 -117 -93 -164t-216 -31q-18 4 -19 23v57q0 20 23 21q84 -10 133 12t49 72q0 45 -53 64.5t-127 -5.5q-25 -10 -25 14v54q0 10 11 24l86 92q-4 8 -5 17v841h-163
q-31 0 -31 31v70q0 31 31 31h163v276q0 31 31 31h92q31 0 31 -31v-276h164z" />
    <glyph glyph-name="Tcaron" unicode="&#x164;" horiz-adv-x="1097" 
d="M596 1602h-94q-23 0 -37 16l-178 205q-12 16 -8 26.5t24 10.5h62q23 0 36 -17l148 -170l147 170q14 16 37 17h62q20 0 24 -10.5t-8 -26.5l-178 -205q-14 -16 -37 -16zM954 1434q31 0 31 -31v-86q0 -31 -31 -31h-325v-1255q0 -31 -31 -31h-98q-31 0 -31 31v1255h-326
q-31 0 -30 31v86q0 31 30 31h811z" />
    <glyph glyph-name="tcaron" unicode="&#x165;" horiz-adv-x="765" 
d="M707 1436q41 0 24 -35l-123 -258q-10 -25 -35 -25h-67q-41 0 -25 35l123 258q10 25 35 25h68zM594 1004q31 0 31 -31v-70q0 -31 -31 -31h-164v-841q0 -31 -31 -31h-92q-31 0 -31 31v841h-163q-31 0 -31 31v70q0 31 31 31h163v276q0 31 31 31h92q31 0 31 -31v-276h164z
" />
    <glyph glyph-name="Tbar" unicode="&#x166;" horiz-adv-x="1097" 
d="M954 1434q31 0 31 -31v-86q0 -31 -31 -31h-325v-282h188q31 0 31 -31v-66q0 -31 -31 -30h-188v-846q0 -31 -31 -31h-98q-31 0 -31 31v846h-209q-31 0 -31 30v66q0 31 31 31h209v282h-326q-31 0 -30 31v86q0 31 30 31h811z" />
    <glyph glyph-name="tbar" unicode="&#x167;" horiz-adv-x="706" 
d="M594 1004q31 0 31 -31v-70q0 -31 -31 -31h-164v-145h123q31 0 31 -31v-69q0 -31 -31 -31h-123v-565q0 -31 -31 -31h-92q-31 0 -31 31v565h-163q-31 0 -31 31v69q0 31 31 31h163v145h-163q-31 0 -31 31v70q0 31 31 31h163v276q0 31 31 31h92q31 0 31 -31v-276h164z" />
    <glyph glyph-name="Umacron" unicode="&#x16a;" horiz-adv-x="1314" 
d="M936 1860q31 0 31 -31v-66q0 -31 -31 -30h-557q-31 0 -31 30v66q0 31 31 31h557zM1141 1434q31 0 30 -31v-848q0 -279 -141 -430.5t-372.5 -151.5t-373 151.5t-141.5 430.5v848q0 31 31 31h98q31 0 31 -31v-848q0 -213 97.5 -322.5t257 -109.5t257 109.5t97.5 322.5v848
q0 31 30 31h99z" />
    <glyph glyph-name="umacron" unicode="&#x16b;" horiz-adv-x="1101" 
d="M268 1303q-31 0 -30 30v66q0 31 30 31h557q31 0 31 -31v-66q0 -31 -31 -30h-557zM938 1004q31 0 31 -31v-942q0 -31 -31 -31h-84q-27 0 -31 31l-8 123q-123 -180 -321 -181q-176 0 -273.5 102.5t-97.5 301.5v596q0 31 31 31h92q31 0 30 -31v-586q0 -133 63.5 -205.5
t176.5 -72.5q127 0 213 91t86 156v617q0 31 31 31h92z" />
    <glyph glyph-name="Ubreve" unicode="&#x16c;" horiz-adv-x="1314" 
d="M831 1833q6 29 33 29h45q33 0 29 -31q-10 -104 -86 -173t-194.5 -69t-194.5 68.5t-86 173.5q-4 31 29 31h45q27 0 32 -29q12 -61 58.5 -99t116 -38t115.5 38t58 99zM1141 1434q31 0 30 -31v-848q0 -279 -141 -430.5t-372.5 -151.5t-373 151.5t-141.5 430.5v848
q0 31 31 31h98q31 0 31 -31v-848q0 -213 97.5 -322.5t257 -109.5t257 109.5t97.5 322.5v848q0 31 30 31h99z" />
    <glyph glyph-name="ubreve" unicode="&#x16d;" horiz-adv-x="1101" 
d="M547 1159q-119 0 -195 68.5t-86 173.5q-4 31 29 31h45q27 0 33 -29q12 -61 58 -99t115.5 -38t116 37.5t58.5 99.5q6 29 33 29h45q33 0 28 -31q-10 -104 -85.5 -173t-194.5 -69zM938 1004q31 0 31 -31v-942q0 -31 -31 -31h-84q-27 0 -31 31l-8 123q-123 -180 -321 -181
q-176 0 -273.5 102.5t-97.5 301.5v596q0 31 31 31h92q31 0 30 -31v-586q0 -133 63.5 -205.5t176.5 -72.5q127 0 213 91t86 156v617q0 31 31 31h92z" />
    <glyph glyph-name="Uring" unicode="&#x16e;" horiz-adv-x="1314" 
d="M659 1903q66 0 114 -48.5t48 -114t-48 -113.5t-114 -48q-70 0 -117.5 47t-47.5 114.5t47.5 115t117.5 47.5zM659 1686q23 0 39.5 16t16.5 38.5t-16.5 39t-39.5 16.5q-25 0 -41 -16.5t-16 -39t16 -38.5t41 -16zM1141 1434q31 0 30 -31v-848q0 -279 -141 -430.5
t-372.5 -151.5t-373 151.5t-141.5 430.5v848q0 31 31 31h98q31 0 31 -31v-848q0 -213 97.5 -322.5t257 -109.5t257 109.5t97.5 322.5v848q0 31 30 31h99z" />
    <glyph glyph-name="uring" unicode="&#x16f;" horiz-adv-x="1101" 
d="M549 1149q-70 0 -118 47t-48 114.5t48 115t118 47.5q66 0 114 -48.5t48 -114t-48 -113.5t-114 -48zM549 1366q-25 0 -41 -16.5t-16 -39t16 -39t41 -16.5q23 0 39 16.5t16 39t-16 39t-39 16.5zM938 1004q31 0 31 -31v-942q0 -31 -31 -31h-84q-27 0 -31 31l-8 123
q-123 -180 -321 -181q-176 0 -273.5 102.5t-97.5 301.5v596q0 31 31 31h92q31 0 30 -31v-586q0 -133 63.5 -205.5t176.5 -72.5q127 0 213 91t86 156v617q0 31 31 31h92z" />
    <glyph glyph-name="Uhungarumlaut" unicode="&#x170;" horiz-adv-x="1314" 
d="M627 1860q41 0 24 -35l-123 -258q-10 -25 -34 -25h-68q-41 0 -25 35l123 258q10 25 35 25h68zM924 1860q41 0 24 -35l-123 -258q-10 -25 -34 -25h-68q-41 0 -25 35l123 258q10 25 35 25h68zM1141 1434q31 0 30 -31v-848q0 -279 -141 -430.5t-372.5 -151.5t-373 151.5
t-141.5 430.5v848q0 31 31 31h98q31 0 31 -31v-848q0 -213 97.5 -322.5t257 -109.5t257 109.5t97.5 322.5v848q0 31 30 31h99z" />
    <glyph glyph-name="uhungarumlaut" unicode="&#x171;" horiz-adv-x="1101" 
d="M315 1112q-41 0 -24 35l123 258q10 25 35 25h67q41 0 25 -35l-123 -258q-10 -25 -35 -25h-68zM612 1112q-41 0 -24 35l123 258q10 25 34 25h68q41 0 25 -35l-123 -258q-10 -25 -35 -25h-68zM938 1004q31 0 31 -31v-942q0 -31 -31 -31h-84q-27 0 -31 31l-8 123
q-123 -180 -321 -181q-176 0 -273.5 102.5t-97.5 301.5v596q0 31 31 31h92q31 0 30 -31v-586q0 -133 63.5 -205.5t176.5 -72.5q127 0 213 91t86 156v617q0 31 31 31h92z" />
    <glyph glyph-name="Uogonek" unicode="&#x172;" horiz-adv-x="1314" 
d="M1141 1434q31 0 30 -31v-848q0 -231 -99 -375.5t-269 -187.5q-164 -74 -164 -185q0 -66 47 -93t129 -9v-111q-37 -16 -89 -17t-102.5 16.5t-86 65.5t-35.5 122q0 115 98 194q-209 18 -333 168t-124 412v848q0 31 31 31h98q31 0 31 -31v-848q0 -213 97.5 -322.5
t257 -109.5t257 109.5t97.5 322.5v848q0 31 30 31h99z" />
    <glyph glyph-name="uogonek" unicode="&#x173;" horiz-adv-x="1101" 
d="M938 1004q31 0 31 -31v-942q0 -31 -31 -31q-106 0 -169.5 -58.5t-63.5 -128t47 -98t129 -10.5v-111q-37 -16 -89.5 -17t-102.5 16.5t-86 65.5t-36 122q0 104 74 177t180 108l-6 88q-123 -180 -321 -181q-176 0 -273.5 102.5t-97.5 301.5v596q0 31 31 31h92q31 0 30 -31
v-586q0 -133 63.5 -205.5t176.5 -72.5q127 0 213 91t86 156v617q0 31 31 31h92z" />
    <glyph glyph-name="Wcircumflex" unicode="&#x174;" horiz-adv-x="2267" 
d="M889 1602q-20 0 -24.5 10t7.5 26l179 205q14 16 36 17h95q23 0 37 -17l178 -205q12 -16 8 -26t-25 -10h-61q-23 0 -37 16l-147 170l-148 -170q-14 -16 -37 -16h-61zM2138 1434q35 0 25 -35l-447 -1374q-8 -25 -37 -25h-108q-31 0 -37 25l-401 1169l-404 -1169
q-8 -25 -37 -25h-108q-31 0 -37 25l-443 1374q-14 35 25 35h98q27 0 35 -25l377 -1214l414 1214q4 12 12 18q6 6 20 7h93q10 0 18 -4q8 -6 14 -21l414 -1214l381 1214q6 25 35 25h98z" />
    <glyph glyph-name="wcircumflex" unicode="&#x175;" horiz-adv-x="1828" 
d="M670 1171q-20 0 -24.5 10.5t7.5 26.5l178 205q14 16 37 17h95q23 0 36 -17l179 -205q12 -16 8 -26.5t-25 -10.5h-61q-23 0 -37 17l-148 170l-147 -170q-14 -16 -37 -17h-61zM1718 1004q37 0 25 -35l-357 -944q-10 -25 -36 -25h-101q-29 0 -37 25l-297 776l-299 -776
q-10 -25 -36 -25h-101q-29 0 -37 25l-356 944q-12 35 25 35h90q29 0 37 -25l294 -809l306 809q6 18 20 20q8 4 16 5h80q8 0 17 -5q14 -2 20 -20l305 -809l295 809q10 25 37 25h90z" />
    <glyph glyph-name="Ycircumflex" unicode="&#x176;" horiz-adv-x="1224" 
d="M367 1602q-20 0 -24.5 10t7.5 26l178 205q14 16 37 17h94q23 0 37 -17l178 -205q12 -16 8.5 -26t-24.5 -10h-61q-23 0 -37 16l-148 170l-147 -170q-14 -16 -37 -16h-61zM1096 1434q18 0 24 -10.5t-4 -26.5l-424 -703v-663q0 -31 -30 -31h-99q-31 0 -31 31v663l-423 703
q-10 16 -4 26.5t24 10.5h104q25 0 37 -21l342 -569l342 569q12 20 37 21h105z" />
    <glyph glyph-name="ycircumflex" unicode="&#x177;" horiz-adv-x="1099" 
d="M596 1430q23 0 37 -17l178 -205q12 -16 8 -26.5t-24 -10.5h-62q-23 0 -37 17l-147 170l-148 -170q-14 -16 -36 -17h-62q-20 0 -24.5 10.5t8.5 26.5l178 205q14 16 37 17h94zM989 1004q37 0 25 -35l-529 -1334q-10 -25 -36 -24h-95q-37 0 -24 35l141 350l-385 973
q-12 35 25 35h94q29 0 37 -25l307 -805l307 805q10 25 37 25h96z" />
    <glyph glyph-name="Ydieresis" unicode="&#x178;" horiz-adv-x="1224" 
d="M426 1696q-37 0 -63.5 26.5t-26.5 63.5q0 35 26.5 61.5t63.5 26.5t63.5 -26.5t26.5 -61.5q0 -37 -26.5 -63.5t-63.5 -26.5zM801 1696q-37 0 -63.5 26.5t-26.5 63.5q0 35 26.5 61.5t63.5 26.5t63.5 -26.5t26.5 -61.5q0 -37 -26.5 -63.5t-63.5 -26.5zM1096 1434
q18 0 24 -10.5t-4 -26.5l-424 -703v-663q0 -31 -30 -31h-99q-31 0 -31 31v663l-423 703q-10 16 -4 26.5t24 10.5h104q25 0 37 -21l342 -569l342 569q12 20 37 21h105z" />
    <glyph glyph-name="Zacute" unicode="&#x179;" horiz-adv-x="1191" 
d="M768 1860q41 0 25 -35l-123 -258q-10 -25 -35 -25h-68q-41 0 -24 35l123 258q10 25 34 25h68zM1038 147q31 0 31 -30v-86q0 -31 -31 -31h-884q-31 0 -31 31v96q0 18 12 37l748 1122h-709q-31 0 -31 31v86q0 31 31 31h844q31 0 31 -31v-96q0 -18 -13 -37l-747 -1123h749z
" />
    <glyph glyph-name="zacute" unicode="&#x17a;" horiz-adv-x="993" 
d="M670 1430q41 0 24 -35l-123 -258q-10 -25 -34 -25h-68q-41 0 -25 35l123 258q10 25 35 25h68zM901 973v-78q0 -25 -14 -39l-615 -725h598q31 0 31 -31v-69q0 -31 -31 -31h-747q-31 0 -31 31v78q0 25 14 38l615 725h-598q-31 0 -31 31v70q0 31 31 31h747q31 0 31 -31z" />
    <glyph glyph-name="Zdotaccent" unicode="&#x17b;" horiz-adv-x="1191" 
d="M596 1696q-37 0 -63.5 26.5t-26.5 63.5q0 35 26.5 61.5t63.5 26.5t63.5 -26.5t26.5 -61.5q0 -37 -26.5 -63.5t-63.5 -26.5zM1038 147q31 0 31 -30v-86q0 -31 -31 -31h-884q-31 0 -31 31v96q0 18 12 37l748 1122h-709q-31 0 -31 31v86q0 31 31 31h844q31 0 31 -31v-96
q0 -18 -13 -37l-747 -1123h749z" />
    <glyph glyph-name="zdotaccent" unicode="&#x17c;" horiz-adv-x="993" 
d="M498 1266q-37 0 -63.5 26.5t-26.5 63.5q0 35 26.5 61.5t63.5 26.5t63.5 -26.5t26.5 -61.5q0 -37 -26.5 -63.5t-63.5 -26.5zM901 973v-78q0 -25 -14 -39l-615 -725h598q31 0 31 -31v-69q0 -31 -31 -31h-747q-31 0 -31 31v78q0 25 14 38l615 725h-598q-31 0 -31 31v70
q0 31 31 31h747q31 0 31 -31z" />
    <glyph glyph-name="Zcaron" unicode="&#x17d;" horiz-adv-x="1191" 
d="M643 1602h-94q-23 0 -37 16l-178 205q-12 16 -8 26.5t24 10.5h62q23 0 37 -17l147 -170l147 170q14 16 37 17h62q20 0 24 -10.5t-8 -26.5l-178 -205q-14 -16 -37 -16zM1038 147q31 0 31 -30v-86q0 -31 -31 -31h-884q-31 0 -31 31v96q0 18 12 37l748 1122h-709
q-31 0 -31 31v86q0 31 31 31h844q31 0 31 -31v-96q0 -18 -13 -37l-747 -1123h749z" />
    <glyph glyph-name="zcaron" unicode="&#x17e;" horiz-adv-x="993" 
d="M545 1171h-94q-23 0 -37 17l-178 205q-12 16 -8.5 26.5t24.5 10.5h61q23 0 37 -17l148 -170l147 170q14 16 37 17h61q20 0 24.5 -10.5t-7.5 -26.5l-178 -205q-14 -17 -37 -17zM901 973v-78q0 -25 -14 -39l-615 -725h598q31 0 31 -31v-69q0 -31 -31 -31h-747q-31 0 -31 31
v78q0 25 14 38l615 725h-598q-31 0 -31 31v70q0 31 31 31h747q31 0 31 -31z" />
    <glyph glyph-name="florin" unicode="&#x192;" horiz-adv-x="692" 
d="M682 1434q20 -12 20 -37v-78q0 -41 -36 -21q-61 33 -113 33q-78 0 -106.5 -35.5t-28.5 -109.5v-182h213q31 0 31 -31v-70q0 -31 -31 -31h-213v-989q0 -272 -283 -272q-76 0 -135 33q-20 12 -20 37v77q0 41 36 21q61 -33 113 -33q78 0 106.5 36t28.5 109v981h-119
q-31 0 -30 31v70q0 31 30 31h119v190q0 272 283 272q76 1 135 -32z" />
    <glyph glyph-name="uni01CD" unicode="&#x1cd;" horiz-adv-x="1351" 
d="M602 1618l-178 205q-12 16 -8 26.5t24 10.5h62q23 0 37 -17l147 -170l148 170q14 16 36 17h62q20 0 24.5 -10.5t-8.5 -26.5l-178 -205q-14 -16 -37 -16h-94q-23 0 -37 16zM1268 35q14 -35 -25 -35h-98q-27 0 -35 25l-113 317h-643l-112 -317q-8 -25 -35 -25h-98
q-39 0 -25 35l504 1374q10 25 37 25h102q27 0 37 -25zM401 473h549l-274 766z" />
    <glyph glyph-name="uni01CE" unicode="&#x1ce;" 
d="M528 1188l-178 205q-12 16 -8 26.5t25 10.5h61q23 0 37 -17l147 -170l148 170q14 16 37 17h61q20 0 24.5 -10.5t-8.5 -26.5l-178 -205q-14 -16 -37 -17h-94q-23 1 -37 17zM1073 1004q31 0 31 -31v-942q0 -31 -31 -31h-84q-27 0 -31 31l-10 129q-129 -174 -354 -174
q-213 0 -352.5 149.5t-139.5 364.5q0 221 139.5 372.5t352.5 151.5q227 0 356 -184l8 133q4 31 31 31h84zM606 125q152 0 253.5 108.5t101.5 268.5t-101.5 271.5t-253.5 111.5q-154 0 -255 -109.5t-101 -273.5q0 -160 101 -268.5t255 -108.5z" />
    <glyph glyph-name="uni01CF" unicode="&#x1cf;" horiz-adv-x="466" 
d="M281 1602h-95q-23 0 -36 16l-179 205q-12 16 -8 26.5t25 10.5h61q23 0 37 -17l147 -170l148 170q14 16 37 17h61q20 0 24.5 -10.5t-7.5 -26.5l-179 -205q-13 -16 -36 -16zM154 1403q0 31 30 31h99q31 0 30 -31v-1372q0 -31 -30 -31h-99q-31 0 -30 31v1372z" />
    <glyph glyph-name="uni01D0" unicode="&#x1d0;" horiz-adv-x="399" 
d="M248 1171h-94q-23 0 -37 17l-178 205q-12 16 -8.5 26.5t24.5 10.5h61q23 0 37 -17l148 -170l147 170q14 16 37 17h61q20 0 24.5 -10.5t-7.5 -26.5l-178 -205q-14 -17 -37 -17zM123 973q0 31 31 31h92q31 0 30 -31v-942q0 -31 -30 -31h-92q-31 0 -31 31v942z" />
    <glyph glyph-name="uni01D1" unicode="&#x1d1;" horiz-adv-x="1689" 
d="M893 1602h-94q-23 0 -37 16l-178 205q-12 16 -8 26.5t24 10.5h62q23 0 36 -17l148 -170l147 170q14 16 37 17h62q20 0 24 -10.5t-8 -26.5l-178 -205q-14 -16 -37 -16zM846 -27q-305 0 -519 215t-214 523q0 309 214 524t519 215q303 0 517 -216t214 -523.5t-214 -522.5
t-517 -215zM845.5 129q241.5 0 406.5 168t165 414q0 248 -165 415.5t-406 167.5q-244 0 -409 -168t-165 -415q0 -246 166 -414t407.5 -168z" />
    <glyph glyph-name="uni01D2" unicode="&#x1d2;" horiz-adv-x="1220" 
d="M657 1171h-94q-23 0 -37 17l-178 205q-12 16 -8 26.5t25 10.5h61q23 0 37 -17l147 -170l148 170q14 16 37 17h61q20 0 24.5 -10.5t-8.5 -26.5l-178 -205q-14 -17 -37 -17zM610 -20q-215 0 -361.5 151.5t-146.5 370.5q0 221 146.5 372.5t361.5 151.5t361.5 -151.5
t146.5 -372.5q0 -219 -146.5 -370.5t-361.5 -151.5zM610.5 119q153.5 0 257 108.5t103.5 274.5t-103.5 275.5t-257 109.5t-257 -109.5t-103.5 -275.5t103.5 -274.5t257 -108.5z" />
    <glyph glyph-name="uni01D3" unicode="&#x1d3;" horiz-adv-x="1314" 
d="M705 1602h-95q-23 0 -37 16l-178 205q-12 16 -8 26.5t25 10.5h61q23 0 37 -17l147 -170l148 170q14 16 37 17h61q20 0 24.5 -10.5t-7.5 -26.5l-179 -205q-13 -16 -36 -16zM1141 1434q31 0 30 -31v-848q0 -279 -141 -430.5t-372.5 -151.5t-373 151.5t-141.5 430.5v848
q0 31 31 31h98q31 0 31 -31v-848q0 -213 97.5 -322.5t257 -109.5t257 109.5t97.5 322.5v848q0 31 30 31h99z" />
    <glyph glyph-name="uni01D4" unicode="&#x1d4;" horiz-adv-x="1101" 
d="M463 1188l-178 205q-12 16 -8 26.5t24 10.5h61q23 0 37 -17l148 -170l147 170q14 16 37 17h62q20 0 24 -10.5t-8 -26.5l-178 -205q-14 -16 -37 -17h-94q-23 1 -37 17zM938 1004q31 0 31 -31v-942q0 -31 -31 -31h-84q-27 0 -31 31l-8 123q-123 -180 -321 -181
q-176 0 -273.5 102.5t-97.5 301.5v596q0 31 31 31h92q31 0 30 -31v-586q0 -133 63.5 -205.5t176.5 -72.5q127 0 213 91t86 156v617q0 31 31 31h92z" />
    <glyph glyph-name="uni01EA" unicode="&#x1ea;" horiz-adv-x="1689" 
d="M887 -25q-53 -27 -85 -71.5t-32 -89.5q0 -70 47 -98.5t129 -10.5v-111q-37 -16 -89 -17t-102 16.5t-86 65.5t-36 122q0 117 98 201q-266 41 -442 246.5t-176 482.5q0 309 214 524t519 215q303 0 517 -216t214 -523q0 -295 -200.5 -507.5t-489.5 -228.5zM272 711
q0 -246 166 -414t407.5 -168t406.5 168t165 414q0 248 -165 415.5t-406 167.5q-244 0 -409 -167.5t-165 -415.5z" />
    <glyph glyph-name="uni01EB" unicode="&#x1eb;" horiz-adv-x="1220" 
d="M698 -12q-147 -68 -147 -181q0 -66 47 -93t129 -9v-111q-37 -16 -89 -17t-102.5 16.5t-86 65.5t-35.5 122q0 123 110 205q-184 31 -303 175t-119 341q0 221 146.5 372.5t361.5 151.5t361.5 -151.5t146.5 -372.5q0 -195 -119 -339t-301 -175zM250 502q0 -166 103.5 -274.5
t257 -108.5t257 108.5t103.5 274.5t-103.5 275.5t-257 109.5t-257 -109.5t-103.5 -275.5z" />
    <glyph glyph-name="Scommaaccent" unicode="&#x218;" horiz-adv-x="1126" 
d="M289 1083q0 -92 75.5 -155.5t183 -103.5t216 -88t184.5 -139t76 -226q0 -166 -136 -281t-331 -115q-147 0 -267 59.5t-181 158.5q-14 23 6 40l59 58q20 18 43 -4q164 -164 338 -164q139 0 225 73.5t86 182.5q0 94 -74.5 159.5t-182 107.5t-215 89t-182.5 135t-75 215
q0 158 118 261.5t296 103.5q115 0 222.5 -51t182.5 -142q18 -20 -2 -43l-51 -53q-23 -23 -43 -2q-145 145 -309 146q-115 0 -188.5 -60t-73.5 -162zM551 -78q45 0 76.5 -33.5t31.5 -99.5q0 -72 -40.5 -173t-108.5 -185l-49 34q76 115 86 256q-45 4 -71.5 32t-26.5 69
q0 43 29.5 71.5t72.5 28.5z" />
    <glyph glyph-name="scommaaccent" unicode="&#x219;" horiz-adv-x="913" 
d="M268 752q0 -61 57.5 -102.5t138.5 -68t162 -58t138 -98.5t57 -165q0 -123 -104.5 -201.5t-241.5 -78.5q-117 0 -215 48t-158 119q-18 20 -2 39l45 56q16 20 43 -2q135 -125 283 -125q90 0 145.5 39t55.5 108q0 66 -56.5 110t-137.5 71.5t-163 59.5t-138 94t-56 155
q0 119 93 196.5t230 77.5q84 0 172.5 -40t149.5 -112q16 -18 -2 -43l-35 -45q-16 -23 -45 2q-123 106 -240 107q-68 0 -122 -34.5t-54 -108.5zM465 -78q45 0 76.5 -33.5t31.5 -99.5q0 -72 -40.5 -173t-108.5 -185l-49 34q76 115 86 256q-45 4 -72 32t-27 69q0 43 30 71.5
t73 28.5z" />
    <glyph glyph-name="uni021A" unicode="&#x21a;" horiz-adv-x="1097" 
d="M954 1434q31 0 31 -31v-86q0 -31 -31 -31h-325v-1255q0 -31 -31 -31h-98q-31 0 -31 31v1255h-326q-31 0 -30 31v86q0 31 30 31h811zM555 -78q45 0 77 -33.5t32 -99.5q0 -72 -41 -173t-109 -185l-49 34q76 115 86 256q-45 4 -71.5 32t-26.5 69q0 43 29.5 71.5t72.5 28.5z
" />
    <glyph glyph-name="uni021B" unicode="&#x21b;" horiz-adv-x="706" 
d="M594 1004q31 0 31 -31v-70q0 -31 -31 -31h-164v-841q0 -31 -31 -31h-92q-31 0 -31 31v841h-163q-31 0 -31 31v70q0 31 31 31h163v276q0 31 31 31h92q31 0 31 -31v-276h164zM350 -59q45 0 77 -34t32 -100q0 -72 -41 -173t-109 -185l-49 35q76 115 86 256q-45 4 -71.5 31.5
t-26.5 68.5q0 43 29.5 72t72.5 29z" />
    <glyph glyph-name="uni0237" unicode="&#x237;" horiz-adv-x="557" 
d="M301 1004h92q31 0 31 -31v-963q0 -205 -87 -307t-245 -109q-18 0 -22 19l-27 96q-8 23 16 23q109 8 160 76.5t51 211.5v953q0 31 31 31z" />
    <glyph glyph-name="circumflex" unicode="&#x2c6;" horiz-adv-x="606" 
d="M350 1434q23 0 37 -17l178 -205q12 -16 8 -26t-24 -10h-62q-23 0 -36 16l-148 170l-147 -170q-14 -16 -37 -16h-62q-20 0 -24 10t8 26l178 205q14 16 37 17h94z" />
    <glyph glyph-name="caron" unicode="&#x2c7;" horiz-adv-x="606" 
d="M350 1176h-94q-23 0 -37 16l-178 205q-12 16 -8 26.5t24 10.5h62q23 0 37 -17l147 -170l148 170q14 16 36 17h62q20 0 24.5 -10.5t-8.5 -26.5l-178 -205q-14 -16 -37 -16z" />
    <glyph glyph-name="breve" unicode="&#x2d8;" horiz-adv-x="626" 
d="M487 1405q6 29 33 29h45q33 0 29 -31q-10 -104 -86 -173t-194.5 -69t-194.5 68.5t-86 173.5q-4 31 28 31h45q27 0 33 -29q12 -61 58.5 -99t116 -38t115.5 38t58 99z" />
    <glyph glyph-name="dotaccent" unicode="&#x2d9;" horiz-adv-x="241" 
d="M121 1266q-37 0 -63.5 26.5t-26.5 63.5q0 35 26.5 61.5t63.5 26.5t63.5 -26.5t26.5 -61.5q0 -37 -26.5 -63.5t-63.5 -26.5z" />
    <glyph glyph-name="ring" unicode="&#x2da;" horiz-adv-x="389" 
d="M197 1473q66 0 113.5 -48.5t47.5 -114t-48 -113.5t-113 -48q-70 0 -118 47t-48 114.5t48 115t118 47.5zM197 1255q23 0 39 16.5t16 39t-16.5 39t-38.5 16.5q-25 0 -41.5 -16.5t-16.5 -39t16.5 -39t41.5 -16.5z" />
    <glyph glyph-name="ogonek" unicode="&#x2db;" horiz-adv-x="432" 
d="M401 0q-100 0 -166.5 -59.5t-66.5 -126.5q0 -70 47 -98.5t129 -10.5v-111q-37 -16 -89 -17t-102.5 16.5t-86 65.5t-35.5 122q0 139 125 223t245 84v-88z" />
    <glyph glyph-name="tilde" unicode="&#x2dc;" horiz-adv-x="684" 
d="M205 1470q76 0 156.5 -67.5t130.5 -67.5q63 0 86 64q6 18 22 18h33q20 0 20 -20q-8 -74 -55 -115t-110.5 -41t-113.5 34t-93 67.5t-86 33.5q-66 0 -89 -63q-6 -18 -22 -19h-33q-23 0 -18 25q8 74 55 112.5t117 38.5z" />
    <glyph glyph-name="hungarumlaut" unicode="&#x2dd;" horiz-adv-x="663" 
d="M260 1491q41 0 25 -35l-123 -258q-10 -25 -35 -24h-68q-41 0 -24 34l123 258q10 25 35 25h67zM557 1491q41 0 25 -35l-123 -258q-10 -25 -35 -24h-68q-41 0 -24 34l123 258q10 25 34 25h68z" />
    <glyph glyph-name="uni0326" unicode="&#x326;" horiz-adv-x="0" 
d="M-127 -78q45 0 77 -33.5t32 -99.5q0 -72 -41 -173t-109 -185l-49 34q76 115 86 256q-45 4 -71.5 32t-26.5 69q0 43 29.5 71.5t72.5 28.5z" />
    <glyph glyph-name="Delta" unicode="&#x394;" horiz-adv-x="1351" 
d="M1268 35q14 -35 -25 -35h-1134q-39 0 -25 35l504 1374q10 25 37 25h102q27 0 37 -25zM676 1239l-395 -1108h790z" />
    <glyph glyph-name="Omega" unicode="&#x3a9;" horiz-adv-x="1691" 
d="M1348 190v-59h231v-131h-391v244q236 172 235 483q0 242 -166.5 407.5t-410.5 165.5t-411 -165.5t-167 -407.5q0 -311 236 -483v-244h-391v131h231v59q-231 193 -231 537q0 303 214 513t519 210t519 -210t214 -513q0 -344 -231 -537z" />
    <glyph glyph-name="mu" unicode="&#x3bc;" horiz-adv-x="1112" 
d="M948 1004q31 0 31 -31v-942q0 -31 -31 -31h-84q-27 0 -30 31l-9 123q-123 -180 -321 -181q-139 0 -228 64v-395q0 -31 -30 -31h-92q-31 0 -31 31v1013h10v318q0 31 31 31h92q31 0 31 -31v-586q0 -133 63.5 -205.5t175.5 -72.5q127 0 213 91t86 156v617q0 31 31 31h92z
" />
    <glyph glyph-name="pi" unicode="&#x3c0;" horiz-adv-x="1294" 
d="M1182 872h-172v-659q0 -88 80 -88q53 0 77 4q37 6 37 -29v-61q0 -53 -145 -53q-203 0 -203 217v669h-385v-841q0 -31 -31 -31h-92q-31 0 -31 31v841h-174q-31 0 -30 31v70q0 31 30 31h1039q31 0 30 -31v-70q1 -31 -30 -31z" />
    <glyph glyph-name="afii10023" unicode="&#x401;" horiz-adv-x="1054" 
d="M352 1696q-37 0 -63.5 26.5t-26.5 63.5q0 35 26.5 61.5t63.5 26.5t63.5 -26.5t26.5 -61.5q0 -37 -26.5 -63.5t-63.5 -26.5zM727 1696q-37 0 -63.5 26.5t-26.5 63.5q0 35 26.5 61.5t63.5 26.5t63.5 -26.5t26.5 -61.5q0 -37 -26.5 -63.5t-63.5 -26.5zM891 147q31 0 31 -30
v-86q0 -31 -31 -31h-707q-31 0 -30 31v1372q0 31 30 31h705q31 0 31 -31v-86q0 -31 -31 -31h-576v-452h541q31 0 31 -31v-86q0 -31 -31 -31h-541v-539h578z" />
    <glyph glyph-name="afii10052" unicode="&#x403;" horiz-adv-x="1005" 
d="M469 1542q-41 0 -25 35l123 258q10 25 35 25h68q41 0 24 -35l-123 -258q-10 -25 -34 -25h-68zM883 1434q31 0 30 -31v-86q0 -31 -30 -31h-570v-1255q0 -31 -30 -31h-99q-31 0 -30 31v1372q0 31 30 31h699z" />
    <glyph glyph-name="afii10053" unicode="&#x404;" horiz-adv-x="1431" 
d="M1255 274l64 -63q23 -23 -2 -43q-227 -195 -483 -195q-303 0 -512 215t-209 523q0 309 208.5 524t512.5 215q256 0 483 -195q25 -20 2 -43l-64 -63q-20 -20 -43 0q-172 145 -378 145q-213 0 -371 -142t-184 -361h546q31 0 31 -31v-86q0 -31 -31 -31h-546
q23 -221 181 -367.5t374 -146.5q207 0 378 145q23 20 43 0z" />
    <glyph glyph-name="afii10055" unicode="&#x406;" horiz-adv-x="466" 
d="M154 1403q0 31 30 31h99q31 0 30 -31v-1372q0 -31 -30 -31h-99q-31 0 -30 31v1372z" />
    <glyph glyph-name="afii10056" unicode="&#x407;" horiz-adv-x="466" 
d="M47 1696q-37 0 -63.5 26.5t-26.5 63.5q0 35 26.5 61.5t63.5 26.5t63.5 -26.5t26.5 -61.5q0 -37 -26.5 -63.5t-63.5 -26.5zM422 1696q-37 0 -63.5 26.5t-26.5 63.5q0 35 26.5 61.5t63.5 26.5t63.5 -26.5t26.5 -61.5q0 -37 -26.5 -63.5t-63.5 -26.5zM154 1403q0 31 30 31
h99q31 0 30 -31v-1372q0 -31 -30 -31h-99q-31 0 -30 31v1372z" />
    <glyph glyph-name="afii10061" unicode="&#x40c;" horiz-adv-x="1239" 
d="M582 1542q-41 0 -25 35l123 258q10 25 35 25h67q41 0 25 -35l-123 -258q-10 -25 -35 -25h-67zM1151 37q10 -16 5 -26.5t-23 -10.5h-121q-25 0 -37 18l-522 699l-140 -154v-532q0 -31 -30 -31h-99q-31 0 -30 31v1372q0 31 30 31h99q31 0 30 -31v-625l574 639q14 16 37 17
h129q20 0 25 -11.5t-9 -25.5l-514 -568z" />
    <glyph glyph-name="afii10062" unicode="&#x40e;" horiz-adv-x="1333" 
d="M667.5 1589q-118.5 0 -194.5 68.5t-86 173.5q-2 31 29 31h45q27 0 33 -29q12 -61 58 -99t115.5 -38t115.5 38t59 99q6 29 32 29h46q31 0 28 -31q-10 -104 -86 -173t-194.5 -69zM1204 1434q18 0 24.5 -10.5t-3.5 -26.5l-832 -1377q-12 -20 -37 -20h-104q-41 0 -21 37
l349 577l-471 783q-10 16 -4 26.5t24 10.5h104q25 0 37 -21l396 -657l397 657q12 20 37 21h104z" />
    <glyph glyph-name="afii10017" unicode="&#x410;" horiz-adv-x="1351" 
d="M1268 35q14 -35 -25 -35h-98q-27 0 -35 25l-113 317h-643l-112 -317q-8 -25 -35 -25h-98q-39 0 -25 35l504 1374q10 25 37 25h102q27 0 37 -25zM401 473h549l-274 766z" />
    <glyph glyph-name="afii10018" unicode="&#x411;" horiz-adv-x="1140" 
d="M569 889q227 0 353.5 -124t126.5 -320.5t-126 -320.5t-354 -124h-385q-31 0 -30 31v1372q0 31 30 31h699q31 0 30 -31v-86q0 -31 -30 -31h-570v-397h256zM561 147q150 0 241 72t91 225.5t-91 225t-241 71.5h-248v-594h248z" />
    <glyph glyph-name="afii10019" unicode="&#x412;" horiz-adv-x="1218" 
d="M827 776q139 -33 219 -129t80 -229q0 -203 -128 -310.5t-382 -107.5h-432q-31 0 -30 31v1372q0 31 30 31h437q211 0 313 -100.5t102 -241.5q0 -113 -53.5 -196t-155.5 -120zM881 1081q0 205 -275 205h-293v-450h293q129 0 202 64t73 181zM610 147q176 0 264.5 66
t88.5 211q0 272 -353 272h-297v-549h297z" />
    <glyph glyph-name="afii10020" unicode="&#x413;" horiz-adv-x="1005" 
d="M883 1434q31 0 30 -31v-86q0 -31 -30 -31h-570v-1255q0 -31 -30 -31h-99q-31 0 -30 31v1372q0 31 30 31h699z" />
    <glyph glyph-name="afii10021" unicode="&#x414;" horiz-adv-x="1503" 
d="M1391 147q31 0 30 -30v-228q0 -31 -30 -30h-99q-31 0 -30 30v111h-1020v-111q0 -31 -31 -30h-98q-31 0 -31 30v228q0 31 31 30h86q113 57 112 269v987q0 31 31 31h938q31 0 31 -31v-1256h80zM471 406q0 -160 -55 -259h735v1139h-680v-880z" />
    <glyph glyph-name="afii10022" unicode="&#x415;" horiz-adv-x="1054" 
d="M891 147q31 0 31 -30v-86q0 -31 -31 -31h-707q-31 0 -30 31v1372q0 31 30 31h705q31 0 31 -31v-86q0 -31 -31 -31h-576v-452h541q31 0 31 -31v-86q0 -31 -31 -31h-541v-539h578z" />
    <glyph glyph-name="afii10024" unicode="&#x416;" horiz-adv-x="2011" 
d="M1923 37q10 -16 5 -26.5t-23 -10.5h-121q-25 0 -37 18l-522 699l-140 -154v-532q0 -31 -30 -31h-119q-31 0 -31 31v532l-139 154l-522 -699q-12 -18 -37 -18h-121q-18 0 -23.5 10t5.5 27l596 792l-514 568q-14 14 -9.5 25.5t25.5 11.5h129q23 0 37 -17l573 -639v625
q0 31 31 31h119q31 0 30 -31v-625l574 639q14 16 37 17h129q20 0 25 -11.5t-9 -25.5l-514 -568z" />
    <glyph glyph-name="afii10025" unicode="&#x417;" horiz-adv-x="1075" 
d="M719 774q115 -43 189.5 -138t74.5 -224q0 -186 -136 -307t-343 -121q-258 0 -414 178q-18 23 2 43l62 59q23 23 45 0q125 -125 305 -125q139 0 228 74t89 199q0 129 -100 203.5t-262 78.5q-31 0 -31 31v86q0 33 31 33q145 2 227 70.5t82 164.5q0 98 -77 156.5t-181 58.5
q-145 0 -272 -118q-25 -20 -45 0l-58 55q-20 20 -2 43q150 176 379 176q166 0 290 -105.5t124 -261.5q0 -96 -57.5 -179t-149.5 -130z" />
    <glyph glyph-name="afii10026" unicode="&#x418;" horiz-adv-x="1363" 
d="M1186 1434q25 -4 24 -31v-1372q0 -31 -30 -31h-99q-31 0 -30 31v1173l-699 -1184q-12 -20 -37 -20h-137q-25 4 -24 31v1372q0 31 30 31h99q31 0 30 -31v-1174l699 1184q12 20 37 21h137z" />
    <glyph glyph-name="afii10027" unicode="&#x419;" horiz-adv-x="1363" 
d="M692 1589q-119 0 -194.5 68.5t-85.5 173.5q-2 31 28 31h45q27 0 33 -29q12 -61 58.5 -99t116 -38t115.5 38t58 99q6 29 33 29h45q31 0 29 -31q-10 -104 -86 -173t-195 -69zM1186 1434q25 -4 24 -31v-1372q0 -31 -30 -31h-99q-31 0 -30 31v1173l-699 -1184
q-12 -20 -37 -20h-137q-25 4 -24 31v1372q0 31 30 31h99q31 0 30 -31v-1174l699 1184q12 20 37 21h137z" />
    <glyph glyph-name="afii10028" unicode="&#x41a;" horiz-adv-x="1239" 
d="M1151 37q10 -16 5 -26.5t-23 -10.5h-121q-25 0 -37 18l-522 699l-140 -154v-532q0 -31 -30 -31h-99q-31 0 -30 31v1372q0 31 30 31h99q31 0 30 -31v-625l574 639q14 16 37 17h129q20 0 25 -11.5t-9 -25.5l-514 -568z" />
    <glyph glyph-name="afii10029" unicode="&#x41b;" horiz-adv-x="1423" 
d="M1239 1434q31 0 31 -31v-1372q0 -31 -31 -31h-98q-31 0 -31 31v1255h-680v-880q0 -205 -90 -310.5t-248 -105.5q-14 0 -22 18l-27 96q-4 23 16 23q211 0 211 289v987q0 31 31 31h938z" />
    <glyph glyph-name="afii10030" unicode="&#x41c;" horiz-adv-x="1748" 
d="M1565 1434q31 0 30 -31v-1372q0 -31 -30 -31h-99q-31 0 -30 31v1118l-31 -76l-444 -1050q-8 -23 -35 -23h-103q-27 0 -35 23l-444 1050l-31 76v-1118q0 -31 -30 -31h-99q-31 0 -30 31v1372q0 31 30 31h133q29 0 37 -21l520 -1235l521 1235q8 20 37 21h133z" />
    <glyph glyph-name="afii10031" unicode="&#x41d;" horiz-adv-x="1296" 
d="M1112 1434q31 0 31 -31v-1372q0 -31 -31 -31h-98q-31 0 -31 31v608h-670v-608q0 -31 -30 -31h-99q-31 0 -30 31v1372q0 31 30 31h99q31 0 30 -31v-617h670v617q0 31 31 31h98z" />
    <glyph glyph-name="afii10032" unicode="&#x41e;" horiz-adv-x="1689" 
d="M846 -27q-305 0 -519 215t-214 523q0 309 214 524t519 215q303 0 517 -216t214 -523.5t-214 -522.5t-517 -215zM845.5 129q241.5 0 406.5 168t165 414q0 248 -165 415.5t-406 167.5q-244 0 -409 -168t-165 -415q0 -246 166 -414t407.5 -168z" />
    <glyph glyph-name="afii10033" unicode="&#x41f;" horiz-adv-x="1296" 
d="M1112 1434q31 0 31 -31v-1372q0 -31 -31 -31h-98q-31 0 -31 31v1255h-670v-1255q0 -31 -30 -31h-99q-31 0 -30 31v1372q0 31 30 31h928z" />
    <glyph glyph-name="afii10034" unicode="&#x420;" horiz-adv-x="1140" 
d="M569 1434q227 0 353.5 -124t126.5 -320.5t-126 -320.5t-354 -124h-256v-514q0 -31 -30 -31h-99q-31 0 -30 31v1372q0 31 30 31h385zM561 692q150 0 241 72t91 225.5t-91 225t-241 71.5h-248v-594h248z" />
    <glyph glyph-name="afii10035" unicode="&#x421;" horiz-adv-x="1431" 
d="M1255 274l64 -63q23 -23 -2 -43q-227 -195 -483 -195q-303 0 -512 215t-209 523q0 309 208.5 524t512.5 215q256 0 483 -195q25 -20 2 -43l-64 -63q-20 -20 -43 0q-172 145 -378 145q-233 0 -396.5 -168t-163.5 -415q0 -246 163 -414t397 -168q207 0 378 145q23 20 43 0z
" />
    <glyph glyph-name="afii10036" unicode="&#x422;" horiz-adv-x="1097" 
d="M954 1434q31 0 31 -31v-86q0 -31 -31 -31h-325v-1255q0 -31 -31 -31h-98q-31 0 -31 31v1255h-326q-31 0 -30 31v86q0 31 30 31h811z" />
    <glyph glyph-name="afii10037" unicode="&#x423;" horiz-adv-x="1333" 
d="M1204 1434q18 0 24.5 -10.5t-3.5 -26.5l-832 -1377q-12 -20 -37 -20h-104q-41 0 -21 37l349 577l-471 783q-10 16 -4 26.5t24 10.5h104q25 0 37 -21l396 -657l397 657q12 20 37 21h104z" />
    <glyph glyph-name="afii10038" unicode="&#x424;" horiz-adv-x="1753" 
d="M1651 717q0 -244 -180.5 -418t-503.5 -176v-92q0 -31 -31 -31h-98q-31 0 -31 31v92h-16q-326 0 -507.5 175t-181.5 419t181.5 419t507.5 175h16v92q0 31 31 31h98q31 0 31 -31v-92q324 -2 504 -176t180 -418zM791 270h16v893h-16q-254 0 -390.5 -125t-136.5 -321.5
t136.5 -321.5t390.5 -125zM967 270q252 2 387 126t135 320.5t-135 320.5t-387 126v-893z" />
    <glyph glyph-name="afii10039" unicode="&#x425;" horiz-adv-x="1265" 
d="M1157 37q10 -16 4 -26.5t-24 -10.5h-105q-25 0 -37 20l-362 576l-363 -576q-12 -20 -37 -20h-104q-18 0 -24.5 10t4.5 27l438 696l-418 664q-10 16 -4 26.5t25 10.5h104q25 0 37 -21l342 -543l342 543q12 20 37 21h104q18 0 24.5 -10.5t-3.5 -26.5l-418 -664z" />
    <glyph glyph-name="afii10040" unicode="&#x426;" horiz-adv-x="1333" 
d="M1221 147q31 0 30 -30v-228q0 -31 -30 -30h-99q-31 0 -30 30v111h-908q-31 0 -30 31v1372q0 31 30 31h99q31 0 30 -31v-1256h670v1256q0 31 31 31h98q31 0 31 -31v-1256h78z" />
    <glyph glyph-name="afii10041" unicode="&#x427;" horiz-adv-x="1208" 
d="M1024 1434q31 0 31 -31v-1372q0 -31 -31 -31h-98q-31 0 -31 31v598q-152 -203 -418 -203q-172 0 -283.5 111.5t-111.5 306.5v559q0 31 31 31h98q31 0 31 -31v-549q0 -131 76.5 -205t205.5 -74q106 0 197.5 47.5t132.5 96.5t41 74v610q0 31 31 31h98z" />
    <glyph glyph-name="afii10042" unicode="&#x428;" horiz-adv-x="2125" 
d="M1942 1434q31 0 30 -31v-1372q0 -31 -30 -31h-1758q-31 0 -30 31v1372q0 31 30 31h99q31 0 30 -31v-1256h670v1256q0 31 31 31h98q31 0 31 -31v-1256h669v1256q0 31 31 31h99z" />
    <glyph glyph-name="afii10043" unicode="&#x429;" horiz-adv-x="2162" 
d="M2050 147q31 0 31 -30v-228q0 -31 -31 -30h-98q-31 0 -31 30v111h-1737q-31 0 -30 31v1372q0 31 30 31h99q31 0 30 -31v-1256h670v1256q0 31 31 31h98q31 0 31 -31v-1256h669v1256q0 31 31 31h99q31 0 30 -31v-1256h78z" />
    <glyph glyph-name="afii10044" unicode="&#x42a;" horiz-adv-x="1286" 
d="M715 889q227 0 353 -124t126 -320.5t-126 -320.5t-353 -124h-385q-31 0 -31 31v1255h-217q-31 0 -31 31v86q0 31 31 31h346q31 0 31 -31v-514h256zM707 147q150 0 240.5 72t90.5 225.5t-91 225t-240 71.5h-248v-594h248z" />
    <glyph glyph-name="afii10045" unicode="&#x42b;" horiz-adv-x="1630" 
d="M569 0h-385q-31 0 -30 31v1372q0 31 30 31h99q31 0 30 -31v-514h256q227 0 353.5 -124t126.5 -320.5t-126.5 -320.5t-353.5 -124zM1317 1403q0 31 31 31h98q31 0 31 -31v-1372q0 -31 -31 -31h-98q-31 0 -31 31v1372zM561 741h-248v-594h248q150 0 241 72t91 225.5
t-91 225t-241 71.5z" />
    <glyph glyph-name="afii10046" unicode="&#x42c;" horiz-adv-x="1140" 
d="M569 0h-385q-31 0 -30 31v1372q0 31 30 31h99q31 0 30 -31v-514h256q227 0 353.5 -124t126.5 -320.5t-126.5 -320.5t-353.5 -124zM561 741h-248v-594h248q150 0 241 72t91 225.5t-91 225t-241 71.5z" />
    <glyph glyph-name="afii10047" unicode="&#x42d;" horiz-adv-x="1431" 
d="M608 1450q303 0 512 -215t209 -524q0 -307 -209 -522.5t-512 -215.5q-256 0 -483 195q-25 20 -2 43l63 63q20 20 43 0q172 -145 379 -145q215 0 374 146.5t181 367.5h-547q-31 0 -30 31v86q0 31 30 31h547q-27 219 -184.5 361t-370.5 142q-207 0 -379 -145q-23 -20 -43 0
l-63 63q-23 23 2 43q227 195 483 195z" />
    <glyph glyph-name="afii10048" unicode="&#x42e;" horiz-adv-x="2070" 
d="M1227 1450q303 0 517 -216t214 -523.5t-214 -522.5t-517 -215q-287 0 -496 192.5t-235 477.5h-183v-612q0 -31 -30 -31h-99q-31 0 -30 31v1372q0 31 30 31h99q31 0 30 -31v-612h185q29 281 237.5 470t491.5 189zM1226.5 129q241.5 0 406.5 168t165 414q0 248 -165 415.5
t-406 167.5q-244 0 -409 -168t-165 -415q0 -246 166 -414t407.5 -168z" />
    <glyph glyph-name="afii10049" unicode="&#x42f;" horiz-adv-x="1173" 
d="M989 1434q31 0 31 -31v-1372q0 -31 -31 -31h-98q-31 0 -31 31v514h-227l-348 -525q-12 -20 -37 -20h-109q-43 0 -20 37l352 520q-166 35 -256 151.5t-90 280.5q0 197 126 321t353 124h385zM860 692v594h-248q-150 0 -240.5 -71.5t-90.5 -225t91 -225.5t240 -72h248z" />
    <glyph glyph-name="afii10065" unicode="&#x430;" 
d="M1073 1004q31 0 31 -31v-942q0 -31 -31 -31h-84q-27 0 -31 31l-10 129q-129 -174 -354 -174q-213 0 -352.5 149.5t-139.5 364.5q0 221 139.5 372.5t352.5 151.5q227 0 356 -184l8 133q4 31 31 31h84zM606 125q152 0 253.5 108.5t101.5 268.5t-101.5 271.5t-253.5 111.5
q-154 0 -255 -109.5t-101 -273.5q0 -160 101 -268.5t255 -108.5z" />
    <glyph glyph-name="afii10066" unicode="&#x431;" horiz-adv-x="1234" 
d="M641 1024q213 0 352.5 -151.5t139.5 -372.5t-139.5 -373t-352.5 -152q-221 0 -354 179l-8 -123q-4 -31 -31 -31h-84q-31 0 -31 31v1044q0 186 77 272.5t255 86.5h264q100 0 150 41h145q-18 -106 -89 -143.5t-204 -37.5h-239q-106 0 -152.5 -48t-46.5 -156v-238
q129 172 348 172zM629 115q154 0 255 110.5t101 276.5q0 164 -101.5 273.5t-254.5 109.5q-152 0 -253.5 -111.5t-101.5 -271.5t101.5 -273.5t253.5 -113.5z" />
    <glyph glyph-name="afii10067" unicode="&#x432;" horiz-adv-x="1116" 
d="M780 543q115 -18 179.5 -90t64.5 -164q0 -289 -430 -289h-430q-31 0 -31 31v942q0 31 31 31h430q170 0 259 -68t89 -176q0 -164 -162 -217zM799 739q0 61 -42 97t-163 36h-307v-272h286q226 0 226 139zM594 131q285 0 285 166q0 180 -306 180h-286v-346h307z" />
    <glyph glyph-name="afii10068" unicode="&#x433;" horiz-adv-x="870" 
d="M758 1004q31 0 30 -31v-70q0 -31 -30 -31h-471v-841q0 -31 -31 -31h-92q-31 0 -31 31v942q0 31 31 31h594z" />
    <glyph glyph-name="afii10069" unicode="&#x434;" horiz-adv-x="1388" 
d="M1276 131q31 0 31 -31v-211q0 -31 -31 -30h-92q-31 0 -31 30v111h-917v-111q0 -31 -31 -30h-92q-31 0 -31 30v217q0 25 24 25h54q162 31 162 285v557q0 31 30 31h809q31 0 31 -31v-842h84zM475 872v-466q0 -168 -61 -275h624v741h-563z" />
    <glyph glyph-name="afii10070" unicode="&#x435;" horiz-adv-x="1167" 
d="M594 1024q209 0 340 -142.5t131 -336.5q0 -57 -11.5 -80t-47.5 -23h-752q18 -141 118.5 -230t254.5 -89q160 0 274 96q25 20 43 4l39 -37q25 -25 2 -47q-147 -154 -375 -153q-221 0 -364.5 150.5t-143.5 369.5t139.5 368.5t352.5 149.5zM594 887q-139 0 -232.5 -91
t-109.5 -235h678q-8 139 -101.5 232.5t-234.5 93.5z" />
    <glyph glyph-name="afii10072" unicode="&#x436;" horiz-adv-x="1734" 
d="M1653 37q12 -16 8 -26.5t-25 -10.5h-120q-23 0 -37 16l-396 461l-145 -145v-301q0 -31 -31 -31h-92q-31 0 -31 31v301l-145 145l-395 -461q-14 -16 -37 -16h-121q-20 0 -24.5 10t8.5 27l467 543l-390 387q-14 16 -10 26.5t25 10.5h121q23 0 39 -17l462 -461v447
q0 31 31 31h92q31 0 31 -31v-447l463 461q16 16 39 17h121q20 0 24 -10.5t-10 -26.5l-389 -387z" />
    <glyph glyph-name="afii10073" unicode="&#x437;" horiz-adv-x="847" 
d="M586 541q170 -84 170 -248q0 -133 -99.5 -221t-257.5 -88q-201 0 -305 129q-25 31 4 57l39 37q23 23 56 -8q82 -82 206 -82q94 0 153.5 51t59.5 127q0 78 -67.5 127t-175.5 49q-20 0 -35 12.5t-15 30.5v35q0 47 50 47q90 0 147 43t57 109q0 59 -48 97t-122 38
q-102 0 -188 -76q-33 -31 -61 -2l-31 31q-27 27 0 55q113 125 280 125q135 0 224.5 -77t89.5 -191q0 -123 -131 -207z" />
    <glyph glyph-name="afii10074" unicode="&#x438;" horiz-adv-x="1187" 
d="M1024 1004q31 0 31 -31v-942q0 -31 -31 -31h-92q-31 0 -31 31v792l-549 -803q-14 -20 -39 -20h-149q-31 0 -31 31v942q0 31 31 31h92q31 0 31 -31v-809l559 819q14 20 39 21h139z" />
    <glyph glyph-name="afii10075" unicode="&#x439;" horiz-adv-x="1187" 
d="M600 1159q-119 0 -194.5 68.5t-86.5 173.5q-4 31 29 31h45q27 0 33 -29q12 -61 58 -99t116 -38t116 37.5t58 99.5q6 29 33 29h45q33 0 29 -31q-10 -104 -86 -173t-195 -69zM1024 1004q31 0 31 -31v-942q0 -31 -31 -31h-92q-31 0 -31 31v792l-549 -803q-14 -20 -39 -20
h-149q-31 0 -31 31v942q0 31 31 31h92q31 0 31 -31v-809l559 819q14 20 39 21h139z" />
    <glyph glyph-name="afii10076" unicode="&#x43a;" horiz-adv-x="1083" 
d="M1001 37q12 -16 8.5 -26.5t-24.5 -10.5h-121q-23 0 -37 16l-395 461l-145 -145v-301q0 -31 -31 -31h-92q-31 0 -31 31v942q0 31 31 31h92q31 0 31 -31v-447l463 461q16 16 38 17h121q20 0 24.5 -10.5t-9.5 -26.5l-389 -387z" />
    <glyph glyph-name="afii10077" unicode="&#x43b;" horiz-adv-x="1273" 
d="M1110 1004q31 0 31 -31v-942q0 -31 -31 -31h-92q-31 0 -31 31v841h-563v-466q0 -207 -87 -311.5t-245 -104.5q-18 0 -22 18l-27 96q-8 23 16 23q211 0 211 289v557q0 31 31 31h809z" />
    <glyph glyph-name="afii10078" unicode="&#x43c;" horiz-adv-x="1472" 
d="M1309 1004q31 0 30 -31v-942q0 -31 -30 -31h-92q-31 0 -31 31v723l-359 -731q-12 -23 -34 -23h-115q-23 0 -35 23l-356 729v-721q0 -31 -31 -31h-92q-31 0 -31 31v942q0 31 31 31h139q23 0 35 -23l397 -813l400 813q12 23 34 23h140z" />
    <glyph glyph-name="afii10079" unicode="&#x43d;" horiz-adv-x="1177" 
d="M1014 1004q31 0 30 -31v-942q0 -31 -30 -31h-92q-31 0 -31 31v405h-604v-405q0 -31 -31 -31h-92q-31 0 -31 31v942q0 31 31 31h92q31 0 31 -31v-406h604v406q0 31 31 31h92z" />
    <glyph glyph-name="afii10080" unicode="&#x43e;" horiz-adv-x="1220" 
d="M610 -20q-215 0 -361.5 151.5t-146.5 370.5q0 221 146.5 372.5t361.5 151.5t361.5 -151.5t146.5 -372.5q0 -219 -146.5 -370.5t-361.5 -151.5zM610.5 119q153.5 0 257 108.5t103.5 274.5t-103.5 275.5t-257 109.5t-257 -109.5t-103.5 -275.5t103.5 -274.5t257 -108.5z
" />
    <glyph glyph-name="afii10081" unicode="&#x43f;" horiz-adv-x="1177" 
d="M1014 1004q31 0 30 -31v-942q0 -31 -30 -31h-92q-31 0 -31 31v841h-604v-841q0 -31 -31 -31h-92q-31 0 -31 31v942q0 31 31 31h850z" />
    <glyph glyph-name="afii10082" unicode="&#x440;" 
d="M643 1024q213 0 352.5 -151.5t139.5 -372.5q0 -215 -139.5 -364.5t-352.5 -149.5q-225 0 -354 174l-2 -19v-499q0 -31 -31 -31h-92q-31 0 -31 31v1331q0 31 31 31h84q27 0 31 -31l8 -133q129 184 356 184zM631 125q154 0 255 108.5t101 268.5q0 164 -101.5 273.5
t-254.5 109.5q-152 0 -253.5 -111.5t-101.5 -271.5t101.5 -268.5t253.5 -108.5z" />
    <glyph glyph-name="afii10083" unicode="&#x441;" horiz-adv-x="1095" 
d="M606 125q76 0 136.5 23.5t88 45t66.5 60.5q23 23 45 0l51 -47q20 -20 2 -43q-156 -178 -389 -178q-215 0 -359.5 149.5t-144.5 364.5q0 221 144.5 372.5t359.5 151.5q227 0 383 -178q18 -23 -2 -43l-51 -47q-20 -20 -45 0q-2 2 -22.5 20.5t-25.5 22.5t-25.5 20.5
t-32 21.5t-35 16t-43 15.5t-46 8.5t-55.5 4q-156 0 -256 -109.5t-100 -275.5q0 -158 100 -266.5t256 -108.5z" />
    <glyph glyph-name="afii10084" unicode="&#x442;" horiz-adv-x="927" 
d="M805 1004q31 0 31 -31v-70q0 -31 -31 -31h-264v-841q0 -31 -31 -31h-92q-31 0 -31 31v841h-264q-31 0 -31 31v70q0 31 31 31h682z" />
    <glyph glyph-name="afii10085" unicode="&#x443;" horiz-adv-x="1099" 
d="M989 1004q37 0 25 -35l-529 -1334q-10 -25 -36 -24h-95q-37 0 -24 35l141 350l-385 973q-12 35 25 35h94q29 0 37 -25l307 -805l307 805q10 25 37 25h96z" />
    <glyph glyph-name="afii10086" unicode="&#x444;" horiz-adv-x="2074" 
d="M1481 1024q213 0 352 -151.5t139 -372.5t-139 -373t-352 -152q-236 0 -367 199v-532q0 -31 -31 -31h-92q-31 0 -30 31v532q-131 -199 -367 -199q-213 0 -352.5 152t-139.5 373t139.5 372.5t352.5 151.5q236 0 367 -199v533q0 31 30 31h92q31 0 31 -31v-533
q131 199 367 199zM606 115q152 0 253.5 111.5t101.5 271t-101.5 273.5t-253.5 114q-154 0 -255 -110.5t-101 -276.5q0 -164 101 -273.5t255 -109.5zM1468 115q154 0 255.5 110.5t101.5 276.5q0 164 -101.5 273.5t-255.5 109.5q-152 0 -253 -111.5t-101 -271.5t101 -273.5
t253 -113.5z" />
    <glyph glyph-name="afii10087" unicode="&#x445;" horiz-adv-x="999" 
d="M899 37q10 -16 4 -26.5t-24 -10.5h-105q-25 0 -37 20l-237 371l-238 -371q-14 -20 -37 -20h-104q-18 0 -24.5 10t3.5 27l320 475l-305 455q-10 16 -4 26.5t24 10.5h105q23 0 36 -21l224 -348l223 348q12 20 37 21h104q18 0 24.5 -10.5t-3.5 -26.5l-307 -455z" />
    <glyph glyph-name="afii10088" unicode="&#x446;" horiz-adv-x="1206" 
d="M1094 131q31 0 30 -31v-211q0 -31 -30 -30h-93q-31 0 -30 30v111h-807q-31 0 -31 31v942q0 31 31 31h92q31 0 31 -31v-842h604v842q0 31 31 31h92q31 0 30 -31v-842h50z" />
    <glyph glyph-name="afii10089" unicode="&#x447;" horiz-adv-x="1146" 
d="M983 1004q31 0 31 -31v-942q0 -31 -31 -31h-92q-31 0 -31 31v409q-57 -72 -156.5 -126t-226.5 -54q-68 0 -128 17.5t-118.5 57.5t-93.5 117.5t-35 186.5v334q0 31 31 31h92q31 0 31 -31v-326q0 -250 252 -250q115 0 205 58.5t147 140.5v377q0 31 31 31h92z" />
    <glyph glyph-name="afii10090" unicode="&#x448;" horiz-adv-x="1423" 
d="M1260 1004q31 0 30 -31v-942q0 -31 -30 -31h-1096q-31 0 -31 31v942q0 31 31 31h92q31 0 31 -31v-842h348v842q0 31 31 31h92q31 0 30 -31v-842h349v842q0 31 30 31h93z" />
    <glyph glyph-name="afii10091" unicode="&#x449;" horiz-adv-x="1462" 
d="M1350 131q31 0 30 -31v-211q0 -31 -30 -30h-93q-31 0 -30 30v111h-1063q-31 0 -31 31v942q0 31 31 31h92q31 0 31 -31v-842h348v842q0 31 31 31h92q31 0 30 -31v-842h349v842q0 31 30 31h93q31 0 30 -31v-842h60z" />
    <glyph glyph-name="afii10092" unicode="&#x44a;" horiz-adv-x="1185" 
d="M670 668q207 0 315.5 -89.5t108.5 -245t-108.5 -244.5t-315.5 -89h-457q-31 0 -31 31v841h-90q-31 0 -31 31v70q0 31 31 31h213q31 0 31 -31v-305h334zM674 133q272 0 272 201t-272 201h-338v-402h338z" />
    <glyph glyph-name="afii10093" unicode="&#x44b;" horiz-adv-x="1517" 
d="M621 668q207 0 315 -89.5t108 -245t-108.5 -244.5t-314.5 -89h-457q-31 0 -31 31v942q0 31 31 31h92q31 0 31 -31v-305h334zM1354 1004q31 0 30 -31v-942q0 -31 -30 -31h-92q-31 0 -31 31v942q0 31 31 31h92zM625 133q272 0 272 201t-272 201h-338v-402h338z" />
    <glyph glyph-name="afii10094" unicode="&#x44c;" horiz-adv-x="1136" 
d="M621 668q207 0 315 -89.5t108 -245t-108.5 -244.5t-314.5 -89h-457q-31 0 -31 31v942q0 31 31 31h92q31 0 31 -31v-305h334zM625 133q272 0 272 201t-272 201h-338v-402h338z" />
    <glyph glyph-name="afii10095" unicode="&#x44d;" horiz-adv-x="1095" 
d="M500 1024q215 0 359.5 -151.5t144.5 -372.5q0 -215 -144.5 -364.5t-359.5 -149.5q-233 0 -389 178q-18 23 2 43l51 47q23 23 45 0q39 -39 66.5 -60.5t88 -45t136.5 -23.5q139 0 235 88t117 225h-383q-31 0 -31 31v61q0 31 31 31h383q-18 143 -115.5 233.5t-236.5 90.5
q-29 0 -55.5 -4t-46 -8.5t-43 -15.5t-35 -16t-32 -21.5t-25.5 -20.5t-25.5 -22.5t-22.5 -20.5q-25 -20 -45 0l-51 47q-20 20 -2 43q156 178 383 178z" />
    <glyph glyph-name="afii10096" unicode="&#x44e;" horiz-adv-x="1566" 
d="M956 1026q215 0 361.5 -151.5t146.5 -372.5q0 -219 -146.5 -370.5t-361.5 -151.5q-197 0 -339 130t-164 326h-166v-407q0 -31 -31 -31h-92q-31 0 -31 31v942q0 31 31 30h92q31 0 31 -30v-406h166q23 199 163.5 330t339.5 131zM956.5 119q153.5 0 257 108.5t103.5 274.5
t-103.5 275.5t-257 109.5t-257 -109.5t-103.5 -275.5t103.5 -274.5t257 -108.5z" />
    <glyph glyph-name="afii10097" unicode="&#x44f;" horiz-adv-x="1122" 
d="M958 1004q31 0 31 -31v-942q0 -31 -31 -31h-92q-31 0 -30 31v305h-271l-286 -320q-14 -16 -37 -16h-105q-20 0 -25.5 11.5t9.5 25.5l280 309q-147 25 -223 110t-76 214q0 156 108.5 245t315.5 89h432zM522 469h314v401h-314q-272 0 -272 -200.5t272 -200.5z" />
    <glyph glyph-name="afii10071" unicode="&#x451;" horiz-adv-x="1167" 
d="M424 1327q-37 0 -63.5 26.5t-26.5 63.5q0 35 26.5 61.5t63.5 26.5t63.5 -26.5t26.5 -61.5q0 -37 -26.5 -63.5t-63.5 -26.5zM799 1327q-37 0 -63.5 26.5t-26.5 63.5q0 35 26.5 61.5t63.5 26.5t63.5 -26.5t26.5 -61.5q0 -37 -26.5 -63.5t-63.5 -26.5zM594 1024
q209 0 340 -142.5t131 -336.5q0 -57 -11.5 -80t-47.5 -23h-752q18 -141 118.5 -230t254.5 -89q160 0 274 96q25 20 43 4l39 -37q25 -25 2 -47q-147 -154 -375 -153q-221 0 -364.5 150.5t-143.5 369.5t139.5 368.5t352.5 149.5zM594 887q-139 0 -232.5 -91t-109.5 -235h678
q-8 139 -101.5 232.5t-234.5 93.5z" />
    <glyph glyph-name="afii10100" unicode="&#x453;" horiz-adv-x="870" 
d="M408 1112q-41 0 -25 35l123 258q10 25 35 25h67q41 0 25 -35l-123 -258q-10 -25 -35 -25h-67zM758 1004q31 0 30 -31v-70q0 -31 -30 -31h-471v-841q0 -31 -31 -31h-92q-31 0 -31 31v942q0 31 31 31h594z" />
    <glyph glyph-name="afii10101" unicode="&#x454;" horiz-adv-x="1095" 
d="M993 207q20 -20 2 -43q-156 -178 -389 -178q-215 0 -359.5 149.5t-144.5 364.5q0 221 144.5 372.5t359.5 151.5q227 0 383 -178q18 -23 -2 -43l-51 -47q-20 -20 -45 0q-2 2 -22.5 20.5t-25.5 22.5t-25.5 20.5t-32 21.5t-35 16t-43 15.5t-46 8.5t-55.5 4
q-139 0 -236.5 -90t-115.5 -234h383q31 0 31 -31v-61q0 -31 -31 -31h-383q20 -137 116.5 -225t235.5 -88q76 0 136.5 23.5t88 45t66.5 60.5q23 23 45 0z" />
    <glyph glyph-name="afii10103" unicode="&#x456;" horiz-adv-x="460" 
d="M231 1243q-43 0 -70.5 28.5t-27.5 69.5t27.5 70t70.5 29q41 0 69 -29t28 -70t-28 -69.5t-69 -28.5zM154 973q0 31 30 31h92q31 0 31 -31v-942q0 -31 -31 -31h-92q-31 0 -30 31v942z" />
    <glyph glyph-name="afii10104" unicode="&#x457;" horiz-adv-x="399" 
d="M14 1266q-37 0 -63.5 26.5t-26.5 63.5q0 35 26.5 61.5t63.5 26.5t63.5 -26.5t26.5 -61.5q0 -37 -26.5 -63.5t-63.5 -26.5zM389 1266q-37 0 -63.5 26.5t-26.5 63.5q0 35 26.5 61.5t63.5 26.5t63.5 -26.5t26.5 -61.5q0 -37 -26.5 -63.5t-63.5 -26.5zM123 973q0 31 31 31h92
q31 0 30 -31v-942q0 -31 -30 -31h-92q-31 0 -31 31v942z" />
    <glyph glyph-name="afii10109" unicode="&#x45c;" horiz-adv-x="1083" 
d="M518 1112q-41 0 -24 35l122 258q10 25 35 25h68q41 0 24 -35l-122 -258q-10 -25 -35 -25h-68zM1001 37q12 -16 8.5 -26.5t-24.5 -10.5h-121q-23 0 -37 16l-395 461l-145 -145v-301q0 -31 -31 -31h-92q-31 0 -31 31v942q0 31 31 31h92q31 0 31 -31v-447l463 461
q16 16 38 17h121q20 0 24.5 -10.5t-9.5 -26.5l-389 -387z" />
    <glyph glyph-name="afii10110" unicode="&#x45e;" horiz-adv-x="1099" 
d="M723 1403q6 29 33 29h45q31 0 28 -31q-10 -104 -85.5 -173t-194.5 -69t-194.5 68.5t-86.5 173.5q-2 31 29 31h45q27 0 33 -29q12 -61 58 -99t115.5 -38t116 38t58.5 99zM989 1004q37 0 25 -35l-529 -1334q-10 -25 -36 -24h-95q-37 0 -24 35l141 350l-385 973
q-12 35 25 35h94q29 0 37 -25l307 -805l307 805q10 25 37 25h96z" />
    <glyph glyph-name="afii10050" unicode="&#x490;" horiz-adv-x="1005" 
d="M883 1538q31 0 30 -31v-190q0 -31 -30 -31h-570v-1255q0 -31 -30 -31h-99q-31 0 -30 31v1372q0 31 30 31h582v73q0 31 31 31h86z" />
    <glyph glyph-name="afii10098" unicode="&#x491;" horiz-adv-x="870" 
d="M778 997q10 -10 10 -24v-70q0 -31 -30 -31h-471v-841q0 -31 -31 -31h-92q-31 0 -31 31v942q0 31 31 31h461v96q0 31 30 30h93q31 0 30 -30v-103z" />
    <glyph glyph-name="Wgrave" unicode="&#x1e80;" horiz-adv-x="2267" 
d="M1047 1567l-123 258q-16 35 24 35h68q25 0 35 -25l123 -258q16 -35 -25 -35h-68q-24 0 -34 25zM2138 1434q35 0 25 -35l-447 -1374q-8 -25 -37 -25h-108q-31 0 -37 25l-401 1169l-404 -1169q-8 -25 -37 -25h-108q-31 0 -37 25l-443 1374q-14 35 25 35h98q27 0 35 -25
l377 -1214l414 1214q4 12 12 18q6 6 20 7h93q10 0 18 -4q8 -6 14 -21l414 -1214l381 1214q6 25 35 25h98z" />
    <glyph glyph-name="wgrave" unicode="&#x1e81;" horiz-adv-x="1828" 
d="M827 1137l-122 258q-16 35 24 35h68q25 0 34 -25l123 -258q16 -35 -24 -35h-68q-25 0 -35 25zM1718 1004q37 0 25 -35l-357 -944q-10 -25 -36 -25h-101q-29 0 -37 25l-297 776l-299 -776q-10 -25 -36 -25h-101q-29 0 -37 25l-356 944q-12 35 25 35h90q29 0 37 -25
l294 -809l306 809q6 18 20 20q8 4 16 5h80q8 0 17 -5q14 -2 20 -20l305 -809l295 809q10 25 37 25h90z" />
    <glyph glyph-name="Wacute" unicode="&#x1e82;" horiz-adv-x="2267" 
d="M1106 1542q-41 0 -25 35l123 258q10 25 35 25h68q41 0 24 -35l-123 -258q-10 -25 -34 -25h-68zM2138 1434q35 0 25 -35l-447 -1374q-8 -25 -37 -25h-108q-31 0 -37 25l-401 1169l-404 -1169q-8 -25 -37 -25h-108q-31 0 -37 25l-443 1374q-14 35 25 35h98q27 0 35 -25
l377 -1214l414 1214q4 12 12 18q6 6 20 7h93q10 0 18 -4q8 -6 14 -21l414 -1214l381 1214q6 25 35 25h98z" />
    <glyph glyph-name="wacute" unicode="&#x1e83;" horiz-adv-x="1828" 
d="M887 1112q-41 0 -25 35l123 258q10 25 35 25h67q41 0 25 -35l-123 -258q-10 -25 -35 -25h-67zM1718 1004q37 0 25 -35l-357 -944q-10 -25 -36 -25h-101q-29 0 -37 25l-297 776l-299 -776q-10 -25 -36 -25h-101q-29 0 -37 25l-356 944q-12 35 25 35h90q29 0 37 -25
l294 -809l306 809q6 18 20 20q8 4 16 5h80q8 0 17 -5q14 -2 20 -20l305 -809l295 809q10 25 37 25h90z" />
    <glyph glyph-name="Wdieresis" unicode="&#x1e84;" horiz-adv-x="2267" 
d="M948 1696q-37 0 -63.5 26.5t-26.5 63.5q0 35 26.5 61.5t63.5 26.5t63.5 -26.5t26.5 -61.5q0 -37 -26.5 -63.5t-63.5 -26.5zM1323 1696q-37 0 -63.5 26.5t-26.5 63.5q0 35 26.5 61.5t63.5 26.5t63.5 -26.5t26.5 -61.5q0 -37 -26.5 -63.5t-63.5 -26.5zM2138 1434
q35 0 25 -35l-447 -1374q-8 -25 -37 -25h-108q-31 0 -37 25l-401 1169l-404 -1169q-8 -25 -37 -25h-108q-31 0 -37 25l-443 1374q-14 35 25 35h98q27 0 35 -25l377 -1214l414 1214q4 12 12 18q6 6 20 7h93q10 0 18 -4q8 -6 14 -21l414 -1214l381 1214q6 25 35 25h98z" />
    <glyph glyph-name="wdieresis" unicode="&#x1e85;" horiz-adv-x="1828" 
d="M729 1266q-37 0 -63.5 26.5t-26.5 63.5q0 35 26.5 61.5t63.5 26.5t63.5 -26.5t26.5 -61.5q0 -37 -26.5 -63.5t-63.5 -26.5zM1104 1266q-37 0 -63.5 26.5t-26.5 63.5q0 35 26.5 61.5t63.5 26.5t63.5 -26.5t26.5 -61.5q0 -37 -26.5 -63.5t-63.5 -26.5zM1718 1004
q37 0 25 -35l-357 -944q-10 -25 -36 -25h-101q-29 0 -37 25l-297 776l-299 -776q-10 -25 -36 -25h-101q-29 0 -37 25l-356 944q-12 35 25 35h90q29 0 37 -25l294 -809l306 809q6 18 20 20q8 4 16 5h80q8 0 17 -5q14 -2 20 -20l305 -809l295 809q10 25 37 25h90z" />
    <glyph glyph-name="Ygrave" unicode="&#x1ef2;" horiz-adv-x="1224" 
d="M524 1567l-123 258q-16 35 25 35h68q25 0 34 -25l123 -258q16 -35 -24 -35h-68q-25 0 -35 25zM1096 1434q18 0 24 -10.5t-4 -26.5l-424 -703v-663q0 -31 -30 -31h-99q-31 0 -31 31v663l-423 703q-10 16 -4 26.5t24 10.5h104q25 0 37 -21l342 -569l342 569q12 20 37 21
h105z" />
    <glyph glyph-name="ygrave" unicode="&#x1ef3;" horiz-adv-x="1099" 
d="M362 1430h68q25 0 35 -25l123 -258q16 -35 -25 -35h-67q-25 0 -35 25l-123 258q-17 35 24 35zM989 1004q37 0 25 -35l-529 -1334q-10 -25 -36 -24h-95q-37 0 -24 35l141 350l-385 973q-12 35 25 35h94q29 0 37 -25l307 -805l307 805q10 25 37 25h96z" />
    <glyph glyph-name="endash" unicode="&#x2013;" horiz-adv-x="1290" 
d="M1137 645q31 0 30 -31v-71q0 -31 -30 -31h-983q-31 0 -31 31v71q0 31 31 31h983z" />
    <glyph glyph-name="emdash" unicode="&#x2014;" horiz-adv-x="1413" 
d="M1260 645q31 0 30 -31v-71q0 -31 -30 -31h-1106q-31 0 -31 31v71q0 31 31 31h1106z" />
    <glyph glyph-name="quoteleft" unicode="&#x2018;" horiz-adv-x="374" 
d="M195 1178q45 -4 71.5 -32t26.5 -69q0 -43 -30 -71.5t-73 -28.5q-45 0 -76.5 33.5t-31.5 99.5q0 72 41 173t108 185l50 -34q-76 -115 -86 -256z" />
    <glyph glyph-name="quoteright" unicode="&#x2019;" horiz-adv-x="374" 
d="M184 1466q45 0 77 -33.5t32 -99.5q0 -72 -41 -173t-109 -185l-49 35q76 115 86 256q-45 4 -71.5 31.5t-26.5 68.5q0 43 29.5 71.5t72.5 28.5z" />
    <glyph glyph-name="quotesinglbase" unicode="&#x201a;" horiz-adv-x="362" 
d="M184 170q45 0 77 -34t32 -99q0 -72 -41 -173.5t-109 -185.5l-49 35q76 115 86 256q-45 4 -71.5 32t-26.5 69q0 43 29.5 71.5t72.5 28.5z" />
    <glyph glyph-name="quotedblleft" unicode="&#x201c;" horiz-adv-x="677" 
d="M195 1178q45 -4 71.5 -32t26.5 -69q0 -43 -30 -71.5t-73 -28.5q-45 0 -76.5 33.5t-31.5 99.5q0 72 41 173t108 185l50 -34q-76 -115 -86 -256zM498 1178q45 -4 71.5 -32t26.5 -69q0 -43 -29.5 -71.5t-72.5 -28.5q-45 0 -77 33.5t-32 99.5q0 72 41 173t109 185l49 -34
q-76 -115 -86 -256z" />
    <glyph glyph-name="quotedblright" unicode="&#x201d;" horiz-adv-x="677" 
d="M184 1466q45 0 77 -33.5t32 -99.5q0 -72 -41 -173t-109 -185l-49 35q76 115 86 256q-45 4 -71.5 31.5t-26.5 68.5q0 43 29.5 71.5t72.5 28.5zM487 1466q45 0 77 -33.5t32 -99.5q0 -72 -41 -173t-109 -185l-49 35q76 115 86 256q-45 4 -71.5 31.5t-26.5 68.5
q0 43 29.5 71.5t72.5 28.5z" />
    <glyph glyph-name="quotedblbase" unicode="&#x201e;" horiz-adv-x="675" 
d="M184 170q45 0 77 -34t32 -99q0 -72 -41 -173.5t-109 -185.5l-49 35q76 115 86 256q-45 4 -71.5 32t-26.5 69q0 43 29.5 71.5t72.5 28.5zM485 170q45 0 77 -34t32 -99q0 -72 -41 -173.5t-109 -185.5l-49 35q76 115 86 256q-45 4 -71.5 32t-26.5 69q0 43 29.5 71.5
t72.5 28.5z" />
    <glyph glyph-name="dagger" unicode="&#x2020;" horiz-adv-x="886" 
d="M723 1190q31 0 31 -31v-69q0 -31 -31 -31h-213v-215q0 -31 -31 -31h-69q-31 0 -31 31v215h-215q-31 0 -31 31v69q0 31 31 31h215v213q0 31 31 31h69q31 0 31 -31v-213h213z" />
    <glyph glyph-name="daggerdbl" unicode="&#x2021;" horiz-adv-x="886" 
d="M723 1190q31 0 31 -31v-69q0 -31 -31 -31h-213v-215q0 -31 -31 -31h-69q-31 0 -31 31v215h-215q-31 0 -31 31v69q0 31 31 31h215v213q0 31 31 31h69q31 0 31 -31v-213h213zM723 471q31 0 31 -31v-69q0 -31 -31 -31h-213v-215q0 -31 -31 -31h-69q-31 0 -31 31v215h-215
q-31 0 -31 31v69q0 31 31 31h215v213q0 31 31 31h69q31 0 31 -31v-213h213z" />
    <glyph glyph-name="bullet" unicode="&#x2022;" horiz-adv-x="546" 
d="M274 424q-59 0 -100 41t-41 98.5t41 98t100 40.5q57 0 98.5 -40.5t41.5 -98t-41.5 -98.5t-98.5 -41z" />
    <glyph glyph-name="ellipsis" unicode="&#x2026;" horiz-adv-x="1392" 
d="M190.5 -27q-40.5 0 -69.5 29t-29 70t29 69.5t69.5 28.5t69.5 -28.5t29 -69.5t-29 -70t-69.5 -29zM696 -27q-41 0 -69.5 29t-28.5 70t28.5 69.5t69.5 28.5t70 -28.5t29 -69.5t-29 -70t-70 -29zM1202 -27q-41 0 -69.5 29t-28.5 70t28.5 69.5t69.5 28.5t69.5 -28.5
t28.5 -69.5t-28.5 -70t-69.5 -29z" />
    <glyph glyph-name="perthousand" unicode="&#x2030;" horiz-adv-x="2207" 
d="M381 1444q117 0 199 -80t82 -196.5t-82 -197.5t-199 -81q-115 0 -197 81t-82 197.5t82 196.5t197 80zM1163 1442l94 -66l-929 -1384l-95 65zM381 1333q-70 0 -119 -47t-49 -118.5t49 -120t119 -48.5q72 0 121 47.5t49 120.5q0 72 -49 119t-121 47zM1110 545
q115 0 197 -81t82 -197.5t-82 -196.5t-197 -80q-117 0 -199 80t-82 196.5t82 197.5t199 81zM1827 545q115 0 196.5 -81t81.5 -197.5t-81.5 -196.5t-196.5 -80q-117 0 -199 80t-82 196.5t82 197.5t199 81zM1110 434q-72 0 -121 -47t-49 -121q0 -72 49 -119t121 -47
q70 0 119 47.5t49 119t-49 119.5t-119 48zM1827 434q-72 0 -121 -47t-49 -121q0 -72 49 -119t121 -47q70 0 119 47.5t49 119t-49 119.5t-119 48z" />
    <glyph glyph-name="guilsinglleft" unicode="&#x2039;" horiz-adv-x="442" 
d="M92 645q0 23 17 37l204 178q14 12 25.5 8t11.5 -24v-62q0 -23 -16 -37l-170 -147l170 -147q16 -14 16 -37v-62q0 -20 -11 -24t-26 8l-204 178q-16 14 -17 37v94z" />
    <glyph glyph-name="guilsinglright" unicode="&#x203a;" horiz-adv-x="442" 
d="M350 645v-94q0 -23 -16 -37l-205 -178q-14 -12 -25.5 -8t-11.5 24v62q0 23 17 37l170 147l-170 147q-16 14 -17 37v62q0 20 11.5 24t25.5 -8l205 -178q16 -14 16 -37z" />
    <glyph glyph-name="fraction" unicode="&#x2044;" horiz-adv-x="303" 
d="M641 1434l-881 -1434h-98l893 1434h86z" />
    <glyph glyph-name="Euro" unicode="&#x20ac;" horiz-adv-x="1503" 
d="M1327 274l64 -63q23 -23 -2 -43q-227 -195 -484 -195q-254 0 -447.5 156t-250.5 399h-94q-31 0 -31 31v70q0 31 31 30h73q-2 16 -2 52v37h-71q-31 0 -31 30v70q0 31 31 31h90q55 250 249.5 410.5t452.5 160.5q256 0 484 -195q25 -20 2 -43l-64 -63q-20 -20 -43 0
q-172 145 -379 145q-190 0 -337.5 -115.5t-198.5 -299.5h262q31 0 31 -31v-70q0 -31 -31 -30h-283q-2 -12 -2 -37q0 -35 2 -52h283q31 0 31 -30v-70q0 -31 -31 -31h-258q55 -178 201.5 -288.5t330.5 -110.5q207 0 379 145q23 20 43 0z" />
    <glyph glyph-name="uni20B4" unicode="&#x20b4;" horiz-adv-x="1263" 
d="M1130 748h-284q-68 -35 -199 -89h483q35 0 31 -30v-70q4 -31 -31 -31h-714q-63 -63 -64 -149q0 -109 86 -182.5t226 -73.5q174 0 337 164q23 23 43 4l60 -58q20 -18 6 -40q-61 -98 -181 -158t-267 -60q-195 0 -331 115t-136 281q0 86 32 157h-94q-31 0 -31 31v70
q0 31 31 30h201q57 47 147 89h-348q-31 0 -31 30v70q0 31 31 31h649q147 80 148 204q0 102 -74 162t-188 60q-164 0 -310 -146q-20 -20 -43 2l-51 53q-20 23 -2 43q76 90 183.5 141.5t222.5 51.5q178 0 295.5 -103.5t117.5 -261.5q0 -123 -67 -206h116q35 0 31 -31v-70
q4 -30 -31 -30z" />
    <glyph glyph-name="trademark" unicode="&#x2122;" horiz-adv-x="1120" 
d="M473 1434q10 0 10 -11v-41q0 -10 -10 -10h-131v-297q0 -10 -10 -10h-47q-10 0 -11 10v297h-131q-10 0 -10 10v41q0 10 10 11h330zM977 1434q10 0 10 -11v-348q0 -10 -10 -10h-47q-10 0 -10 10v236l-117 -238q-4 -8 -12 -8h-39q-8 0 -13 8l-116 238v-236q0 -10 -11 -10
h-47q-10 0 -10 10v348q0 10 10 11h58q8 0 12 -9l135 -280l137 280q4 8 13 9h57z" />
    <glyph glyph-name="oneeighth" unicode="&#x215b;" horiz-adv-x="1193" 
d="M213 1436v-535h-76v461h-55v74h131zM1075 1434l-880 -1434h-99l893 1434h86zM924 539q74 0 117.5 -41t43.5 -97q0 -70 -61 -108q88 -43 88 -135q0 -70 -55.5 -116t-132.5 -46q-76 0 -131.5 46t-55.5 116q0 92 88 135q-61 39 -61 108q0 53 44 95.5t116 42.5zM924 475
q-41 0 -62.5 -21.5t-21.5 -52t25.5 -55t58.5 -24.5q35 0 59.5 23.5t24.5 55.5q0 74 -84 74zM924 258q-45 0 -78 -28.5t-33 -71.5q0 -41 33 -70t78 -29q49 0 79.5 27t30.5 72t-30.5 72.5t-79.5 27.5z" />
    <glyph glyph-name="threeeighths" unicode="&#x215c;" 
d="M268 1440q66 0 115 -42t49 -98q0 -66 -61 -108q86 -37 86 -135q0 -70 -56.5 -117t-132.5 -47q-82 0 -136 55.5t-50 130.5h78q0 -49 29.5 -85t78.5 -36q45 0 78 28t33 71q0 98 -152 98v59q129 0 129 86q0 33 -25.5 54.5t-62.5 21.5q-45 0 -70.5 -29.5t-25.5 -82.5h-76
q-2 78 47 127t125 49zM1122 1434l-880 -1434h-99l893 1434h86zM967 539q74 0 117.5 -41t43.5 -97q0 -70 -61 -108q88 -43 88 -135q0 -70 -55.5 -116t-132.5 -46q-76 0 -131.5 46t-55.5 116q0 92 88 135q-61 39 -61 108q0 53 44 95.5t116 42.5zM967 475q-41 0 -62.5 -21.5
t-21.5 -52t25.5 -55t58.5 -24.5q37 0 60.5 23.5t23.5 55.5q0 74 -84 74zM967 258q-45 0 -78 -28.5t-33 -71.5q0 -41 33 -70t78 -29q49 0 79.5 27t30.5 72t-30.5 72.5t-79.5 27.5z" />
    <glyph glyph-name="fiveeighths" unicode="&#x215d;" horiz-adv-x="1241" 
d="M412 1436v-66h-213l-17 -119q45 20 92 21q72 0 129.5 -54.5t57.5 -134t-57.5 -135t-137.5 -55.5q-68 0 -120 38t-64 89l68 39q4 -41 35.5 -71t80.5 -30q47 0 82 36t35 89q0 51 -34 87t-75 36q-72 0 -116 -59l-66 16l37 273h283zM1122 1434l-880 -1434h-99l893 1434h86z
M971 539q74 0 118 -41t44 -97q0 -70 -62 -108q88 -43 88 -135q0 -70 -55 -116t-133 -46q-76 0 -131.5 46t-55.5 116q0 92 88 135q-61 39 -61 108q0 53 44 95.5t116 42.5zM971 475q-41 0 -62.5 -21.5t-21.5 -52t25.5 -55t58.5 -24.5q37 0 60.5 23.5t23.5 55.5q0 74 -84 74z
M971 258q-45 0 -78 -28.5t-33 -71.5q0 -41 33 -70t78 -29q49 0 79.5 27t30.5 72t-30.5 72.5t-79.5 27.5z" />
    <glyph glyph-name="seveneighths" unicode="&#x215e;" horiz-adv-x="1196" 
d="M436 1436l-209 -535h-80l183 469h-248v66h354zM1077 1434l-880 -1434h-99l893 1434h86zM926 539q74 0 117.5 -41t43.5 -97q0 -70 -61 -108q88 -43 88 -135q0 -70 -55 -116t-133 -46q-76 0 -131.5 46t-55.5 116q0 92 88 135q-61 39 -61 108q0 53 44 95.5t116 42.5z
M926 475q-41 0 -62.5 -21.5t-21.5 -52t25.5 -55t58.5 -24.5q37 0 60.5 23.5t23.5 55.5q0 74 -84 74zM926 258q-45 0 -78 -28.5t-33 -71.5q0 -41 33 -70t78 -29q49 0 79.5 27t30.5 72t-30.5 72.5t-79.5 27.5z" />
    <glyph glyph-name="partialdiff" unicode="&#x2202;" horiz-adv-x="1085" 
d="M877 782q127 -174 127 -340q0 -195 -133.5 -332t-328 -137t-327.5 137.5t-133 332t133 328.5t328 134q41 0 78 -6l-351 471q-16 23 6 43l60 51q23 20 43 -6zM543 113q135 0 224 93t89 236q0 141 -89 233.5t-224 92.5t-224.5 -92t-89.5 -234q0 -143 89.5 -236t224.5 -93z
" />
    <glyph glyph-name="product" unicode="&#x220f;" horiz-adv-x="1388" 
d="M123 1608q0 31 31 30h1081q31 0 31 -30v-1966q0 -31 -31 -31h-98q-31 0 -31 31v1849h-823v-1849q0 -31 -31 -31h-98q-31 0 -31 31v1966z" />
    <glyph glyph-name="summation" unicode="&#x2211;" horiz-adv-x="1388" 
d="M1235 1638q31 0 31 -30v-86q0 -31 -31 -31h-924l549 -846q12 -20 0 -41l-549 -846h924q31 0 31 -30v-86q0 -31 -31 -31h-1081q-31 0 -31 31v96q0 18 12 37l551 850l-551 850q-12 18 -12 36v97q0 31 31 30h1081z" />
    <glyph glyph-name="minus" unicode="&#x2212;" horiz-adv-x="927" 
d="M764 647q31 0 31 -31v-69q0 -31 -31 -31h-600q-31 0 -31 31v69q0 31 31 31h600z" />
    <glyph glyph-name="radical" unicode="&#x221a;" horiz-adv-x="1402" 
d="M1251 1638q33 0 27 -34l-461 -1966q-6 -27 -33 -27h-145q-29 0 -35 27l-260 894h-190q-31 0 -31 31v86q0 31 31 31h270q29 0 35 -27l248 -891l430 1850q6 27 32 26h82z" />
    <glyph glyph-name="infinity" unicode="&#x221e;" horiz-adv-x="1671" 
d="M1225 868q141 0 237.5 -96t96.5 -237q0 -143 -96.5 -239.5t-237.5 -96.5q-201 0 -389 247q-188 -248 -387 -247q-143 0 -239.5 96t-96.5 240q0 141 96 237t240 96q199 0 387 -247q188 247 389 247zM453 301q162 0 319 234q-154 231 -319 231q-102 0 -168 -64.5
t-66 -166.5q0 -100 66 -167t168 -67zM1219 301q102 0 167.5 66.5t65.5 167.5q0 102 -65.5 166.5t-167.5 64.5q-166 0 -320 -231q158 -234 320 -234z" />
    <glyph glyph-name="integral" unicode="&#x222b;" horiz-adv-x="794" 
d="M784 1606q20 -12 21 -37v-78q0 -41 -37 -21q-61 33 -113 33q-78 0 -106.5 -35.5t-28.5 -109.5v-1475q0 -272 -282 -272q-76 0 -136 33q-20 12 -20 37v77q0 41 37 21q61 -33 112 -33q78 0 107 36t29 109v1475q0 272 282 272q76 1 135 -32z" />
    <glyph glyph-name="approxequal" unicode="&#x2248;" horiz-adv-x="927" 
d="M311 856q84 2 173 -73.5t143 -75.5q68 2 96 71q6 20 25 19h34q10 2 17.5 -4.5t5.5 -18.5q-14 -82 -63.5 -126t-118.5 -44q-55 0 -102.5 23.5t-76 51.5t-66.5 50.5t-77 22.5q-74 2 -96 -70q-8 -18 -25 -20h-37q-23 4 -20 28q10 82 61 125t127 41zM311 528q84 2 173 -73.5
t143 -75.5q68 2 96 72q6 20 25 18h34q10 2 17.5 -4t5.5 -19q-14 -82 -63.5 -126t-118.5 -44q-55 0 -102.5 24t-76 51.5t-66.5 50t-77 22.5q-74 2 -96 -70q-8 -18 -25 -20h-37q-23 4 -20 28q10 82 61 125t127 41z" />
    <glyph glyph-name="notequal" unicode="&#x2260;" horiz-adv-x="927" 
d="M764 649h-207l-51 -133h258q31 0 31 -31v-69q0 -31 -31 -31h-309l-140 -360q-8 -25 -36 -25h-64q-37 0 -25 35l136 350h-162q-31 0 -31 31v69q0 31 31 31h213l51 133h-264q-31 0 -31 31v70q0 31 31 30h315l133 344q10 25 37 25h64q37 0 24 -35l-129 -334h156q31 0 31 -30
v-70q0 -31 -31 -31z" />
    <glyph glyph-name="lessequal" unicode="&#x2264;" horiz-adv-x="935" 
d="M772 1214q14 8 22.5 2t8.5 -22v-66q0 -23 -19 -34l-536 -310l536 -311q18 -10 19 -33v-67q0 -35 -31 -19l-620 365q-18 14 -19 33v65q0 23 19 33zM764 111q31 0 31 -31v-70q0 -31 -31 -30h-600q-31 0 -31 30v70q0 31 31 31h600z" />
    <glyph glyph-name="greaterequal" unicode="&#x2265;" horiz-adv-x="935" 
d="M164 1214l620 -364q18 -10 19 -33v-65q0 -18 -19 -33l-620 -365q-31 -16 -31 19v67q0 23 19 33l536 311l-536 310q-18 12 -19 34v66q0 16 8.5 22t22.5 -2zM172 111h600q31 0 31 -31v-70q0 -31 -31 -30h-600q-31 0 -31 30v70q0 31 31 31z" />
    <glyph glyph-name="lozenge" unicode="&#x25ca;" horiz-adv-x="1089" 
d="M625 1434q27 0 34 -23l299 -674q8 -20 0 -41l-299 -673q-8 -23 -34 -23h-160q-27 0 -35 23l-299 673q-8 20 0 41l299 674q8 23 35 23h160zM545 96l274 621l-274 620l-275 -620z" />
    <glyph glyph-name="uni2713" unicode="&#x2713;" horiz-adv-x="1667" 
d="M1575 1231q23 -23 0 -45l-969 -969q-23 -23 -45 0l-469 469q-23 23 0 45l60 60q23 23 43 0l378 -379l889 888q23 20 43 0z" />
    <glyph glyph-name="uniFB01" unicode="&#xfb01;" horiz-adv-x="1150" 
d="M649 1475q20 -12 21 -37v-78q0 -41 -37 -21q-61 33 -113 33q-78 0 -106.5 -36t-28.5 -109v-223h213q31 0 31 -31v-70q0 -31 -31 -31h-213v-841q0 -31 -31 -31h-92q-31 0 -31 31v841h-118q-31 0 -31 31v70q0 31 31 31h118v231q0 272 283 272q78 1 135 -32zM922 1243
q-43 0 -71 28.5t-28 69.5t28 70t71 29q41 0 68.5 -29t27.5 -70t-27.5 -69.5t-68.5 -28.5zM967 1004q31 0 30 -31v-942q0 -31 -30 -31h-93q-31 0 -30 31v942q0 31 30 31h93z" />
    <glyph glyph-name="uniFB02" unicode="&#xfb02;" horiz-adv-x="1120" 
d="M649 1475q20 -12 21 -37v-78q0 -41 -37 -21q-61 33 -113 33q-78 0 -106.5 -36t-28.5 -109v-223h213q31 0 31 -31v-70q0 -31 -31 -31h-213v-841q0 -31 -31 -31h-92q-31 0 -31 31v841h-118q-31 0 -31 31v70q0 31 31 31h118v231q0 272 283 272q78 1 135 -32zM956 1495
q31 0 31 -31v-1433q0 -31 -31 -31h-92q-31 0 -30 31v1433q0 31 30 31h92z" />
    <glyph glyph-name="i.aalt" horiz-adv-x="399" 
d="M201 1266q-37 0 -63.5 26.5t-26.5 63.5q0 35 26.5 61.5t63.5 26.5t63.5 -26.5t26.5 -61.5q0 -37 -26.5 -63.5t-63.5 -26.5zM123 973q0 31 31 31h92q31 0 30 -31v-942q0 -31 -30 -31h-92q-31 0 -31 31v942z" />
    <glyph glyph-name="f.aalt" horiz-adv-x="751" 
d="M649 1475q20 -12 21 -37v-78q0 -41 -37 -21q-61 33 -113 33q-78 0 -106.5 -36t-28.5 -109v-223h213q31 0 31 -31v-70q0 -31 -31 -31h-213v-841q0 -31 -31 -31h-92q-31 0 -31 31v841h-118q-31 0 -31 31v70q0 31 31 31h118v231q0 272 283 272q78 1 135 -32z" />
    <glyph glyph-name="a.salt" horiz-adv-x="1095" 
d="M987 111q27 -12 27 -35v-47q0 -31 -29 -35q-94 -12 -140 28.5t-48 112.5q-170 -162 -394 -162q-150 0 -225.5 79t-75.5 202q0 254 304 305l274 47q109 20 117 45v2q0 238 -240 238q-231 0 -248 -170q-2 -25 -30 -25h-91q-33 0 -28 31q10 156 118.5 227.5t278.5 71.5
q201 0 297 -95t96 -267v-469q0 -66 37 -84zM256 268.5q0 -69.5 44 -112.5t136 -43q195 0 361 163v252q-6 -23 -101 -39l-247 -45q-109 -20 -151 -63t-42 -112.5z" />
    <glyph glyph-name="aacute.aalt" horiz-adv-x="1095" 
d="M528 1112q-41 0 -24 35l123 258q10 25 35 25h67q41 0 25 -35l-123 -258q-10 -25 -35 -25h-68zM987 111q27 -12 27 -35v-47q0 -31 -29 -35q-94 -12 -140 28.5t-48 112.5q-170 -162 -394 -162q-150 0 -225.5 79t-75.5 202q0 254 304 305l274 47q109 20 117 45v2
q0 238 -240 238q-231 0 -248 -170q-2 -25 -30 -25h-91q-33 0 -28 31q10 156 118.5 227.5t278.5 71.5q201 0 297 -95t96 -267v-469q0 -66 37 -84zM256 268.5q0 -69.5 44 -112.5t136 -43q195 0 361 163v252q-6 -23 -101 -39l-247 -45q-109 -20 -151 -63t-42 -112.5z" />
    <glyph glyph-name="abreve.aalt" horiz-adv-x="1095" 
d="M557 1159q-119 0 -194.5 68.5t-86.5 173.5q-2 31 29 31h45q27 0 33 -29q12 -61 58 -99t116 -38t116 37.5t58 99.5q6 29 33 29h45q31 0 29 -31q-10 -104 -86 -173t-195 -69zM987 111q27 -12 27 -35v-47q0 -31 -29 -35q-94 -12 -140 28.5t-48 112.5q-170 -162 -394 -162
q-150 0 -225.5 79t-75.5 202q0 254 304 305l274 47q109 20 117 45v2q0 238 -240 238q-231 0 -248 -170q-2 -25 -30 -25h-91q-33 0 -28 31q10 156 118.5 227.5t278.5 71.5q201 0 297 -95t96 -267v-469q0 -66 37 -84zM256 268.5q0 -69.5 44 -112.5t136 -43q195 0 361 163v252
q-6 -23 -101 -39l-247 -45q-109 -20 -151 -63t-42 -112.5z" />
    <glyph glyph-name="uni01CE.aalt" horiz-adv-x="1095" 
d="M473 1188l-178 205q-12 16 -8 26.5t24 10.5h62q23 0 37 -17l147 -170l148 170q14 16 36 17h62q20 0 24 -10.5t-8 -26.5l-178 -205q-14 -16 -37 -17h-94q-23 1 -37 17zM987 111q27 -12 27 -35v-47q0 -31 -29 -35q-94 -12 -140 28.5t-48 112.5q-170 -162 -394 -162
q-150 0 -225.5 79t-75.5 202q0 254 304 305l274 47q109 20 117 45v2q0 238 -240 238q-231 0 -248 -170q-2 -25 -30 -25h-91q-33 0 -28 31q10 156 118.5 227.5t278.5 71.5q201 0 297 -95t96 -267v-469q0 -66 37 -84zM256 268.5q0 -69.5 44 -112.5t136 -43q195 0 361 163v252
q-6 -23 -101 -39l-247 -45q-109 -20 -151 -63t-42 -112.5z" />
    <glyph glyph-name="acircumflex.aalt" horiz-adv-x="1095" 
d="M311 1171q-20 0 -24 10.5t8 26.5l178 205q14 16 37 17h94q23 0 37 -17l178 -205q12 -16 8 -26.5t-24 -10.5h-62q-23 0 -36 17l-148 170l-147 -170q-14 -16 -37 -17h-62zM987 111q27 -12 27 -35v-47q0 -31 -29 -35q-94 -12 -140 28.5t-48 112.5q-170 -162 -394 -162
q-150 0 -225.5 79t-75.5 202q0 254 304 305l274 47q109 20 117 45v2q0 238 -240 238q-231 0 -248 -170q-2 -25 -30 -25h-91q-33 0 -28 31q10 156 118.5 227.5t278.5 71.5q201 0 297 -95t96 -267v-469q0 -66 37 -84zM256 268.5q0 -69.5 44 -112.5t136 -43q195 0 361 163v252
q-6 -23 -101 -39l-247 -45q-109 -20 -151 -63t-42 -112.5z" />
    <glyph glyph-name="adieresis.aalt" horiz-adv-x="1095" 
d="M371 1266q-37 0 -63.5 26.5t-26.5 63.5q0 35 26.5 61.5t63.5 26.5t63.5 -26.5t26.5 -61.5q0 -37 -26.5 -63.5t-63.5 -26.5zM745.5 1266q-36.5 0 -63.5 26.5t-27 63.5q0 35 27 61.5t63.5 26.5t63.5 -26.5t27 -61.5q0 -37 -27 -63.5t-63.5 -26.5zM987 111q27 -12 27 -35
v-47q0 -31 -29 -35q-94 -12 -140 28.5t-48 112.5q-170 -162 -394 -162q-150 0 -225.5 79t-75.5 202q0 254 304 305l274 47q109 20 117 45v2q0 238 -240 238q-231 0 -248 -170q-2 -25 -30 -25h-91q-33 0 -28 31q10 156 118.5 227.5t278.5 71.5q201 0 297 -95t96 -267v-469
q0 -66 37 -84zM256 268.5q0 -69.5 44 -112.5t136 -43q195 0 361 163v252q-6 -23 -101 -39l-247 -45q-109 -20 -151 -63t-42 -112.5z" />
    <glyph glyph-name="agrave.aalt" horiz-adv-x="1095" 
d="M469 1137l-123 258q-16 35 25 35h67q25 0 35 -25l123 -258q16 -35 -25 -35h-67q-25 0 -35 25zM987 111q27 -12 27 -35v-47q0 -31 -29 -35q-94 -12 -140 28.5t-48 112.5q-170 -162 -394 -162q-150 0 -225.5 79t-75.5 202q0 254 304 305l274 47q109 20 117 45v2
q0 238 -240 238q-231 0 -248 -170q-2 -25 -30 -25h-91q-33 0 -28 31q10 156 118.5 227.5t278.5 71.5q201 0 297 -95t96 -267v-469q0 -66 37 -84zM256 268.5q0 -69.5 44 -112.5t136 -43q195 0 361 163v252q-6 -23 -101 -39l-247 -45q-109 -20 -151 -63t-42 -112.5z" />
    <glyph glyph-name="amacron.aalt" horiz-adv-x="1095" 
d="M279 1303q-31 0 -31 30v66q0 31 31 31h557q31 0 30 -31v-66q0 -31 -30 -30h-557zM987 111q27 -12 27 -35v-47q0 -31 -29 -35q-94 -12 -140 28.5t-48 112.5q-170 -162 -394 -162q-150 0 -225.5 79t-75.5 202q0 254 304 305l274 47q109 20 117 45v2q0 238 -240 238
q-231 0 -248 -170q-2 -25 -30 -25h-91q-33 0 -28 31q10 156 118.5 227.5t278.5 71.5q201 0 297 -95t96 -267v-469q0 -66 37 -84zM256 268.5q0 -69.5 44 -112.5t136 -43q195 0 361 163v252q-6 -23 -101 -39l-247 -45q-109 -20 -151 -63t-42 -112.5z" />
    <glyph glyph-name="aogonek.aalt" horiz-adv-x="1095" 
d="M987 111q27 -12 27 -35v-47q0 -31 -29 -35q-16 -2 -45 -2q-86 -2 -145.5 -49t-59.5 -109q0 -70 47 -98.5t129 -9.5v-111q-37 -16 -89 -17t-102 16t-86 65.5t-36 121.5q0 188 217 258q-14 25 -18 76q-170 -162 -394 -162q-150 0 -225.5 79t-75.5 202q0 254 304 305l274 47
q109 20 117 45v2q0 238 -240 238q-231 0 -248 -170q-2 -25 -30 -25h-91q-33 0 -28 31q10 156 118.5 227.5t278.5 71.5q201 0 297 -95t96 -267v-469q0 -66 37 -84zM256 268.5q0 -69.5 44 -112.5t136 -43q195 0 361 163v252q-6 -23 -101 -39l-247 -45q-109 -20 -151 -63
t-42 -112.5z" />
    <glyph glyph-name="aring.aalt" horiz-adv-x="1095" 
d="M559 1149q-70 0 -118 47t-48 114.5t48 115t118 47.5q66 0 114 -48.5t48 -114t-48 -113.5t-114 -48zM559 1366q-25 0 -41 -16.5t-16 -39t16.5 -39t40.5 -16.5q23 0 39 16.5t16 39t-16 39t-39 16.5zM987 111q27 -12 27 -35v-47q0 -31 -29 -35q-94 -12 -140 28.5t-48 112.5
q-170 -162 -394 -162q-150 0 -225.5 79t-75.5 202q0 254 304 305l274 47q109 20 117 45v2q0 238 -240 238q-231 0 -248 -170q-2 -25 -30 -25h-91q-33 0 -28 31q10 156 118.5 227.5t278.5 71.5q201 0 297 -95t96 -267v-469q0 -66 37 -84zM256 268.5q0 -69.5 44 -112.5
t136 -43q195 0 361 163v252q-6 -23 -101 -39l-247 -45q-109 -20 -151 -63t-42 -112.5z" />
    <glyph glyph-name="atilde.aalt" horiz-adv-x="1095" 
d="M268 1290q-23 0 -18 25q8 74 55 112.5t117 38.5q76 0 156.5 -67.5t130.5 -67.5q63 0 86 64q6 18 22 18h33q20 0 20 -20q-8 -74 -55 -115t-110.5 -41t-113.5 34t-93 67.5t-86 33.5q-66 0 -88 -63q-6 -18 -23 -19h-33zM987 111q27 -12 27 -35v-47q0 -31 -29 -35
q-94 -12 -140 28.5t-48 112.5q-170 -162 -394 -162q-150 0 -225.5 79t-75.5 202q0 254 304 305l274 47q109 20 117 45v2q0 238 -240 238q-231 0 -248 -170q-2 -25 -30 -25h-91q-33 0 -28 31q10 156 118.5 227.5t278.5 71.5q201 0 297 -95t96 -267v-469q0 -66 37 -84z
M256 268.5q0 -69.5 44 -112.5t136 -43q195 0 361 163v252q-6 -23 -101 -39l-247 -45q-109 -20 -151 -63t-42 -112.5z" />
    <glyph glyph-name="g.aalt" horiz-adv-x="1181" 
d="M811 94q279 0 279 -223q0 -274 -519 -274q-469 0 -469 241q0 59 34 103.5t83 64.5q-88 55 -88 152q0 125 133 168q-117 117 -117 288q0 176 124 294t319 118q127 0 231 -55l189 33q12 2 21 -7.5t9 -23.5v-70q0 -31 -30 -31h-68q90 -109 90 -258q0 -178 -124 -295.5
t-318 -117.5q-131 0 -236 57q-41 -2 -66.5 -23.5t-25.5 -54.5q0 -86 180 -86h369zM590 893q-125 0 -210 -80t-85 -199q0 -121 85 -200.5t210 -79.5t210 80t85 200q0 119 -85 199t-210 80zM571 -279q369 0 369 150q0 88 -127 88h-395q-172 0 -172 -98q-1 -140 325 -140z" />
    <glyph glyph-name="gbreve.aalt" horiz-adv-x="1181" 
d="M612.5 1159q-118.5 0 -194.5 68.5t-86 173.5q-4 31 28 31h46q27 0 32 -29q12 -61 58.5 -99t116 -38t115.5 37.5t58 99.5q6 29 33 29h45q33 0 29 -31q-10 -104 -86 -173t-194.5 -69zM811 94q279 0 279 -223q0 -274 -519 -274q-469 0 -469 241q0 59 34 103.5t83 64.5
q-88 55 -88 152q0 125 133 168q-117 117 -117 288q0 176 124 294t319 118q127 0 231 -55l189 33q12 2 21 -7.5t9 -23.5v-70q0 -31 -30 -31h-68q90 -109 90 -258q0 -178 -124 -295.5t-318 -117.5q-131 0 -236 57q-41 -2 -66.5 -23.5t-25.5 -54.5q0 -86 180 -86h369zM590 893
q-125 0 -210 -80t-85 -199q0 -121 85 -200.5t210 -79.5t210 80t85 200q0 119 -85 199t-210 80zM571 -279q369 0 369 150q0 88 -127 88h-395q-172 0 -172 -98q-1 -140 325 -140z" />
    <glyph glyph-name="gcommaaccent.aalt" horiz-adv-x="1222" 
d="M608 1137q-45 0 -76.5 33.5t-31.5 99.5q0 72 41 173t108 185l49 -35q-76 -115 -86 -256q45 -4 72 -31.5t27 -68.5q0 -43 -30 -71.5t-73 -28.5zM811 94q279 0 279 -223q0 -274 -519 -274q-469 0 -469 241q0 59 34 103.5t83 64.5q-88 55 -88 152q0 125 133 168
q-117 117 -117 288q0 176 124 294t319 118q127 0 231 -55l189 33q12 2 21 -7.5t9 -23.5v-70q0 -31 -30 -31h-68q90 -109 90 -258q0 -178 -124 -295.5t-318 -117.5q-131 0 -236 57q-41 -2 -66.5 -23.5t-25.5 -54.5q0 -86 180 -86h369zM590 893q-125 0 -210 -80t-85 -199
q0 -121 85 -200.5t210 -79.5t210 80t85 200q0 119 -85 199t-210 80zM571 -279q369 0 369 150q0 88 -127 88h-395q-172 0 -172 -98q-1 -140 325 -140z" />
    <glyph glyph-name="gdotaccent.aalt" horiz-adv-x="1181" 
d="M612 1266q-37 0 -63.5 26.5t-26.5 63.5q0 35 26.5 61.5t63.5 26.5t63.5 -26.5t26.5 -61.5q0 -37 -26.5 -63.5t-63.5 -26.5zM811 94q279 0 279 -223q0 -274 -519 -274q-469 0 -469 241q0 59 34 103.5t83 64.5q-88 55 -88 152q0 125 133 168q-117 117 -117 288
q0 176 124 294t319 118q127 0 231 -55l189 33q12 2 21 -7.5t9 -23.5v-70q0 -31 -30 -31h-68q90 -109 90 -258q0 -178 -124 -295.5t-318 -117.5q-131 0 -236 57q-41 -2 -66.5 -23.5t-25.5 -54.5q0 -86 180 -86h369zM590 893q-125 0 -210 -80t-85 -199q0 -121 85 -200.5
t210 -79.5t210 80t85 200q0 119 -85 199t-210 80zM571 -279q369 0 369 150q0 88 -127 88h-395q-172 0 -172 -98q-1 -140 325 -140z" />
    <glyph glyph-name="t.aalt" horiz-adv-x="700" 
d="M578 872h-168v-657q0 -88 79 -88q53 0 78 4q37 6 37 -29v-61q0 -53 -145 -53q-203 0 -203 217v667h-143q-31 0 -31 31v70q0 31 31 31h143v235q0 31 31 31h92q31 0 31 -31v-235h168q31 0 30 -31v-70q1 -31 -30 -31z" />
    <glyph glyph-name="zero.tnum" horiz-adv-x="1495" 
d="M758 1450q246 0 391 -195.5t145 -543.5q0 -346 -145 -542t-391 -196t-391.5 196t-145.5 542q0 348 145.5 543.5t391.5 195.5zM758 1311q-180 0 -284.5 -160t-104.5 -440.5t104.5 -439t284.5 -158.5t284.5 158.5t104.5 439t-104.5 440.5t-284.5 160z" />
    <glyph glyph-name="one.tnum" horiz-adv-x="1495" 
d="M979 1434q31 0 31 -31v-1372q0 -31 -31 -31h-92q-31 0 -31 31v1269h-219q-27 0 -27 31v72q0 31 27 31h342z" />
    <glyph glyph-name="two.tnum" horiz-adv-x="1495" 
d="M1139 133q31 0 30 -31v-71q0 -31 -30 -31h-805q-31 0 -31 31v102l338 356q231 244 279 308q92 121 92 231q0 127 -78 204t-213 77q-76 0 -144.5 -31t-93 -52.5t-71.5 -68.5q-23 -23 -45 0l-54 51q-20 20 -2 43q168 199 410 199q199 0 318.5 -120t119.5 -302
q0 -94 -48 -189.5t-111.5 -170t-208.5 -226.5l-295 -309h643z" />
    <glyph glyph-name="three.tnum" horiz-adv-x="1495" 
d="M909 768q129 -47 206 -143.5t77 -229.5q0 -184 -137 -303t-346 -119q-252 0 -410 183q-18 23 2 43l51 47q23 23 45 0q133 -133 314 -133q150 0 241.5 78.5t91.5 207.5q0 137 -104 216t-268 83q-31 0 -31 31v66q0 33 31 32q150 4 233.5 76t83.5 178q0 104 -76.5 168
t-191.5 64q-156 0 -283 -137q-23 -23 -45 0l-49 47q-20 20 -2 43q160 184 381 184q168 0 287.5 -104.5t119.5 -262.5q0 -104 -58.5 -186t-162.5 -129z" />
    <glyph glyph-name="four.tnum" horiz-adv-x="1495" 
d="M1192 479q31 0 31 -30v-72q0 -31 -31 -31h-143v-315q0 -31 -31 -31h-92q-31 0 -31 31v315h-594q-31 0 -31 31v82q0 25 11 39l602 915q14 20 37 21h98q31 0 31 -31v-924h143zM895 479v707l-463 -707h463z" />
    <glyph glyph-name="five.tnum" horiz-adv-x="1495" 
d="M719 936q188 0 326.5 -134t138.5 -339q0 -219 -141.5 -353.5t-346.5 -134.5q-131 0 -236.5 55.5t-158.5 131.5q-18 27 6 43l60 49q27 18 45 -6q115 -133 286 -133q133 0 235.5 97t102.5 251q0 145 -103.5 240.5t-227.5 95.5q-168 0 -275 -127q-16 -23 -41 -10l-70 30
q-27 12 -20 39l176 676q6 27 33 27h561q31 0 31 -31v-70q0 -31 -31 -30h-483l-113 -441q94 74 246 74z" />
    <glyph glyph-name="six.tnum" horiz-adv-x="1495" 
d="M748 905q195 0 327.5 -134t132.5 -328.5t-133 -332t-327.5 -137.5t-327.5 137.5t-133 331.5q0 166 127 340l497 676q20 27 43 6l60 -51q23 -20 6 -43l-350 -471q37 6 78 6zM747.5 113q135.5 0 224.5 93t89 236q0 141 -89 233.5t-224.5 92.5t-224.5 -92t-89 -234
q0 -143 89 -236t224.5 -93z" />
    <glyph glyph-name="seven.tnum" horiz-adv-x="1495" 
d="M1174 1434q14 0 22 -9.5t2 -21.5l-561 -1372q-14 -31 -37 -31h-92q-14 0 -22.5 9t-2.5 22l525 1269h-660q-31 0 -31 31v72q0 31 31 31h826z" />
    <glyph glyph-name="eight.tnum" horiz-adv-x="1495" 
d="M741.5 -27q-194.5 0 -326.5 119t-132 305q0 139 80.5 245t199.5 151q-94 47 -146 130t-52 177q0 141 105 245.5t271 104.5t271.5 -104.5t105.5 -245.5q0 -94 -52 -177t-146 -130q119 -45 199.5 -150.5t80.5 -245.5q0 -186 -132 -305t-326.5 -119zM741.5 864
q100.5 0 172 70t69.5 170q-2 92 -67.5 156.5t-174 64.5t-174 -64.5t-67.5 -156.5q-2 -100 69.5 -170t172 -70zM741.5 113q137.5 0 224.5 79.5t87 206.5q0 135 -90.5 220.5t-221.5 85.5t-221 -85t-90 -221q0 -125 87 -205.5t224.5 -80.5z" />
    <glyph glyph-name="nine.tnum" horiz-adv-x="1495" 
d="M747.5 1450q194.5 0 327.5 -137t133 -332q0 -166 -127 -340l-497 -676q-20 -27 -43 -6l-60 51q-23 20 -6 43l350 471q-37 -6 -77 -6q-195 0 -328 134t-133 329t133 332t327.5 137zM747.5 655q135.5 0 224.5 92.5t89 233.5q0 143 -89 236.5t-224.5 93.5t-224.5 -93.5
t-89 -236.5q0 -141 89 -233.5t224.5 -92.5z" />
    <glyph glyph-name="zero.dnom" horiz-adv-x="593" 
d="M297 539q96 0 155.5 -72t59.5 -186v-27q0 -115 -59.5 -186.5t-155.5 -71.5q-92 0 -153.5 71.5t-61.5 186.5v27q0 115 61.5 186.5t153.5 71.5zM297 475q-59 0 -99 -52t-40 -142v-27q0 -90 40 -142.5t99 -52.5q63 0 101 51.5t38 143.5v27q0 92 -38 143t-101 51z" />
    <glyph glyph-name="one.dnom" horiz-adv-x="294" 
d="M213 535v-535h-76v461h-55v74h131z" />
    <glyph glyph-name="two.dnom" horiz-adv-x="514" 
d="M254 541q70 0 121 -46t51 -108q0 -53 -29.5 -96t-109.5 -125l-97 -100h242v-66h-344v66l139 141q57 59 74.5 78.5t32 46t14.5 55.5q0 37 -28.5 63.5t-65.5 26.5q-39 0 -67.5 -26.5t-28.5 -75.5v-29h-76v29q0 72 50 119t122 47z" />
    <glyph glyph-name="three.dnom" horiz-adv-x="538" 
d="M268 539q66 0 115 -42t49 -98q0 -66 -61 -108q86 -37 86 -135q0 -70 -56.5 -117t-132.5 -47q-82 0 -136 55t-50 131h78q0 -49 29.5 -85t78.5 -36q45 0 78 28t33 71q0 98 -152 98v59q129 0 129 86q0 33 -25.5 54.5t-62.5 21.5q-45 0 -70.5 -29.5t-25.5 -83.5h-76
q-2 78 47 127.5t125 49.5z" />
    <glyph glyph-name="four.dnom" horiz-adv-x="565" 
d="M428 535v-316h55v-63h-55v-156h-76v156h-270l270 379h76zM352 424l-143 -205h143v205z" />
    <glyph glyph-name="five.dnom" horiz-adv-x="542" 
d="M412 535v-66h-213l-17 -119q45 20 92 21q72 0 129.5 -54.5t57.5 -134.5t-57.5 -135t-137.5 -55q-68 0 -120 38t-64 89l68 39q4 -41 35.5 -71t80.5 -30q47 0 82 36t35 89q0 51 -34 87t-75 36q-72 0 -116 -59l-66 16l37 273h283z" />
    <glyph glyph-name="six.dnom" horiz-adv-x="518" 
d="M387 535l-139 -197h12q70 0 123 -51t53 -121q0 -72 -53 -123t-123 -51t-124 51t-54 123q0 33 11 64.5t20.5 47t37 51.5t33.5 44l117 162h86zM260 272q-45 0 -73.5 -28.5t-28.5 -77.5q0 -47 31.5 -78t70.5 -31q37 0 68.5 31t31.5 78t-30.5 76.5t-69.5 29.5z" />
    <glyph glyph-name="seven.dnom" horiz-adv-x="518" 
d="M436 535l-209 -535h-80l183 469h-248v66h354z" />
    <glyph glyph-name="eight.dnom" horiz-adv-x="538" 
d="M268 539q74 0 118 -41t44 -97q0 -70 -61 -108q88 -43 88 -135q0 -70 -55.5 -116t-133.5 -46q-76 0 -131 46t-55 116q0 92 88 135q-61 39 -61 108q0 53 43.5 95.5t115.5 42.5zM268 475q-41 0 -62.5 -21.5t-21.5 -52t26 -55t58 -24.5q35 0 59.5 23.5t24.5 55.5q0 74 -84 74
zM268 258q-45 0 -77.5 -28.5t-32.5 -71.5q0 -41 32.5 -70t77.5 -29q49 0 80 27t31 72t-31 72.5t-80 27.5z" />
    <glyph glyph-name="nine.dnom" horiz-adv-x="520" 
d="M260 541q70 0 124 -50.5t54 -121.5q0 -27 -5 -49.5t-18.5 -46t-21.5 -37t-29.5 -40t-29.5 -36.5l-115 -160h-88l139 195h-10q-72 0 -125 52t-53 122q0 72 54 122t124 50zM260 475q-39 0 -70.5 -30.5t-31.5 -75.5q0 -47 31.5 -78t70.5 -31q45 0 72.5 29.5t27.5 79.5
q0 45 -31.5 75.5t-68.5 30.5z" />
    <glyph glyph-name="zero.numr" horiz-adv-x="593" 
d="M297 1440q96 0 155.5 -72t59.5 -186v-27q0 -115 -59.5 -186.5t-155.5 -71.5q-92 0 -153.5 71.5t-61.5 186.5v27q0 115 61.5 186.5t153.5 71.5zM297 1376q-59 0 -99 -52t-40 -142v-27q0 -90 40 -142t99 -52q63 0 101 51t38 143v27q0 92 -38 143t-101 51z" />
    <glyph glyph-name="one.numr" horiz-adv-x="294" 
d="M213 1436v-535h-76v461h-55v74h131z" />
    <glyph glyph-name="two.numr" horiz-adv-x="514" 
d="M254 1442q70 0 121 -46t51 -108q0 -53 -29.5 -96t-109.5 -125l-97 -100h242v-66h-344v66l139 141q57 59 74.5 78.5t32 46.5t14.5 55q0 37 -28.5 63.5t-65.5 26.5q-39 0 -67.5 -26.5t-28.5 -75.5v-29h-76v29q0 72 50 119t122 47z" />
    <glyph glyph-name="three.numr" horiz-adv-x="538" 
d="M268 1440q66 0 115 -42t49 -98q0 -66 -61 -108q86 -37 86 -135q0 -70 -56.5 -117t-132.5 -47q-82 0 -136 55.5t-50 130.5h78q0 -49 29.5 -85t78.5 -36q45 0 78 28t33 71q0 98 -152 98v59q129 0 129 86q0 33 -25.5 54.5t-62.5 21.5q-45 0 -70.5 -29.5t-25.5 -82.5h-76
q-2 78 47 127t125 49z" />
    <glyph glyph-name="four.numr" horiz-adv-x="565" 
d="M428 1436v-316h55v-63h-55v-156h-76v156h-270l270 379h76zM352 1325l-143 -205h143v205z" />
    <glyph glyph-name="five.numr" horiz-adv-x="542" 
d="M412 1436v-66h-213l-17 -119q45 20 92 21q72 0 129.5 -54.5t57.5 -134t-57.5 -135t-137.5 -55.5q-68 0 -120 38t-64 89l68 39q4 -41 35.5 -71t80.5 -30q47 0 82 36t35 89q0 51 -34 87t-75 36q-72 0 -116 -59l-66 16l37 273h283z" />
    <glyph glyph-name="six.numr" horiz-adv-x="518" 
d="M387 1436l-139 -197h12q70 0 123 -51t53 -121q0 -72 -53 -123t-123 -51t-124 51t-54 123q0 33 11 64.5t20.5 47t37 51.5t33.5 44l117 162h86zM260 1174q-45 0 -73.5 -29t-28.5 -78q0 -47 31.5 -78t70.5 -31q37 0 68.5 31t31.5 78t-30.5 77t-69.5 30z" />
    <glyph glyph-name="seven.numr" horiz-adv-x="518" 
d="M436 1436l-209 -535h-80l183 469h-248v66h354z" />
    <glyph glyph-name="eight.numr" horiz-adv-x="538" 
d="M268 1440q74 0 118 -41t44 -96q0 -70 -61 -109q88 -43 88 -135q0 -70 -55.5 -116t-133.5 -46q-76 0 -131 46t-55 116q0 92 88 135q-61 39 -61 109q0 53 43.5 95t115.5 42zM268 1376q-41 0 -62.5 -21.5t-21.5 -52t26 -55t58 -24.5q35 0 59.5 23.5t24.5 56.5q0 73 -84 73z
M268 1159q-45 0 -77.5 -28.5t-32.5 -71.5q0 -41 32.5 -69.5t77.5 -28.5q49 0 80 26.5t31 71.5t-31 72.5t-80 27.5z" />
    <glyph glyph-name="nine.numr" horiz-adv-x="520" 
d="M260 1442q70 0 124 -50.5t54 -121.5q0 -27 -5 -49.5t-18.5 -46t-21.5 -37t-29.5 -40t-29.5 -36.5l-115 -160h-88l139 195h-10q-72 0 -125 52t-53 122q0 72 54 122t124 50zM260 1376q-39 0 -70.5 -30.5t-31.5 -75.5q0 -47 31.5 -78t70.5 -31q45 0 72.5 30t27.5 79
q0 45 -31.5 75.5t-68.5 30.5z" />
    <glyph glyph-name="glyph501" horiz-adv-x="1351" 
d="M657 1542q-41 0 -24 35l123 258q10 25 35 25h67q41 0 25 -35l-123 -258q-10 -25 -35 -25h-68zM1268 35q14 -35 -25 -35h-98q-27 0 -35 25l-113 317h-643l-112 -317q-8 -25 -35 -25h-98q-39 0 -25 35l504 1374q10 25 37 25h102q27 0 37 -25zM401 473h549l-274 766z" />
    <glyph glyph-name="glyph502" horiz-adv-x="1054" 
d="M711 1860q41 0 24 -35l-123 -258q-10 -25 -34 -25h-68q-41 0 -25 35l123 258q10 25 35 25h68zM891 147q31 0 31 -30v-86q0 -31 -31 -31h-707q-31 0 -30 31v1372q0 31 30 31h705q31 0 31 -31v-86q0 -31 -31 -31h-576v-452h541q31 0 31 -31v-86q0 -31 -31 -31h-541v-539
h578z" />
    <glyph glyph-name="glyph503" horiz-adv-x="1363" 
d="M664 1542q-41 0 -25 35l123 258q10 25 35 25h67q41 0 25 -35l-123 -258q-10 -25 -35 -25h-67zM1186 1434q25 -4 24 -31v-1372q0 -31 -30 -31h-99q-31 0 -30 31v1173l-699 -1184q-12 -20 -37 -20h-137q-25 4 -24 31v1372q0 31 30 31h99q31 0 30 -31v-1174l699 1184
q12 20 37 21h137z" />
    <glyph glyph-name="glyph504" horiz-adv-x="1689" 
d="M1018 1860q41 0 24 -35l-122 -258q-10 -25 -35 -25h-68q-41 0 -24 35l122 258q10 25 35 25h68zM846 -27q-305 0 -519 215t-214 523q0 309 214 524t519 215q303 0 517 -216t214 -523.5t-214 -522.5t-517 -215zM845.5 129q241.5 0 406.5 168t165 414q0 248 -165 415.5
t-406 167.5q-244 0 -409 -168t-165 -415q0 -246 166 -414t407.5 -168z" />
    <glyph glyph-name="glyph505" horiz-adv-x="1333" 
d="M639 1542q-41 0 -25 35l123 258q10 25 35 25h68q41 0 24 -35l-123 -258q-10 -25 -34 -25h-68zM1204 1434q18 0 24.5 -10.5t-3.5 -26.5l-832 -1377q-12 -20 -37 -20h-104q-41 0 -21 37l349 577l-471 783q-10 16 -4 26.5t24 10.5h104q25 0 37 -21l396 -657l397 657
q12 20 37 21h104z" />
    <glyph glyph-name="glyph506" horiz-adv-x="1630" 
d="M977 1860q41 0 24 -35l-122 -258q-10 -25 -35 -25h-68q-41 0 -24 35l122 258q10 25 35 25h68zM569 0h-385q-31 0 -30 31v1372q0 31 30 31h99q31 0 30 -31v-514h256q227 0 353.5 -124t126.5 -320.5t-126.5 -320.5t-353.5 -124zM1317 1403q0 31 31 31h98q31 0 31 -31v-1372
q0 -31 -31 -31h-98q-31 0 -31 31v1372zM561 741h-248v-594h248q150 0 241 72t91 225.5t-91 225t-241 71.5z" />
    <glyph glyph-name="glyph507" horiz-adv-x="1431" 
d="M698 1542q-41 0 -24 35l123 258q10 25 34 25h68q41 0 25 -35l-123 -258q-10 -25 -35 -25h-68zM608 1450q303 0 512 -215t209 -524q0 -307 -209 -522.5t-512 -215.5q-256 0 -483 195q-25 20 -2 43l63 63q20 20 43 0q172 -145 379 -145q215 0 374 146.5t181 367.5h-547
q-31 0 -30 31v86q0 31 30 31h547q-27 219 -184.5 361t-370.5 142q-207 0 -379 -145q-23 -20 -43 0l-63 63q-23 23 2 43q227 195 483 195z" />
    <glyph glyph-name="glyph508" horiz-adv-x="2070" 
d="M997 1542q-41 0 -24 35l123 258q10 25 34 25h68q41 0 25 -35l-123 -258q-10 -25 -35 -25h-68zM1227 1450q303 0 517 -216t214 -523.5t-214 -522.5t-517 -215q-287 0 -496 192.5t-235 477.5h-183v-612q0 -31 -30 -31h-99q-31 0 -30 31v1372q0 31 30 31h99q31 0 30 -31
v-612h185q29 281 237.5 470t491.5 189zM1226.5 129q241.5 0 406.5 168t165 414q0 248 -165 415.5t-406 167.5q-244 0 -409 -168t-165 -415q0 -246 166 -414t407.5 -168z" />
    <glyph glyph-name="glyph509" horiz-adv-x="1173" 
d="M584 1542q-41 0 -25 35l123 258q10 25 35 25h67q41 0 25 -35l-123 -258q-10 -25 -35 -25h-67zM989 1434q31 0 31 -31v-1372q0 -31 -31 -31h-98q-31 0 -31 31v514h-227l-348 -525q-12 -20 -37 -20h-109q-43 0 -20 37l352 520q-166 35 -256 151.5t-90 280.5q0 197 126 321
t353 124h385zM860 692v594h-248q-150 0 -240.5 -71.5t-90.5 -225t91 -225.5t240 -72h248z" />
    <glyph glyph-name="glyph510" 
d="M584 1112q-41 0 -25 35l123 258q10 25 35 25h67q41 0 25 -35l-123 -258q-10 -25 -35 -25h-67zM1073 1004q31 0 31 -31v-942q0 -31 -31 -31h-84q-27 0 -31 31l-10 129q-129 -174 -354 -174q-213 0 -352.5 149.5t-139.5 364.5q0 221 139.5 372.5t352.5 151.5
q227 0 356 -184l8 133q4 31 31 31h84zM606 125q152 0 253.5 108.5t101.5 268.5t-101.5 271.5t-253.5 111.5q-154 0 -255 -109.5t-101 -273.5q0 -160 101 -268.5t255 -108.5z" />
    <glyph glyph-name="glyph511" horiz-adv-x="1167" 
d="M582 1174q-41 0 -25 34l123 258q10 25 35 25h67q41 0 25 -35l-123 -258q-10 -25 -35 -24h-67zM594 1024q209 0 340 -142.5t131 -336.5q0 -57 -11.5 -80t-47.5 -23h-752q18 -141 118.5 -230t254.5 -89q160 0 274 96q25 20 43 4l39 -37q25 -25 2 -47q-147 -154 -375 -153
q-221 0 -364.5 150.5t-143.5 369.5t139.5 368.5t352.5 149.5zM594 887q-139 0 -232.5 -91t-109.5 -235h678q-8 139 -101.5 232.5t-234.5 93.5z" />
    <glyph glyph-name="glyph512" horiz-adv-x="1187" 
d="M571 1112q-41 0 -24 35l123 258q10 25 35 25h67q41 0 25 -35l-123 -258q-10 -25 -35 -25h-68zM1024 1004q31 0 31 -31v-942q0 -31 -31 -31h-92q-31 0 -31 31v792l-549 -803q-14 -20 -39 -20h-149q-31 0 -31 31v942q0 31 31 31h92q31 0 31 -31v-809l559 819q14 20 39 21
h139z" />
    <glyph glyph-name="glyph513" horiz-adv-x="1220" 
d="M782 1430q41 0 25 -35l-123 -258q-10 -25 -35 -25h-67q-41 0 -25 35l123 258q10 25 35 25h67zM610 -20q-215 0 -361.5 151.5t-146.5 370.5q0 221 146.5 372.5t361.5 151.5t361.5 -151.5t146.5 -372.5q0 -219 -146.5 -370.5t-361.5 -151.5zM610.5 119q153.5 0 257 108.5
t103.5 274.5t-103.5 275.5t-257 109.5t-257 -109.5t-103.5 -275.5t103.5 -274.5t257 -108.5z" />
    <glyph glyph-name="glyph514" horiz-adv-x="1099" 
d="M721 1430q41 0 24 -35l-122 -258q-10 -25 -35 -25h-68q-41 0 -24 35l122 258q10 25 35 25h68zM989 1004q37 0 25 -35l-529 -1334q-10 -25 -36 -24h-95q-37 0 -24 35l141 350l-385 973q-12 35 25 35h94q29 0 37 -25l307 -805l307 805q10 25 37 25h96z" />
    <glyph glyph-name="glyph515" horiz-adv-x="1517" 
d="M725 1112q-41 0 -25 35l123 258q10 25 35 25h68q41 0 24 -35l-123 -258q-10 -25 -34 -25h-68zM621 668q207 0 315 -89.5t108 -245t-108.5 -244.5t-314.5 -89h-457q-31 0 -31 31v942q0 31 31 31h92q31 0 31 -31v-305h334zM1354 1004q31 0 30 -31v-942q0 -31 -30 -31h-92
q-31 0 -31 31v942q0 31 31 31h92zM625 133q272 0 272 201t-272 201h-338v-402h338z" />
    <glyph glyph-name="glyph516" horiz-adv-x="1095" 
d="M530 1112q-41 0 -24 35l123 258q10 25 35 25h67q41 0 25 -35l-123 -258q-10 -25 -35 -25h-68zM500 1024q215 0 359.5 -151.5t144.5 -372.5q0 -215 -144.5 -364.5t-359.5 -149.5q-233 0 -389 178q-18 23 2 43l51 47q23 23 45 0q39 -39 66.5 -60.5t88 -45t136.5 -23.5
q139 0 235 88t117 225h-383q-31 0 -31 31v61q0 31 31 31h383q-18 143 -115.5 233.5t-236.5 90.5q-29 0 -55.5 -4t-46 -8.5t-43 -15.5t-35 -16t-32 -21.5t-25.5 -20.5t-25.5 -22.5t-22.5 -20.5q-25 -20 -45 0l-51 47q-20 20 -2 43q156 178 383 178z" />
    <glyph glyph-name="glyph517" horiz-adv-x="1566" 
d="M750 1112q-41 0 -25 35l123 258q10 25 35 25h67q41 0 25 -35l-123 -258q-10 -25 -35 -25h-67zM956 1026q215 0 361.5 -151.5t146.5 -372.5q0 -219 -146.5 -370.5t-361.5 -151.5q-197 0 -339 130t-164 326h-166v-407q0 -31 -31 -31h-92q-31 0 -31 31v942q0 31 31 30h92
q31 0 31 -30v-406h166q23 199 163.5 330t339.5 131zM956.5 119q153.5 0 257 108.5t103.5 274.5t-103.5 275.5t-257 109.5t-257 -109.5t-103.5 -275.5t103.5 -274.5t257 -108.5z" />
    <glyph glyph-name="glyph518" horiz-adv-x="1122" 
d="M532 1112q-41 0 -24 35l123 258q10 25 35 25h67q41 0 25 -35l-123 -258q-10 -25 -35 -25h-68zM958 1004q31 0 31 -31v-942q0 -31 -31 -31h-92q-31 0 -30 31v305h-271l-286 -320q-14 -16 -37 -16h-105q-20 0 -25.5 11.5t9.5 25.5l280 309q-147 25 -223 110t-76 214
q0 156 108.5 245t315.5 89h432zM522 469h314v401h-314q-272 0 -272 -200.5t272 -200.5z" />
  </font>
</defs>
</svg>
