<?xml version="1.0" encoding="utf-8"?>
<!-- Generator: Adobe Illustrator 25.2.1, SVG Export Plug-In . SVG Version: 6.00 Build 0)  -->
<svg version="1.1" id="Capa_1" xmlns="http://www.w3.org/2000/svg" xmlns:xlink="http://www.w3.org/1999/xlink" x="0px" y="0px"
	 viewBox="0 0 390 127" style="enable-background:new 0 0 390 127;" xml:space="preserve">
<style type="text/css">
	.st0{fill:#FFFFFF;}
</style>
<g>
	<g>
		<g>
			<path class="st0" d="M301.97,57.22c0-0.03,0-0.05,0-0.08c0.13-4.28,3.79-7.61,8.06-7.6c2.53,0.01,5.07-0.03,7.57-0.3
				c5.53-0.59,9.96-3.2,12.47-8.38c3.47-7.2-0.41-14.57-8.26-15.93c-5.89-1.02-11.18,0.58-15.81,4.07
				c-9.53,7.18-14.76,16.84-15.5,28.76c-0.5,8.02,4.81,14.18,12.42,16.49c9.42,2.86,18.23,1.92,26.12-3.35
				c0.35-0.23-0.56-0.44-0.56-0.86v-7.5c0-1.08-1.55-0.75-2.46-0.18C309.23,73.01,301.84,62.72,301.97,57.22z M318.53,34.29
				c2.44-0.02,3.68,2.4,2.41,4.5c-1.2,1.98-9.05,3.65-11.39,3.55c-0.32-0.01-0.52-0.35-0.41-0.65
				C309.83,39.91,312.83,34.34,318.53,34.29z"/>
			<path class="st0" d="M293.21,47.07c-2.1,9.29-7.99,14.8-9.66,14.61c0.07-7.28-2.37-13.07-4.34-19.63
				c-0.52-1.72-1.04-3.44-1.35-5.2c-0.12-0.7,0.13-1.74,0.57-2.3c2.54-3.3,2.44-7.75-0.36-10.25c-2.96-2.65-7.83-2.52-10.54,0.63
				c-1.5,1.74-2.65,3.88-3.56,6.01c-3.47,8.14-6.71,16.37-10.2,24.5c-1.06,2.47-2.45,4.89-4.09,7.01c-1.06,1.36-2.69,2.51-4.32,3.17
				c-2.6,1.06-5.56-0.81-5.59-3.62c-0.01-1.24,0.37-2.53,0.85-3.7c3.31-8.21,6.68-16.38,9.96-24.6c0.52-1.3,0.91-2.74,0.92-4.12
				c0.01-4.54-4.38-7.12-8.37-4.95c-1.17,0.64-2.15,1.63-3.34,2.57c-3.05-3.6-15.04-4.75-23.08,4.04
				c-5.41,5.92-9.46,12.57-12.13,20.03c-0.87,2.44-1.79,4.9-3.04,7.16c-0.61,1.09-7.42,8.65-21.15,8.15
				c-5.74-0.21-8.65-4.5-8.51-10.22c0-0.03,0-0.05,0-0.08c0.13-4.44,3.94-7.91,8.38-7.9c2.63,0.01,5.27-0.03,7.87-0.31
				c5.75-0.62,10.36-3.32,12.96-8.71c3.61-7.48-0.42-15.15-8.59-16.56c-6.12-1.06-11.62,0.6-16.43,4.23
				c-9.91,7.46-15.34,17.51-16.11,29.89c-0.52,8.33,3.88,14.78,11.74,17.35c17.19,5.61,31.52-6.57,31.81-6.83
				c1.82,5.43,5.45,8.16,10.86,8.4c5.13,0.24,9.28-2.06,12.92-5.44c5.76,7.45,19.28,7.28,26.93-0.44
				c5.62,5.25,12.28,7.12,19.85,5.95c7.13-1.1,13.84-5.51,18.66-10.85l4.2-25.6C295.5,41.86,293.85,44.28,293.21,47.07z
				 M179.31,40.2c0.71-1.86,3.84-7.65,9.76-7.7c2.54-0.02,3.83,2.5,2.5,4.68c-1.25,2.06-9.41,3.79-11.84,3.69
				C179.4,40.86,179.19,40.52,179.31,40.2z M235.25,38.12c-1.1,2.72-10.94,23.97-14.26,26.01c-3.72,2.29-6.46,0.22-6.58-3.15
				c-0.29-7.73,4.52-18.15,11.45-23.76C232.72,32.64,236.21,35.72,235.25,38.12z M269.5,64.66c-2.56,1.79-5.11,0.64-7.47-0.75
				c-2.59-1.53-2.51-1.54-1.27-4.42c2.38-5.56,4.69-11.15,7.12-16.97c1.23,5.21,2.47,10.1,3.53,15.04
				C271.97,60.18,271.97,62.93,269.5,64.66z"/>
			<path class="st0" d="M379.92,49.45c-1.42,3.17-2.73,6.39-4.31,9.47c-1.26,2.46-3.1,4.55-5.69,5.76
				c-3.76,1.75-6.82-0.35-6.42-4.45c0.11-1.12,0.5-2.24,0.92-3.29c2.43-6.09,4.94-12.16,7.37-18.26c2.49-6.25,0.98-9.83-5.24-12.51
				c-3.57-1.54-7.13-3.11-10.74-4.55c-1.17-0.47-1.58-1.04-1.63-2.34c-0.16-4.26-2.68-7.1-6.5-7.63c-4.09-0.56-8.2,2.58-9.23,6.58
				c-0.75,2.91-0.46,5.86,1.71,7.97c2.5,2.44,2.01,4.42,0.72,6.89c-0.47,0.9-0.77,1.89-1.17,2.83c-2.53,6.05-4.75,12.26-7.69,18.11
				c-2.8,5.57-8.07,10.55-13.38,12.2l1.03,8.77c7.67-2.07,16.01-6.59,20.57-15.47c1.8-3.5,3.16-7.23,4.65-10.89
				c2.11-5.18,4.15-10.39,6.2-15.54c0.3,0,0.44-0.04,0.55,0.01c1.58,0.68,1.89,0.88,3.46,1.58c3.48,1.53,3.62,1.96,2.23,5.48
				c-2.55,6.46-5.3,12.85-7.51,19.43c-2.09,6.23,1.29,13,7.54,15.01c8.35,2.68,17.47-0.5,23.05-8.05c3.03-4.1,5.09-8.68,6.93-13.36
				L379.92,49.45z"/>
		</g>
		<path class="st0" d="M375.79,50.8l9.88-5.6c1.02-0.58,2.29,0.07,2.44,1.23l1.39,11.27c0.16,1.3-1.19,2.25-2.36,1.67l-11.27-5.67
			C374.69,53.1,374.65,51.45,375.79,50.8z"/>
	</g>
	<path class="st0" d="M167.39,16.94c2.17-3.63,5.7-5.21,9.93-5.2c0.92,0,22.41-0.1,23.32-0.19c3.07-0.3,5.49-1.66,6.79-4.57
		c1.27-2.85,0.06-5.5-2.93-6.34c-1.04-0.29-22.74-0.22-23.83-0.22c-12.41-0.02-24.83-0.07-37.24,0.02c-3.04,0.02-6.12,0.28-9.11,0.8
		c-5.84,1.03-11.11,3.37-15.14,7.92c-5.11,5.77-6.12,13.8-2.46,19.9c2.44,4.08,6.04,6.31,10.86,6.37c2.45,0.03,4.21-1.29,4.94-3.6
		c0.73-2.33,0.14-4.11-1.9-5.61c-0.49-0.36-0.99-0.73-1.52-1.03c-1.89-1.05-2.6-2.79-2.93-4.55c-0.62-3.32,2.17-8.4,7.97-8.66
		c8.39-0.38,16.02-0.38,24.41-0.38c0.04,0.24-3.63,1.57-9.86,15.8c-6.36,14.55-12.15,29.34-18.17,44.04
		c-0.36,0.89-0.57,1.88-0.63,2.84c-0.21,3.59,2.13,5.93,5.72,5.78c2.29-0.1,4.14-1.16,5.43-2.98c0.84-1.18,1.5-2.52,2.06-3.86
		c6.13-14.91,12.16-29.87,18.38-44.74C163.14,24.51,165.17,20.64,167.39,16.94z"/>
</g>
<g>
	<g>
		<path class="st0" d="M11.26,121.01l0.42,0.4c0.18,0.15,0.17,0.29-0.02,0.42c-1.48,1.26-3.04,1.88-4.69,1.88
			c-1.96,0-3.61-0.7-4.97-2.1s-2.03-3.1-2.03-5.11c0-2.01,0.68-3.72,2.03-5.12s3.01-2.1,4.97-2.1c1.63,0,3.19,0.62,4.69,1.86
			c0.18,0.15,0.18,0.29,0.02,0.42l-0.42,0.42c-0.13,0.12-0.27,0.12-0.42,0C9.66,111,8.38,110.51,7,110.51
			c-1.6,0-2.96,0.57-4.08,1.72s-1.68,2.57-1.68,4.28c0,1.69,0.56,3.11,1.68,4.26S5.4,122.5,7,122.5c1.37,0,2.65-0.5,3.84-1.48
			C10.99,120.9,11.13,120.9,11.26,121.01z"/>
		<path class="st0" d="M22.28,122.18c-0.94,0.98-2.11,1.47-3.51,1.47s-2.57-0.49-3.52-1.47c-0.95-0.98-1.42-2.19-1.42-3.63
			s0.47-2.65,1.42-3.64c0.95-0.99,2.12-1.48,3.52-1.48s2.57,0.49,3.51,1.48s1.41,2.2,1.41,3.64S23.22,121.2,22.28,122.18z
			 M18.77,122.57c1.07,0,1.96-0.38,2.69-1.15s1.09-1.73,1.09-2.87c0-1.16-0.36-2.12-1.09-2.89s-1.62-1.15-2.69-1.15
			c-1.08,0-1.98,0.38-2.7,1.15c-0.72,0.76-1.08,1.73-1.08,2.89s0.36,2.12,1.08,2.88C16.79,122.19,17.69,122.57,18.77,122.57z"/>
		<path class="st0" d="M30.91,113.45c1.4,0,2.55,0.49,3.46,1.48s1.36,2.2,1.36,3.64c0,1.39-0.46,2.57-1.37,3.55
			s-2.06,1.47-3.45,1.47c-1.52,0-2.72-0.59-3.6-1.78l-0.06,1v4.14c0,0.2-0.1,0.3-0.3,0.3h-0.6c-0.2,0-0.3-0.1-0.3-0.3v-13
			c0-0.2,0.1-0.3,0.3-0.3h0.58c0.18,0,0.28,0.1,0.3,0.3l0.06,1.36C28.15,114.07,29.36,113.45,30.91,113.45z M30.83,122.52
			c1.07,0,1.96-0.38,2.67-1.15s1.07-1.71,1.07-2.81c0-1.15-0.35-2.1-1.06-2.87s-1.6-1.15-2.68-1.15c-1.05,0-1.94,0.39-2.64,1.18
			s-1.06,1.73-1.06,2.84s0.35,2.04,1.06,2.81S29.78,122.52,30.83,122.52z"/>
		<path class="st0" d="M46.15,113.65c0.24,0,0.32,0.11,0.23,0.34l-5.16,13.03c-0.05,0.16-0.17,0.24-0.36,0.23h-0.62
			c-0.24,0-0.32-0.11-0.23-0.34l1.36-3.42l-3.76-9.5c-0.08-0.23,0-0.34,0.24-0.34h0.62c0.19,0,0.31,0.08,0.36,0.24l3.16,8.22
			l3.15-8.22c0.05-0.16,0.17-0.24,0.36-0.24H46.15z"/>
		<path class="st0" d="M53.3,113.72c0.09,0.05,0.1,0.15,0.04,0.29l-0.24,0.51c-0.06,0.12-0.18,0.16-0.34,0.12
			c-0.29-0.07-0.55-0.1-0.78-0.1c-0.61,0-1.13,0.21-1.57,0.63s-0.65,0.94-0.65,1.57v6.42c0,0.2-0.1,0.3-0.3,0.3h-0.6
			c-0.2,0-0.3-0.1-0.3-0.3v-9.2c0-0.2,0.1-0.3,0.3-0.3h0.5c0.18,0,0.28,0.1,0.3,0.3l0.08,0.82c0.62-0.89,1.43-1.34,2.4-1.34
			C52.62,113.43,53.01,113.53,53.3,113.72z"/>
		<path class="st0" d="M55.97,111.2c-0.25,0-0.46-0.08-0.61-0.24s-0.23-0.36-0.23-0.6c0-0.23,0.08-0.42,0.24-0.58
			s0.36-0.24,0.6-0.24c0.23,0,0.42,0.08,0.57,0.24s0.23,0.35,0.23,0.58c0,0.24-0.08,0.44-0.23,0.6S56.2,111.2,55.97,111.2z
			 M55.35,113.95c0-0.2,0.1-0.3,0.29-0.3h0.61c0.2,0,0.3,0.1,0.3,0.3v9.2c0,0.2-0.1,0.3-0.3,0.3h-0.61c-0.2,0-0.3-0.1-0.29-0.3
			V113.95z"/>
		<path class="st0" d="M68.47,113.65c0.2,0,0.3,0.1,0.3,0.3v9.28c0,1.39-0.49,2.43-1.48,3.13s-2.13,1.05-3.42,1.05
			c-1.45,0-2.66-0.3-3.62-0.91c-0.16-0.09-0.2-0.23-0.1-0.42l0.18-0.33c0.08-0.18,0.21-0.22,0.4-0.13c0.96,0.46,1.98,0.68,3.07,0.68
			c1.04,0,1.93-0.25,2.67-0.74s1.11-1.24,1.11-2.24v-1.74c-0.85,1.27-2.06,1.9-3.62,1.89c-1.39,0-2.54-0.49-3.45-1.46
			s-1.37-2.16-1.37-3.56s0.46-2.59,1.37-3.56s2.07-1.46,3.45-1.46c1.56,0,2.76,0.62,3.6,1.86l0.08-1.36c0.03-0.2,0.13-0.3,0.3-0.3
			H68.47z M64.03,122.39c0.92,0,1.71-0.31,2.39-0.92s1.09-1.37,1.25-2.28l0.06-0.74l-0.02-0.5c-0.12-0.96-0.52-1.77-1.21-2.43
			s-1.51-0.99-2.48-0.99c-1.07,0-1.96,0.38-2.67,1.13s-1.07,1.68-1.07,2.79c0,1.12,0.35,2.06,1.06,2.81S62.95,122.39,64.03,122.39z"
			/>
		<path class="st0" d="M76,113.43c1.07,0,1.9,0.32,2.51,0.96s0.91,1.6,0.91,2.88v5.88c0,0.2-0.1,0.3-0.29,0.3h-0.61
			c-0.2,0-0.3-0.1-0.3-0.3v-5.88c0-0.89-0.21-1.58-0.62-2.07s-1-0.73-1.76-0.73c-0.89,0-1.65,0.32-2.28,0.96s-0.94,1.13-0.94,1.48
			v6.24c0,0.2-0.1,0.3-0.3,0.3h-0.6c-0.2,0-0.3-0.1-0.3-0.3v-13.99c0-0.2,0.1-0.3,0.3-0.3h0.6c0.2,0,0.3,0.1,0.3,0.3v6.22
			C73.5,114.08,74.63,113.43,76,113.43z"/>
		<path class="st0" d="M86.25,113.65c0.2,0,0.3,0.1,0.3,0.3v0.44c0,0.2-0.1,0.3-0.3,0.3h-1.6v8.46c0,0.2-0.1,0.3-0.29,0.3h-0.61
			c-0.2,0-0.3-0.1-0.29-0.3v-8.46h-1.6c-0.2,0-0.3-0.1-0.3-0.3v-0.44c0-0.2,0.1-0.3,0.3-0.3h1.6v-2.7c0-0.2,0.1-0.3,0.29-0.3h0.61
			c0.2,0,0.3,0.1,0.29,0.3v2.7H86.25z"/>
		<path class="st0" d="M103.85,119.06c-1.11,1.11-2.46,1.67-4.03,1.67s-2.92-0.56-4.04-1.68s-1.68-2.47-1.68-4.04
			s0.56-2.92,1.68-4.04s2.47-1.68,4.04-1.68s2.92,0.56,4.03,1.67s1.67,2.46,1.67,4.05S104.96,117.95,103.85,119.06z M99.82,119.67
			c1.28,0,2.37-0.45,3.26-1.36s1.34-2.01,1.34-3.3s-0.45-2.39-1.34-3.3s-1.98-1.36-3.26-1.36c-1.3,0-2.39,0.45-3.29,1.36
			s-1.35,2-1.35,3.3s0.45,2.39,1.35,3.3S98.52,119.67,99.82,119.67z M101.9,117.31c0.15,0.15,0.15,0.29,0,0.42
			c-0.57,0.47-1.24,0.7-2.01,0.7c-0.93,0-1.72-0.33-2.37-0.99s-0.97-1.47-0.97-2.43c0-0.98,0.32-1.79,0.97-2.44s1.44-0.98,2.37-0.98
			c0.8,0,1.47,0.23,2.01,0.69c0.15,0.13,0.15,0.27,0,0.42l-0.23,0.22c-0.12,0.12-0.26,0.12-0.42,0.02c-0.43-0.27-0.88-0.4-1.34-0.4
			c-0.66,0-1.23,0.24-1.7,0.71s-0.7,1.05-0.7,1.75s0.23,1.28,0.7,1.75s1.03,0.71,1.7,0.71c0.46,0,0.9-0.13,1.34-0.4
			c0.16-0.1,0.3-0.1,0.42,0.02L101.9,117.31z"/>
		<path class="st0" d="M121.16,122.37c0.2,0,0.3,0.1,0.3,0.3v0.48c0,0.2-0.1,0.3-0.3,0.3h-7.75c-0.2,0-0.3-0.1-0.3-0.3v-0.78
			l3.56-3.76c1.48-1.56,2.39-2.59,2.73-3.08c0.53-0.75,0.8-1.48,0.8-2.2c0-0.88-0.26-1.58-0.79-2.12s-1.27-0.8-2.23-0.8
			c-0.21,0-0.42,0.02-0.62,0.05s-0.37,0.07-0.52,0.11s-0.3,0.1-0.47,0.18s-0.3,0.15-0.4,0.21s-0.22,0.14-0.36,0.25
			s-0.24,0.19-0.29,0.24s-0.14,0.13-0.26,0.25s-0.19,0.18-0.22,0.21c-0.15,0.15-0.3,0.15-0.44,0l-0.34-0.31
			c-0.13-0.13-0.14-0.27-0.02-0.42c1.11-1.26,2.42-1.88,3.93-1.88c1.28,0,2.3,0.38,3.06,1.15s1.14,1.74,1.14,2.91
			c0,0.85-0.25,1.66-0.76,2.43s-1.41,1.83-2.7,3.19l-3.26,3.4H121.16z"/>
		<path class="st0" d="M124.97,111.2c0.91-1.27,2.17-1.91,3.77-1.91c1.6,0,2.86,0.64,3.77,1.91s1.37,3.04,1.37,5.31
			c0,2.25-0.46,4.02-1.37,5.29s-2.17,1.91-3.77,1.91c-1.6,0-2.86-0.64-3.77-1.91s-1.37-3.04-1.37-5.29
			C123.6,114.24,124.05,112.48,124.97,111.2z M131.66,111.98c-0.72-1.07-1.69-1.61-2.92-1.61c-1.23,0-2.2,0.54-2.91,1.61
			s-1.07,2.58-1.07,4.53s0.36,3.45,1.08,4.52s1.69,1.6,2.91,1.6c1.22,0,2.2-0.53,2.92-1.6s1.08-2.58,1.08-4.52
			S132.38,113.06,131.66,111.98z"/>
		<path class="st0" d="M143.83,122.37c0.2,0,0.3,0.1,0.3,0.3v0.48c0,0.2-0.1,0.3-0.3,0.3h-7.75c-0.2,0-0.3-0.1-0.3-0.3v-0.78
			l3.56-3.76c1.48-1.56,2.39-2.59,2.73-3.08c0.53-0.75,0.8-1.48,0.8-2.2c0-0.88-0.26-1.58-0.79-2.12s-1.27-0.8-2.23-0.8
			c-0.21,0-0.42,0.02-0.62,0.05s-0.37,0.07-0.52,0.11s-0.3,0.1-0.47,0.18s-0.3,0.15-0.4,0.21s-0.22,0.14-0.36,0.25
			s-0.24,0.19-0.29,0.24s-0.14,0.13-0.26,0.25s-0.19,0.18-0.22,0.21c-0.15,0.15-0.3,0.15-0.44,0l-0.34-0.31
			c-0.13-0.13-0.14-0.27-0.02-0.42c1.11-1.26,2.42-1.88,3.93-1.88c1.28,0,2.3,0.38,3.06,1.15s1.14,1.74,1.14,2.91
			c0,0.85-0.25,1.66-0.76,2.43s-1.41,1.83-2.7,3.19l-3.26,3.4H143.83z"/>
		<path class="st0" d="M149.5,109.45c0.2,0,0.3,0.1,0.3,0.3v13.4c0,0.2-0.1,0.3-0.3,0.3h-0.6c-0.2,0-0.3-0.1-0.3-0.3v-12.62h-2.1
			c-0.18,0-0.26-0.1-0.26-0.3v-0.48c0-0.2,0.09-0.3,0.26-0.3H149.5z"/>
		<path class="st0" d="M165.82,109.45c0.2,0,0.3,0.1,0.3,0.3v0.59c0,0.2-0.1,0.3-0.3,0.29h-3.22v12.52c0,0.2-0.1,0.3-0.3,0.3h-0.65
			c-0.2,0-0.3-0.1-0.3-0.3v-12.52h-3.22c-0.2,0-0.3-0.1-0.29-0.29v-0.59c0-0.2,0.1-0.3,0.29-0.3H165.82z"/>
		<path class="st0" d="M173.04,113.45c1.35,0,2.45,0.46,3.3,1.38s1.28,2.01,1.28,3.26c0,0.34-0.04,0.59-0.11,0.73
			s-0.22,0.21-0.44,0.21h-7.63c0.12,0.99,0.52,1.81,1.22,2.46s1.59,0.97,2.67,0.97c1.15,0,2.08-0.33,2.81-1.01
			c0.16-0.15,0.3-0.17,0.42-0.06l0.26,0.24c0.16,0.16,0.17,0.32,0.02,0.46c-0.96,1-2.18,1.5-3.66,1.49c-1.43,0-2.6-0.49-3.53-1.47
			s-1.39-2.18-1.39-3.61s0.45-2.62,1.35-3.6S171.65,113.45,173.04,113.45z M173.02,114.56c-0.99,0-1.81,0.33-2.45,0.98
			s-1.02,1.48-1.13,2.5h7.12c-0.03-0.96-0.37-1.78-1.04-2.46S174.02,114.56,173.02,114.56z"/>
		<path class="st0" d="M189.04,113.65c0.2,0,0.3,0.1,0.3,0.3v9.2c0,0.2-0.1,0.3-0.3,0.3h-0.58c-0.18,0-0.28-0.1-0.3-0.3l-0.08-1.34
			c-0.88,1.18-2.08,1.78-3.6,1.78c-1.39,0-2.54-0.49-3.45-1.47s-1.37-2.16-1.37-3.55c0-1.44,0.45-2.65,1.36-3.64
			s2.06-1.48,3.46-1.48c1.55,0,2.76,0.62,3.62,1.86l0.06-1.36c0.03-0.2,0.13-0.3,0.3-0.3H189.04z M184.55,122.52
			c1.05,0,1.94-0.38,2.64-1.15s1.06-1.71,1.06-2.81s-0.35-2.05-1.06-2.84s-1.59-1.18-2.64-1.18c-1.08,0-1.97,0.38-2.68,1.15
			s-1.06,1.72-1.06,2.87c0,1.11,0.36,2.04,1.07,2.81S183.49,122.52,184.55,122.52z"/>
		<path class="st0" d="M193.01,116.03c0,0.37,0.14,0.69,0.41,0.96s0.62,0.47,1.03,0.61s0.86,0.31,1.35,0.5s0.93,0.39,1.35,0.59
			s0.76,0.5,1.03,0.89s0.41,0.86,0.41,1.39c0,0.77-0.33,1.41-0.99,1.92s-1.43,0.76-2.31,0.76c-0.75,0-1.44-0.16-2.06-0.47
			s-1.14-0.7-1.54-1.16c-0.12-0.15-0.13-0.28-0.04-0.38l0.36-0.4c0.1-0.15,0.24-0.14,0.42,0.04c0.83,0.87,1.77,1.3,2.84,1.3
			c0.65,0,1.17-0.14,1.56-0.43s0.58-0.68,0.58-1.17c0-0.47-0.19-0.86-0.57-1.17s-0.84-0.56-1.38-0.75s-1.08-0.38-1.63-0.59
			s-1.01-0.52-1.39-0.92s-0.57-0.91-0.57-1.51c0-0.75,0.3-1.37,0.89-1.86s1.33-0.74,2.21-0.74c0.52,0,1.06,0.13,1.63,0.39
			s1.05,0.62,1.46,1.09c0.1,0.12,0.1,0.26-0.02,0.42l-0.24,0.27c-0.12,0.16-0.26,0.16-0.44-0.02c-0.8-0.74-1.61-1.1-2.44-1.1
			c-0.48,0-0.92,0.12-1.31,0.37S193.01,115.5,193.01,116.03z"/>
		<path class="st0" d="M205.31,113.45c1.35,0,2.45,0.46,3.3,1.38s1.28,2.01,1.28,3.26c0,0.34-0.04,0.59-0.11,0.73
			s-0.22,0.21-0.44,0.21h-7.63c0.12,0.99,0.52,1.81,1.22,2.46s1.59,0.97,2.67,0.97c1.15,0,2.08-0.33,2.81-1.01
			c0.16-0.15,0.3-0.17,0.42-0.06l0.26,0.24c0.16,0.16,0.17,0.32,0.02,0.46c-0.96,1-2.18,1.5-3.66,1.49c-1.43,0-2.6-0.49-3.53-1.47
			s-1.39-2.18-1.39-3.61s0.45-2.62,1.35-3.6S203.92,113.45,205.31,113.45z M205.29,114.56c-0.99,0-1.81,0.33-2.45,0.98
			s-1.02,1.48-1.13,2.5h7.12c-0.03-0.96-0.37-1.78-1.04-2.46S206.29,114.56,205.29,114.56z"/>
		<path class="st0" d="M216.97,113.72c0.09,0.05,0.1,0.15,0.04,0.29l-0.24,0.51c-0.06,0.12-0.18,0.16-0.34,0.12
			c-0.29-0.07-0.55-0.1-0.78-0.1c-0.61,0-1.13,0.21-1.57,0.63s-0.65,0.94-0.65,1.57v6.42c0,0.2-0.1,0.3-0.3,0.3h-0.6
			c-0.2,0-0.3-0.1-0.3-0.3v-9.2c0-0.2,0.1-0.3,0.3-0.3h0.5c0.18,0,0.28,0.1,0.3,0.3l0.08,0.82c0.62-0.89,1.43-1.34,2.4-1.34
			C216.29,113.43,216.67,113.53,216.97,113.72z"/>
		<path class="st0" d="M219.21,123.72c-0.24,0-0.44-0.08-0.6-0.24s-0.24-0.36-0.24-0.6c0-0.23,0.08-0.42,0.24-0.58
			s0.36-0.24,0.6-0.24c0.23,0,0.42,0.08,0.58,0.24s0.24,0.35,0.24,0.58c0,0.24-0.08,0.44-0.24,0.6S219.44,123.72,219.21,123.72z"/>
		<path class="st0" d="M238.7,123.11c0.09,0.23,0.01,0.34-0.23,0.34h-0.64c-0.18,0-0.29-0.08-0.34-0.24l-1.2-3.29h-6.49l-1.2,3.29
			c-0.05,0.16-0.17,0.24-0.34,0.24h-0.63c-0.25,0-0.34-0.11-0.24-0.34l4.94-13.42c0.06-0.16,0.19-0.24,0.36-0.24h0.74
			c0.19,0,0.31,0.08,0.35,0.24L238.7,123.11z M230.15,118.89h5.78l-2.88-7.98L230.15,118.89z"/>
		<path class="st0" d="M240.86,109.16c0-0.2,0.1-0.3,0.3-0.3h0.6c0.2,0,0.3,0.1,0.3,0.3v13.99c0,0.2-0.1,0.3-0.3,0.3h-0.6
			c-0.2,0-0.3-0.1-0.3-0.3V109.16z"/>
		<path class="st0" d="M244.72,109.16c0-0.2,0.1-0.3,0.3-0.3h0.6c0.2,0,0.3,0.1,0.3,0.3v13.99c0,0.2-0.1,0.3-0.3,0.3h-0.6
			c-0.2,0-0.3-0.1-0.3-0.3V109.16z"/>
		<path class="st0" d="M258.92,113.72c0.09,0.05,0.1,0.15,0.04,0.29l-0.24,0.51c-0.06,0.12-0.18,0.16-0.34,0.12
			c-0.29-0.07-0.55-0.1-0.78-0.1c-0.61,0-1.13,0.21-1.57,0.63c-0.43,0.42-0.65,0.94-0.65,1.57v6.42c0,0.2-0.1,0.3-0.3,0.3h-0.6
			c-0.2,0-0.3-0.1-0.3-0.3v-9.2c0-0.2,0.1-0.3,0.3-0.3h0.5c0.18,0,0.28,0.1,0.3,0.3l0.08,0.82c0.62-0.89,1.43-1.34,2.4-1.34
			C258.24,113.43,258.63,113.53,258.92,113.72z"/>
		<path class="st0" d="M261.58,111.2c-0.25,0-0.46-0.08-0.61-0.24s-0.23-0.36-0.23-0.6c0-0.23,0.08-0.42,0.24-0.58
			s0.36-0.24,0.6-0.24c0.23,0,0.42,0.08,0.57,0.24s0.23,0.35,0.23,0.58c0,0.24-0.08,0.44-0.23,0.6S261.81,111.2,261.58,111.2z
			 M260.97,113.95c0-0.2,0.1-0.3,0.29-0.3h0.61c0.2,0,0.3,0.1,0.3,0.3v9.2c0,0.2-0.1,0.3-0.3,0.3h-0.61c-0.2,0-0.3-0.1-0.29-0.3
			V113.95z"/>
		<path class="st0" d="M274.08,113.65c0.2,0,0.3,0.1,0.3,0.3v9.28c0,1.39-0.49,2.43-1.48,3.13s-2.13,1.05-3.42,1.05
			c-1.45,0-2.66-0.3-3.62-0.91c-0.16-0.09-0.2-0.23-0.1-0.42l0.18-0.33c0.08-0.18,0.21-0.22,0.4-0.13c0.96,0.46,1.98,0.68,3.07,0.68
			c1.04,0,1.93-0.25,2.67-0.74s1.11-1.24,1.11-2.24v-1.74c-0.85,1.27-2.06,1.9-3.62,1.89c-1.39,0-2.54-0.49-3.45-1.46
			s-1.37-2.16-1.37-3.56s0.46-2.59,1.37-3.56s2.07-1.46,3.45-1.46c1.56,0,2.76,0.62,3.6,1.86l0.08-1.36c0.03-0.2,0.13-0.3,0.3-0.3
			H274.08z M269.64,122.39c0.92,0,1.71-0.31,2.39-0.92s1.09-1.37,1.25-2.28l0.06-0.74l-0.02-0.5c-0.12-0.96-0.52-1.77-1.21-2.43
			s-1.51-0.99-2.48-0.99c-1.07,0-1.96,0.38-2.67,1.13s-1.07,1.68-1.07,2.79c0,1.12,0.35,2.06,1.06,2.81S268.56,122.39,269.64,122.39
			z"/>
		<path class="st0" d="M281.61,113.43c1.07,0,1.9,0.32,2.51,0.96s0.91,1.6,0.91,2.88v5.88c0,0.2-0.1,0.3-0.29,0.3h-0.61
			c-0.2,0-0.3-0.1-0.3-0.3v-5.88c0-0.89-0.21-1.58-0.62-2.07s-1-0.73-1.76-0.73c-0.89,0-1.65,0.32-2.28,0.96s-0.94,1.13-0.94,1.48
			v6.24c0,0.2-0.1,0.3-0.3,0.3h-0.6c-0.2,0-0.3-0.1-0.3-0.3v-13.99c0-0.2,0.1-0.3,0.3-0.3h0.6c0.2,0,0.3,0.1,0.3,0.3v6.22
			C279.11,114.08,280.24,113.43,281.61,113.43z"/>
		<path class="st0" d="M291.87,113.65c0.2,0,0.3,0.1,0.3,0.3v0.44c0,0.2-0.1,0.3-0.3,0.3h-1.6v8.46c0,0.2-0.1,0.3-0.29,0.3h-0.61
			c-0.2,0-0.3-0.1-0.29-0.3v-8.46h-1.6c-0.2,0-0.3-0.1-0.3-0.3v-0.44c0-0.2,0.1-0.3,0.3-0.3h1.6v-2.7c0-0.2,0.1-0.3,0.29-0.3h0.61
			c0.2,0,0.3,0.1,0.29,0.3v2.7H291.87z"/>
		<path class="st0" d="M295.36,116.03c0,0.37,0.14,0.69,0.41,0.96s0.62,0.47,1.03,0.61s0.86,0.31,1.35,0.5s0.93,0.39,1.35,0.59
			s0.76,0.5,1.03,0.89s0.41,0.86,0.41,1.39c0,0.77-0.33,1.41-0.99,1.92s-1.43,0.76-2.31,0.76c-0.75,0-1.44-0.16-2.06-0.47
			s-1.14-0.7-1.54-1.16c-0.12-0.15-0.13-0.28-0.04-0.38l0.36-0.4c0.1-0.15,0.24-0.14,0.42,0.04c0.83,0.87,1.77,1.3,2.84,1.3
			c0.65,0,1.17-0.14,1.56-0.43s0.58-0.68,0.58-1.17c0-0.47-0.19-0.86-0.57-1.17s-0.84-0.56-1.38-0.75s-1.08-0.38-1.63-0.59
			s-1.01-0.52-1.39-0.92s-0.57-0.91-0.57-1.51c0-0.75,0.3-1.37,0.89-1.86s1.33-0.74,2.21-0.74c0.52,0,1.06,0.13,1.63,0.39
			s1.05,0.62,1.46,1.09c0.1,0.12,0.1,0.26-0.02,0.42l-0.24,0.27c-0.12,0.16-0.26,0.16-0.44-0.02c-0.8-0.74-1.61-1.1-2.44-1.1
			c-0.48,0-0.92,0.12-1.31,0.37S295.36,115.5,295.36,116.03z"/>
		<path class="st0" d="M313.52,113.72c0.09,0.05,0.1,0.15,0.04,0.29l-0.24,0.51c-0.06,0.12-0.18,0.16-0.34,0.12
			c-0.29-0.07-0.55-0.1-0.78-0.1c-0.61,0-1.13,0.21-1.57,0.63s-0.65,0.94-0.65,1.57v6.42c0,0.2-0.1,0.3-0.3,0.3h-0.6
			c-0.2,0-0.3-0.1-0.3-0.3v-9.2c0-0.2,0.1-0.3,0.3-0.3h0.5c0.18,0,0.28,0.1,0.3,0.3l0.08,0.82c0.62-0.89,1.43-1.34,2.4-1.34
			C312.84,113.43,313.23,113.53,313.52,113.72z"/>
		<path class="st0" d="M319.83,113.45c1.35,0,2.45,0.46,3.3,1.38s1.28,2.01,1.28,3.26c0,0.34-0.04,0.59-0.11,0.73
			s-0.22,0.21-0.44,0.21h-7.63c0.12,0.99,0.52,1.81,1.22,2.46s1.59,0.97,2.67,0.97c1.15,0,2.08-0.33,2.81-1.01
			c0.16-0.15,0.3-0.17,0.42-0.06l0.26,0.24c0.16,0.16,0.17,0.32,0.02,0.46c-0.96,1-2.18,1.5-3.66,1.49c-1.43,0-2.6-0.49-3.53-1.47
			s-1.39-2.18-1.39-3.61s0.45-2.62,1.35-3.6S318.44,113.45,319.83,113.45z M319.81,114.56c-0.99,0-1.81,0.33-2.45,0.98
			s-1.02,1.48-1.13,2.5h7.12c-0.03-0.96-0.37-1.78-1.04-2.46S320.81,114.56,319.81,114.56z"/>
		<path class="st0" d="M327.79,116.03c0,0.37,0.14,0.69,0.41,0.96s0.62,0.47,1.03,0.61s0.86,0.31,1.35,0.5s0.93,0.39,1.35,0.59
			s0.76,0.5,1.03,0.89s0.41,0.86,0.41,1.39c0,0.77-0.33,1.41-0.99,1.92s-1.43,0.76-2.31,0.76c-0.75,0-1.44-0.16-2.06-0.47
			s-1.14-0.7-1.54-1.16c-0.12-0.15-0.13-0.28-0.04-0.38l0.36-0.4c0.1-0.15,0.24-0.14,0.42,0.04c0.83,0.87,1.77,1.3,2.84,1.3
			c0.65,0,1.17-0.14,1.56-0.43s0.58-0.68,0.58-1.17c0-0.47-0.19-0.86-0.57-1.17s-0.84-0.56-1.38-0.75s-1.08-0.38-1.63-0.59
			s-1.01-0.52-1.39-0.92s-0.57-0.91-0.57-1.51c0-0.75,0.3-1.37,0.89-1.86s1.33-0.74,2.21-0.74c0.52,0,1.06,0.13,1.63,0.39
			s1.05,0.62,1.46,1.09c0.1,0.12,0.1,0.26-0.02,0.42l-0.24,0.27c-0.12,0.16-0.26,0.16-0.44-0.02c-0.8-0.74-1.61-1.1-2.44-1.1
			c-0.48,0-0.92,0.12-1.31,0.37S327.79,115.5,327.79,116.03z"/>
		<path class="st0" d="M340.08,113.45c1.35,0,2.45,0.46,3.3,1.38s1.28,2.01,1.28,3.26c0,0.34-0.04,0.59-0.11,0.73
			s-0.22,0.21-0.44,0.21h-7.63c0.12,0.99,0.52,1.81,1.22,2.46s1.59,0.97,2.67,0.97c1.15,0,2.08-0.33,2.81-1.01
			c0.16-0.15,0.3-0.17,0.42-0.06l0.26,0.24c0.16,0.16,0.17,0.32,0.02,0.46c-0.96,1-2.18,1.5-3.66,1.49c-1.43,0-2.6-0.49-3.53-1.47
			s-1.39-2.18-1.39-3.61s0.45-2.62,1.35-3.6S338.69,113.45,340.08,113.45z M340.06,114.56c-0.99,0-1.81,0.33-2.45,0.98
			s-1.02,1.48-1.13,2.5h7.12c-0.03-0.96-0.37-1.78-1.04-2.46S341.06,114.56,340.06,114.56z"/>
		<path class="st0" d="M351.74,113.72c0.09,0.05,0.1,0.15,0.04,0.29l-0.24,0.51c-0.06,0.12-0.18,0.16-0.34,0.12
			c-0.29-0.07-0.55-0.1-0.78-0.1c-0.61,0-1.13,0.21-1.57,0.63s-0.65,0.94-0.65,1.57v6.42c0,0.2-0.1,0.3-0.3,0.3h-0.6
			c-0.2,0-0.3-0.1-0.3-0.3v-9.2c0-0.2,0.1-0.3,0.3-0.3h0.5c0.18,0,0.28,0.1,0.3,0.3l0.08,0.82c0.62-0.89,1.43-1.34,2.4-1.34
			C351.06,113.43,351.45,113.53,351.74,113.72z"/>
		<path class="st0" d="M360.65,113.89c0.05-0.16,0.17-0.24,0.36-0.24h0.62c0.24,0,0.32,0.11,0.23,0.34l-3.64,9.22
			c-0.06,0.16-0.19,0.24-0.36,0.24h-0.73c-0.19,0-0.31-0.08-0.36-0.24l-3.66-9.22c-0.08-0.23,0-0.34,0.24-0.34h0.62
			c0.19,0,0.31,0.08,0.36,0.24l3.16,8.22L360.65,113.89z"/>
		<path class="st0" d="M368.55,113.45c1.35,0,2.45,0.46,3.3,1.38s1.28,2.01,1.28,3.26c0,0.34-0.04,0.59-0.11,0.73
			s-0.22,0.21-0.44,0.21h-7.63c0.12,0.99,0.52,1.81,1.22,2.46s1.59,0.97,2.67,0.97c1.15,0,2.08-0.33,2.81-1.01
			c0.16-0.15,0.3-0.17,0.42-0.06l0.26,0.24c0.16,0.16,0.17,0.32,0.02,0.46c-0.96,1-2.18,1.5-3.66,1.49c-1.43,0-2.6-0.49-3.53-1.47
			s-1.39-2.18-1.39-3.61s0.45-2.62,1.35-3.6S367.16,113.45,368.55,113.45z M368.53,114.56c-0.99,0-1.81,0.33-2.45,0.98
			s-1.02,1.48-1.13,2.5h7.12c-0.03-0.96-0.37-1.78-1.04-2.46S369.53,114.56,368.53,114.56z"/>
		<path class="st0" d="M384.54,108.85c0.2,0,0.3,0.1,0.3,0.3v13.99c0,0.2-0.1,0.3-0.3,0.3h-0.58c-0.18,0-0.28-0.1-0.3-0.3
			l-0.08-1.34c-0.88,1.18-2.08,1.78-3.6,1.78c-1.39,0-2.54-0.49-3.45-1.47s-1.37-2.16-1.37-3.55c0-1.44,0.45-2.65,1.36-3.64
			s2.06-1.48,3.46-1.48c1.55,0,2.76,0.62,3.62,1.86l0.04-0.88v-5.27c0-0.2,0.1-0.3,0.3-0.3H384.54z M380.06,122.52
			c1.05,0,1.94-0.38,2.64-1.15s1.06-1.71,1.06-2.81s-0.35-2.05-1.06-2.84s-1.59-1.18-2.64-1.18c-1.08,0-1.97,0.38-2.68,1.15
			s-1.06,1.72-1.06,2.87c0,1.11,0.36,2.04,1.07,2.81S378.99,122.52,380.06,122.52z"/>
		<path class="st0" d="M387.89,123.72c-0.24,0-0.44-0.08-0.6-0.24s-0.24-0.36-0.24-0.6c0-0.23,0.08-0.42,0.24-0.58
			s0.36-0.24,0.6-0.24c0.23,0,0.42,0.08,0.58,0.24s0.24,0.35,0.24,0.58c0,0.24-0.08,0.44-0.24,0.6S388.12,123.72,387.89,123.72z"/>
	</g>
</g>
</svg>
